G04 #@! TF.GenerationSoftware,KiCad,Pcbnew,8.0.8*
G04 #@! TF.CreationDate,2025-02-09T14:04:56-05:00*
G04 #@! TF.ProjectId,AetherX_KiCad,41657468-6572-4585-9f4b-694361642e6b,rev?*
G04 #@! TF.SameCoordinates,Original*
G04 #@! TF.FileFunction,Copper,L1,Top*
G04 #@! TF.FilePolarity,Positive*
%FSLAX46Y46*%
G04 Gerber Fmt 4.6, Leading zero omitted, Abs format (unit mm)*
G04 Created by KiCad (PCBNEW 8.0.8) date 2025-02-09 14:04:56*
%MOMM*%
%LPD*%
G01*
G04 APERTURE LIST*
G04 Aperture macros list*
%AMRoundRect*
0 Rectangle with rounded corners*
0 $1 Rounding radius*
0 $2 $3 $4 $5 $6 $7 $8 $9 X,Y pos of 4 corners*
0 Add a 4 corners polygon primitive as box body*
4,1,4,$2,$3,$4,$5,$6,$7,$8,$9,$2,$3,0*
0 Add four circle primitives for the rounded corners*
1,1,$1+$1,$2,$3*
1,1,$1+$1,$4,$5*
1,1,$1+$1,$6,$7*
1,1,$1+$1,$8,$9*
0 Add four rect primitives between the rounded corners*
20,1,$1+$1,$2,$3,$4,$5,0*
20,1,$1+$1,$4,$5,$6,$7,0*
20,1,$1+$1,$6,$7,$8,$9,0*
20,1,$1+$1,$8,$9,$2,$3,0*%
G04 Aperture macros list end*
G04 #@! TA.AperFunction,SMDPad,CuDef*
%ADD10RoundRect,0.155000X-0.212500X-0.155000X0.212500X-0.155000X0.212500X0.155000X-0.212500X0.155000X0*%
G04 #@! TD*
G04 #@! TA.AperFunction,ComponentPad*
%ADD11R,1.600000X1.600000*%
G04 #@! TD*
G04 #@! TA.AperFunction,ComponentPad*
%ADD12O,1.600000X1.600000*%
G04 #@! TD*
G04 #@! TA.AperFunction,ComponentPad*
%ADD13C,1.600000*%
G04 #@! TD*
G04 #@! TA.AperFunction,SMDPad,CuDef*
%ADD14RoundRect,0.155000X0.212500X0.155000X-0.212500X0.155000X-0.212500X-0.155000X0.212500X-0.155000X0*%
G04 #@! TD*
G04 #@! TA.AperFunction,SMDPad,CuDef*
%ADD15RoundRect,0.075000X-0.700000X-0.075000X0.700000X-0.075000X0.700000X0.075000X-0.700000X0.075000X0*%
G04 #@! TD*
G04 #@! TA.AperFunction,SMDPad,CuDef*
%ADD16RoundRect,0.075000X-0.075000X-0.700000X0.075000X-0.700000X0.075000X0.700000X-0.075000X0.700000X0*%
G04 #@! TD*
G04 #@! TA.AperFunction,ComponentPad*
%ADD17C,1.500000*%
G04 #@! TD*
G04 #@! TA.AperFunction,ComponentPad*
%ADD18R,1.700000X1.700000*%
G04 #@! TD*
G04 #@! TA.AperFunction,ComponentPad*
%ADD19O,1.700000X1.700000*%
G04 #@! TD*
G04 #@! TA.AperFunction,SMDPad,CuDef*
%ADD20RoundRect,0.250000X0.337500X0.475000X-0.337500X0.475000X-0.337500X-0.475000X0.337500X-0.475000X0*%
G04 #@! TD*
G04 #@! TA.AperFunction,ComponentPad*
%ADD21R,2.250000X2.250000*%
G04 #@! TD*
G04 #@! TA.AperFunction,ComponentPad*
%ADD22C,2.250000*%
G04 #@! TD*
G04 #@! TA.AperFunction,ComponentPad*
%ADD23R,1.800000X1.800000*%
G04 #@! TD*
G04 #@! TA.AperFunction,ComponentPad*
%ADD24C,1.800000*%
G04 #@! TD*
G04 #@! TA.AperFunction,ComponentPad*
%ADD25R,3.000000X3.000000*%
G04 #@! TD*
G04 #@! TA.AperFunction,ComponentPad*
%ADD26C,3.000000*%
G04 #@! TD*
G04 #@! TA.AperFunction,ViaPad*
%ADD27C,0.600000*%
G04 #@! TD*
G04 #@! TA.AperFunction,Conductor*
%ADD28C,0.200000*%
G04 #@! TD*
G04 APERTURE END LIST*
D10*
X136365000Y-101000000D03*
X137500000Y-101000000D03*
D11*
X123630000Y-85670000D03*
D12*
X123630000Y-88210000D03*
X123630000Y-90750000D03*
X123630000Y-93290000D03*
X131250000Y-93290000D03*
X131250000Y-90750000D03*
X131250000Y-88210000D03*
X131250000Y-85670000D03*
D13*
X165750000Y-78250000D03*
D12*
X175910000Y-78250000D03*
D14*
X165635000Y-98000000D03*
X164500000Y-98000000D03*
D15*
X155900000Y-85500000D03*
X155900000Y-86000000D03*
X155900000Y-86500000D03*
X155900000Y-87000000D03*
X155900000Y-87500000D03*
X155900000Y-88000000D03*
X155900000Y-88500000D03*
X155900000Y-89000000D03*
X155900000Y-89500000D03*
X155900000Y-90000000D03*
X155900000Y-90500000D03*
X155900000Y-91000000D03*
X155900000Y-91500000D03*
X155900000Y-92000000D03*
X155900000Y-92500000D03*
X155900000Y-93000000D03*
D16*
X157825000Y-94925000D03*
X158325000Y-94925000D03*
X158825000Y-94925000D03*
X159325000Y-94925000D03*
X159825000Y-94925000D03*
X160325000Y-94925000D03*
X160825000Y-94925000D03*
X161325000Y-94925000D03*
X161825000Y-94925000D03*
X162325000Y-94925000D03*
X162825000Y-94925000D03*
X163325000Y-94925000D03*
X163825000Y-94925000D03*
X164325000Y-94925000D03*
X164825000Y-94925000D03*
X165325000Y-94925000D03*
D15*
X167250000Y-93000000D03*
X167250000Y-92500000D03*
X167250000Y-92000000D03*
X167250000Y-91500000D03*
X167250000Y-91000000D03*
X167250000Y-90500000D03*
X167250000Y-90000000D03*
X167250000Y-89500000D03*
X167250000Y-89000000D03*
X167250000Y-88500000D03*
X167250000Y-88000000D03*
X167250000Y-87500000D03*
X167250000Y-87000000D03*
X167250000Y-86500000D03*
X167250000Y-86000000D03*
X167250000Y-85500000D03*
D16*
X165325000Y-83575000D03*
X164825000Y-83575000D03*
X164325000Y-83575000D03*
X163825000Y-83575000D03*
X163325000Y-83575000D03*
X162825000Y-83575000D03*
X162325000Y-83575000D03*
X161825000Y-83575000D03*
X161325000Y-83575000D03*
X160825000Y-83575000D03*
X160325000Y-83575000D03*
X159825000Y-83575000D03*
X159325000Y-83575000D03*
X158825000Y-83575000D03*
X158325000Y-83575000D03*
X157825000Y-83575000D03*
D13*
X182750000Y-114920000D03*
D12*
X192910000Y-114920000D03*
D14*
X158750000Y-98000000D03*
X157615000Y-98000000D03*
X118250000Y-87250000D03*
X117115000Y-87250000D03*
D13*
X139580000Y-115250000D03*
D12*
X129420000Y-115250000D03*
D17*
X120500000Y-101800000D03*
X120500000Y-106680000D03*
D18*
X181275000Y-88450000D03*
D19*
X181275000Y-90990000D03*
X181275000Y-93530000D03*
X181275000Y-96070000D03*
D20*
X154325000Y-82750000D03*
X152250000Y-82750000D03*
D13*
X117500000Y-95250000D03*
X117500000Y-90250000D03*
D18*
X152000000Y-69500000D03*
D19*
X149460000Y-69500000D03*
X146920000Y-69500000D03*
D13*
X138150000Y-94500000D03*
D12*
X150850000Y-94500000D03*
D13*
X140750000Y-86500000D03*
X145750000Y-86500000D03*
D10*
X171365000Y-85500000D03*
X172500000Y-85500000D03*
D18*
X170000000Y-69500000D03*
D19*
X167460000Y-69500000D03*
X164920000Y-69500000D03*
X162380000Y-69500000D03*
X159840000Y-69500000D03*
D13*
X162790000Y-104250000D03*
X157790000Y-104250000D03*
D21*
X129750000Y-128000000D03*
D22*
X129750000Y-121500000D03*
D13*
X193250000Y-99090000D03*
D12*
X193250000Y-109250000D03*
D21*
X193750000Y-128000000D03*
D22*
X193750000Y-121500000D03*
D13*
X150170000Y-78000000D03*
D12*
X160330000Y-78000000D03*
D18*
X135000000Y-78750000D03*
D19*
X135000000Y-76210000D03*
X135000000Y-73670000D03*
X135000000Y-71130000D03*
X135000000Y-68590000D03*
D10*
X188682500Y-95750000D03*
X189817500Y-95750000D03*
D23*
X184750000Y-79000000D03*
D24*
X182210000Y-79000000D03*
D18*
X141460000Y-105750000D03*
D19*
X144000000Y-105750000D03*
X146540000Y-105750000D03*
D25*
X195000000Y-88749999D03*
D26*
X215490000Y-88749999D03*
D10*
X140115000Y-76500000D03*
X141250000Y-76500000D03*
D13*
X171000000Y-97500000D03*
X171000000Y-102500000D03*
X130000000Y-99420000D03*
D12*
X130000000Y-109580000D03*
D13*
X119000000Y-114250000D03*
X124000000Y-114250000D03*
D18*
X156950000Y-110500000D03*
D19*
X159490000Y-110500000D03*
X162030000Y-110500000D03*
X164570000Y-110500000D03*
D27*
X165750000Y-81250000D03*
X160000000Y-99250000D03*
X164000000Y-72750000D03*
X158250000Y-86250000D03*
X171500000Y-82750000D03*
X163000000Y-75500000D03*
X164500000Y-90000000D03*
X159000000Y-92250000D03*
X153000000Y-80750000D03*
X161000000Y-87750000D03*
X153750000Y-89750000D03*
X153250000Y-85250000D03*
X151500000Y-85250000D03*
X153000000Y-91250000D03*
X164325000Y-96750000D03*
X186500000Y-97750000D03*
X160750000Y-98250000D03*
X176750000Y-91000000D03*
X157750000Y-80500000D03*
X169500000Y-91000000D03*
X174750000Y-96500000D03*
X159000000Y-81500000D03*
X177250000Y-96000000D03*
X148200000Y-90700000D03*
X139250000Y-80500000D03*
X160250000Y-97000000D03*
D28*
X159325000Y-95732410D02*
X159325000Y-94925000D01*
X160250000Y-97000000D02*
X160250000Y-96657410D01*
X160250000Y-96657410D02*
X159325000Y-95732410D01*
X131250000Y-93290000D02*
X131960000Y-93290000D01*
X131960000Y-93290000D02*
X136250000Y-89000000D01*
X136250000Y-89000000D02*
X155900000Y-89000000D01*
X153750000Y-89750000D02*
X137000000Y-89750000D01*
X137000000Y-89750000D02*
X128500000Y-98250000D01*
X128500000Y-98250000D02*
X120500000Y-98250000D01*
X153250000Y-85250000D02*
X153250000Y-85657410D01*
X155092590Y-87500000D02*
X155900000Y-87500000D01*
X153250000Y-85657410D02*
X155092590Y-87500000D01*
X148200000Y-90700000D02*
X148400000Y-90500000D01*
X148400000Y-90500000D02*
X155900000Y-90500000D01*
X161325000Y-97675000D02*
X161325000Y-94925000D01*
X160750000Y-98250000D02*
X161325000Y-97675000D01*
X165635000Y-98000000D02*
X165635000Y-97865000D01*
X165635000Y-101405000D02*
X162790000Y-104250000D01*
X165325000Y-97555000D02*
X165325000Y-94925000D01*
X154400000Y-85500000D02*
X154325000Y-85425000D01*
X140115000Y-76245000D02*
X135000000Y-71130000D01*
X138150000Y-94500000D02*
X138150000Y-98650000D01*
X171365000Y-82885000D02*
X171500000Y-82750000D01*
X158750000Y-98000000D02*
X158825000Y-97925000D01*
X158825000Y-92425000D02*
X159000000Y-92250000D01*
X157000000Y-82750000D02*
X157825000Y-83575000D01*
X154325000Y-78425000D02*
X157250000Y-75500000D01*
X138750000Y-99250000D02*
X158750000Y-99250000D01*
X118250000Y-87250000D02*
X122050000Y-87250000D01*
X165635000Y-98000000D02*
X165635000Y-101405000D01*
X167250000Y-85500000D02*
X171365000Y-85500000D01*
X155900000Y-85500000D02*
X154400000Y-85500000D01*
X171365000Y-85500000D02*
X171365000Y-82885000D01*
X122050000Y-87250000D02*
X123630000Y-85670000D01*
X138150000Y-98650000D02*
X138750000Y-99250000D01*
X165325000Y-90825000D02*
X164500000Y-90000000D01*
X165325000Y-94925000D02*
X165325000Y-90825000D01*
X140115000Y-76500000D02*
X140115000Y-76245000D01*
X158750000Y-99250000D02*
X158750000Y-98000000D01*
X158825000Y-97925000D02*
X158825000Y-94925000D01*
X157500000Y-85500000D02*
X155900000Y-85500000D01*
X154325000Y-82750000D02*
X157000000Y-82750000D01*
X154325000Y-85425000D02*
X154325000Y-82750000D01*
X165635000Y-97865000D02*
X165325000Y-97555000D01*
X157250000Y-75500000D02*
X163000000Y-75500000D01*
X158250000Y-86250000D02*
X157500000Y-85500000D01*
X154325000Y-82750000D02*
X154325000Y-78425000D01*
X158825000Y-94925000D02*
X158825000Y-92425000D01*
X157750000Y-91000000D02*
X161000000Y-87750000D01*
X123130000Y-90250000D02*
X123630000Y-90750000D01*
X158325000Y-97290000D02*
X157615000Y-98000000D01*
X167250000Y-86000000D02*
X162750000Y-86000000D01*
X164825000Y-94925000D02*
X164825000Y-94117590D01*
X158325000Y-85075000D02*
X161000000Y-87750000D01*
X117115000Y-89865000D02*
X117500000Y-90250000D01*
X152250000Y-82750000D02*
X152250000Y-81500000D01*
X155900000Y-91000000D02*
X157750000Y-91000000D01*
X117500000Y-90250000D02*
X123130000Y-90250000D01*
X131250000Y-85670000D02*
X139920000Y-85670000D01*
X162750000Y-86000000D02*
X161000000Y-87750000D01*
X161000000Y-90292590D02*
X161000000Y-87750000D01*
X158325000Y-83575000D02*
X158325000Y-85075000D01*
X164825000Y-94117590D02*
X161000000Y-90292590D01*
X139920000Y-85670000D02*
X140750000Y-86500000D01*
X158325000Y-94925000D02*
X158325000Y-97290000D01*
X152250000Y-81500000D02*
X153000000Y-80750000D01*
X145750000Y-86130000D02*
X145750000Y-86500000D01*
X151750000Y-86500000D02*
X153750000Y-88500000D01*
X162380000Y-69500000D02*
X145750000Y-86130000D01*
X153750000Y-88500000D02*
X155900000Y-88500000D01*
X145750000Y-86500000D02*
X151750000Y-86500000D01*
X120500000Y-101800000D02*
X120500000Y-98250000D01*
X120500000Y-98250000D02*
X117500000Y-95250000D01*
X152750000Y-91500000D02*
X153000000Y-91250000D01*
X124295635Y-106680000D02*
X129975635Y-101000000D01*
X119000000Y-114250000D02*
X119000000Y-108180000D01*
X132500000Y-97000000D02*
X138000000Y-91500000D01*
X155900000Y-88000000D02*
X154401471Y-88000000D01*
X132500000Y-100750000D02*
X132500000Y-97000000D01*
X151651471Y-85250000D02*
X151500000Y-85250000D01*
X138000000Y-91500000D02*
X152750000Y-91500000D01*
X119000000Y-108180000D02*
X120500000Y-106680000D01*
X129975635Y-101000000D02*
X132250000Y-101000000D01*
X120500000Y-106680000D02*
X124295635Y-106680000D01*
X154401471Y-88000000D02*
X151651471Y-85250000D01*
X132250000Y-101000000D02*
X132500000Y-100750000D01*
X164325000Y-96750000D02*
X164325000Y-94925000D01*
X188682500Y-95750000D02*
X188682500Y-104682500D01*
X192910000Y-114920000D02*
X192910000Y-109590000D01*
X188682500Y-104682500D02*
X193250000Y-109250000D01*
X192910000Y-109590000D02*
X193250000Y-109250000D01*
X188682500Y-95750000D02*
X188500000Y-95750000D01*
X188500000Y-95750000D02*
X186500000Y-97750000D01*
X161610000Y-100390000D02*
X161825000Y-100175000D01*
X136975000Y-100390000D02*
X161610000Y-100390000D01*
X130000000Y-107365000D02*
X136365000Y-101000000D01*
X130000000Y-109580000D02*
X130000000Y-107365000D01*
X129420000Y-110160000D02*
X130000000Y-109580000D01*
X136365000Y-101000000D02*
X136975000Y-100390000D01*
X161825000Y-100175000D02*
X161825000Y-94925000D01*
X129420000Y-115250000D02*
X129420000Y-110160000D01*
X181460000Y-78250000D02*
X182210000Y-79000000D01*
X175910000Y-78250000D02*
X181460000Y-78250000D01*
X153850000Y-91500000D02*
X150850000Y-94500000D01*
X155900000Y-91500000D02*
X153850000Y-91500000D01*
X164920000Y-69500000D02*
X166850000Y-71430000D01*
X166850000Y-71430000D02*
X166850000Y-82050000D01*
X166850000Y-82050000D02*
X165325000Y-83575000D01*
X167460000Y-74460000D02*
X174750000Y-81750000D01*
X174750000Y-81750000D02*
X174750000Y-86500000D01*
X167460000Y-69500000D02*
X167460000Y-74460000D01*
X174750000Y-86500000D02*
X167250000Y-86500000D01*
X159825000Y-78505000D02*
X160330000Y-78000000D01*
X159825000Y-83575000D02*
X159825000Y-78505000D01*
X182750000Y-114920000D02*
X182750000Y-119250000D01*
X191500000Y-119250000D02*
X193750000Y-121500000D01*
X182750000Y-119250000D02*
X191500000Y-119250000D01*
X130000000Y-121500000D02*
X136250000Y-115250000D01*
X136250000Y-115250000D02*
X139580000Y-115250000D01*
X129750000Y-121500000D02*
X130000000Y-121500000D01*
X181275000Y-90990000D02*
X176760000Y-90990000D01*
X157750000Y-81098529D02*
X157750000Y-80500000D01*
X176760000Y-90990000D02*
X176750000Y-91000000D01*
X158825000Y-83575000D02*
X158825000Y-82173529D01*
X158825000Y-82173529D02*
X157750000Y-81098529D01*
X123630000Y-93290000D02*
X131250000Y-93290000D01*
X174750000Y-110250000D02*
X174500000Y-110500000D01*
X167250000Y-89500000D02*
X168057410Y-89500000D01*
X168057410Y-89500000D02*
X169500000Y-90942590D01*
X169500000Y-90942590D02*
X169500000Y-91000000D01*
X174750000Y-96500000D02*
X174750000Y-110250000D01*
X174500000Y-110500000D02*
X164570000Y-110500000D01*
X165530000Y-107000000D02*
X162030000Y-110500000D01*
X172500000Y-89250000D02*
X172500000Y-91750000D01*
X172250000Y-89000000D02*
X172500000Y-89250000D01*
X167250000Y-97000000D02*
X167250000Y-107000000D01*
X167250000Y-89000000D02*
X172250000Y-89000000D01*
X167250000Y-107000000D02*
X165530000Y-107000000D01*
X172500000Y-91750000D02*
X167250000Y-97000000D01*
X177320000Y-96070000D02*
X177250000Y-96000000D01*
X181275000Y-96070000D02*
X177320000Y-96070000D01*
X159325000Y-81825000D02*
X159000000Y-81500000D01*
X159325000Y-83575000D02*
X159325000Y-81825000D01*
X139250000Y-80460000D02*
X139250000Y-80500000D01*
X135000000Y-76210000D02*
X139250000Y-80460000D01*
X149460000Y-69500000D02*
X149460000Y-77290000D01*
X149460000Y-77290000D02*
X150170000Y-78000000D01*
X164325000Y-81075000D02*
X165750000Y-79650000D01*
X164325000Y-81075000D02*
X164325000Y-83575000D01*
X165750000Y-79650000D02*
X165750000Y-78250000D01*
G04 #@! TA.AperFunction,Conductor*
G36*
X159548574Y-96524146D02*
G01*
X159565207Y-96539010D01*
X159630825Y-96604628D01*
X159677943Y-96679614D01*
X159687859Y-96767621D01*
X159673963Y-96821492D01*
X159664957Y-96843234D01*
X159664956Y-96843236D01*
X159664956Y-96843238D01*
X159644318Y-97000000D01*
X159664956Y-97156762D01*
X159668738Y-97165892D01*
X159725463Y-97302840D01*
X159725464Y-97302843D01*
X159770982Y-97362162D01*
X159821718Y-97428282D01*
X159876209Y-97470094D01*
X159947156Y-97524535D01*
X159947159Y-97524536D01*
X160093238Y-97585044D01*
X160123970Y-97589090D01*
X160207000Y-97619898D01*
X160268442Y-97683681D01*
X160296125Y-97767807D01*
X160284565Y-97855612D01*
X160255871Y-97907531D01*
X160225465Y-97947156D01*
X160225463Y-97947159D01*
X160164957Y-98093235D01*
X160164956Y-98093237D01*
X160144318Y-98250000D01*
X160164956Y-98406762D01*
X160164957Y-98406764D01*
X160225463Y-98552840D01*
X160225464Y-98552843D01*
X160287396Y-98633552D01*
X160321718Y-98678282D01*
X160376209Y-98720094D01*
X160447156Y-98774535D01*
X160447159Y-98774536D01*
X160593238Y-98835044D01*
X160750000Y-98855682D01*
X160906762Y-98835044D01*
X161052841Y-98774536D01*
X161104355Y-98735007D01*
X161184852Y-98698080D01*
X161273400Y-98699735D01*
X161352461Y-98739646D01*
X161406375Y-98809907D01*
X161424500Y-98892884D01*
X161424500Y-99790500D01*
X161404793Y-99876843D01*
X161349574Y-99946084D01*
X161269782Y-99984511D01*
X161225500Y-99989500D01*
X159012828Y-99989500D01*
X158926485Y-99969793D01*
X158857244Y-99914574D01*
X158818817Y-99834782D01*
X158818817Y-99746218D01*
X158857244Y-99666426D01*
X158913328Y-99618161D01*
X158995910Y-99570482D01*
X158995910Y-99570481D01*
X158995913Y-99570480D01*
X159070480Y-99495913D01*
X159070481Y-99495910D01*
X159070484Y-99495907D01*
X159123205Y-99404590D01*
X159123204Y-99404590D01*
X159123207Y-99404587D01*
X159150500Y-99302727D01*
X159150500Y-98682830D01*
X159170207Y-98596487D01*
X159225426Y-98527246D01*
X159231314Y-98522726D01*
X159288225Y-98480725D01*
X159369763Y-98370245D01*
X159415114Y-98240639D01*
X159418000Y-98209864D01*
X159418000Y-97790136D01*
X159415114Y-97759361D01*
X159369763Y-97629755D01*
X159362489Y-97619898D01*
X159288224Y-97519273D01*
X159283786Y-97514835D01*
X159236667Y-97439847D01*
X159225500Y-97374121D01*
X159225500Y-96679730D01*
X159245207Y-96593387D01*
X159300426Y-96524146D01*
X159380218Y-96485719D01*
X159468782Y-96485719D01*
X159548574Y-96524146D01*
G37*
G04 #@! TD.AperFunction*
G04 #@! TA.AperFunction,Conductor*
G36*
X153831374Y-78833822D02*
G01*
X153893998Y-78896446D01*
X153923249Y-78980039D01*
X153924500Y-79002320D01*
X153924500Y-81572645D01*
X153904793Y-81658988D01*
X153849574Y-81728229D01*
X153798506Y-81757770D01*
X153715161Y-81790637D01*
X153715157Y-81790639D01*
X153694040Y-81806653D01*
X153594578Y-81882078D01*
X153594576Y-81882079D01*
X153594575Y-81882081D01*
X153566985Y-81918463D01*
X153499110Y-81975353D01*
X153413273Y-81997159D01*
X153326476Y-81979562D01*
X153255909Y-81926048D01*
X153239051Y-81902688D01*
X153179822Y-81806663D01*
X153179814Y-81806653D01*
X153055846Y-81682685D01*
X153055842Y-81682682D01*
X152906621Y-81590642D01*
X152740200Y-81535495D01*
X152637470Y-81525000D01*
X152500000Y-81525000D01*
X152500000Y-83974999D01*
X152637477Y-83974999D01*
X152637483Y-83974998D01*
X152740195Y-83964506D01*
X152740196Y-83964506D01*
X152906620Y-83909358D01*
X153055842Y-83817317D01*
X153055846Y-83817314D01*
X153179814Y-83693346D01*
X153179820Y-83693338D01*
X153239050Y-83597312D01*
X153301151Y-83534169D01*
X153384498Y-83504224D01*
X153472584Y-83513408D01*
X153547962Y-83559901D01*
X153566981Y-83581531D01*
X153594578Y-83617922D01*
X153715158Y-83709361D01*
X153715162Y-83709362D01*
X153715165Y-83709364D01*
X153798504Y-83742229D01*
X153871597Y-83792237D01*
X153915754Y-83869007D01*
X153924500Y-83927354D01*
X153924500Y-84607115D01*
X153904793Y-84693458D01*
X153849574Y-84762699D01*
X153769782Y-84801126D01*
X153681218Y-84801126D01*
X153604357Y-84764992D01*
X153552847Y-84725467D01*
X153552840Y-84725463D01*
X153439856Y-84678664D01*
X153406762Y-84664956D01*
X153250000Y-84644318D01*
X153093237Y-84664956D01*
X153093235Y-84664957D01*
X152947159Y-84725463D01*
X152947156Y-84725464D01*
X152821718Y-84821718D01*
X152725464Y-84947156D01*
X152725463Y-84947159D01*
X152664957Y-85093235D01*
X152664954Y-85093244D01*
X152647376Y-85226763D01*
X152616567Y-85309795D01*
X152552783Y-85371236D01*
X152468657Y-85398918D01*
X152380852Y-85387358D01*
X152309365Y-85341501D01*
X152129963Y-85162099D01*
X152086825Y-85097538D01*
X152085043Y-85093237D01*
X152054408Y-85019277D01*
X152024537Y-84947161D01*
X152024535Y-84947156D01*
X151949983Y-84850000D01*
X151928282Y-84821718D01*
X151870346Y-84777262D01*
X151802843Y-84725464D01*
X151802840Y-84725463D01*
X151689856Y-84678664D01*
X151656762Y-84664956D01*
X151500000Y-84644318D01*
X151343237Y-84664956D01*
X151343235Y-84664957D01*
X151197159Y-84725463D01*
X151197156Y-84725464D01*
X151071718Y-84821718D01*
X150975464Y-84947156D01*
X150975463Y-84947159D01*
X150914957Y-85093235D01*
X150914956Y-85093237D01*
X150897783Y-85223678D01*
X150894318Y-85250000D01*
X150914956Y-85406762D01*
X150922541Y-85425074D01*
X150975463Y-85552840D01*
X150975464Y-85552843D01*
X151025477Y-85618020D01*
X151071718Y-85678282D01*
X151129554Y-85722661D01*
X151155569Y-85742623D01*
X151212072Y-85810820D01*
X151233390Y-85896779D01*
X151215301Y-85983476D01*
X151161387Y-86053737D01*
X151082326Y-86093649D01*
X151034425Y-86099500D01*
X146903176Y-86099500D01*
X146816833Y-86079793D01*
X146747592Y-86024574D01*
X146725038Y-85989201D01*
X146699822Y-85938560D01*
X146678977Y-85852485D01*
X146697543Y-85765890D01*
X146737243Y-85709148D01*
X149171409Y-83274983D01*
X151162501Y-83274983D01*
X151172993Y-83377695D01*
X151172993Y-83377696D01*
X151228141Y-83544120D01*
X151320182Y-83693342D01*
X151320185Y-83693346D01*
X151444153Y-83817314D01*
X151444157Y-83817317D01*
X151593378Y-83909357D01*
X151759799Y-83964504D01*
X151862529Y-83974999D01*
X151999999Y-83974998D01*
X152000000Y-83974998D01*
X152000000Y-83000000D01*
X151162501Y-83000000D01*
X151162501Y-83274983D01*
X149171409Y-83274983D01*
X150221363Y-82225029D01*
X151162500Y-82225029D01*
X151162500Y-82500000D01*
X152000000Y-82500000D01*
X152000000Y-81525000D01*
X151999999Y-81524999D01*
X151862533Y-81525000D01*
X151862523Y-81525001D01*
X151759804Y-81535493D01*
X151759803Y-81535493D01*
X151593379Y-81590641D01*
X151444157Y-81682682D01*
X151444153Y-81682685D01*
X151320185Y-81806653D01*
X151320182Y-81806657D01*
X151228142Y-81955878D01*
X151172995Y-82122299D01*
X151162500Y-82225029D01*
X150221363Y-82225029D01*
X153584786Y-78861606D01*
X153659774Y-78814487D01*
X153747781Y-78804571D01*
X153831374Y-78833822D01*
G37*
G04 #@! TD.AperFunction*
G04 #@! TA.AperFunction,Conductor*
G36*
X163745686Y-69793172D02*
G01*
X163811916Y-69851968D01*
X163841401Y-69913195D01*
X163842595Y-69917389D01*
X163937634Y-70108255D01*
X163937635Y-70108256D01*
X163937636Y-70108258D01*
X164066124Y-70278403D01*
X164066129Y-70278408D01*
X164223695Y-70422050D01*
X164223700Y-70422054D01*
X164404978Y-70534297D01*
X164404980Y-70534298D01*
X164603796Y-70611319D01*
X164603798Y-70611320D01*
X164603800Y-70611320D01*
X164603802Y-70611321D01*
X164813390Y-70650500D01*
X164813392Y-70650500D01*
X165026608Y-70650500D01*
X165026610Y-70650500D01*
X165236198Y-70611321D01*
X165280151Y-70594293D01*
X165367779Y-70581480D01*
X165452292Y-70607956D01*
X165492749Y-70639142D01*
X166391214Y-71537607D01*
X166438333Y-71612595D01*
X166449500Y-71678321D01*
X166449500Y-77050286D01*
X166429793Y-77136629D01*
X166374574Y-77205870D01*
X166294782Y-77244297D01*
X166206218Y-77244297D01*
X166178614Y-77235848D01*
X166052465Y-77186978D01*
X166052459Y-77186977D01*
X166052458Y-77186976D01*
X166052456Y-77186976D01*
X165851976Y-77149500D01*
X165648024Y-77149500D01*
X165447544Y-77186976D01*
X165447542Y-77186976D01*
X165447540Y-77186977D01*
X165447538Y-77186977D01*
X165257363Y-77260651D01*
X165257360Y-77260652D01*
X165083962Y-77368016D01*
X165083957Y-77368020D01*
X164933241Y-77505414D01*
X164933233Y-77505424D01*
X164810329Y-77668174D01*
X164724581Y-77840382D01*
X164719418Y-77850750D01*
X164710924Y-77880603D01*
X164679053Y-77992618D01*
X164663603Y-78046917D01*
X164644785Y-78250000D01*
X164663603Y-78453083D01*
X164695296Y-78564472D01*
X164719419Y-78649252D01*
X164810329Y-78831825D01*
X164933233Y-78994575D01*
X164933241Y-78994585D01*
X165067498Y-79116975D01*
X165083959Y-79131981D01*
X165251827Y-79235920D01*
X165314861Y-79298127D01*
X165344663Y-79381526D01*
X165335329Y-79469596D01*
X165288706Y-79544894D01*
X165287780Y-79545826D01*
X164004521Y-80829085D01*
X164004517Y-80829090D01*
X163951792Y-80920412D01*
X163945491Y-80943933D01*
X163945489Y-80943941D01*
X163924500Y-81022272D01*
X163924500Y-82300500D01*
X163904793Y-82386843D01*
X163849574Y-82456084D01*
X163769782Y-82494511D01*
X163725500Y-82499500D01*
X163714364Y-82499500D01*
X163641372Y-82510134D01*
X163633749Y-82512490D01*
X163545437Y-82519152D01*
X163516251Y-82512490D01*
X163508627Y-82510134D01*
X163435636Y-82499500D01*
X163214364Y-82499500D01*
X163141372Y-82510134D01*
X163133749Y-82512490D01*
X163045437Y-82519152D01*
X163016251Y-82512490D01*
X163008627Y-82510134D01*
X162935636Y-82499500D01*
X162714364Y-82499500D01*
X162641372Y-82510134D01*
X162633749Y-82512490D01*
X162545437Y-82519152D01*
X162516251Y-82512490D01*
X162508627Y-82510134D01*
X162435636Y-82499500D01*
X162214364Y-82499500D01*
X162141372Y-82510134D01*
X162133749Y-82512490D01*
X162045437Y-82519152D01*
X162016251Y-82512490D01*
X162008627Y-82510134D01*
X161935636Y-82499500D01*
X161714364Y-82499500D01*
X161641372Y-82510134D01*
X161633749Y-82512490D01*
X161545437Y-82519152D01*
X161516251Y-82512490D01*
X161508627Y-82510134D01*
X161435636Y-82499500D01*
X161214364Y-82499500D01*
X161141372Y-82510134D01*
X161133749Y-82512490D01*
X161045437Y-82519152D01*
X161016251Y-82512490D01*
X161008627Y-82510134D01*
X160935636Y-82499500D01*
X160714364Y-82499500D01*
X160641372Y-82510134D01*
X160633749Y-82512490D01*
X160545437Y-82519152D01*
X160516251Y-82512490D01*
X160508627Y-82510134D01*
X160435636Y-82499500D01*
X160424500Y-82499500D01*
X160338157Y-82479793D01*
X160268916Y-82424574D01*
X160230489Y-82344782D01*
X160225500Y-82300500D01*
X160225500Y-79299500D01*
X160245207Y-79213157D01*
X160300426Y-79143916D01*
X160380218Y-79105489D01*
X160424500Y-79100500D01*
X160431972Y-79100500D01*
X160431976Y-79100500D01*
X160632456Y-79063024D01*
X160822637Y-78989348D01*
X160996041Y-78881981D01*
X161109594Y-78778464D01*
X161146758Y-78744585D01*
X161146759Y-78744583D01*
X161146764Y-78744579D01*
X161269673Y-78581821D01*
X161360582Y-78399250D01*
X161416397Y-78203083D01*
X161435215Y-78000000D01*
X161416397Y-77796917D01*
X161360582Y-77600750D01*
X161269673Y-77418179D01*
X161269671Y-77418177D01*
X161269670Y-77418174D01*
X161150714Y-77260652D01*
X161146764Y-77255421D01*
X161146762Y-77255419D01*
X161146758Y-77255414D01*
X160996042Y-77118020D01*
X160996037Y-77118016D01*
X160822639Y-77010652D01*
X160822636Y-77010651D01*
X160632460Y-76936977D01*
X160632457Y-76936976D01*
X160632456Y-76936976D01*
X160431976Y-76899500D01*
X160228024Y-76899500D01*
X160027544Y-76936976D01*
X160027542Y-76936976D01*
X160027540Y-76936977D01*
X160027538Y-76936977D01*
X159837363Y-77010651D01*
X159837360Y-77010652D01*
X159663962Y-77118016D01*
X159663957Y-77118020D01*
X159513241Y-77255414D01*
X159513233Y-77255424D01*
X159390329Y-77418174D01*
X159299419Y-77600747D01*
X159243603Y-77796916D01*
X159243603Y-77796917D01*
X159235849Y-77880603D01*
X159224785Y-78000000D01*
X159243603Y-78203083D01*
X159289761Y-78365311D01*
X159299419Y-78399253D01*
X159299420Y-78399255D01*
X159390327Y-78581822D01*
X159394691Y-78588870D01*
X159423391Y-78672654D01*
X159424500Y-78693633D01*
X159424500Y-80728032D01*
X159404793Y-80814375D01*
X159349574Y-80883616D01*
X159269782Y-80922043D01*
X159181218Y-80922043D01*
X159169375Y-80918269D01*
X159169359Y-80918332D01*
X159156762Y-80914956D01*
X159000000Y-80894318D01*
X158843237Y-80914956D01*
X158843235Y-80914957D01*
X158697159Y-80975463D01*
X158697156Y-80975464D01*
X158571716Y-81071719D01*
X158571364Y-81072072D01*
X158570774Y-81072442D01*
X158561371Y-81079658D01*
X158560694Y-81078776D01*
X158496376Y-81119191D01*
X158408369Y-81129107D01*
X158324776Y-81099856D01*
X158289936Y-81072072D01*
X158287732Y-81069868D01*
X158240613Y-80994880D01*
X158230697Y-80906873D01*
X158259948Y-80823280D01*
X158270576Y-80808002D01*
X158274535Y-80802843D01*
X158274536Y-80802840D01*
X158335044Y-80656762D01*
X158355682Y-80500000D01*
X158335044Y-80343238D01*
X158274536Y-80197159D01*
X158274535Y-80197156D01*
X158220094Y-80126209D01*
X158178282Y-80071718D01*
X158136468Y-80039633D01*
X158052843Y-79975464D01*
X158052840Y-79975463D01*
X157906764Y-79914957D01*
X157906762Y-79914956D01*
X157750000Y-79894318D01*
X157593237Y-79914956D01*
X157593235Y-79914957D01*
X157447159Y-79975463D01*
X157447156Y-79975464D01*
X157321718Y-80071718D01*
X157225464Y-80197156D01*
X157225463Y-80197159D01*
X157164957Y-80343235D01*
X157164956Y-80343237D01*
X157144318Y-80500000D01*
X157164956Y-80656762D01*
X157164957Y-80656764D01*
X157225463Y-80802840D01*
X157225465Y-80802843D01*
X157308377Y-80910896D01*
X157345305Y-80991394D01*
X157349500Y-81032040D01*
X157349500Y-81151255D01*
X157376793Y-81253118D01*
X157429518Y-81344439D01*
X157429526Y-81344449D01*
X158101421Y-82016342D01*
X158148540Y-82091330D01*
X158158456Y-82179337D01*
X158129205Y-82262930D01*
X158066582Y-82325554D01*
X158036862Y-82340907D01*
X157960023Y-82372735D01*
X157960022Y-82372735D01*
X157848413Y-82458377D01*
X157767916Y-82495305D01*
X157727269Y-82499500D01*
X157714363Y-82499500D01*
X157641376Y-82510133D01*
X157641374Y-82510133D01*
X157557551Y-82551112D01*
X157471325Y-82571328D01*
X157384868Y-82552130D01*
X157329438Y-82513045D01*
X157245912Y-82429519D01*
X157154589Y-82376793D01*
X157103657Y-82363146D01*
X157052727Y-82349500D01*
X157052726Y-82349500D01*
X155403655Y-82349500D01*
X155317312Y-82329793D01*
X155248071Y-82274574D01*
X155209644Y-82194782D01*
X155206075Y-82174227D01*
X155204289Y-82159359D01*
X155202377Y-82143436D01*
X155181829Y-82091330D01*
X155146864Y-82002665D01*
X155146862Y-82002662D01*
X155146861Y-82002658D01*
X155055422Y-81882078D01*
X154934842Y-81790639D01*
X154934838Y-81790637D01*
X154851494Y-81757770D01*
X154778402Y-81707761D01*
X154734245Y-81630990D01*
X154725500Y-81572645D01*
X154725500Y-78673320D01*
X154745207Y-78586977D01*
X154783786Y-78532606D01*
X157357606Y-75958786D01*
X157432594Y-75911667D01*
X157498320Y-75900500D01*
X162467961Y-75900500D01*
X162554304Y-75920207D01*
X162589101Y-75941621D01*
X162611472Y-75958786D01*
X162697156Y-76024535D01*
X162697159Y-76024536D01*
X162843238Y-76085044D01*
X163000000Y-76105682D01*
X163156762Y-76085044D01*
X163302841Y-76024536D01*
X163302841Y-76024535D01*
X163302843Y-76024535D01*
X163337829Y-75997689D01*
X163428282Y-75928282D01*
X163502179Y-75831976D01*
X163524535Y-75802843D01*
X163524536Y-75802840D01*
X163528773Y-75792611D01*
X163585044Y-75656762D01*
X163605682Y-75500000D01*
X163585044Y-75343238D01*
X163524536Y-75197159D01*
X163524535Y-75197156D01*
X163452523Y-75103310D01*
X163428282Y-75071718D01*
X163366843Y-75024574D01*
X163302843Y-74975464D01*
X163302840Y-74975463D01*
X163156764Y-74914957D01*
X163156762Y-74914956D01*
X163000000Y-74894318D01*
X162843237Y-74914956D01*
X162843235Y-74914957D01*
X162697159Y-74975463D01*
X162697156Y-74975464D01*
X162633157Y-75024574D01*
X162589103Y-75058377D01*
X162508608Y-75095305D01*
X162467961Y-75099500D01*
X157827320Y-75099500D01*
X157740977Y-75079793D01*
X157671736Y-75024574D01*
X157633309Y-74944782D01*
X157633309Y-74856218D01*
X157671736Y-74776426D01*
X157686606Y-74759786D01*
X158564083Y-73882309D01*
X161807250Y-70639140D01*
X161882236Y-70592023D01*
X161970243Y-70582107D01*
X162019849Y-70594294D01*
X162063796Y-70611319D01*
X162063798Y-70611320D01*
X162063800Y-70611320D01*
X162063802Y-70611321D01*
X162273390Y-70650500D01*
X162273392Y-70650500D01*
X162486608Y-70650500D01*
X162486610Y-70650500D01*
X162696198Y-70611321D01*
X162895019Y-70534298D01*
X162913646Y-70522765D01*
X163076299Y-70422054D01*
X163076299Y-70422053D01*
X163076302Y-70422052D01*
X163233872Y-70278407D01*
X163362366Y-70108255D01*
X163457405Y-69917389D01*
X163458597Y-69913196D01*
X163460065Y-69910520D01*
X163460724Y-69908820D01*
X163460949Y-69908907D01*
X163501181Y-69835545D01*
X163573241Y-69784058D01*
X163660503Y-69768935D01*
X163745686Y-69793172D01*
G37*
G04 #@! TD.AperFunction*
G04 #@! TA.AperFunction,Conductor*
G36*
X166309152Y-79791948D02*
G01*
X166385851Y-79836227D01*
X166435742Y-79909401D01*
X166449500Y-79982108D01*
X166449500Y-81801679D01*
X166429793Y-81888022D01*
X166391214Y-81942393D01*
X165820561Y-82513045D01*
X165745572Y-82560164D01*
X165657566Y-82570080D01*
X165592448Y-82551111D01*
X165508630Y-82510135D01*
X165508623Y-82510133D01*
X165435637Y-82499500D01*
X165435636Y-82499500D01*
X165214364Y-82499500D01*
X165141372Y-82510134D01*
X165133749Y-82512490D01*
X165045437Y-82519152D01*
X165016251Y-82512490D01*
X165008627Y-82510134D01*
X164935636Y-82499500D01*
X164924500Y-82499500D01*
X164838157Y-82479793D01*
X164768916Y-82424574D01*
X164730489Y-82344782D01*
X164725500Y-82300500D01*
X164725500Y-81323321D01*
X164745207Y-81236978D01*
X164783786Y-81182607D01*
X165309631Y-80656762D01*
X166070480Y-79895913D01*
X166078161Y-79882608D01*
X166138395Y-79817689D01*
X166220836Y-79785331D01*
X166309152Y-79791948D01*
G37*
G04 #@! TD.AperFunction*
G04 #@! TA.AperFunction,Conductor*
G36*
X224781312Y-63270207D02*
G01*
X224840794Y-63314089D01*
X227696327Y-66389277D01*
X227740637Y-66465957D01*
X227749500Y-66524686D01*
X227749500Y-131001648D01*
X227729793Y-131087991D01*
X227704947Y-131127136D01*
X224821505Y-134675988D01*
X224751762Y-134730573D01*
X224667058Y-134749500D01*
X99553046Y-134749500D01*
X99466703Y-134729793D01*
X99407868Y-134686604D01*
X96054322Y-131109488D01*
X96009646Y-131033019D01*
X96000500Y-130973384D01*
X96000500Y-129115191D01*
X100099500Y-129115191D01*
X100099500Y-129384808D01*
X100129687Y-129652726D01*
X100189685Y-129915596D01*
X100278727Y-130170063D01*
X100278733Y-130170079D01*
X100395716Y-130412997D01*
X100515910Y-130604284D01*
X100539165Y-130641293D01*
X100539174Y-130641306D01*
X100707258Y-130852076D01*
X100707266Y-130852085D01*
X100897914Y-131042733D01*
X100897923Y-131042741D01*
X101108693Y-131210825D01*
X101108705Y-131210833D01*
X101108711Y-131210838D01*
X101337003Y-131354284D01*
X101579921Y-131471267D01*
X101834409Y-131560316D01*
X102097268Y-131620312D01*
X102365191Y-131650500D01*
X102365192Y-131650500D01*
X102634808Y-131650500D01*
X102634809Y-131650500D01*
X102902732Y-131620312D01*
X103165591Y-131560316D01*
X103420079Y-131471267D01*
X103662997Y-131354284D01*
X103891289Y-131210838D01*
X103891300Y-131210828D01*
X103891306Y-131210825D01*
X104102076Y-131042741D01*
X104102085Y-131042734D01*
X104292734Y-130852085D01*
X104397058Y-130721267D01*
X104460825Y-130641306D01*
X104460828Y-130641300D01*
X104460838Y-130641289D01*
X104604284Y-130412997D01*
X104721267Y-130170079D01*
X104810316Y-129915591D01*
X104870312Y-129652732D01*
X104900500Y-129384809D01*
X104900500Y-129115191D01*
X104870312Y-128847268D01*
X104810316Y-128584409D01*
X104721267Y-128329921D01*
X104604284Y-128087003D01*
X104460838Y-127858711D01*
X104460833Y-127858705D01*
X104460825Y-127858693D01*
X104292741Y-127647923D01*
X104292733Y-127647914D01*
X104102085Y-127457266D01*
X104102076Y-127457258D01*
X103891306Y-127289174D01*
X103891293Y-127289165D01*
X103891291Y-127289164D01*
X103891289Y-127289162D01*
X103662997Y-127145716D01*
X103420079Y-127028733D01*
X103420073Y-127028731D01*
X103420063Y-127028727D01*
X103165595Y-126939685D01*
X103165596Y-126939685D01*
X103092904Y-126923093D01*
X102902732Y-126879688D01*
X102902728Y-126879687D01*
X102902726Y-126879687D01*
X102703945Y-126857289D01*
X102634809Y-126849500D01*
X102365191Y-126849500D01*
X102310235Y-126855692D01*
X102097273Y-126879687D01*
X102097269Y-126879687D01*
X102097268Y-126879688D01*
X102024581Y-126896278D01*
X101834403Y-126939685D01*
X101579936Y-127028727D01*
X101579918Y-127028734D01*
X101336997Y-127145719D01*
X101108706Y-127289165D01*
X101108693Y-127289174D01*
X100897923Y-127457258D01*
X100897914Y-127457266D01*
X100707266Y-127647914D01*
X100707258Y-127647923D01*
X100539174Y-127858693D01*
X100539165Y-127858706D01*
X100395719Y-128086997D01*
X100278734Y-128329918D01*
X100278727Y-128329936D01*
X100189685Y-128584403D01*
X100129687Y-128847273D01*
X100099500Y-129115191D01*
X96000500Y-129115191D01*
X96000500Y-126827177D01*
X128125000Y-126827177D01*
X128125000Y-127750000D01*
X129149999Y-127750000D01*
X129124979Y-127810402D01*
X129100000Y-127935981D01*
X129100000Y-128064019D01*
X129124979Y-128189598D01*
X129149999Y-128250000D01*
X128125000Y-128250000D01*
X128125000Y-129172822D01*
X128131401Y-129232372D01*
X128131403Y-129232381D01*
X128181646Y-129367087D01*
X128181647Y-129367090D01*
X128267810Y-129482189D01*
X128382909Y-129568352D01*
X128382912Y-129568353D01*
X128517618Y-129618596D01*
X128517627Y-129618598D01*
X128577177Y-129625000D01*
X129500000Y-129625000D01*
X129500000Y-128600001D01*
X129560402Y-128625021D01*
X129685981Y-128650000D01*
X129814019Y-128650000D01*
X129939598Y-128625021D01*
X130000000Y-128600001D01*
X130000000Y-129625000D01*
X130922823Y-129625000D01*
X130982372Y-129618598D01*
X130982381Y-129618596D01*
X131117087Y-129568353D01*
X131117090Y-129568352D01*
X131232189Y-129482189D01*
X131318352Y-129367090D01*
X131318353Y-129367087D01*
X131368596Y-129232381D01*
X131368598Y-129232372D01*
X131375000Y-129172822D01*
X131375000Y-128250000D01*
X130350001Y-128250000D01*
X130375021Y-128189598D01*
X130400000Y-128064019D01*
X130400000Y-127935981D01*
X130375021Y-127810402D01*
X130350001Y-127750000D01*
X131375000Y-127750000D01*
X131375000Y-126827177D01*
X192125000Y-126827177D01*
X192125000Y-127750000D01*
X193149999Y-127750000D01*
X193124979Y-127810402D01*
X193100000Y-127935981D01*
X193100000Y-128064019D01*
X193124979Y-128189598D01*
X193149999Y-128250000D01*
X192125000Y-128250000D01*
X192125000Y-129172822D01*
X192131401Y-129232372D01*
X192131403Y-129232381D01*
X192181646Y-129367087D01*
X192181647Y-129367090D01*
X192267810Y-129482189D01*
X192382909Y-129568352D01*
X192382912Y-129568353D01*
X192517618Y-129618596D01*
X192517627Y-129618598D01*
X192577177Y-129625000D01*
X193500000Y-129625000D01*
X193500000Y-128600001D01*
X193560402Y-128625021D01*
X193685981Y-128650000D01*
X193814019Y-128650000D01*
X193939598Y-128625021D01*
X194000000Y-128600001D01*
X194000000Y-129625000D01*
X194922823Y-129625000D01*
X194982372Y-129618598D01*
X194982381Y-129618596D01*
X195117087Y-129568353D01*
X195117090Y-129568352D01*
X195232189Y-129482189D01*
X195318352Y-129367090D01*
X195318353Y-129367087D01*
X195368596Y-129232381D01*
X195368598Y-129232372D01*
X195375000Y-129172822D01*
X195375000Y-128365191D01*
X218849500Y-128365191D01*
X218849500Y-128634808D01*
X218879687Y-128902726D01*
X218939685Y-129165596D01*
X219028727Y-129420063D01*
X219028733Y-129420079D01*
X219145716Y-129662997D01*
X219145718Y-129663001D01*
X219145719Y-129663002D01*
X219289165Y-129891293D01*
X219289174Y-129891306D01*
X219457258Y-130102076D01*
X219457266Y-130102085D01*
X219647914Y-130292733D01*
X219647923Y-130292741D01*
X219858693Y-130460825D01*
X219858705Y-130460833D01*
X219858711Y-130460838D01*
X220087003Y-130604284D01*
X220329921Y-130721267D01*
X220584409Y-130810316D01*
X220847268Y-130870312D01*
X221115191Y-130900500D01*
X221115192Y-130900500D01*
X221384808Y-130900500D01*
X221384809Y-130900500D01*
X221652732Y-130870312D01*
X221915591Y-130810316D01*
X222170079Y-130721267D01*
X222412997Y-130604284D01*
X222641289Y-130460838D01*
X222641300Y-130460828D01*
X222641306Y-130460825D01*
X222852076Y-130292741D01*
X222852085Y-130292734D01*
X223042734Y-130102085D01*
X223191458Y-129915591D01*
X223210825Y-129891306D01*
X223210828Y-129891300D01*
X223210838Y-129891289D01*
X223354284Y-129662997D01*
X223471267Y-129420079D01*
X223560316Y-129165591D01*
X223620312Y-128902732D01*
X223650500Y-128634809D01*
X223650500Y-128365191D01*
X223620312Y-128097268D01*
X223560316Y-127834409D01*
X223471267Y-127579921D01*
X223354284Y-127337003D01*
X223210838Y-127108711D01*
X223210833Y-127108705D01*
X223210825Y-127108693D01*
X223042741Y-126897923D01*
X223042733Y-126897914D01*
X222852085Y-126707266D01*
X222852076Y-126707258D01*
X222641306Y-126539174D01*
X222641293Y-126539165D01*
X222641291Y-126539164D01*
X222641289Y-126539162D01*
X222412997Y-126395716D01*
X222170079Y-126278733D01*
X222170073Y-126278731D01*
X222170063Y-126278727D01*
X221915595Y-126189685D01*
X221915596Y-126189685D01*
X221842904Y-126173093D01*
X221652732Y-126129688D01*
X221652728Y-126129687D01*
X221652726Y-126129687D01*
X221453945Y-126107289D01*
X221384809Y-126099500D01*
X221115191Y-126099500D01*
X221060235Y-126105692D01*
X220847273Y-126129687D01*
X220847269Y-126129687D01*
X220847268Y-126129688D01*
X220774581Y-126146278D01*
X220584403Y-126189685D01*
X220329936Y-126278727D01*
X220329918Y-126278734D01*
X220135362Y-126372427D01*
X220116729Y-126381401D01*
X220086997Y-126395719D01*
X219858706Y-126539165D01*
X219858693Y-126539174D01*
X219647923Y-126707258D01*
X219647914Y-126707266D01*
X219457266Y-126897914D01*
X219457258Y-126897923D01*
X219289174Y-127108693D01*
X219289165Y-127108706D01*
X219145719Y-127336997D01*
X219028734Y-127579918D01*
X219028727Y-127579936D01*
X218939685Y-127834403D01*
X218879687Y-128097273D01*
X218849500Y-128365191D01*
X195375000Y-128365191D01*
X195375000Y-128250000D01*
X194350001Y-128250000D01*
X194375021Y-128189598D01*
X194400000Y-128064019D01*
X194400000Y-127935981D01*
X194375021Y-127810402D01*
X194350001Y-127750000D01*
X195375000Y-127750000D01*
X195375000Y-126827177D01*
X195368598Y-126767627D01*
X195368596Y-126767618D01*
X195318353Y-126632912D01*
X195318352Y-126632909D01*
X195232189Y-126517810D01*
X195117090Y-126431647D01*
X195117087Y-126431646D01*
X194982381Y-126381403D01*
X194982372Y-126381401D01*
X194922823Y-126375000D01*
X194000000Y-126375000D01*
X194000000Y-127399998D01*
X193939598Y-127374979D01*
X193814019Y-127350000D01*
X193685981Y-127350000D01*
X193560402Y-127374979D01*
X193500000Y-127399998D01*
X193500000Y-126375000D01*
X192577177Y-126375000D01*
X192517627Y-126381401D01*
X192517618Y-126381403D01*
X192382912Y-126431646D01*
X192382909Y-126431647D01*
X192267810Y-126517810D01*
X192181647Y-126632909D01*
X192181646Y-126632912D01*
X192131403Y-126767618D01*
X192131401Y-126767627D01*
X192125000Y-126827177D01*
X131375000Y-126827177D01*
X131368598Y-126767627D01*
X131368596Y-126767618D01*
X131318353Y-126632912D01*
X131318352Y-126632909D01*
X131232189Y-126517810D01*
X131117090Y-126431647D01*
X131117087Y-126431646D01*
X130982381Y-126381403D01*
X130982372Y-126381401D01*
X130922823Y-126375000D01*
X130000000Y-126375000D01*
X130000000Y-127399998D01*
X129939598Y-127374979D01*
X129814019Y-127350000D01*
X129685981Y-127350000D01*
X129560402Y-127374979D01*
X129500000Y-127399998D01*
X129500000Y-126375000D01*
X128577177Y-126375000D01*
X128517627Y-126381401D01*
X128517618Y-126381403D01*
X128382912Y-126431646D01*
X128382909Y-126431647D01*
X128267810Y-126517810D01*
X128181647Y-126632909D01*
X128181646Y-126632912D01*
X128131403Y-126767618D01*
X128131401Y-126767627D01*
X128125000Y-126827177D01*
X96000500Y-126827177D01*
X96000500Y-121499995D01*
X128319615Y-121499995D01*
X128319615Y-121500004D01*
X128339122Y-121735426D01*
X128339123Y-121735429D01*
X128397118Y-121964447D01*
X128492011Y-122180784D01*
X128492013Y-122180786D01*
X128492014Y-122180788D01*
X128621225Y-122378561D01*
X128621228Y-122378564D01*
X128781226Y-122552367D01*
X128781228Y-122552369D01*
X128967653Y-122697469D01*
X128967656Y-122697471D01*
X129175420Y-122809908D01*
X129297801Y-122851921D01*
X129398856Y-122886614D01*
X129398857Y-122886615D01*
X129398859Y-122886615D01*
X129398861Y-122886616D01*
X129631880Y-122925500D01*
X129631882Y-122925500D01*
X129868118Y-122925500D01*
X129868120Y-122925500D01*
X130101139Y-122886616D01*
X130324579Y-122809908D01*
X130532346Y-122697470D01*
X130718773Y-122552368D01*
X130878775Y-122378561D01*
X131007986Y-122180788D01*
X131102883Y-121964445D01*
X131160876Y-121735434D01*
X131180385Y-121500000D01*
X131160876Y-121264566D01*
X131116080Y-121087672D01*
X131113989Y-120999141D01*
X131150520Y-120918462D01*
X131168271Y-120898120D01*
X136357606Y-115708786D01*
X136432594Y-115661667D01*
X136498320Y-115650500D01*
X138426824Y-115650500D01*
X138513167Y-115670207D01*
X138582408Y-115725426D01*
X138604962Y-115760799D01*
X138640326Y-115831820D01*
X138640327Y-115831822D01*
X138763233Y-115994575D01*
X138763241Y-115994585D01*
X138897498Y-116116975D01*
X138913959Y-116131981D01*
X138913961Y-116131982D01*
X138913962Y-116131983D01*
X139087360Y-116239347D01*
X139087363Y-116239348D01*
X139277544Y-116313024D01*
X139478024Y-116350500D01*
X139478027Y-116350500D01*
X139681972Y-116350500D01*
X139681976Y-116350500D01*
X139882456Y-116313024D01*
X140072637Y-116239348D01*
X140246041Y-116131981D01*
X140368330Y-116020500D01*
X140396758Y-115994585D01*
X140396759Y-115994583D01*
X140396764Y-115994579D01*
X140519673Y-115831821D01*
X140610582Y-115649250D01*
X140666397Y-115453083D01*
X140685215Y-115250000D01*
X140666397Y-115046917D01*
X140630286Y-114920000D01*
X181644785Y-114920000D01*
X181663603Y-115123083D01*
X181699714Y-115250000D01*
X181719419Y-115319252D01*
X181810329Y-115501825D01*
X181933233Y-115664575D01*
X181933241Y-115664585D01*
X182038784Y-115760799D01*
X182083959Y-115801981D01*
X182083961Y-115801982D01*
X182083962Y-115801983D01*
X182255260Y-115908046D01*
X182318296Y-115970255D01*
X182348097Y-116053653D01*
X182349500Y-116077239D01*
X182349500Y-119197273D01*
X182349500Y-119302727D01*
X182376793Y-119404587D01*
X182376794Y-119404590D01*
X182429515Y-119495907D01*
X182429518Y-119495911D01*
X182504088Y-119570481D01*
X182504092Y-119570484D01*
X182595409Y-119623205D01*
X182595413Y-119623207D01*
X182697273Y-119650500D01*
X191251679Y-119650500D01*
X191338022Y-119670207D01*
X191392393Y-119708786D01*
X192399168Y-120715561D01*
X192446287Y-120790549D01*
X192456203Y-120878556D01*
X192440693Y-120936213D01*
X192397117Y-121035555D01*
X192339123Y-121264570D01*
X192339122Y-121264573D01*
X192319615Y-121499995D01*
X192319615Y-121500004D01*
X192339122Y-121735426D01*
X192339123Y-121735429D01*
X192397118Y-121964447D01*
X192492011Y-122180784D01*
X192492013Y-122180786D01*
X192492014Y-122180788D01*
X192621225Y-122378561D01*
X192621228Y-122378564D01*
X192781226Y-122552367D01*
X192781228Y-122552369D01*
X192967653Y-122697469D01*
X192967656Y-122697471D01*
X193175420Y-122809908D01*
X193297801Y-122851921D01*
X193398856Y-122886614D01*
X193398857Y-122886615D01*
X193398859Y-122886615D01*
X193398861Y-122886616D01*
X193631880Y-122925500D01*
X193631882Y-122925500D01*
X193868118Y-122925500D01*
X193868120Y-122925500D01*
X194101139Y-122886616D01*
X194324579Y-122809908D01*
X194532346Y-122697470D01*
X194718773Y-122552368D01*
X194878775Y-122378561D01*
X195007986Y-122180788D01*
X195102883Y-121964445D01*
X195160876Y-121735434D01*
X195180385Y-121500000D01*
X195160876Y-121264566D01*
X195102883Y-121035555D01*
X195034017Y-120878556D01*
X195007988Y-120819215D01*
X195007986Y-120819213D01*
X195007986Y-120819212D01*
X194878775Y-120621439D01*
X194718773Y-120447632D01*
X194718771Y-120447630D01*
X194532346Y-120302530D01*
X194532343Y-120302528D01*
X194324579Y-120190091D01*
X194101143Y-120113385D01*
X194101142Y-120113384D01*
X193868123Y-120074500D01*
X193868120Y-120074500D01*
X193631880Y-120074500D01*
X193631876Y-120074500D01*
X193398857Y-120113384D01*
X193398856Y-120113385D01*
X193167637Y-120192764D01*
X193166701Y-120190038D01*
X193095303Y-120203613D01*
X193009737Y-120180768D01*
X192961852Y-120145460D01*
X191745920Y-118929526D01*
X191745914Y-118929521D01*
X191745913Y-118929520D01*
X191745910Y-118929518D01*
X191654589Y-118876793D01*
X191603657Y-118863146D01*
X191552727Y-118849500D01*
X191552726Y-118849500D01*
X183349500Y-118849500D01*
X183263157Y-118829793D01*
X183193916Y-118774574D01*
X183155489Y-118694782D01*
X183150500Y-118650500D01*
X183150500Y-116077239D01*
X183170207Y-115990896D01*
X183225426Y-115921655D01*
X183244740Y-115908046D01*
X183367846Y-115831822D01*
X183416041Y-115801981D01*
X183518271Y-115708786D01*
X183566758Y-115664585D01*
X183566759Y-115664583D01*
X183566764Y-115664579D01*
X183689673Y-115501821D01*
X183780582Y-115319250D01*
X183836397Y-115123083D01*
X183855215Y-114920000D01*
X183836397Y-114716917D01*
X183780582Y-114520750D01*
X183689673Y-114338179D01*
X183689671Y-114338177D01*
X183689670Y-114338174D01*
X183583316Y-114197339D01*
X183566764Y-114175421D01*
X183566762Y-114175419D01*
X183566758Y-114175414D01*
X183416042Y-114038020D01*
X183416037Y-114038016D01*
X183242639Y-113930652D01*
X183242636Y-113930651D01*
X183052460Y-113856977D01*
X183052457Y-113856976D01*
X183052456Y-113856976D01*
X182851976Y-113819500D01*
X182648024Y-113819500D01*
X182447544Y-113856976D01*
X182447542Y-113856976D01*
X182447540Y-113856977D01*
X182447538Y-113856977D01*
X182257363Y-113930651D01*
X182257360Y-113930652D01*
X182083962Y-114038016D01*
X182083957Y-114038020D01*
X181933241Y-114175414D01*
X181933233Y-114175424D01*
X181810329Y-114338174D01*
X181719419Y-114520747D01*
X181663603Y-114716916D01*
X181663603Y-114716917D01*
X181646409Y-114902478D01*
X181644785Y-114920000D01*
X140630286Y-114920000D01*
X140610582Y-114850750D01*
X140519673Y-114668179D01*
X140519671Y-114668177D01*
X140519670Y-114668174D01*
X140408340Y-114520750D01*
X140396764Y-114505421D01*
X140396762Y-114505419D01*
X140396758Y-114505414D01*
X140246042Y-114368020D01*
X140246037Y-114368016D01*
X140072639Y-114260652D01*
X140072636Y-114260651D01*
X139882460Y-114186977D01*
X139882457Y-114186976D01*
X139882456Y-114186976D01*
X139681976Y-114149500D01*
X139478024Y-114149500D01*
X139277544Y-114186976D01*
X139277542Y-114186976D01*
X139277540Y-114186977D01*
X139277538Y-114186977D01*
X139087363Y-114260651D01*
X139087360Y-114260652D01*
X138913962Y-114368016D01*
X138913957Y-114368020D01*
X138763241Y-114505414D01*
X138763233Y-114505424D01*
X138640327Y-114668177D01*
X138640326Y-114668179D01*
X138604962Y-114739201D01*
X138548834Y-114807708D01*
X138468542Y-114845078D01*
X138426824Y-114849500D01*
X136302727Y-114849500D01*
X136197273Y-114849500D01*
X136163319Y-114858597D01*
X136095410Y-114876793D01*
X136095408Y-114876794D01*
X136049750Y-114903154D01*
X136049751Y-114903155D01*
X136004086Y-114929519D01*
X136004084Y-114929521D01*
X135929521Y-115004086D01*
X135929518Y-115004089D01*
X130701333Y-120232272D01*
X130626344Y-120279391D01*
X130538338Y-120289307D01*
X130465906Y-120266573D01*
X130324584Y-120190094D01*
X130324580Y-120190092D01*
X130101143Y-120113385D01*
X130101142Y-120113384D01*
X129868123Y-120074500D01*
X129868120Y-120074500D01*
X129631880Y-120074500D01*
X129631876Y-120074500D01*
X129398857Y-120113384D01*
X129398856Y-120113385D01*
X129175420Y-120190091D01*
X128967656Y-120302528D01*
X128967653Y-120302530D01*
X128781228Y-120447630D01*
X128781226Y-120447632D01*
X128621228Y-120621435D01*
X128621225Y-120621439D01*
X128492013Y-120819213D01*
X128492011Y-120819215D01*
X128397118Y-121035552D01*
X128339123Y-121264570D01*
X128339122Y-121264573D01*
X128319615Y-121499995D01*
X96000500Y-121499995D01*
X96000500Y-95250000D01*
X116394785Y-95250000D01*
X116413603Y-95453083D01*
X116464980Y-95633653D01*
X116469419Y-95649252D01*
X116560329Y-95831825D01*
X116683233Y-95994575D01*
X116683241Y-95994585D01*
X116771921Y-96075426D01*
X116833959Y-96131981D01*
X116833961Y-96131982D01*
X116833962Y-96131983D01*
X117007360Y-96239347D01*
X117007363Y-96239348D01*
X117197544Y-96313024D01*
X117398024Y-96350500D01*
X117398027Y-96350500D01*
X117601972Y-96350500D01*
X117601976Y-96350500D01*
X117802456Y-96313024D01*
X117821496Y-96305647D01*
X117909126Y-96292831D01*
X117993640Y-96319306D01*
X118034101Y-96350494D01*
X120041214Y-98357606D01*
X120088333Y-98432594D01*
X120099500Y-98498320D01*
X120099500Y-100703646D01*
X120079793Y-100789989D01*
X120024574Y-100859230D01*
X119994309Y-100879148D01*
X119913549Y-100922315D01*
X119753590Y-101053590D01*
X119622313Y-101213551D01*
X119524768Y-101396044D01*
X119464699Y-101594066D01*
X119444417Y-101800000D01*
X119464699Y-102005933D01*
X119524768Y-102203955D01*
X119622313Y-102386448D01*
X119622315Y-102386450D01*
X119753590Y-102546410D01*
X119885170Y-102654394D01*
X119913551Y-102677686D01*
X120005068Y-102726603D01*
X120096046Y-102775232D01*
X120294066Y-102835300D01*
X120500000Y-102855583D01*
X120705934Y-102835300D01*
X120903954Y-102775232D01*
X121086450Y-102677685D01*
X121246410Y-102546410D01*
X121377685Y-102386450D01*
X121475232Y-102203954D01*
X121535300Y-102005934D01*
X121555583Y-101800000D01*
X121535300Y-101594066D01*
X121475232Y-101396046D01*
X121393438Y-101243021D01*
X121377686Y-101213551D01*
X121333650Y-101159893D01*
X121246410Y-101053590D01*
X121086450Y-100922315D01*
X121050608Y-100903157D01*
X121005691Y-100879148D01*
X120938834Y-100821066D01*
X120903798Y-100739727D01*
X120900500Y-100703646D01*
X120900500Y-98849500D01*
X120920207Y-98763157D01*
X120975426Y-98693916D01*
X121055218Y-98655489D01*
X121099500Y-98650500D01*
X128552726Y-98650500D01*
X128552727Y-98650500D01*
X128654588Y-98623207D01*
X128745913Y-98570480D01*
X128828527Y-98487865D01*
X128903513Y-98440748D01*
X128991520Y-98430831D01*
X129051698Y-98451887D01*
X129040400Y-98433641D01*
X129031066Y-98345571D01*
X129060867Y-98262173D01*
X129087944Y-98228448D01*
X137107607Y-90208786D01*
X137182595Y-90161667D01*
X137248321Y-90150500D01*
X147479809Y-90150500D01*
X147566152Y-90170207D01*
X147635393Y-90225426D01*
X147673820Y-90305218D01*
X147673820Y-90393782D01*
X147663661Y-90425653D01*
X147631953Y-90502205D01*
X147614957Y-90543236D01*
X147614956Y-90543237D01*
X147608062Y-90595606D01*
X147594318Y-90700000D01*
X147614956Y-90856762D01*
X147614956Y-90856763D01*
X147616659Y-90869693D01*
X147613663Y-90870087D01*
X147616189Y-90937486D01*
X147580777Y-91018662D01*
X147513652Y-91076434D01*
X147428107Y-91099360D01*
X147420656Y-91099500D01*
X138064938Y-91099500D01*
X138064922Y-91099499D01*
X138052727Y-91099499D01*
X137947273Y-91099499D01*
X137864144Y-91121773D01*
X137864144Y-91121774D01*
X137854778Y-91124283D01*
X137845412Y-91126793D01*
X137845405Y-91126796D01*
X137754092Y-91179515D01*
X137754088Y-91179518D01*
X132179521Y-96754085D01*
X132179517Y-96754090D01*
X132126794Y-96845407D01*
X132126792Y-96845412D01*
X132113051Y-96896697D01*
X132110355Y-96906762D01*
X132107297Y-96918174D01*
X132099500Y-96947272D01*
X132099500Y-100400500D01*
X132079793Y-100486843D01*
X132024574Y-100556084D01*
X131944782Y-100594511D01*
X131900500Y-100599500D01*
X130853357Y-100599500D01*
X130767014Y-100579793D01*
X130697773Y-100524574D01*
X130659346Y-100444782D01*
X130659346Y-100356218D01*
X130697773Y-100276426D01*
X130719292Y-100253437D01*
X130816758Y-100164585D01*
X130816759Y-100164583D01*
X130816764Y-100164579D01*
X130939673Y-100001821D01*
X131030582Y-99819250D01*
X131086397Y-99623083D01*
X131105215Y-99420000D01*
X131086397Y-99216917D01*
X131030582Y-99020750D01*
X130939673Y-98838179D01*
X130939670Y-98838175D01*
X130939670Y-98838174D01*
X130848101Y-98716918D01*
X130816764Y-98675421D01*
X130816762Y-98675419D01*
X130816758Y-98675414D01*
X130666042Y-98538020D01*
X130666037Y-98538016D01*
X130492639Y-98430652D01*
X130492636Y-98430651D01*
X130302460Y-98356977D01*
X130302457Y-98356976D01*
X130302456Y-98356976D01*
X130101976Y-98319500D01*
X129898024Y-98319500D01*
X129697544Y-98356976D01*
X129697542Y-98356976D01*
X129697540Y-98356977D01*
X129697538Y-98356977D01*
X129507363Y-98430651D01*
X129507360Y-98430652D01*
X129333423Y-98538350D01*
X129249638Y-98567048D01*
X129161699Y-98556552D01*
X129146101Y-98546607D01*
X129166989Y-98606298D01*
X129157073Y-98694305D01*
X129128046Y-98748503D01*
X129060329Y-98838175D01*
X129010192Y-98938865D01*
X128969418Y-99020750D01*
X128913603Y-99216917D01*
X128894785Y-99420000D01*
X128913603Y-99623083D01*
X128948638Y-99746218D01*
X128969419Y-99819252D01*
X129060329Y-100001825D01*
X129183233Y-100164575D01*
X129183241Y-100164585D01*
X129305926Y-100276426D01*
X129333959Y-100301981D01*
X129333961Y-100301982D01*
X129333962Y-100301983D01*
X129507360Y-100409347D01*
X129507363Y-100409348D01*
X129577585Y-100436552D01*
X129650978Y-100486117D01*
X129695597Y-100562619D01*
X129702605Y-100650905D01*
X129670613Y-100733488D01*
X129646413Y-100762828D01*
X124188028Y-106221214D01*
X124113040Y-106268333D01*
X124047314Y-106279500D01*
X121596354Y-106279500D01*
X121510011Y-106259793D01*
X121440770Y-106204574D01*
X121420852Y-106174309D01*
X121407911Y-106150099D01*
X121377685Y-106093550D01*
X121246410Y-105933590D01*
X121135094Y-105842236D01*
X121086448Y-105802313D01*
X120903955Y-105704768D01*
X120705933Y-105644699D01*
X120500000Y-105624417D01*
X120294066Y-105644699D01*
X120096044Y-105704768D01*
X119913551Y-105802313D01*
X119753590Y-105933590D01*
X119622313Y-106093551D01*
X119524768Y-106276044D01*
X119464699Y-106474066D01*
X119444417Y-106680000D01*
X119464699Y-106885933D01*
X119491281Y-106973562D01*
X119497486Y-107061908D01*
X119464745Y-107144197D01*
X119441564Y-107172042D01*
X118679521Y-107934085D01*
X118626792Y-108025413D01*
X118620012Y-108050719D01*
X118620012Y-108050720D01*
X118599500Y-108127272D01*
X118599500Y-113092760D01*
X118579793Y-113179103D01*
X118524574Y-113248344D01*
X118505261Y-113261953D01*
X118333957Y-113368020D01*
X118183241Y-113505414D01*
X118183233Y-113505424D01*
X118060329Y-113668174D01*
X117984979Y-113819500D01*
X117969418Y-113850750D01*
X117956840Y-113894958D01*
X117913603Y-114046916D01*
X117913603Y-114046917D01*
X117901696Y-114175421D01*
X117894785Y-114250000D01*
X117913603Y-114453083D01*
X117961875Y-114622741D01*
X117969419Y-114649252D01*
X118060329Y-114831825D01*
X118183233Y-114994575D01*
X118183241Y-114994585D01*
X118317498Y-115116975D01*
X118333959Y-115131981D01*
X118333961Y-115131982D01*
X118333962Y-115131983D01*
X118507360Y-115239347D01*
X118507363Y-115239348D01*
X118697544Y-115313024D01*
X118898024Y-115350500D01*
X118898027Y-115350500D01*
X119101972Y-115350500D01*
X119101976Y-115350500D01*
X119302456Y-115313024D01*
X119492637Y-115239348D01*
X119666041Y-115131981D01*
X119806332Y-115004089D01*
X119816758Y-114994585D01*
X119816759Y-114994583D01*
X119816764Y-114994579D01*
X119939673Y-114831821D01*
X120030582Y-114649250D01*
X120086397Y-114453083D01*
X120105215Y-114250000D01*
X122695034Y-114250000D01*
X122714858Y-114476603D01*
X122773733Y-114696326D01*
X122773735Y-114696330D01*
X122869862Y-114902476D01*
X122869863Y-114902477D01*
X122920974Y-114975471D01*
X123600000Y-114296445D01*
X123600000Y-114302661D01*
X123627259Y-114404394D01*
X123679920Y-114495606D01*
X123754394Y-114570080D01*
X123845606Y-114622741D01*
X123947339Y-114650000D01*
X123953553Y-114650000D01*
X123274526Y-115329024D01*
X123274527Y-115329025D01*
X123347516Y-115380132D01*
X123347523Y-115380137D01*
X123553669Y-115476264D01*
X123553673Y-115476266D01*
X123773397Y-115535141D01*
X123773394Y-115535141D01*
X124000000Y-115554965D01*
X124226603Y-115535141D01*
X124446326Y-115476266D01*
X124446330Y-115476264D01*
X124652478Y-115380136D01*
X124652483Y-115380133D01*
X124725471Y-115329024D01*
X124725472Y-115329024D01*
X124646448Y-115250000D01*
X128314785Y-115250000D01*
X128333603Y-115453083D01*
X128362591Y-115554965D01*
X128389419Y-115649252D01*
X128480329Y-115831825D01*
X128603233Y-115994575D01*
X128603241Y-115994585D01*
X128737498Y-116116975D01*
X128753959Y-116131981D01*
X128753961Y-116131982D01*
X128753962Y-116131983D01*
X128927360Y-116239347D01*
X128927363Y-116239348D01*
X129117544Y-116313024D01*
X129318024Y-116350500D01*
X129318027Y-116350500D01*
X129521972Y-116350500D01*
X129521976Y-116350500D01*
X129722456Y-116313024D01*
X129912637Y-116239348D01*
X130086041Y-116131981D01*
X130208330Y-116020500D01*
X130236758Y-115994585D01*
X130236759Y-115994583D01*
X130236764Y-115994579D01*
X130359673Y-115831821D01*
X130450582Y-115649250D01*
X130506397Y-115453083D01*
X130525215Y-115250000D01*
X130506397Y-115046917D01*
X130450582Y-114850750D01*
X130359673Y-114668179D01*
X130359671Y-114668177D01*
X130359670Y-114668174D01*
X130248340Y-114520750D01*
X130236764Y-114505421D01*
X130236762Y-114505419D01*
X130236758Y-114505414D01*
X130086042Y-114368020D01*
X130086041Y-114368019D01*
X129980484Y-114302661D01*
X129914739Y-114261953D01*
X129851704Y-114199744D01*
X129821903Y-114116345D01*
X129820500Y-114092760D01*
X129820500Y-110879500D01*
X129840207Y-110793157D01*
X129895426Y-110723916D01*
X129975218Y-110685489D01*
X130019500Y-110680500D01*
X130101972Y-110680500D01*
X130101976Y-110680500D01*
X130302456Y-110643024D01*
X130492637Y-110569348D01*
X130498326Y-110565826D01*
X130611232Y-110495917D01*
X130666041Y-110461981D01*
X130811378Y-110329489D01*
X130816758Y-110324585D01*
X130816759Y-110324583D01*
X130816764Y-110324579D01*
X130939673Y-110161821D01*
X131030582Y-109979250D01*
X131086397Y-109783083D01*
X131105215Y-109580000D01*
X131086397Y-109376917D01*
X131030582Y-109180750D01*
X130939673Y-108998179D01*
X130939671Y-108998177D01*
X130939670Y-108998174D01*
X130828340Y-108850750D01*
X130816764Y-108835421D01*
X130816762Y-108835419D01*
X130816758Y-108835414D01*
X130666042Y-108698020D01*
X130666041Y-108698019D01*
X130592040Y-108652200D01*
X130494739Y-108591953D01*
X130431704Y-108529744D01*
X130401903Y-108446345D01*
X130400500Y-108422760D01*
X130400500Y-107613321D01*
X130420207Y-107526978D01*
X130458786Y-107472607D01*
X133076263Y-104855130D01*
X140309500Y-104855130D01*
X140309500Y-106644866D01*
X140312414Y-106669989D01*
X140312415Y-106669991D01*
X140357794Y-106772765D01*
X140437235Y-106852206D01*
X140540009Y-106897585D01*
X140565135Y-106900500D01*
X142354864Y-106900499D01*
X142354866Y-106900499D01*
X142367427Y-106899042D01*
X142379991Y-106897585D01*
X142482765Y-106852206D01*
X142562206Y-106772765D01*
X142607585Y-106669991D01*
X142610500Y-106644865D01*
X142610499Y-106386712D01*
X142630206Y-106300373D01*
X142685424Y-106231131D01*
X142765217Y-106192705D01*
X142853780Y-106192704D01*
X142933573Y-106231130D01*
X142987636Y-106298012D01*
X143017634Y-106358256D01*
X143146124Y-106528403D01*
X143146129Y-106528408D01*
X143303695Y-106672050D01*
X143303700Y-106672054D01*
X143484978Y-106784297D01*
X143484980Y-106784298D01*
X143683796Y-106861319D01*
X143683798Y-106861320D01*
X143683800Y-106861320D01*
X143683802Y-106861321D01*
X143893390Y-106900500D01*
X143893392Y-106900500D01*
X144106608Y-106900500D01*
X144106610Y-106900500D01*
X144316198Y-106861321D01*
X144515019Y-106784298D01*
X144533646Y-106772765D01*
X144696299Y-106672054D01*
X144696299Y-106672053D01*
X144696302Y-106672052D01*
X144853872Y-106528407D01*
X144982366Y-106358255D01*
X144982368Y-106358249D01*
X144987207Y-106350437D01*
X144989275Y-106351717D01*
X145036062Y-106294586D01*
X145116347Y-106257199D01*
X145204903Y-106258348D01*
X145284190Y-106297807D01*
X145338462Y-106367666D01*
X145366402Y-106427582D01*
X145366401Y-106427582D01*
X145501890Y-106621079D01*
X145668920Y-106788109D01*
X145862417Y-106923598D01*
X145862420Y-106923600D01*
X146076509Y-107023430D01*
X146290000Y-107080634D01*
X146290000Y-106183012D01*
X146347007Y-106215925D01*
X146474174Y-106250000D01*
X146605826Y-106250000D01*
X146732993Y-106215925D01*
X146790000Y-106183012D01*
X146790000Y-107080634D01*
X147003490Y-107023430D01*
X147217579Y-106923600D01*
X147217582Y-106923598D01*
X147411079Y-106788109D01*
X147578109Y-106621079D01*
X147713598Y-106427582D01*
X147713600Y-106427578D01*
X147813428Y-106213495D01*
X147813430Y-106213492D01*
X147870636Y-106000000D01*
X146973012Y-106000000D01*
X147005925Y-105942993D01*
X147040000Y-105815826D01*
X147040000Y-105684174D01*
X147005925Y-105557007D01*
X146973012Y-105500000D01*
X147870636Y-105500000D01*
X147813430Y-105286507D01*
X147813429Y-105286504D01*
X147713600Y-105072422D01*
X147713598Y-105072418D01*
X147578108Y-104878919D01*
X147411079Y-104711890D01*
X147217582Y-104576401D01*
X147217578Y-104576399D01*
X147003495Y-104476571D01*
X147003492Y-104476569D01*
X146790000Y-104419363D01*
X146790000Y-105316988D01*
X146732993Y-105284075D01*
X146605826Y-105250000D01*
X146474174Y-105250000D01*
X146347007Y-105284075D01*
X146290000Y-105316988D01*
X146290000Y-104419363D01*
X146076507Y-104476569D01*
X146076504Y-104476570D01*
X145862422Y-104576399D01*
X145862418Y-104576401D01*
X145668919Y-104711891D01*
X145501891Y-104878919D01*
X145366401Y-105072418D01*
X145366401Y-105072419D01*
X145338461Y-105132335D01*
X145284109Y-105202259D01*
X145204801Y-105241675D01*
X145116244Y-105242778D01*
X145035979Y-105205348D01*
X144989269Y-105148286D01*
X144987207Y-105149563D01*
X144982366Y-105141745D01*
X144853875Y-104971596D01*
X144853870Y-104971591D01*
X144696304Y-104827949D01*
X144696299Y-104827945D01*
X144515021Y-104715702D01*
X144515019Y-104715701D01*
X144316203Y-104638680D01*
X144316201Y-104638679D01*
X144190445Y-104615171D01*
X144106610Y-104599500D01*
X143893390Y-104599500D01*
X143823527Y-104612559D01*
X143683798Y-104638679D01*
X143683796Y-104638680D01*
X143484980Y-104715701D01*
X143484978Y-104715702D01*
X143303700Y-104827945D01*
X143303695Y-104827949D01*
X143146129Y-104971591D01*
X143146124Y-104971596D01*
X143017633Y-105141745D01*
X142987636Y-105201988D01*
X142931509Y-105270495D01*
X142851216Y-105307864D01*
X142762660Y-105306695D01*
X142683382Y-105267219D01*
X142629082Y-105197255D01*
X142610499Y-105113286D01*
X142610499Y-104855133D01*
X142607585Y-104830010D01*
X142606673Y-104827945D01*
X142562206Y-104727235D01*
X142482765Y-104647794D01*
X142482762Y-104647792D01*
X142482761Y-104647792D01*
X142379991Y-104602415D01*
X142354866Y-104599500D01*
X140565133Y-104599500D01*
X140540010Y-104602414D01*
X140437238Y-104647792D01*
X140437233Y-104647795D01*
X140357795Y-104727233D01*
X140357792Y-104727238D01*
X140312415Y-104830007D01*
X140312415Y-104830009D01*
X140309500Y-104855130D01*
X133076263Y-104855130D01*
X133681393Y-104250000D01*
X156485034Y-104250000D01*
X156504858Y-104476603D01*
X156563733Y-104696326D01*
X156563735Y-104696330D01*
X156659862Y-104902476D01*
X156659863Y-104902477D01*
X156710974Y-104975471D01*
X157390000Y-104296445D01*
X157390000Y-104302661D01*
X157417259Y-104404394D01*
X157469920Y-104495606D01*
X157544394Y-104570080D01*
X157635606Y-104622741D01*
X157737339Y-104650000D01*
X157743553Y-104650000D01*
X157064526Y-105329024D01*
X157064527Y-105329025D01*
X157137516Y-105380132D01*
X157137523Y-105380137D01*
X157343669Y-105476264D01*
X157343673Y-105476266D01*
X157563397Y-105535141D01*
X157563394Y-105535141D01*
X157790000Y-105554965D01*
X158016603Y-105535141D01*
X158236326Y-105476266D01*
X158236330Y-105476264D01*
X158442478Y-105380136D01*
X158442483Y-105380133D01*
X158515471Y-105329024D01*
X158515472Y-105329024D01*
X157836448Y-104650000D01*
X157842661Y-104650000D01*
X157944394Y-104622741D01*
X158035606Y-104570080D01*
X158110080Y-104495606D01*
X158162741Y-104404394D01*
X158190000Y-104302661D01*
X158190000Y-104296448D01*
X158869024Y-104975472D01*
X158869024Y-104975471D01*
X158920133Y-104902483D01*
X158920136Y-104902478D01*
X159016264Y-104696330D01*
X159016266Y-104696326D01*
X159075141Y-104476603D01*
X159094965Y-104250000D01*
X159075141Y-104023396D01*
X159016266Y-103803673D01*
X159016264Y-103803669D01*
X158920137Y-103597523D01*
X158920132Y-103597516D01*
X158869025Y-103524527D01*
X158869024Y-103524526D01*
X158190000Y-104203551D01*
X158190000Y-104197339D01*
X158162741Y-104095606D01*
X158110080Y-104004394D01*
X158035606Y-103929920D01*
X157944394Y-103877259D01*
X157842661Y-103850000D01*
X157836447Y-103850000D01*
X158515471Y-103170974D01*
X158442477Y-103119863D01*
X158442476Y-103119862D01*
X158236330Y-103023735D01*
X158236326Y-103023733D01*
X158016602Y-102964858D01*
X158016605Y-102964858D01*
X157790000Y-102945034D01*
X157563396Y-102964858D01*
X157343673Y-103023733D01*
X157343670Y-103023735D01*
X157137518Y-103119865D01*
X157137514Y-103119867D01*
X157064527Y-103170973D01*
X157064527Y-103170974D01*
X157743554Y-103850000D01*
X157737339Y-103850000D01*
X157635606Y-103877259D01*
X157544394Y-103929920D01*
X157469920Y-104004394D01*
X157417259Y-104095606D01*
X157390000Y-104197339D01*
X157390000Y-104203553D01*
X156710974Y-103524527D01*
X156710973Y-103524527D01*
X156659867Y-103597514D01*
X156659865Y-103597518D01*
X156563735Y-103803670D01*
X156563733Y-103803673D01*
X156504858Y-104023396D01*
X156485034Y-104250000D01*
X133681393Y-104250000D01*
X136262607Y-101668786D01*
X136337595Y-101621667D01*
X136403321Y-101610500D01*
X136632360Y-101610500D01*
X136632364Y-101610500D01*
X136663139Y-101607614D01*
X136663141Y-101607613D01*
X136663143Y-101607613D01*
X136674970Y-101605030D01*
X136675561Y-101607738D01*
X136744704Y-101599938D01*
X136828302Y-101629176D01*
X136863166Y-101656976D01*
X136882856Y-101676666D01*
X137025299Y-101760906D01*
X137184220Y-101807077D01*
X137221355Y-101810000D01*
X137250000Y-101810000D01*
X137750000Y-101810000D01*
X137778645Y-101810000D01*
X137815779Y-101807077D01*
X137974700Y-101760906D01*
X138117143Y-101676666D01*
X138234166Y-101559643D01*
X138318406Y-101417200D01*
X138364577Y-101258280D01*
X138364578Y-101258274D01*
X138365230Y-101250000D01*
X137750000Y-101250000D01*
X137750000Y-101810000D01*
X137250000Y-101810000D01*
X137250000Y-100989500D01*
X137269707Y-100903157D01*
X137324926Y-100833916D01*
X137404718Y-100795489D01*
X137449000Y-100790500D01*
X161662726Y-100790500D01*
X161662727Y-100790500D01*
X161764588Y-100763207D01*
X161855913Y-100710480D01*
X162145480Y-100420913D01*
X162198207Y-100329588D01*
X162225500Y-100227727D01*
X162225500Y-100122273D01*
X162225500Y-98250000D01*
X163634770Y-98250000D01*
X163635421Y-98258274D01*
X163635422Y-98258280D01*
X163681593Y-98417200D01*
X163765833Y-98559643D01*
X163882856Y-98676666D01*
X164025299Y-98760906D01*
X164184220Y-98807077D01*
X164221355Y-98810000D01*
X164250000Y-98810000D01*
X164250000Y-98250000D01*
X163634770Y-98250000D01*
X162225500Y-98250000D01*
X162225500Y-96199500D01*
X162245207Y-96113157D01*
X162300426Y-96043916D01*
X162380218Y-96005489D01*
X162424500Y-96000500D01*
X162435637Y-96000500D01*
X162450233Y-95998373D01*
X162508625Y-95989866D01*
X162508631Y-95989862D01*
X162516241Y-95987512D01*
X162604553Y-95980846D01*
X162633759Y-95987512D01*
X162641369Y-95989863D01*
X162641375Y-95989866D01*
X162696116Y-95997841D01*
X162714363Y-96000500D01*
X162714364Y-96000500D01*
X162935637Y-96000500D01*
X162950233Y-95998373D01*
X163008625Y-95989866D01*
X163008631Y-95989862D01*
X163016241Y-95987512D01*
X163104553Y-95980846D01*
X163133759Y-95987512D01*
X163141369Y-95989863D01*
X163141375Y-95989866D01*
X163196116Y-95997841D01*
X163214363Y-96000500D01*
X163214364Y-96000500D01*
X163435637Y-96000500D01*
X163450233Y-95998373D01*
X163508625Y-95989866D01*
X163508631Y-95989862D01*
X163516241Y-95987512D01*
X163604553Y-95980846D01*
X163633759Y-95987512D01*
X163641369Y-95989863D01*
X163641375Y-95989866D01*
X163696116Y-95997841D01*
X163714363Y-96000500D01*
X163714364Y-96000500D01*
X163725500Y-96000500D01*
X163811843Y-96020207D01*
X163881084Y-96075426D01*
X163919511Y-96155218D01*
X163924500Y-96199500D01*
X163924500Y-96217960D01*
X163904793Y-96304303D01*
X163883377Y-96339104D01*
X163800465Y-96447156D01*
X163800463Y-96447159D01*
X163739957Y-96593235D01*
X163739956Y-96593237D01*
X163736693Y-96618020D01*
X163719318Y-96750000D01*
X163739956Y-96906762D01*
X163744683Y-96918174D01*
X163800463Y-97052840D01*
X163800465Y-97052843D01*
X163827603Y-97088209D01*
X163839947Y-97104297D01*
X163847436Y-97114056D01*
X163884364Y-97194553D01*
X163882709Y-97283101D01*
X163842798Y-97362162D01*
X163830275Y-97375914D01*
X163765834Y-97440355D01*
X163681593Y-97582799D01*
X163635422Y-97741719D01*
X163635421Y-97741725D01*
X163634769Y-97749999D01*
X163634770Y-97750000D01*
X164301000Y-97750000D01*
X164387343Y-97769707D01*
X164456584Y-97824926D01*
X164495011Y-97904718D01*
X164500000Y-97949000D01*
X164500000Y-98000000D01*
X164551000Y-98000000D01*
X164637343Y-98019707D01*
X164706584Y-98074926D01*
X164745011Y-98154718D01*
X164750000Y-98199000D01*
X164750000Y-98810000D01*
X164778645Y-98810000D01*
X164815779Y-98807077D01*
X164979980Y-98759372D01*
X165068392Y-98754207D01*
X165150290Y-98787915D01*
X165209452Y-98853818D01*
X165234161Y-98938865D01*
X165234500Y-98950470D01*
X165234500Y-101156678D01*
X165214793Y-101243021D01*
X165176214Y-101297392D01*
X163324100Y-103149505D01*
X163249111Y-103196624D01*
X163161105Y-103206540D01*
X163111500Y-103194353D01*
X163092464Y-103186978D01*
X163092459Y-103186977D01*
X163092456Y-103186976D01*
X162891976Y-103149500D01*
X162688024Y-103149500D01*
X162487544Y-103186976D01*
X162487542Y-103186976D01*
X162487540Y-103186977D01*
X162487538Y-103186977D01*
X162297363Y-103260651D01*
X162297360Y-103260652D01*
X162123962Y-103368016D01*
X162123957Y-103368020D01*
X161973241Y-103505414D01*
X161973233Y-103505424D01*
X161850329Y-103668174D01*
X161772621Y-103824235D01*
X161759418Y-103850750D01*
X161703603Y-104046917D01*
X161684785Y-104250000D01*
X161703603Y-104453083D01*
X161759003Y-104647792D01*
X161759419Y-104649252D01*
X161850329Y-104831825D01*
X161973233Y-104994575D01*
X161973241Y-104994585D01*
X162107498Y-105116975D01*
X162123959Y-105131981D01*
X162123961Y-105131982D01*
X162123962Y-105131983D01*
X162297360Y-105239347D01*
X162297363Y-105239348D01*
X162487544Y-105313024D01*
X162688024Y-105350500D01*
X162688027Y-105350500D01*
X162891972Y-105350500D01*
X162891976Y-105350500D01*
X163092456Y-105313024D01*
X163282637Y-105239348D01*
X163456041Y-105131981D01*
X163557382Y-105039596D01*
X163606758Y-104994585D01*
X163606759Y-104994583D01*
X163606764Y-104994579D01*
X163729673Y-104831821D01*
X163820582Y-104649250D01*
X163876397Y-104453083D01*
X163895215Y-104250000D01*
X163876397Y-104046917D01*
X163838200Y-103912673D01*
X163833527Y-103824235D01*
X163867688Y-103742525D01*
X163888884Y-103717507D01*
X165864528Y-101741862D01*
X165864533Y-101741859D01*
X165880911Y-101725480D01*
X165880913Y-101725480D01*
X165955480Y-101650913D01*
X165955481Y-101650910D01*
X165955484Y-101650907D01*
X166008206Y-101559589D01*
X166029339Y-101480725D01*
X166035501Y-101457727D01*
X166035501Y-101352273D01*
X166035501Y-101340079D01*
X166035500Y-101340061D01*
X166035500Y-98682830D01*
X166055207Y-98596487D01*
X166110426Y-98527246D01*
X166116314Y-98522726D01*
X166173225Y-98480725D01*
X166254763Y-98370245D01*
X166300114Y-98240639D01*
X166303000Y-98209864D01*
X166303000Y-97790136D01*
X166300114Y-97759361D01*
X166254763Y-97629755D01*
X166173225Y-97519275D01*
X166062745Y-97437737D01*
X165933139Y-97392386D01*
X165933138Y-97392385D01*
X165933136Y-97392385D01*
X165905915Y-97389832D01*
X165821790Y-97362148D01*
X165758008Y-97300704D01*
X165727202Y-97217671D01*
X165725500Y-97191702D01*
X165725500Y-95860188D01*
X165745207Y-95773845D01*
X165745720Y-95772788D01*
X165764866Y-95733625D01*
X165775500Y-95660636D01*
X165775500Y-94189364D01*
X165764866Y-94116375D01*
X165745718Y-94077208D01*
X165725503Y-93990983D01*
X165725500Y-93989810D01*
X165725500Y-90772273D01*
X165719532Y-90750000D01*
X165698207Y-90670412D01*
X165661194Y-90606305D01*
X165645480Y-90579087D01*
X165159405Y-90093012D01*
X165112286Y-90018024D01*
X165102822Y-89978278D01*
X165085044Y-89843238D01*
X165024536Y-89697159D01*
X165024535Y-89697156D01*
X164959271Y-89612104D01*
X164928282Y-89571718D01*
X164886468Y-89539633D01*
X164802843Y-89475464D01*
X164802840Y-89475463D01*
X164656764Y-89414957D01*
X164656762Y-89414956D01*
X164500000Y-89394318D01*
X164343237Y-89414956D01*
X164343235Y-89414957D01*
X164197159Y-89475463D01*
X164197156Y-89475464D01*
X164071718Y-89571718D01*
X163975464Y-89697156D01*
X163975463Y-89697159D01*
X163914957Y-89843235D01*
X163914956Y-89843237D01*
X163894318Y-90000000D01*
X163914956Y-90156762D01*
X163914957Y-90156764D01*
X163975463Y-90302840D01*
X163975464Y-90302843D01*
X164030890Y-90375074D01*
X164071718Y-90428282D01*
X164126209Y-90470094D01*
X164197156Y-90524535D01*
X164197159Y-90524536D01*
X164343238Y-90585044D01*
X164478275Y-90602821D01*
X164561304Y-90633630D01*
X164593012Y-90659405D01*
X164866214Y-90932607D01*
X164913333Y-91007595D01*
X164924500Y-91073321D01*
X164924500Y-93451000D01*
X164904793Y-93537343D01*
X164849574Y-93606584D01*
X164769782Y-93645011D01*
X164725500Y-93650000D01*
X164712304Y-93650000D01*
X164599894Y-93664799D01*
X164460020Y-93722737D01*
X164348413Y-93808377D01*
X164267916Y-93845305D01*
X164227269Y-93849500D01*
X164214364Y-93849500D01*
X164141372Y-93860134D01*
X164133749Y-93862490D01*
X164045437Y-93869152D01*
X164016251Y-93862490D01*
X164008627Y-93860134D01*
X163935636Y-93849500D01*
X163714364Y-93849500D01*
X163641372Y-93860134D01*
X163633749Y-93862490D01*
X163545437Y-93869152D01*
X163516251Y-93862490D01*
X163508627Y-93860134D01*
X163435636Y-93849500D01*
X163214364Y-93849500D01*
X163141372Y-93860134D01*
X163133749Y-93862490D01*
X163045437Y-93869152D01*
X163016251Y-93862490D01*
X163008627Y-93860134D01*
X162935636Y-93849500D01*
X162714364Y-93849500D01*
X162641372Y-93860134D01*
X162633749Y-93862490D01*
X162545437Y-93869152D01*
X162516251Y-93862490D01*
X162508627Y-93860134D01*
X162435636Y-93849500D01*
X162214364Y-93849500D01*
X162141372Y-93860134D01*
X162133749Y-93862490D01*
X162045437Y-93869152D01*
X162016251Y-93862490D01*
X162008627Y-93860134D01*
X161935636Y-93849500D01*
X161714364Y-93849500D01*
X161641372Y-93860134D01*
X161633749Y-93862490D01*
X161545437Y-93869152D01*
X161516251Y-93862490D01*
X161508627Y-93860134D01*
X161435636Y-93849500D01*
X161214364Y-93849500D01*
X161141372Y-93860134D01*
X161133749Y-93862490D01*
X161045437Y-93869152D01*
X161016251Y-93862490D01*
X161008627Y-93860134D01*
X160935636Y-93849500D01*
X160714364Y-93849500D01*
X160641372Y-93860134D01*
X160633749Y-93862490D01*
X160545437Y-93869152D01*
X160516251Y-93862490D01*
X160508627Y-93860134D01*
X160435636Y-93849500D01*
X160214364Y-93849500D01*
X160141372Y-93860134D01*
X160133749Y-93862490D01*
X160045437Y-93869152D01*
X160016251Y-93862490D01*
X160008627Y-93860134D01*
X159935636Y-93849500D01*
X159714364Y-93849500D01*
X159641372Y-93860134D01*
X159633749Y-93862490D01*
X159545437Y-93869152D01*
X159516251Y-93862490D01*
X159508627Y-93860134D01*
X159435636Y-93849500D01*
X159424500Y-93849500D01*
X159338157Y-93829793D01*
X159268916Y-93774574D01*
X159230489Y-93694782D01*
X159225500Y-93650500D01*
X159225500Y-92932017D01*
X159245207Y-92845674D01*
X159300426Y-92776433D01*
X159303287Y-92774193D01*
X159428282Y-92678282D01*
X159499665Y-92585252D01*
X159524535Y-92552843D01*
X159524536Y-92552840D01*
X159545530Y-92502156D01*
X159585044Y-92406762D01*
X159605682Y-92250000D01*
X159585044Y-92093238D01*
X159524536Y-91947159D01*
X159524535Y-91947156D01*
X159450367Y-91850500D01*
X159428282Y-91821718D01*
X159386468Y-91789633D01*
X159302843Y-91725464D01*
X159302840Y-91725463D01*
X159156764Y-91664957D01*
X159156762Y-91664956D01*
X159000000Y-91644318D01*
X158843237Y-91664956D01*
X158843235Y-91664957D01*
X158697159Y-91725463D01*
X158697156Y-91725464D01*
X158571718Y-91821718D01*
X158475464Y-91947156D01*
X158475463Y-91947159D01*
X158414957Y-92093235D01*
X158414956Y-92093237D01*
X158394318Y-92250000D01*
X158414956Y-92406762D01*
X158417719Y-92417071D01*
X158424500Y-92468578D01*
X158424500Y-93451000D01*
X158404793Y-93537343D01*
X158349574Y-93606584D01*
X158269782Y-93645011D01*
X158225500Y-93650000D01*
X158212304Y-93650000D01*
X158099894Y-93664799D01*
X157960020Y-93722737D01*
X157848413Y-93808377D01*
X157767916Y-93845305D01*
X157727269Y-93849500D01*
X157714363Y-93849500D01*
X157641376Y-93860133D01*
X157641375Y-93860133D01*
X157528788Y-93915174D01*
X157440174Y-94003788D01*
X157385133Y-94116375D01*
X157385133Y-94116376D01*
X157374500Y-94189363D01*
X157374500Y-95660636D01*
X157385133Y-95733623D01*
X157385133Y-95733624D01*
X157404796Y-95773845D01*
X157440174Y-95846211D01*
X157528789Y-95934826D01*
X157622924Y-95980846D01*
X157641375Y-95989866D01*
X157714363Y-96000500D01*
X157727269Y-96000500D01*
X157813612Y-96020207D01*
X157848413Y-96041623D01*
X157960020Y-96127262D01*
X158099895Y-96185200D01*
X158099894Y-96185200D01*
X158212304Y-96199999D01*
X158212308Y-96200000D01*
X158225500Y-96200000D01*
X158311843Y-96219707D01*
X158381084Y-96274926D01*
X158419511Y-96354718D01*
X158424500Y-96399000D01*
X158424500Y-97088209D01*
X158404793Y-97174552D01*
X158349574Y-97243793D01*
X158269782Y-97282220D01*
X158181218Y-97282220D01*
X158124202Y-97259497D01*
X158089702Y-97239094D01*
X157930779Y-97192922D01*
X157893645Y-97190000D01*
X157865000Y-97190000D01*
X157865000Y-97801000D01*
X157845293Y-97887343D01*
X157790074Y-97956584D01*
X157710282Y-97995011D01*
X157666000Y-98000000D01*
X157615000Y-98000000D01*
X157615000Y-98051000D01*
X157595293Y-98137343D01*
X157540074Y-98206584D01*
X157460282Y-98245011D01*
X157416000Y-98250000D01*
X156749770Y-98250000D01*
X156750421Y-98258274D01*
X156750422Y-98258280D01*
X156796593Y-98417200D01*
X156874658Y-98549201D01*
X156901647Y-98633552D01*
X156889365Y-98721260D01*
X156840244Y-98794952D01*
X156764014Y-98840035D01*
X156703370Y-98849500D01*
X138998321Y-98849500D01*
X138911978Y-98829793D01*
X138857607Y-98791214D01*
X138608786Y-98542393D01*
X138561667Y-98467405D01*
X138550500Y-98401679D01*
X138550500Y-97749999D01*
X156749769Y-97749999D01*
X156749770Y-97750000D01*
X157365000Y-97750000D01*
X157365000Y-97190000D01*
X157336355Y-97190000D01*
X157299220Y-97192922D01*
X157140299Y-97239093D01*
X156997856Y-97323333D01*
X156880833Y-97440356D01*
X156796593Y-97582799D01*
X156750422Y-97741719D01*
X156750421Y-97741725D01*
X156749769Y-97749999D01*
X138550500Y-97749999D01*
X138550500Y-95657239D01*
X138570207Y-95570896D01*
X138625426Y-95501655D01*
X138644740Y-95488046D01*
X138701210Y-95453081D01*
X138816041Y-95381981D01*
X138939674Y-95269275D01*
X138966758Y-95244585D01*
X138966759Y-95244583D01*
X138966764Y-95244579D01*
X139089673Y-95081821D01*
X139180582Y-94899250D01*
X139236397Y-94703083D01*
X139255215Y-94500000D01*
X139236397Y-94296917D01*
X139180582Y-94100750D01*
X139089673Y-93918179D01*
X139089671Y-93918177D01*
X139089670Y-93918174D01*
X138966766Y-93755424D01*
X138966758Y-93755414D01*
X138816042Y-93618020D01*
X138816037Y-93618016D01*
X138642639Y-93510652D01*
X138642636Y-93510651D01*
X138452460Y-93436977D01*
X138452457Y-93436976D01*
X138452456Y-93436976D01*
X138251976Y-93399500D01*
X138048024Y-93399500D01*
X137847544Y-93436976D01*
X137847542Y-93436976D01*
X137847540Y-93436977D01*
X137847538Y-93436977D01*
X137657363Y-93510651D01*
X137657360Y-93510652D01*
X137483962Y-93618016D01*
X137483957Y-93618020D01*
X137333241Y-93755414D01*
X137333233Y-93755424D01*
X137210329Y-93918174D01*
X137119419Y-94100747D01*
X137073922Y-94260651D01*
X137063603Y-94296917D01*
X137044785Y-94500000D01*
X137063603Y-94703083D01*
X137119418Y-94899250D01*
X137206101Y-95073335D01*
X137210329Y-95081825D01*
X137333233Y-95244575D01*
X137333241Y-95244585D01*
X137467498Y-95366975D01*
X137483959Y-95381981D01*
X137483961Y-95381982D01*
X137483962Y-95381983D01*
X137655260Y-95488046D01*
X137718296Y-95550255D01*
X137748097Y-95633653D01*
X137749500Y-95657239D01*
X137749500Y-98597273D01*
X137749500Y-98702727D01*
X137759392Y-98739646D01*
X137776793Y-98804589D01*
X137829519Y-98895912D01*
X138504087Y-99570480D01*
X138586673Y-99618162D01*
X138651594Y-99678401D01*
X138683949Y-99760843D01*
X138677329Y-99849158D01*
X138633047Y-99925856D01*
X138559872Y-99975745D01*
X138487171Y-99989500D01*
X137027727Y-99989500D01*
X136922273Y-99989500D01*
X136888319Y-99998597D01*
X136820410Y-100016793D01*
X136729087Y-100069519D01*
X136729085Y-100069521D01*
X136467393Y-100331214D01*
X136392405Y-100378333D01*
X136326679Y-100389500D01*
X136097636Y-100389500D01*
X136073016Y-100391808D01*
X136066860Y-100392386D01*
X135937255Y-100437737D01*
X135826775Y-100519275D01*
X135745237Y-100629755D01*
X135699886Y-100759360D01*
X135697000Y-100790140D01*
X135697000Y-101019179D01*
X135677293Y-101105522D01*
X135638714Y-101159893D01*
X129679521Y-107119085D01*
X129626792Y-107210413D01*
X129620012Y-107235719D01*
X129620012Y-107235720D01*
X129599500Y-107312272D01*
X129599500Y-108422760D01*
X129579793Y-108509103D01*
X129524574Y-108578344D01*
X129505261Y-108591953D01*
X129333957Y-108698020D01*
X129183241Y-108835414D01*
X129183233Y-108835424D01*
X129060329Y-108998174D01*
X128969419Y-109180747D01*
X128918173Y-109360857D01*
X128913603Y-109376917D01*
X128894785Y-109580000D01*
X128913603Y-109783083D01*
X128969418Y-109979250D01*
X128991986Y-110024574D01*
X128998638Y-110037932D01*
X129019483Y-110124007D01*
X129019500Y-110126633D01*
X129019500Y-114092760D01*
X128999793Y-114179103D01*
X128944574Y-114248344D01*
X128925261Y-114261953D01*
X128753957Y-114368020D01*
X128603241Y-114505414D01*
X128603233Y-114505424D01*
X128480329Y-114668174D01*
X128389419Y-114850747D01*
X128345790Y-115004086D01*
X128333603Y-115046917D01*
X128314785Y-115250000D01*
X124646448Y-115250000D01*
X124046448Y-114650000D01*
X124052661Y-114650000D01*
X124154394Y-114622741D01*
X124245606Y-114570080D01*
X124320080Y-114495606D01*
X124372741Y-114404394D01*
X124400000Y-114302661D01*
X124400000Y-114296448D01*
X125079024Y-114975472D01*
X125079024Y-114975471D01*
X125130133Y-114902483D01*
X125130136Y-114902478D01*
X125226264Y-114696330D01*
X125226266Y-114696326D01*
X125285141Y-114476603D01*
X125304965Y-114250000D01*
X125285141Y-114023396D01*
X125226266Y-113803673D01*
X125226264Y-113803669D01*
X125130137Y-113597523D01*
X125130132Y-113597516D01*
X125079025Y-113524527D01*
X125079024Y-113524526D01*
X124400000Y-114203551D01*
X124400000Y-114197339D01*
X124372741Y-114095606D01*
X124320080Y-114004394D01*
X124245606Y-113929920D01*
X124154394Y-113877259D01*
X124052661Y-113850000D01*
X124046447Y-113850000D01*
X124725471Y-113170974D01*
X124652477Y-113119863D01*
X124652476Y-113119862D01*
X124446330Y-113023735D01*
X124446326Y-113023733D01*
X124226602Y-112964858D01*
X124226605Y-112964858D01*
X124000000Y-112945034D01*
X123773396Y-112964858D01*
X123553673Y-113023733D01*
X123553670Y-113023735D01*
X123347518Y-113119865D01*
X123347514Y-113119867D01*
X123274527Y-113170973D01*
X123274527Y-113170974D01*
X123953554Y-113850000D01*
X123947339Y-113850000D01*
X123845606Y-113877259D01*
X123754394Y-113929920D01*
X123679920Y-114004394D01*
X123627259Y-114095606D01*
X123600000Y-114197339D01*
X123600000Y-114203553D01*
X122920974Y-113524527D01*
X122920973Y-113524527D01*
X122869867Y-113597514D01*
X122869865Y-113597518D01*
X122773735Y-113803670D01*
X122773733Y-113803673D01*
X122714858Y-114023396D01*
X122695034Y-114250000D01*
X120105215Y-114250000D01*
X120086397Y-114046917D01*
X120030582Y-113850750D01*
X119939673Y-113668179D01*
X119939671Y-113668177D01*
X119939670Y-113668174D01*
X119816766Y-113505424D01*
X119816758Y-113505414D01*
X119666042Y-113368020D01*
X119666041Y-113368019D01*
X119592040Y-113322200D01*
X119494739Y-113261953D01*
X119431704Y-113199744D01*
X119401903Y-113116345D01*
X119400500Y-113092760D01*
X119400500Y-108428320D01*
X119420207Y-108341977D01*
X119458783Y-108287609D01*
X120007959Y-107738433D01*
X120082944Y-107691316D01*
X120170951Y-107681400D01*
X120206433Y-107688717D01*
X120294066Y-107715300D01*
X120500000Y-107735583D01*
X120705934Y-107715300D01*
X120903954Y-107655232D01*
X121086450Y-107557685D01*
X121246410Y-107426410D01*
X121377685Y-107266450D01*
X121420852Y-107185691D01*
X121478934Y-107118834D01*
X121560273Y-107083798D01*
X121596354Y-107080500D01*
X124348361Y-107080500D01*
X124348362Y-107080500D01*
X124450223Y-107053207D01*
X124541548Y-107000480D01*
X130083242Y-101458786D01*
X130158230Y-101411667D01*
X130223956Y-101400500D01*
X132302726Y-101400500D01*
X132302727Y-101400500D01*
X132404588Y-101373207D01*
X132495913Y-101320480D01*
X132820480Y-100995913D01*
X132839201Y-100963486D01*
X132848562Y-100947274D01*
X132859429Y-100928450D01*
X132873207Y-100904587D01*
X132900500Y-100802727D01*
X132900500Y-97248320D01*
X132920207Y-97161977D01*
X132958786Y-97107606D01*
X138107606Y-91958786D01*
X138182594Y-91911667D01*
X138248320Y-91900500D01*
X152402679Y-91900500D01*
X152489022Y-91920207D01*
X152558263Y-91975426D01*
X152596690Y-92055218D01*
X152596690Y-92143782D01*
X152558263Y-92223574D01*
X152543393Y-92240214D01*
X151384100Y-93399505D01*
X151309111Y-93446624D01*
X151221105Y-93456540D01*
X151171500Y-93444353D01*
X151152464Y-93436978D01*
X151152459Y-93436977D01*
X151152456Y-93436976D01*
X150951976Y-93399500D01*
X150748024Y-93399500D01*
X150547544Y-93436976D01*
X150547542Y-93436976D01*
X150547540Y-93436977D01*
X150547538Y-93436977D01*
X150357363Y-93510651D01*
X150357360Y-93510652D01*
X150183962Y-93618016D01*
X150183957Y-93618020D01*
X150033241Y-93755414D01*
X150033233Y-93755424D01*
X149910329Y-93918174D01*
X149819419Y-94100747D01*
X149773922Y-94260651D01*
X149763603Y-94296917D01*
X149744785Y-94500000D01*
X149763603Y-94703083D01*
X149819418Y-94899250D01*
X149906101Y-95073335D01*
X149910329Y-95081825D01*
X150033233Y-95244575D01*
X150033241Y-95244585D01*
X150167498Y-95366975D01*
X150183959Y-95381981D01*
X150183961Y-95381982D01*
X150183962Y-95381983D01*
X150357360Y-95489347D01*
X150357363Y-95489348D01*
X150547544Y-95563024D01*
X150748024Y-95600500D01*
X150748027Y-95600500D01*
X150951972Y-95600500D01*
X150951976Y-95600500D01*
X151152456Y-95563024D01*
X151342637Y-95489348D01*
X151365061Y-95475464D01*
X151401210Y-95453081D01*
X151516041Y-95381981D01*
X151639674Y-95269275D01*
X151666758Y-95244585D01*
X151666759Y-95244583D01*
X151666764Y-95244579D01*
X151789673Y-95081821D01*
X151880582Y-94899250D01*
X151936397Y-94703083D01*
X151955215Y-94500000D01*
X151936397Y-94296917D01*
X151898200Y-94162673D01*
X151893527Y-94074235D01*
X151927688Y-93992525D01*
X151948884Y-93967507D01*
X153957606Y-91958786D01*
X154032595Y-91911667D01*
X154098320Y-91900500D01*
X154625500Y-91900500D01*
X154711843Y-91920207D01*
X154781084Y-91975426D01*
X154819511Y-92055218D01*
X154824500Y-92099500D01*
X154824500Y-92110635D01*
X154835134Y-92183627D01*
X154837490Y-92191251D01*
X154844152Y-92279563D01*
X154837490Y-92308749D01*
X154835134Y-92316372D01*
X154824500Y-92389364D01*
X154824500Y-92610635D01*
X154835134Y-92683627D01*
X154837490Y-92691251D01*
X154844152Y-92779563D01*
X154837490Y-92808749D01*
X154835134Y-92816372D01*
X154824500Y-92889364D01*
X154824500Y-93110636D01*
X154835133Y-93183623D01*
X154835133Y-93183624D01*
X154854380Y-93222993D01*
X154890174Y-93296211D01*
X154978789Y-93384826D01*
X155085468Y-93436978D01*
X155091375Y-93439866D01*
X155164363Y-93450500D01*
X155164364Y-93450500D01*
X156635637Y-93450500D01*
X156677827Y-93444353D01*
X156708625Y-93439866D01*
X156821211Y-93384826D01*
X156909826Y-93296211D01*
X156964866Y-93183625D01*
X156975500Y-93110636D01*
X156975500Y-92889364D01*
X156964866Y-92816375D01*
X156964863Y-92816369D01*
X156962512Y-92808759D01*
X156955846Y-92720447D01*
X156962512Y-92691241D01*
X156964862Y-92683631D01*
X156964866Y-92683625D01*
X156975500Y-92610636D01*
X156975500Y-92389364D01*
X156964866Y-92316375D01*
X156964863Y-92316369D01*
X156962512Y-92308759D01*
X156955846Y-92220447D01*
X156962512Y-92191241D01*
X156964862Y-92183631D01*
X156964866Y-92183625D01*
X156975500Y-92110636D01*
X156975500Y-91889364D01*
X156964866Y-91816375D01*
X156964863Y-91816369D01*
X156962512Y-91808759D01*
X156955846Y-91720447D01*
X156962512Y-91691241D01*
X156964862Y-91683631D01*
X156964866Y-91683625D01*
X156975500Y-91610636D01*
X156975500Y-91597731D01*
X156995207Y-91511388D01*
X157016623Y-91476587D01*
X157102262Y-91364979D01*
X157160200Y-91225105D01*
X157174999Y-91112695D01*
X157175000Y-91112692D01*
X157175000Y-90887307D01*
X157174999Y-90887304D01*
X157160200Y-90774894D01*
X157102263Y-90635021D01*
X157016622Y-90523411D01*
X156979695Y-90442914D01*
X156975500Y-90402268D01*
X156975500Y-90389363D01*
X156969663Y-90349299D01*
X156964866Y-90316375D01*
X156964863Y-90316369D01*
X156962512Y-90308759D01*
X156955846Y-90220447D01*
X156962512Y-90191241D01*
X156964862Y-90183631D01*
X156964866Y-90183625D01*
X156975500Y-90110636D01*
X156975500Y-89889364D01*
X156964866Y-89816375D01*
X156964863Y-89816369D01*
X156962512Y-89808759D01*
X156955846Y-89720447D01*
X156962512Y-89691241D01*
X156964862Y-89683631D01*
X156964866Y-89683625D01*
X156975500Y-89610636D01*
X156975500Y-89389364D01*
X156964866Y-89316375D01*
X156964863Y-89316369D01*
X156962512Y-89308759D01*
X156955846Y-89220447D01*
X156962512Y-89191241D01*
X156964862Y-89183631D01*
X156964866Y-89183625D01*
X156975500Y-89110636D01*
X156975500Y-88889364D01*
X156964866Y-88816375D01*
X156964863Y-88816369D01*
X156962512Y-88808759D01*
X156955846Y-88720447D01*
X156962512Y-88691241D01*
X156964862Y-88683631D01*
X156964866Y-88683625D01*
X156975500Y-88610636D01*
X156975500Y-88389364D01*
X156964866Y-88316375D01*
X156964863Y-88316369D01*
X156962512Y-88308759D01*
X156955846Y-88220447D01*
X156962512Y-88191241D01*
X156964862Y-88183631D01*
X156964866Y-88183625D01*
X156975500Y-88110636D01*
X156975500Y-87889364D01*
X156964866Y-87816375D01*
X156964863Y-87816369D01*
X156962512Y-87808759D01*
X156955846Y-87720447D01*
X156962512Y-87691241D01*
X156964862Y-87683631D01*
X156964866Y-87683625D01*
X156975500Y-87610636D01*
X156975500Y-87389364D01*
X156964866Y-87316375D01*
X156964863Y-87316369D01*
X156962512Y-87308759D01*
X156955846Y-87220447D01*
X156962512Y-87191241D01*
X156964862Y-87183631D01*
X156964866Y-87183625D01*
X156975500Y-87110636D01*
X156975500Y-86889364D01*
X156964866Y-86816375D01*
X156964863Y-86816369D01*
X156962512Y-86808759D01*
X156955846Y-86720447D01*
X156962512Y-86691241D01*
X156964862Y-86683631D01*
X156964866Y-86683625D01*
X156975500Y-86610636D01*
X156975500Y-86389364D01*
X156964866Y-86316375D01*
X156964863Y-86316369D01*
X156962512Y-86308759D01*
X156955846Y-86220447D01*
X156962512Y-86191241D01*
X156964862Y-86183631D01*
X156964866Y-86183625D01*
X156975500Y-86110636D01*
X156975500Y-86099500D01*
X156995207Y-86013157D01*
X157050426Y-85943916D01*
X157130218Y-85905489D01*
X157174500Y-85900500D01*
X157251679Y-85900500D01*
X157338022Y-85920207D01*
X157392393Y-85958786D01*
X157590594Y-86156987D01*
X157637713Y-86231975D01*
X157647177Y-86271725D01*
X157664954Y-86406755D01*
X157664957Y-86406764D01*
X157725463Y-86552840D01*
X157725464Y-86552843D01*
X157789633Y-86636468D01*
X157821718Y-86678282D01*
X157876209Y-86720094D01*
X157947156Y-86774535D01*
X157947159Y-86774536D01*
X158093238Y-86835044D01*
X158250000Y-86855682D01*
X158406762Y-86835044D01*
X158552841Y-86774536D01*
X158552841Y-86774535D01*
X158552843Y-86774535D01*
X158590543Y-86745606D01*
X158678282Y-86678282D01*
X158758812Y-86573333D01*
X158774535Y-86552843D01*
X158774536Y-86552840D01*
X158774584Y-86552724D01*
X158835044Y-86406762D01*
X158855682Y-86250000D01*
X158835044Y-86093238D01*
X158774536Y-85947159D01*
X158774535Y-85947156D01*
X158715518Y-85870245D01*
X158678282Y-85821718D01*
X158617260Y-85774894D01*
X158552843Y-85725464D01*
X158552840Y-85725463D01*
X158406764Y-85664957D01*
X158406766Y-85664957D01*
X158406762Y-85664956D01*
X158406760Y-85664955D01*
X158406755Y-85664954D01*
X158271725Y-85647177D01*
X158188694Y-85616368D01*
X158156987Y-85590594D01*
X157745912Y-85179519D01*
X157654589Y-85126793D01*
X157603657Y-85113146D01*
X157552727Y-85099500D01*
X157552726Y-85099500D01*
X156835189Y-85099500D01*
X156748846Y-85079793D01*
X156747862Y-85079316D01*
X156708625Y-85060134D01*
X156708622Y-85060133D01*
X156708621Y-85060133D01*
X156635637Y-85049500D01*
X156635636Y-85049500D01*
X155164364Y-85049500D01*
X155164363Y-85049500D01*
X155091378Y-85060133D01*
X155091376Y-85060133D01*
X155091375Y-85060134D01*
X155052208Y-85079281D01*
X154965984Y-85099497D01*
X154964811Y-85099500D01*
X154924500Y-85099500D01*
X154838157Y-85079793D01*
X154768916Y-85024574D01*
X154730489Y-84944782D01*
X154725500Y-84900500D01*
X154725500Y-83927354D01*
X154745207Y-83841011D01*
X154800426Y-83771770D01*
X154851496Y-83742229D01*
X154934834Y-83709364D01*
X154934832Y-83709364D01*
X154934842Y-83709361D01*
X155055422Y-83617922D01*
X155146861Y-83497342D01*
X155202377Y-83356564D01*
X155206075Y-83325773D01*
X155235936Y-83242395D01*
X155299017Y-83180232D01*
X155382822Y-83151594D01*
X155403655Y-83150500D01*
X156751679Y-83150500D01*
X156838022Y-83170207D01*
X156892393Y-83208786D01*
X157316214Y-83632607D01*
X157363333Y-83707595D01*
X157374500Y-83773321D01*
X157374500Y-84310636D01*
X157385133Y-84383623D01*
X157385133Y-84383624D01*
X157414519Y-84443733D01*
X157440174Y-84496211D01*
X157528789Y-84584826D01*
X157622924Y-84630846D01*
X157641375Y-84639866D01*
X157714363Y-84650500D01*
X157727269Y-84650500D01*
X157813612Y-84670207D01*
X157848413Y-84691623D01*
X157960020Y-84777262D01*
X158099895Y-84835200D01*
X158099894Y-84835200D01*
X158212304Y-84849999D01*
X158212308Y-84850000D01*
X158437692Y-84850000D01*
X158437695Y-84849999D01*
X158550105Y-84835200D01*
X158689979Y-84777262D01*
X158801587Y-84691623D01*
X158882084Y-84654695D01*
X158922731Y-84650500D01*
X158935637Y-84650500D01*
X158950233Y-84648373D01*
X159008625Y-84639866D01*
X159008631Y-84639862D01*
X159016241Y-84637512D01*
X159104553Y-84630846D01*
X159133759Y-84637512D01*
X159141369Y-84639863D01*
X159141375Y-84639866D01*
X159184713Y-84646180D01*
X159214363Y-84650500D01*
X159214364Y-84650500D01*
X159435637Y-84650500D01*
X159450233Y-84648373D01*
X159508625Y-84639866D01*
X159508631Y-84639862D01*
X159516241Y-84637512D01*
X159604553Y-84630846D01*
X159633759Y-84637512D01*
X159641369Y-84639863D01*
X159641375Y-84639866D01*
X159684713Y-84646180D01*
X159714363Y-84650500D01*
X159714364Y-84650500D01*
X159935637Y-84650500D01*
X159950233Y-84648373D01*
X160008625Y-84639866D01*
X160008631Y-84639862D01*
X160016241Y-84637512D01*
X160104553Y-84630846D01*
X160133759Y-84637512D01*
X160141369Y-84639863D01*
X160141375Y-84639866D01*
X160184713Y-84646180D01*
X160214363Y-84650500D01*
X160214364Y-84650500D01*
X160435637Y-84650500D01*
X160450233Y-84648373D01*
X160508625Y-84639866D01*
X160508631Y-84639862D01*
X160516241Y-84637512D01*
X160604553Y-84630846D01*
X160633759Y-84637512D01*
X160641369Y-84639863D01*
X160641375Y-84639866D01*
X160684713Y-84646180D01*
X160714363Y-84650500D01*
X160714364Y-84650500D01*
X160935637Y-84650500D01*
X160950233Y-84648373D01*
X161008625Y-84639866D01*
X161008631Y-84639862D01*
X161016241Y-84637512D01*
X161104553Y-84630846D01*
X161133759Y-84637512D01*
X161141369Y-84639863D01*
X161141375Y-84639866D01*
X161184713Y-84646180D01*
X161214363Y-84650500D01*
X161214364Y-84650500D01*
X161435637Y-84650500D01*
X161450233Y-84648373D01*
X161508625Y-84639866D01*
X161508631Y-84639862D01*
X161516241Y-84637512D01*
X161604553Y-84630846D01*
X161633759Y-84637512D01*
X161641369Y-84639863D01*
X161641375Y-84639866D01*
X161684713Y-84646180D01*
X161714363Y-84650500D01*
X161714364Y-84650500D01*
X161935637Y-84650500D01*
X161950233Y-84648373D01*
X162008625Y-84639866D01*
X162008631Y-84639862D01*
X162016241Y-84637512D01*
X162104553Y-84630846D01*
X162133759Y-84637512D01*
X162141369Y-84639863D01*
X162141375Y-84639866D01*
X162184713Y-84646180D01*
X162214363Y-84650500D01*
X162214364Y-84650500D01*
X162435637Y-84650500D01*
X162450233Y-84648373D01*
X162508625Y-84639866D01*
X162508631Y-84639862D01*
X162516241Y-84637512D01*
X162604553Y-84630846D01*
X162633759Y-84637512D01*
X162641369Y-84639863D01*
X162641375Y-84639866D01*
X162684713Y-84646180D01*
X162714363Y-84650500D01*
X162714364Y-84650500D01*
X162935637Y-84650500D01*
X162950233Y-84648373D01*
X163008625Y-84639866D01*
X163008631Y-84639862D01*
X163016241Y-84637512D01*
X163104553Y-84630846D01*
X163133759Y-84637512D01*
X163141369Y-84639863D01*
X163141375Y-84639866D01*
X163184713Y-84646180D01*
X163214363Y-84650500D01*
X163214364Y-84650500D01*
X163435637Y-84650500D01*
X163450233Y-84648373D01*
X163508625Y-84639866D01*
X163508631Y-84639862D01*
X163516241Y-84637512D01*
X163604553Y-84630846D01*
X163633759Y-84637512D01*
X163641369Y-84639863D01*
X163641375Y-84639866D01*
X163684713Y-84646180D01*
X163714363Y-84650500D01*
X163714364Y-84650500D01*
X163935637Y-84650500D01*
X163950233Y-84648373D01*
X164008625Y-84639866D01*
X164008631Y-84639862D01*
X164016241Y-84637512D01*
X164104553Y-84630846D01*
X164133759Y-84637512D01*
X164141369Y-84639863D01*
X164141375Y-84639866D01*
X164184713Y-84646180D01*
X164214363Y-84650500D01*
X164214364Y-84650500D01*
X164435637Y-84650500D01*
X164450233Y-84648373D01*
X164508625Y-84639866D01*
X164508631Y-84639862D01*
X164516241Y-84637512D01*
X164604553Y-84630846D01*
X164633759Y-84637512D01*
X164641369Y-84639863D01*
X164641375Y-84639866D01*
X164684713Y-84646180D01*
X164714363Y-84650500D01*
X164714364Y-84650500D01*
X164935637Y-84650500D01*
X164950233Y-84648373D01*
X165008625Y-84639866D01*
X165008631Y-84639862D01*
X165016241Y-84637512D01*
X165104553Y-84630846D01*
X165133759Y-84637512D01*
X165141369Y-84639863D01*
X165141375Y-84639866D01*
X165184713Y-84646180D01*
X165214363Y-84650500D01*
X165214364Y-84650500D01*
X165435637Y-84650500D01*
X165465287Y-84646180D01*
X165508625Y-84639866D01*
X165621211Y-84584826D01*
X165709826Y-84496211D01*
X165764866Y-84383625D01*
X165775500Y-84310636D01*
X165775500Y-83773319D01*
X165795207Y-83686976D01*
X165833785Y-83632607D01*
X167079528Y-82386862D01*
X167079533Y-82386859D01*
X167095911Y-82370480D01*
X167095913Y-82370480D01*
X167170480Y-82295913D01*
X167170481Y-82295910D01*
X167170484Y-82295907D01*
X167223205Y-82204591D01*
X167223205Y-82204590D01*
X167223207Y-82204587D01*
X167233826Y-82164956D01*
X167250501Y-82102727D01*
X167250501Y-81997273D01*
X167250501Y-81985079D01*
X167250500Y-81985061D01*
X167250500Y-75297321D01*
X167270207Y-75210978D01*
X167325426Y-75141737D01*
X167405218Y-75103310D01*
X167493782Y-75103310D01*
X167573574Y-75141737D01*
X167590214Y-75156607D01*
X174291214Y-81857607D01*
X174338333Y-81932595D01*
X174349500Y-81998321D01*
X174349500Y-85900500D01*
X174329793Y-85986843D01*
X174274574Y-86056084D01*
X174194782Y-86094511D01*
X174150500Y-86099500D01*
X173530487Y-86099500D01*
X173444144Y-86079793D01*
X173374903Y-86024574D01*
X173336476Y-85944782D01*
X173336476Y-85856218D01*
X173339389Y-85844981D01*
X173364576Y-85758283D01*
X173364578Y-85758274D01*
X173365230Y-85750000D01*
X172699000Y-85750000D01*
X172612657Y-85730293D01*
X172543416Y-85675074D01*
X172504989Y-85595282D01*
X172500000Y-85551000D01*
X172500000Y-85500000D01*
X172449000Y-85500000D01*
X172362657Y-85480293D01*
X172293416Y-85425074D01*
X172254989Y-85345282D01*
X172250000Y-85301000D01*
X172250000Y-85250000D01*
X172750000Y-85250000D01*
X173365230Y-85250000D01*
X173365230Y-85249999D01*
X173364578Y-85241725D01*
X173364577Y-85241719D01*
X173318406Y-85082799D01*
X173234166Y-84940356D01*
X173117143Y-84823333D01*
X172974700Y-84739093D01*
X172815779Y-84692922D01*
X172778645Y-84690000D01*
X172750000Y-84690000D01*
X172750000Y-85250000D01*
X172250000Y-85250000D01*
X172250000Y-84690000D01*
X172221355Y-84690000D01*
X172184218Y-84692922D01*
X172020019Y-84740627D01*
X171931607Y-84745792D01*
X171849709Y-84712084D01*
X171790547Y-84646180D01*
X171765839Y-84561133D01*
X171765500Y-84549529D01*
X171765500Y-83401324D01*
X171785207Y-83314981D01*
X171840426Y-83245740D01*
X171843287Y-83243500D01*
X171928282Y-83178282D01*
X172014474Y-83065954D01*
X172024535Y-83052843D01*
X172024536Y-83052840D01*
X172050648Y-82989800D01*
X172085044Y-82906762D01*
X172105682Y-82750000D01*
X172085044Y-82593238D01*
X172024536Y-82447159D01*
X172024535Y-82447156D01*
X171965698Y-82370480D01*
X171928282Y-82321718D01*
X171866843Y-82274574D01*
X171802843Y-82225464D01*
X171802840Y-82225463D01*
X171656764Y-82164957D01*
X171656762Y-82164956D01*
X171500000Y-82144318D01*
X171343237Y-82164956D01*
X171343235Y-82164957D01*
X171197159Y-82225463D01*
X171197156Y-82225464D01*
X171071718Y-82321718D01*
X170975464Y-82447156D01*
X170975463Y-82447159D01*
X170914957Y-82593235D01*
X170914956Y-82593237D01*
X170894318Y-82750000D01*
X170914956Y-82906762D01*
X170914956Y-82906763D01*
X170949352Y-82989800D01*
X170964500Y-83065954D01*
X170964500Y-84817169D01*
X170944793Y-84903512D01*
X170889574Y-84972753D01*
X170883672Y-84977283D01*
X170826772Y-85019277D01*
X170816230Y-85029820D01*
X170815321Y-85028911D01*
X170760095Y-85076438D01*
X170674550Y-85099361D01*
X170667107Y-85099500D01*
X168185189Y-85099500D01*
X168098846Y-85079793D01*
X168097862Y-85079316D01*
X168058625Y-85060134D01*
X168058622Y-85060133D01*
X168058621Y-85060133D01*
X167985637Y-85049500D01*
X167985636Y-85049500D01*
X166514364Y-85049500D01*
X166514363Y-85049500D01*
X166441376Y-85060133D01*
X166441375Y-85060133D01*
X166328788Y-85115174D01*
X166240174Y-85203788D01*
X166185133Y-85316375D01*
X166185133Y-85316376D01*
X166174500Y-85389363D01*
X166174500Y-85402268D01*
X166154793Y-85488611D01*
X166133378Y-85523411D01*
X166047736Y-85635021D01*
X165989799Y-85774894D01*
X165975000Y-85887304D01*
X165975000Y-86112695D01*
X165989799Y-86225105D01*
X166047737Y-86364979D01*
X166133377Y-86476587D01*
X166170305Y-86557084D01*
X166174500Y-86597731D01*
X166174500Y-86610635D01*
X166185134Y-86683627D01*
X166187490Y-86691251D01*
X166194152Y-86779563D01*
X166187490Y-86808749D01*
X166185134Y-86816372D01*
X166174500Y-86889364D01*
X166174500Y-87110635D01*
X166185134Y-87183627D01*
X166187490Y-87191251D01*
X166194152Y-87279563D01*
X166187490Y-87308749D01*
X166185134Y-87316372D01*
X166174500Y-87389364D01*
X166174500Y-87610635D01*
X166185134Y-87683627D01*
X166187490Y-87691251D01*
X166194152Y-87779563D01*
X166187490Y-87808749D01*
X166185134Y-87816372D01*
X166174500Y-87889364D01*
X166174500Y-88110635D01*
X166185134Y-88183627D01*
X166187490Y-88191251D01*
X166194152Y-88279563D01*
X166187490Y-88308749D01*
X166185134Y-88316372D01*
X166174500Y-88389364D01*
X166174500Y-88610635D01*
X166185134Y-88683627D01*
X166187490Y-88691251D01*
X166194152Y-88779563D01*
X166187490Y-88808749D01*
X166185134Y-88816372D01*
X166174500Y-88889364D01*
X166174500Y-89110635D01*
X166185134Y-89183627D01*
X166187490Y-89191251D01*
X166194152Y-89279563D01*
X166187490Y-89308749D01*
X166185134Y-89316372D01*
X166174500Y-89389364D01*
X166174500Y-89610635D01*
X166185134Y-89683627D01*
X166187490Y-89691251D01*
X166194152Y-89779563D01*
X166187490Y-89808749D01*
X166185134Y-89816372D01*
X166174500Y-89889364D01*
X166174500Y-90110635D01*
X166185134Y-90183627D01*
X166187490Y-90191251D01*
X166194152Y-90279563D01*
X166187490Y-90308749D01*
X166185134Y-90316372D01*
X166174500Y-90389364D01*
X166174500Y-90610635D01*
X166185134Y-90683627D01*
X166187490Y-90691251D01*
X166194152Y-90779563D01*
X166187490Y-90808749D01*
X166185134Y-90816372D01*
X166174500Y-90889364D01*
X166174500Y-91110635D01*
X166185134Y-91183627D01*
X166187490Y-91191251D01*
X166194152Y-91279563D01*
X166187490Y-91308749D01*
X166185134Y-91316372D01*
X166174500Y-91389364D01*
X166174500Y-91610635D01*
X166185134Y-91683627D01*
X166187490Y-91691251D01*
X166194152Y-91779563D01*
X166187490Y-91808749D01*
X166185134Y-91816372D01*
X166174500Y-91889364D01*
X166174500Y-92110635D01*
X166185134Y-92183627D01*
X166187490Y-92191251D01*
X166194152Y-92279563D01*
X166187490Y-92308749D01*
X166185134Y-92316372D01*
X166174500Y-92389364D01*
X166174500Y-92610635D01*
X166185134Y-92683627D01*
X166187490Y-92691251D01*
X166194152Y-92779563D01*
X166187490Y-92808749D01*
X166185134Y-92816372D01*
X166174500Y-92889364D01*
X166174500Y-93110636D01*
X166185133Y-93183623D01*
X166185133Y-93183624D01*
X166204380Y-93222993D01*
X166240174Y-93296211D01*
X166328789Y-93384826D01*
X166435468Y-93436978D01*
X166441375Y-93439866D01*
X166514363Y-93450500D01*
X166514364Y-93450500D01*
X167985637Y-93450500D01*
X168027827Y-93444353D01*
X168058625Y-93439866D01*
X168171211Y-93384826D01*
X168259826Y-93296211D01*
X168314866Y-93183625D01*
X168325500Y-93110636D01*
X168325500Y-92889364D01*
X168314866Y-92816375D01*
X168314863Y-92816369D01*
X168312512Y-92808759D01*
X168305846Y-92720447D01*
X168312512Y-92691241D01*
X168314862Y-92683631D01*
X168314866Y-92683625D01*
X168325500Y-92610636D01*
X168325500Y-92389364D01*
X168314866Y-92316375D01*
X168314863Y-92316369D01*
X168312512Y-92308759D01*
X168305846Y-92220447D01*
X168312512Y-92191241D01*
X168314862Y-92183631D01*
X168314866Y-92183625D01*
X168325500Y-92110636D01*
X168325500Y-91889364D01*
X168314866Y-91816375D01*
X168314863Y-91816369D01*
X168312512Y-91808759D01*
X168305846Y-91720447D01*
X168312512Y-91691241D01*
X168314862Y-91683631D01*
X168314866Y-91683625D01*
X168325500Y-91610636D01*
X168325500Y-91389364D01*
X168314866Y-91316375D01*
X168314863Y-91316369D01*
X168312512Y-91308759D01*
X168305846Y-91220447D01*
X168312512Y-91191241D01*
X168314862Y-91183631D01*
X168314866Y-91183625D01*
X168325500Y-91110636D01*
X168325500Y-90889364D01*
X168317341Y-90833362D01*
X168324394Y-90745081D01*
X168369053Y-90668602D01*
X168442472Y-90619073D01*
X168530110Y-90606305D01*
X168614610Y-90632826D01*
X168654976Y-90663959D01*
X168836174Y-90845157D01*
X168883293Y-90920145D01*
X168890821Y-90986958D01*
X168894318Y-90986958D01*
X168894318Y-90999995D01*
X168894318Y-90999997D01*
X168894318Y-91000000D01*
X168909481Y-91115174D01*
X168914956Y-91156762D01*
X168914957Y-91156764D01*
X168975463Y-91302840D01*
X168975464Y-91302843D01*
X169023144Y-91364979D01*
X169071718Y-91428282D01*
X169120125Y-91465426D01*
X169197156Y-91524535D01*
X169197159Y-91524536D01*
X169343238Y-91585044D01*
X169500000Y-91605682D01*
X169656762Y-91585044D01*
X169802841Y-91524536D01*
X169802841Y-91524535D01*
X169802843Y-91524535D01*
X169841887Y-91494575D01*
X169928282Y-91428282D01*
X170014151Y-91316375D01*
X170024535Y-91302843D01*
X170024536Y-91302840D01*
X170034178Y-91279563D01*
X170085044Y-91156762D01*
X170105682Y-91000000D01*
X170085044Y-90843238D01*
X170024536Y-90697159D01*
X170024535Y-90697156D01*
X169964619Y-90619073D01*
X169928282Y-90571718D01*
X169886468Y-90539633D01*
X169802843Y-90475464D01*
X169802840Y-90475463D01*
X169656762Y-90414956D01*
X169587839Y-90405882D01*
X169504810Y-90375074D01*
X169473102Y-90349299D01*
X168864017Y-89740214D01*
X168816898Y-89665226D01*
X168806982Y-89577219D01*
X168836233Y-89493626D01*
X168898857Y-89431002D01*
X168982450Y-89401751D01*
X169004731Y-89400500D01*
X171900500Y-89400500D01*
X171986843Y-89420207D01*
X172056084Y-89475426D01*
X172094511Y-89555218D01*
X172099500Y-89599500D01*
X172099500Y-91501679D01*
X172079793Y-91588022D01*
X172041214Y-91642393D01*
X166929521Y-96754085D01*
X166929517Y-96754090D01*
X166876794Y-96845407D01*
X166876792Y-96845412D01*
X166863051Y-96896697D01*
X166860355Y-96906762D01*
X166857297Y-96918174D01*
X166849500Y-96947272D01*
X166849500Y-106400500D01*
X166829793Y-106486843D01*
X166774574Y-106556084D01*
X166694782Y-106594511D01*
X166650500Y-106599500D01*
X165477273Y-106599500D01*
X165426343Y-106613146D01*
X165375411Y-106626793D01*
X165300593Y-106669990D01*
X165284088Y-106679519D01*
X165284086Y-106679520D01*
X162602748Y-109360857D01*
X162527759Y-109407976D01*
X162439753Y-109417892D01*
X162390150Y-109405706D01*
X162346198Y-109388679D01*
X162136610Y-109349500D01*
X161923390Y-109349500D01*
X161862636Y-109360857D01*
X161713798Y-109388679D01*
X161713796Y-109388680D01*
X161514980Y-109465701D01*
X161514978Y-109465702D01*
X161333700Y-109577945D01*
X161333695Y-109577949D01*
X161176129Y-109721591D01*
X161176124Y-109721596D01*
X161047636Y-109891741D01*
X160952595Y-110082609D01*
X160951402Y-110086805D01*
X160949933Y-110089483D01*
X160949276Y-110091180D01*
X160949050Y-110091092D01*
X160908816Y-110164457D01*
X160836755Y-110215943D01*
X160749493Y-110231063D01*
X160664311Y-110206825D01*
X160598081Y-110148027D01*
X160568598Y-110086805D01*
X160567405Y-110082611D01*
X160472366Y-109891745D01*
X160359296Y-109742017D01*
X160343875Y-109721596D01*
X160343870Y-109721591D01*
X160186304Y-109577949D01*
X160186299Y-109577945D01*
X160005021Y-109465702D01*
X160005019Y-109465701D01*
X159806203Y-109388680D01*
X159806201Y-109388679D01*
X159657364Y-109360857D01*
X159596610Y-109349500D01*
X159383390Y-109349500D01*
X159322636Y-109360857D01*
X159173798Y-109388679D01*
X159173796Y-109388680D01*
X158974980Y-109465701D01*
X158974978Y-109465702D01*
X158793701Y-109577945D01*
X158631676Y-109725651D01*
X158554591Y-109769256D01*
X158466220Y-109775097D01*
X158384067Y-109742017D01*
X158324402Y-109676568D01*
X158299750Y-109599857D01*
X158293598Y-109542627D01*
X158293596Y-109542618D01*
X158243353Y-109407912D01*
X158243352Y-109407909D01*
X158157189Y-109292810D01*
X158042090Y-109206647D01*
X158042087Y-109206646D01*
X157907381Y-109156403D01*
X157907372Y-109156401D01*
X157847823Y-109150000D01*
X157200000Y-109150000D01*
X157200000Y-110066988D01*
X157142993Y-110034075D01*
X157015826Y-110000000D01*
X156884174Y-110000000D01*
X156757007Y-110034075D01*
X156700000Y-110066988D01*
X156700000Y-109150000D01*
X156052177Y-109150000D01*
X155992627Y-109156401D01*
X155992618Y-109156403D01*
X155857912Y-109206646D01*
X155857909Y-109206647D01*
X155742810Y-109292810D01*
X155656647Y-109407909D01*
X155656646Y-109407912D01*
X155606403Y-109542618D01*
X155606401Y-109542627D01*
X155600000Y-109602177D01*
X155600000Y-110250000D01*
X156516988Y-110250000D01*
X156484075Y-110307007D01*
X156450000Y-110434174D01*
X156450000Y-110565826D01*
X156484075Y-110692993D01*
X156516988Y-110750000D01*
X155600000Y-110750000D01*
X155600000Y-111397822D01*
X155606401Y-111457372D01*
X155606403Y-111457381D01*
X155656646Y-111592087D01*
X155656647Y-111592090D01*
X155742810Y-111707189D01*
X155857909Y-111793352D01*
X155857912Y-111793353D01*
X155992618Y-111843596D01*
X155992627Y-111843598D01*
X156052177Y-111850000D01*
X156700000Y-111850000D01*
X156700000Y-110933012D01*
X156757007Y-110965925D01*
X156884174Y-111000000D01*
X157015826Y-111000000D01*
X157142993Y-110965925D01*
X157200000Y-110933012D01*
X157200000Y-111850000D01*
X157847823Y-111850000D01*
X157907372Y-111843598D01*
X157907381Y-111843596D01*
X158042087Y-111793353D01*
X158042090Y-111793352D01*
X158157189Y-111707189D01*
X158243352Y-111592090D01*
X158243353Y-111592087D01*
X158293596Y-111457381D01*
X158293598Y-111457372D01*
X158299750Y-111400142D01*
X158328572Y-111316400D01*
X158390875Y-111253457D01*
X158474317Y-111223779D01*
X158562373Y-111233244D01*
X158631676Y-111274349D01*
X158793695Y-111422050D01*
X158793700Y-111422054D01*
X158974978Y-111534297D01*
X158974980Y-111534298D01*
X159173796Y-111611319D01*
X159173798Y-111611320D01*
X159173800Y-111611320D01*
X159173802Y-111611321D01*
X159383390Y-111650500D01*
X159383392Y-111650500D01*
X159596608Y-111650500D01*
X159596610Y-111650500D01*
X159806198Y-111611321D01*
X160005019Y-111534298D01*
X160129259Y-111457372D01*
X160186299Y-111422054D01*
X160186299Y-111422053D01*
X160186302Y-111422052D01*
X160343872Y-111278407D01*
X160472366Y-111108255D01*
X160567405Y-110917389D01*
X160568597Y-110913196D01*
X160570065Y-110910520D01*
X160570724Y-110908820D01*
X160570949Y-110908907D01*
X160611181Y-110835545D01*
X160683241Y-110784058D01*
X160770503Y-110768935D01*
X160855686Y-110793172D01*
X160921916Y-110851968D01*
X160951401Y-110913195D01*
X160952595Y-110917389D01*
X161047634Y-111108255D01*
X161047635Y-111108256D01*
X161047636Y-111108258D01*
X161176124Y-111278403D01*
X161176129Y-111278408D01*
X161333695Y-111422050D01*
X161333700Y-111422054D01*
X161514978Y-111534297D01*
X161514980Y-111534298D01*
X161713796Y-111611319D01*
X161713798Y-111611320D01*
X161713800Y-111611320D01*
X161713802Y-111611321D01*
X161923390Y-111650500D01*
X161923392Y-111650500D01*
X162136608Y-111650500D01*
X162136610Y-111650500D01*
X162346198Y-111611321D01*
X162545019Y-111534298D01*
X162669259Y-111457372D01*
X162726299Y-111422054D01*
X162726299Y-111422053D01*
X162726302Y-111422052D01*
X162883872Y-111278407D01*
X163012366Y-111108255D01*
X163107405Y-110917389D01*
X163108597Y-110913196D01*
X163110065Y-110910520D01*
X163110724Y-110908820D01*
X163110949Y-110908907D01*
X163151181Y-110835545D01*
X163223241Y-110784058D01*
X163310503Y-110768935D01*
X163395686Y-110793172D01*
X163461916Y-110851968D01*
X163491401Y-110913195D01*
X163492595Y-110917389D01*
X163587634Y-111108255D01*
X163587635Y-111108256D01*
X163587636Y-111108258D01*
X163716124Y-111278403D01*
X163716129Y-111278408D01*
X163873695Y-111422050D01*
X163873700Y-111422054D01*
X164054978Y-111534297D01*
X164054980Y-111534298D01*
X164253796Y-111611319D01*
X164253798Y-111611320D01*
X164253800Y-111611320D01*
X164253802Y-111611321D01*
X164463390Y-111650500D01*
X164463392Y-111650500D01*
X164676608Y-111650500D01*
X164676610Y-111650500D01*
X164886198Y-111611321D01*
X165085019Y-111534298D01*
X165209259Y-111457372D01*
X165266299Y-111422054D01*
X165266299Y-111422053D01*
X165266302Y-111422052D01*
X165423872Y-111278407D01*
X165552366Y-111108255D01*
X165600893Y-111010799D01*
X165657021Y-110942292D01*
X165737314Y-110904922D01*
X165779031Y-110900500D01*
X174552726Y-110900500D01*
X174552727Y-110900500D01*
X174654588Y-110873207D01*
X174745913Y-110820480D01*
X175070480Y-110495913D01*
X175079390Y-110480480D01*
X175123207Y-110404587D01*
X175150500Y-110302727D01*
X175150500Y-97750000D01*
X185894318Y-97750000D01*
X185914956Y-97906762D01*
X185914957Y-97906764D01*
X185975463Y-98052840D01*
X185975464Y-98052843D01*
X186039633Y-98136468D01*
X186071718Y-98178282D01*
X186112870Y-98209859D01*
X186197156Y-98274535D01*
X186197159Y-98274536D01*
X186343238Y-98335044D01*
X186500000Y-98355682D01*
X186656762Y-98335044D01*
X186802841Y-98274536D01*
X186802841Y-98274535D01*
X186802843Y-98274535D01*
X186841887Y-98244575D01*
X186928282Y-98178282D01*
X187007590Y-98074926D01*
X187024535Y-98052843D01*
X187024536Y-98052840D01*
X187085044Y-97906762D01*
X187102822Y-97771722D01*
X187133630Y-97688694D01*
X187159400Y-97656991D01*
X187942287Y-96874104D01*
X188017275Y-96826987D01*
X188105281Y-96817071D01*
X188188874Y-96846322D01*
X188251498Y-96908946D01*
X188280749Y-96992539D01*
X188282000Y-97014820D01*
X188282000Y-104735226D01*
X188309293Y-104837089D01*
X188362019Y-104928412D01*
X192151109Y-108717502D01*
X192198228Y-108792490D01*
X192208144Y-108880497D01*
X192201798Y-108912675D01*
X192163603Y-109046913D01*
X192163603Y-109046917D01*
X192146040Y-109236461D01*
X192144785Y-109250000D01*
X192163603Y-109453083D01*
X192206024Y-109602177D01*
X192219419Y-109649252D01*
X192310329Y-109831825D01*
X192433233Y-109994576D01*
X192433235Y-109994578D01*
X192433236Y-109994579D01*
X192444563Y-110004905D01*
X192495095Y-110077634D01*
X192509500Y-110151969D01*
X192509500Y-113762760D01*
X192489793Y-113849103D01*
X192434574Y-113918344D01*
X192415261Y-113931953D01*
X192243957Y-114038020D01*
X192093241Y-114175414D01*
X192093233Y-114175424D01*
X191970329Y-114338174D01*
X191879419Y-114520747D01*
X191823603Y-114716916D01*
X191823603Y-114716917D01*
X191806409Y-114902478D01*
X191804785Y-114920000D01*
X191823603Y-115123083D01*
X191859714Y-115250000D01*
X191879419Y-115319252D01*
X191970329Y-115501825D01*
X192093233Y-115664575D01*
X192093241Y-115664585D01*
X192198784Y-115760799D01*
X192243959Y-115801981D01*
X192243961Y-115801982D01*
X192243962Y-115801983D01*
X192417360Y-115909347D01*
X192417363Y-115909348D01*
X192607544Y-115983024D01*
X192808024Y-116020500D01*
X192808027Y-116020500D01*
X193011972Y-116020500D01*
X193011976Y-116020500D01*
X193212456Y-115983024D01*
X193402637Y-115909348D01*
X193576041Y-115801981D01*
X193678271Y-115708786D01*
X193726758Y-115664585D01*
X193726759Y-115664583D01*
X193726764Y-115664579D01*
X193849673Y-115501821D01*
X193940582Y-115319250D01*
X193996397Y-115123083D01*
X194015215Y-114920000D01*
X193996397Y-114716917D01*
X193940582Y-114520750D01*
X193849673Y-114338179D01*
X193849671Y-114338177D01*
X193849670Y-114338174D01*
X193743316Y-114197339D01*
X193726764Y-114175421D01*
X193726762Y-114175419D01*
X193726758Y-114175414D01*
X193576042Y-114038020D01*
X193576041Y-114038019D01*
X193502040Y-113992200D01*
X193404739Y-113931953D01*
X193341704Y-113869744D01*
X193311903Y-113786345D01*
X193310500Y-113762760D01*
X193310500Y-110523500D01*
X193330207Y-110437157D01*
X193385426Y-110367916D01*
X193465218Y-110329489D01*
X193472897Y-110327895D01*
X193552456Y-110313024D01*
X193742637Y-110239348D01*
X193780438Y-110215943D01*
X193867841Y-110161825D01*
X193916041Y-110131981D01*
X194038759Y-110020109D01*
X194066758Y-109994585D01*
X194066759Y-109994583D01*
X194066764Y-109994579D01*
X194189673Y-109831821D01*
X194280582Y-109649250D01*
X194336397Y-109453083D01*
X194355215Y-109250000D01*
X194353960Y-109236461D01*
X194346542Y-109156401D01*
X194336397Y-109046917D01*
X194280582Y-108850750D01*
X194189673Y-108668179D01*
X194189671Y-108668177D01*
X194189670Y-108668174D01*
X194085132Y-108529744D01*
X194066764Y-108505421D01*
X194066762Y-108505419D01*
X194066758Y-108505414D01*
X193916042Y-108368020D01*
X193916037Y-108368016D01*
X193742639Y-108260652D01*
X193742636Y-108260651D01*
X193552460Y-108186977D01*
X193552457Y-108186976D01*
X193552456Y-108186976D01*
X193351976Y-108149500D01*
X193148024Y-108149500D01*
X192947544Y-108186976D01*
X192947541Y-108186976D01*
X192947541Y-108186977D01*
X192947533Y-108186979D01*
X192928493Y-108194355D01*
X192840862Y-108207167D01*
X192756349Y-108180687D01*
X192715898Y-108149505D01*
X189141286Y-104574893D01*
X189094167Y-104499905D01*
X189083000Y-104434179D01*
X189083000Y-99090000D01*
X192144785Y-99090000D01*
X192163603Y-99293083D01*
X192199714Y-99420000D01*
X192219419Y-99489252D01*
X192310329Y-99671825D01*
X192433233Y-99834575D01*
X192433241Y-99834585D01*
X192520986Y-99914574D01*
X192583959Y-99971981D01*
X192583961Y-99971982D01*
X192583962Y-99971983D01*
X192757360Y-100079347D01*
X192757363Y-100079348D01*
X192947544Y-100153024D01*
X193148024Y-100190500D01*
X193148027Y-100190500D01*
X193351972Y-100190500D01*
X193351976Y-100190500D01*
X193552456Y-100153024D01*
X193742637Y-100079348D01*
X193758512Y-100069519D01*
X193867841Y-100001825D01*
X193916041Y-99971981D01*
X194050772Y-99849158D01*
X194066758Y-99834585D01*
X194066759Y-99834583D01*
X194066764Y-99834579D01*
X194189673Y-99671821D01*
X194280582Y-99489250D01*
X194336397Y-99293083D01*
X194355215Y-99090000D01*
X194336397Y-98886917D01*
X194280582Y-98690750D01*
X194189673Y-98508179D01*
X194189671Y-98508177D01*
X194189670Y-98508174D01*
X194085509Y-98370244D01*
X194066764Y-98345421D01*
X194066762Y-98345419D01*
X194066758Y-98345414D01*
X193916042Y-98208020D01*
X193916037Y-98208016D01*
X193742639Y-98100652D01*
X193742636Y-98100651D01*
X193552460Y-98026977D01*
X193552457Y-98026976D01*
X193552456Y-98026976D01*
X193351976Y-97989500D01*
X193148024Y-97989500D01*
X192947544Y-98026976D01*
X192947542Y-98026976D01*
X192947540Y-98026977D01*
X192947538Y-98026977D01*
X192757363Y-98100651D01*
X192757360Y-98100652D01*
X192583962Y-98208016D01*
X192583957Y-98208020D01*
X192433241Y-98345414D01*
X192433233Y-98345424D01*
X192310329Y-98508174D01*
X192223362Y-98682830D01*
X192219418Y-98690750D01*
X192216010Y-98702727D01*
X192172491Y-98855681D01*
X192163603Y-98886917D01*
X192144785Y-99090000D01*
X189083000Y-99090000D01*
X189083000Y-96700470D01*
X189102707Y-96614127D01*
X189157926Y-96544886D01*
X189237718Y-96506459D01*
X189326282Y-96506459D01*
X189337520Y-96509372D01*
X189501720Y-96557077D01*
X189538855Y-96560000D01*
X189567500Y-96560000D01*
X190067500Y-96560000D01*
X190096145Y-96560000D01*
X190133279Y-96557077D01*
X190292200Y-96510906D01*
X190434643Y-96426666D01*
X190551666Y-96309643D01*
X190635906Y-96167200D01*
X190682077Y-96008280D01*
X190682078Y-96008274D01*
X190682730Y-96000000D01*
X190067500Y-96000000D01*
X190067500Y-96560000D01*
X189567500Y-96560000D01*
X189567500Y-95500000D01*
X190067500Y-95500000D01*
X190682730Y-95500000D01*
X190682730Y-95499999D01*
X190682078Y-95491725D01*
X190682077Y-95491719D01*
X190635906Y-95332799D01*
X190551666Y-95190356D01*
X190434643Y-95073333D01*
X190292200Y-94989093D01*
X190133279Y-94942922D01*
X190096145Y-94940000D01*
X190067500Y-94940000D01*
X190067500Y-95500000D01*
X189567500Y-95500000D01*
X189567500Y-94940000D01*
X189538855Y-94940000D01*
X189501720Y-94942922D01*
X189342799Y-94989093D01*
X189200354Y-95073335D01*
X189200353Y-95073335D01*
X189180663Y-95093026D01*
X189105673Y-95140143D01*
X189017667Y-95150057D01*
X188992607Y-95144337D01*
X188992469Y-95144970D01*
X188980642Y-95142386D01*
X188967449Y-95141149D01*
X188949864Y-95139500D01*
X188415136Y-95139500D01*
X188390516Y-95141808D01*
X188384360Y-95142386D01*
X188254755Y-95187737D01*
X188144275Y-95269275D01*
X188062737Y-95379755D01*
X188017386Y-95509360D01*
X188014500Y-95540140D01*
X188014500Y-95586678D01*
X187994793Y-95673021D01*
X187956214Y-95727392D01*
X186593011Y-97090594D01*
X186518022Y-97137713D01*
X186478273Y-97147177D01*
X186343244Y-97164954D01*
X186343235Y-97164957D01*
X186197159Y-97225463D01*
X186197156Y-97225464D01*
X186071718Y-97321718D01*
X185975464Y-97447156D01*
X185975463Y-97447159D01*
X185914957Y-97593235D01*
X185914956Y-97593237D01*
X185894318Y-97750000D01*
X175150500Y-97750000D01*
X175150500Y-97032040D01*
X175170207Y-96945697D01*
X175191623Y-96910896D01*
X175256008Y-96826987D01*
X175274536Y-96802841D01*
X175335044Y-96656762D01*
X175355682Y-96500000D01*
X175335044Y-96343238D01*
X175274536Y-96197159D01*
X175274535Y-96197156D01*
X175210079Y-96113157D01*
X175178282Y-96071718D01*
X175136468Y-96039633D01*
X175052843Y-95975464D01*
X175052840Y-95975463D01*
X174906764Y-95914957D01*
X174906762Y-95914956D01*
X174750000Y-95894318D01*
X174593237Y-95914956D01*
X174593235Y-95914957D01*
X174447159Y-95975463D01*
X174447156Y-95975464D01*
X174321718Y-96071718D01*
X174225464Y-96197156D01*
X174225463Y-96197159D01*
X174164957Y-96343235D01*
X174164956Y-96343237D01*
X174144318Y-96500000D01*
X174164956Y-96656762D01*
X174164957Y-96656764D01*
X174225463Y-96802840D01*
X174225465Y-96802843D01*
X174308377Y-96910896D01*
X174345305Y-96991394D01*
X174349500Y-97032040D01*
X174349500Y-109900500D01*
X174329793Y-109986843D01*
X174274574Y-110056084D01*
X174194782Y-110094511D01*
X174150500Y-110099500D01*
X165779031Y-110099500D01*
X165692688Y-110079793D01*
X165623447Y-110024574D01*
X165600893Y-109989201D01*
X165552365Y-109891743D01*
X165423875Y-109721596D01*
X165423870Y-109721591D01*
X165266304Y-109577949D01*
X165266299Y-109577945D01*
X165085021Y-109465702D01*
X165085019Y-109465701D01*
X164886203Y-109388680D01*
X164886201Y-109388679D01*
X164737364Y-109360857D01*
X164676610Y-109349500D01*
X164463390Y-109349500D01*
X164402636Y-109360857D01*
X164253798Y-109388679D01*
X164253791Y-109388682D01*
X164242022Y-109393241D01*
X164154390Y-109406052D01*
X164069878Y-109379571D01*
X164005225Y-109319045D01*
X163973236Y-109236461D01*
X163980247Y-109148175D01*
X164024869Y-109071675D01*
X164029388Y-109067004D01*
X165637607Y-107458786D01*
X165712596Y-107411667D01*
X165778321Y-107400500D01*
X167302725Y-107400500D01*
X167302727Y-107400500D01*
X167404587Y-107373207D01*
X167435029Y-107355631D01*
X167495907Y-107320484D01*
X167495911Y-107320481D01*
X167495910Y-107320481D01*
X167495913Y-107320480D01*
X167570480Y-107245913D01*
X167570481Y-107245910D01*
X167570484Y-107245907D01*
X167623205Y-107154590D01*
X167623204Y-107154590D01*
X167623207Y-107154587D01*
X167650500Y-107052727D01*
X167650500Y-102500000D01*
X169695034Y-102500000D01*
X169714858Y-102726603D01*
X169773733Y-102946326D01*
X169773735Y-102946330D01*
X169869862Y-103152476D01*
X169869863Y-103152477D01*
X169920974Y-103225471D01*
X170600000Y-102546445D01*
X170600000Y-102552661D01*
X170627259Y-102654394D01*
X170679920Y-102745606D01*
X170754394Y-102820080D01*
X170845606Y-102872741D01*
X170947339Y-102900000D01*
X170953553Y-102900000D01*
X170274526Y-103579024D01*
X170274527Y-103579025D01*
X170347516Y-103630132D01*
X170347523Y-103630137D01*
X170553669Y-103726264D01*
X170553673Y-103726266D01*
X170773397Y-103785141D01*
X170773394Y-103785141D01*
X171000000Y-103804965D01*
X171226603Y-103785141D01*
X171446326Y-103726266D01*
X171446330Y-103726264D01*
X171652478Y-103630136D01*
X171652483Y-103630133D01*
X171725471Y-103579024D01*
X171725472Y-103579024D01*
X171046448Y-102900000D01*
X171052661Y-102900000D01*
X171154394Y-102872741D01*
X171245606Y-102820080D01*
X171320080Y-102745606D01*
X171372741Y-102654394D01*
X171400000Y-102552661D01*
X171400000Y-102546448D01*
X172079024Y-103225472D01*
X172079024Y-103225471D01*
X172130133Y-103152483D01*
X172130136Y-103152478D01*
X172226264Y-102946330D01*
X172226266Y-102946326D01*
X172285141Y-102726603D01*
X172304965Y-102500000D01*
X172285141Y-102273396D01*
X172226266Y-102053673D01*
X172226264Y-102053669D01*
X172130137Y-101847523D01*
X172130132Y-101847516D01*
X172079025Y-101774527D01*
X172079024Y-101774526D01*
X171400000Y-102453551D01*
X171400000Y-102447339D01*
X171372741Y-102345606D01*
X171320080Y-102254394D01*
X171245606Y-102179920D01*
X171154394Y-102127259D01*
X171052661Y-102100000D01*
X171046447Y-102100000D01*
X171725471Y-101420974D01*
X171652477Y-101369863D01*
X171652476Y-101369862D01*
X171446330Y-101273735D01*
X171446326Y-101273733D01*
X171226602Y-101214858D01*
X171226605Y-101214858D01*
X171000000Y-101195034D01*
X170773396Y-101214858D01*
X170553673Y-101273733D01*
X170553670Y-101273735D01*
X170347518Y-101369865D01*
X170347514Y-101369867D01*
X170274527Y-101420973D01*
X170274527Y-101420974D01*
X170953554Y-102100000D01*
X170947339Y-102100000D01*
X170845606Y-102127259D01*
X170754394Y-102179920D01*
X170679920Y-102254394D01*
X170627259Y-102345606D01*
X170600000Y-102447339D01*
X170600000Y-102453553D01*
X169920974Y-101774527D01*
X169920973Y-101774527D01*
X169869867Y-101847514D01*
X169869865Y-101847518D01*
X169773735Y-102053670D01*
X169773733Y-102053673D01*
X169714858Y-102273396D01*
X169695034Y-102500000D01*
X167650500Y-102500000D01*
X167650500Y-97499998D01*
X169894785Y-97499998D01*
X169894785Y-97500001D01*
X169902457Y-97582799D01*
X169913603Y-97703083D01*
X169966030Y-97887343D01*
X169969419Y-97899252D01*
X170060329Y-98081825D01*
X170183233Y-98244575D01*
X170183241Y-98244585D01*
X170293858Y-98345424D01*
X170333959Y-98381981D01*
X170333961Y-98381982D01*
X170333962Y-98381983D01*
X170507360Y-98489347D01*
X170507363Y-98489348D01*
X170697544Y-98563024D01*
X170898024Y-98600500D01*
X170898027Y-98600500D01*
X171101972Y-98600500D01*
X171101976Y-98600500D01*
X171302456Y-98563024D01*
X171492637Y-98489348D01*
X171666041Y-98381981D01*
X171783904Y-98274535D01*
X171816758Y-98244585D01*
X171816759Y-98244583D01*
X171816764Y-98244579D01*
X171939673Y-98081821D01*
X172030582Y-97899250D01*
X172086397Y-97703083D01*
X172105215Y-97500000D01*
X172086397Y-97296917D01*
X172030582Y-97100750D01*
X171939673Y-96918179D01*
X171939671Y-96918177D01*
X171939670Y-96918174D01*
X171816766Y-96755424D01*
X171816758Y-96755414D01*
X171666042Y-96618020D01*
X171666037Y-96618016D01*
X171492639Y-96510652D01*
X171492636Y-96510651D01*
X171302460Y-96436977D01*
X171302457Y-96436976D01*
X171302456Y-96436976D01*
X171101976Y-96399500D01*
X170898024Y-96399500D01*
X170697544Y-96436976D01*
X170697542Y-96436976D01*
X170697540Y-96436977D01*
X170697538Y-96436977D01*
X170507363Y-96510651D01*
X170507360Y-96510652D01*
X170333962Y-96618016D01*
X170333957Y-96618020D01*
X170183241Y-96755414D01*
X170183233Y-96755424D01*
X170060329Y-96918174D01*
X169975663Y-97088209D01*
X169969418Y-97100750D01*
X169967467Y-97107606D01*
X169913603Y-97296916D01*
X169913603Y-97296917D01*
X169894785Y-97499998D01*
X167650500Y-97499998D01*
X167650500Y-97248320D01*
X167670207Y-97161978D01*
X167708786Y-97107607D01*
X170248284Y-94568109D01*
X172820480Y-91995913D01*
X172873207Y-91904588D01*
X172900500Y-91802727D01*
X172900500Y-91697273D01*
X172900500Y-91000000D01*
X176144318Y-91000000D01*
X176164956Y-91156762D01*
X176164957Y-91156764D01*
X176225463Y-91302840D01*
X176225464Y-91302843D01*
X176273144Y-91364979D01*
X176321718Y-91428282D01*
X176370125Y-91465426D01*
X176447156Y-91524535D01*
X176447159Y-91524536D01*
X176593238Y-91585044D01*
X176750000Y-91605682D01*
X176906762Y-91585044D01*
X177052841Y-91524536D01*
X177173929Y-91431621D01*
X177254424Y-91394695D01*
X177295071Y-91390500D01*
X180065969Y-91390500D01*
X180152312Y-91410207D01*
X180221553Y-91465426D01*
X180244107Y-91500799D01*
X180292634Y-91598256D01*
X180421124Y-91768403D01*
X180421129Y-91768408D01*
X180578695Y-91912050D01*
X180578700Y-91912054D01*
X180682949Y-91976602D01*
X180745984Y-92038811D01*
X180775786Y-92122209D01*
X180766452Y-92210279D01*
X180719829Y-92285577D01*
X180662293Y-92326149D01*
X180597419Y-92356401D01*
X180597418Y-92356401D01*
X180403919Y-92491891D01*
X180236891Y-92658919D01*
X180101401Y-92852418D01*
X180101399Y-92852422D01*
X180001570Y-93066504D01*
X180001569Y-93066507D01*
X179944363Y-93280000D01*
X180841988Y-93280000D01*
X180809075Y-93337007D01*
X180775000Y-93464174D01*
X180775000Y-93595826D01*
X180809075Y-93722993D01*
X180841988Y-93780000D01*
X179944364Y-93780000D01*
X180001569Y-93993492D01*
X180001571Y-93993495D01*
X180101399Y-94207578D01*
X180101401Y-94207582D01*
X180236890Y-94401079D01*
X180403920Y-94568109D01*
X180597417Y-94703598D01*
X180597420Y-94703600D01*
X180662290Y-94733849D01*
X180732215Y-94788199D01*
X180771633Y-94867507D01*
X180772737Y-94956063D01*
X180735308Y-95036329D01*
X180682950Y-95083397D01*
X180578695Y-95147949D01*
X180421129Y-95291591D01*
X180421124Y-95291596D01*
X180292634Y-95461743D01*
X180244107Y-95559201D01*
X180187979Y-95627708D01*
X180107686Y-95665078D01*
X180065969Y-95669500D01*
X177851449Y-95669500D01*
X177765106Y-95649793D01*
X177695865Y-95594574D01*
X177693572Y-95591643D01*
X177678285Y-95571720D01*
X177552843Y-95475464D01*
X177552840Y-95475463D01*
X177406764Y-95414957D01*
X177406762Y-95414956D01*
X177250000Y-95394318D01*
X177093237Y-95414956D01*
X177093235Y-95414957D01*
X176947159Y-95475463D01*
X176947156Y-95475464D01*
X176821718Y-95571718D01*
X176725464Y-95697156D01*
X176725463Y-95697159D01*
X176664957Y-95843235D01*
X176664956Y-95843237D01*
X176644318Y-96000000D01*
X176664956Y-96156762D01*
X176664957Y-96156764D01*
X176725463Y-96302840D01*
X176725464Y-96302843D01*
X176789633Y-96386468D01*
X176821718Y-96428282D01*
X176876209Y-96470094D01*
X176947156Y-96524535D01*
X176947159Y-96524536D01*
X177093238Y-96585044D01*
X177250000Y-96605682D01*
X177406762Y-96585044D01*
X177552841Y-96524536D01*
X177569670Y-96511622D01*
X177650166Y-96474695D01*
X177690813Y-96470500D01*
X180065969Y-96470500D01*
X180152312Y-96490207D01*
X180221553Y-96545426D01*
X180244107Y-96580799D01*
X180292634Y-96678256D01*
X180421124Y-96848403D01*
X180421129Y-96848408D01*
X180578695Y-96992050D01*
X180578700Y-96992054D01*
X180759978Y-97104297D01*
X180759980Y-97104298D01*
X180958796Y-97181319D01*
X180958798Y-97181320D01*
X180958800Y-97181320D01*
X180958802Y-97181321D01*
X181168390Y-97220500D01*
X181168392Y-97220500D01*
X181381608Y-97220500D01*
X181381610Y-97220500D01*
X181591198Y-97181321D01*
X181790019Y-97104298D01*
X181795750Y-97100750D01*
X181971299Y-96992054D01*
X181971299Y-96992053D01*
X181971302Y-96992052D01*
X182128872Y-96848407D01*
X182257366Y-96678255D01*
X182352405Y-96487389D01*
X182410756Y-96282310D01*
X182430429Y-96070000D01*
X182410756Y-95857690D01*
X182352405Y-95652611D01*
X182257366Y-95461745D01*
X182197132Y-95381983D01*
X182128875Y-95291596D01*
X182128870Y-95291591D01*
X181971304Y-95147949D01*
X181971299Y-95147945D01*
X181867050Y-95083397D01*
X181804014Y-95021188D01*
X181774213Y-94937789D01*
X181783548Y-94849719D01*
X181830170Y-94774421D01*
X181887710Y-94733848D01*
X181952583Y-94703597D01*
X182146079Y-94568109D01*
X182313109Y-94401079D01*
X182448598Y-94207582D01*
X182448600Y-94207578D01*
X182548428Y-93993495D01*
X182548430Y-93993492D01*
X182605636Y-93780000D01*
X181708012Y-93780000D01*
X181740925Y-93722993D01*
X181775000Y-93595826D01*
X181775000Y-93464174D01*
X181740925Y-93337007D01*
X181708012Y-93280000D01*
X182605636Y-93280000D01*
X182548430Y-93066507D01*
X182548429Y-93066504D01*
X182448600Y-92852422D01*
X182448598Y-92852418D01*
X182313108Y-92658919D01*
X182146079Y-92491890D01*
X181952582Y-92356401D01*
X181887708Y-92326150D01*
X181817784Y-92271799D01*
X181778366Y-92192491D01*
X181777263Y-92103934D01*
X181814691Y-92023669D01*
X181867050Y-91976602D01*
X181971302Y-91912052D01*
X182128872Y-91768407D01*
X182257366Y-91598255D01*
X182352405Y-91407389D01*
X182410756Y-91202310D01*
X182430429Y-90990000D01*
X182410756Y-90777690D01*
X182352405Y-90572611D01*
X182257366Y-90381745D01*
X182252328Y-90375074D01*
X182128875Y-90211596D01*
X182128870Y-90211591D01*
X181971304Y-90067949D01*
X181971299Y-90067945D01*
X181811000Y-89968692D01*
X181747964Y-89906483D01*
X181718163Y-89823084D01*
X181727498Y-89735014D01*
X181774120Y-89659716D01*
X181848797Y-89612104D01*
X181915759Y-89600499D01*
X182169864Y-89600499D01*
X182169867Y-89600499D01*
X182184940Y-89598750D01*
X182194991Y-89597585D01*
X182297765Y-89552206D01*
X182377206Y-89472765D01*
X182422585Y-89369991D01*
X182425500Y-89344865D01*
X182425499Y-87555136D01*
X182425498Y-87555130D01*
X182422585Y-87530010D01*
X182412990Y-87508280D01*
X182377206Y-87427235D01*
X182297765Y-87347794D01*
X182297762Y-87347792D01*
X182297761Y-87347792D01*
X182194991Y-87302415D01*
X182169866Y-87299500D01*
X180380133Y-87299500D01*
X180355010Y-87302414D01*
X180252238Y-87347792D01*
X180252233Y-87347795D01*
X180172795Y-87427233D01*
X180172792Y-87427238D01*
X180127415Y-87530007D01*
X180127415Y-87530009D01*
X180124500Y-87555130D01*
X180124500Y-89344866D01*
X180127414Y-89369989D01*
X180153699Y-89429520D01*
X180172794Y-89472765D01*
X180252235Y-89552206D01*
X180355009Y-89597585D01*
X180380135Y-89600500D01*
X180634240Y-89600499D01*
X180720580Y-89620206D01*
X180789822Y-89675424D01*
X180828248Y-89755217D01*
X180828249Y-89843780D01*
X180789823Y-89923573D01*
X180738999Y-89968691D01*
X180578703Y-90067943D01*
X180578695Y-90067949D01*
X180421129Y-90211591D01*
X180421124Y-90211596D01*
X180292634Y-90381743D01*
X180244107Y-90479201D01*
X180187979Y-90547708D01*
X180107686Y-90585078D01*
X180065969Y-90589500D01*
X177269008Y-90589500D01*
X177182665Y-90569793D01*
X177147864Y-90548377D01*
X177052843Y-90475465D01*
X177052840Y-90475463D01*
X176932589Y-90425654D01*
X176906762Y-90414956D01*
X176750000Y-90394318D01*
X176593237Y-90414956D01*
X176593235Y-90414957D01*
X176447159Y-90475463D01*
X176447156Y-90475464D01*
X176321718Y-90571718D01*
X176225464Y-90697156D01*
X176225463Y-90697159D01*
X176164957Y-90843235D01*
X176164956Y-90843237D01*
X176144318Y-91000000D01*
X172900500Y-91000000D01*
X172900500Y-89197273D01*
X172873207Y-89095413D01*
X172871226Y-89091981D01*
X172820484Y-89004092D01*
X172820481Y-89004088D01*
X172495912Y-88679519D01*
X172404589Y-88626793D01*
X172344284Y-88610635D01*
X172302727Y-88599500D01*
X172302726Y-88599500D01*
X168524500Y-88599500D01*
X168438157Y-88579793D01*
X168368916Y-88524574D01*
X168330489Y-88444782D01*
X168325500Y-88400500D01*
X168325500Y-88389363D01*
X168322841Y-88371116D01*
X168314866Y-88316375D01*
X168314863Y-88316369D01*
X168312512Y-88308759D01*
X168305846Y-88220447D01*
X168312512Y-88191241D01*
X168314862Y-88183631D01*
X168314866Y-88183625D01*
X168325500Y-88110636D01*
X168325500Y-87889364D01*
X168314866Y-87816375D01*
X168314863Y-87816369D01*
X168312512Y-87808759D01*
X168305846Y-87720447D01*
X168312512Y-87691241D01*
X168314862Y-87683631D01*
X168314866Y-87683625D01*
X168325500Y-87610636D01*
X168325500Y-87389364D01*
X168314866Y-87316375D01*
X168314863Y-87316369D01*
X168312512Y-87308759D01*
X168305846Y-87220447D01*
X168309342Y-87205129D01*
X193199500Y-87205129D01*
X193199500Y-90294865D01*
X193202414Y-90319988D01*
X193233046Y-90389364D01*
X193247794Y-90422764D01*
X193327235Y-90502205D01*
X193430009Y-90547584D01*
X193455135Y-90550499D01*
X196544864Y-90550498D01*
X196544866Y-90550498D01*
X196557427Y-90549041D01*
X196569991Y-90547584D01*
X196672765Y-90502205D01*
X196752206Y-90422764D01*
X196797585Y-90319990D01*
X196800500Y-90294864D01*
X196800499Y-88749999D01*
X213484891Y-88749999D01*
X213505299Y-89035356D01*
X213566112Y-89314902D01*
X213566112Y-89314905D01*
X213666088Y-89582949D01*
X213666090Y-89582954D01*
X213803192Y-89834039D01*
X213803193Y-89834040D01*
X213909883Y-89976561D01*
X214812421Y-89074023D01*
X214825359Y-89105257D01*
X214907437Y-89228096D01*
X215011903Y-89332562D01*
X215134742Y-89414640D01*
X215165974Y-89427577D01*
X214263436Y-90330114D01*
X214405959Y-90436805D01*
X214405959Y-90436806D01*
X214657044Y-90573908D01*
X214657049Y-90573910D01*
X214925095Y-90673886D01*
X215204642Y-90734699D01*
X215490000Y-90755107D01*
X215775357Y-90734699D01*
X216054903Y-90673886D01*
X216054906Y-90673886D01*
X216322950Y-90573910D01*
X216322955Y-90573908D01*
X216574042Y-90436805D01*
X216574048Y-90436801D01*
X216716562Y-90330115D01*
X216716563Y-90330114D01*
X215814025Y-89427576D01*
X215845258Y-89414640D01*
X215968097Y-89332562D01*
X216072563Y-89228096D01*
X216154641Y-89105257D01*
X216167578Y-89074024D01*
X217070116Y-89976562D01*
X217070116Y-89976561D01*
X217176802Y-89834047D01*
X217176806Y-89834041D01*
X217313909Y-89582954D01*
X217313911Y-89582949D01*
X217413887Y-89314905D01*
X217413887Y-89314902D01*
X217474700Y-89035356D01*
X217495108Y-88749999D01*
X217474700Y-88464641D01*
X217413887Y-88185095D01*
X217413887Y-88185092D01*
X217313911Y-87917048D01*
X217313909Y-87917043D01*
X217176806Y-87665958D01*
X217070115Y-87523435D01*
X216167577Y-88425972D01*
X216154641Y-88394741D01*
X216072563Y-88271902D01*
X215968097Y-88167436D01*
X215845258Y-88085358D01*
X215814024Y-88072420D01*
X216716563Y-87169882D01*
X216574041Y-87063192D01*
X216574040Y-87063191D01*
X216322955Y-86926089D01*
X216322950Y-86926087D01*
X216054904Y-86826111D01*
X215775357Y-86765298D01*
X215490000Y-86744890D01*
X215204642Y-86765298D01*
X214925096Y-86826111D01*
X214925093Y-86826111D01*
X214657049Y-86926087D01*
X214657044Y-86926089D01*
X214405959Y-87063191D01*
X214405951Y-87063196D01*
X214263436Y-87169881D01*
X214263436Y-87169882D01*
X215165975Y-88072420D01*
X215134742Y-88085358D01*
X215011903Y-88167436D01*
X214907437Y-88271902D01*
X214825359Y-88394741D01*
X214812421Y-88425973D01*
X213909883Y-87523435D01*
X213909882Y-87523435D01*
X213803197Y-87665950D01*
X213803192Y-87665958D01*
X213666090Y-87917043D01*
X213666088Y-87917048D01*
X213566112Y-88185092D01*
X213566112Y-88185095D01*
X213505299Y-88464641D01*
X213484891Y-88749999D01*
X196800499Y-88749999D01*
X196800499Y-87205135D01*
X196800498Y-87205129D01*
X196797585Y-87180009D01*
X196793113Y-87169881D01*
X196752206Y-87077234D01*
X196672765Y-86997793D01*
X196672762Y-86997791D01*
X196672761Y-86997791D01*
X196569991Y-86952414D01*
X196544866Y-86949499D01*
X193455133Y-86949499D01*
X193430010Y-86952413D01*
X193327238Y-86997791D01*
X193327233Y-86997794D01*
X193247795Y-87077232D01*
X193247792Y-87077237D01*
X193202415Y-87180006D01*
X193202415Y-87180008D01*
X193199500Y-87205129D01*
X168309342Y-87205129D01*
X168312512Y-87191241D01*
X168314862Y-87183631D01*
X168314866Y-87183625D01*
X168325500Y-87110636D01*
X168325500Y-87099500D01*
X168345207Y-87013157D01*
X168400426Y-86943916D01*
X168480218Y-86905489D01*
X168524500Y-86900500D01*
X174802725Y-86900500D01*
X174802727Y-86900500D01*
X174904587Y-86873207D01*
X174964991Y-86838333D01*
X174995907Y-86820484D01*
X174995911Y-86820481D01*
X174995910Y-86820481D01*
X174995913Y-86820480D01*
X175070480Y-86745913D01*
X175070481Y-86745910D01*
X175070484Y-86745907D01*
X175109527Y-86678281D01*
X175123207Y-86654587D01*
X175150500Y-86552727D01*
X175150500Y-81697273D01*
X175123207Y-81595412D01*
X175120452Y-81590641D01*
X175070480Y-81504087D01*
X171816393Y-78250000D01*
X174804785Y-78250000D01*
X174823603Y-78453083D01*
X174855296Y-78564472D01*
X174879419Y-78649252D01*
X174970329Y-78831825D01*
X175093233Y-78994575D01*
X175093241Y-78994585D01*
X175227498Y-79116975D01*
X175243959Y-79131981D01*
X175243961Y-79131982D01*
X175243962Y-79131983D01*
X175417360Y-79239347D01*
X175417363Y-79239348D01*
X175607544Y-79313024D01*
X175808024Y-79350500D01*
X175808027Y-79350500D01*
X176011972Y-79350500D01*
X176011976Y-79350500D01*
X176212456Y-79313024D01*
X176402637Y-79239348D01*
X176431405Y-79221536D01*
X176556765Y-79143916D01*
X176576041Y-79131981D01*
X176718273Y-79002320D01*
X176726758Y-78994585D01*
X176726759Y-78994583D01*
X176726764Y-78994579D01*
X176849673Y-78831821D01*
X176885038Y-78760799D01*
X176941166Y-78692292D01*
X177021458Y-78654922D01*
X177063176Y-78650500D01*
X180818450Y-78650500D01*
X180904793Y-78670207D01*
X180974034Y-78725426D01*
X181012461Y-78805218D01*
X181016601Y-78867861D01*
X181004357Y-78999998D01*
X181004357Y-79000001D01*
X181024885Y-79221535D01*
X181024885Y-79221539D01*
X181061578Y-79350500D01*
X181085771Y-79435528D01*
X181102735Y-79469596D01*
X181184941Y-79634687D01*
X181184945Y-79634694D01*
X181298701Y-79785331D01*
X181319019Y-79812236D01*
X181483438Y-79962124D01*
X181672599Y-80079247D01*
X181880060Y-80159618D01*
X182098757Y-80200500D01*
X182098759Y-80200500D01*
X182321241Y-80200500D01*
X182321243Y-80200500D01*
X182539940Y-80159618D01*
X182747401Y-80079247D01*
X182936562Y-79962124D01*
X183024516Y-79881942D01*
X183101598Y-79838339D01*
X183189969Y-79832497D01*
X183272122Y-79865577D01*
X183331787Y-79931025D01*
X183352510Y-79995501D01*
X183353539Y-79995258D01*
X183356403Y-80007381D01*
X183406646Y-80142087D01*
X183406647Y-80142090D01*
X183492810Y-80257189D01*
X183607909Y-80343352D01*
X183607912Y-80343353D01*
X183742618Y-80393596D01*
X183742627Y-80393598D01*
X183802177Y-80400000D01*
X184500000Y-80400000D01*
X184500000Y-79375277D01*
X184576306Y-79419333D01*
X184690756Y-79450000D01*
X184809244Y-79450000D01*
X184923694Y-79419333D01*
X185000000Y-79375277D01*
X185000000Y-80400000D01*
X185697823Y-80400000D01*
X185757372Y-80393598D01*
X185757381Y-80393596D01*
X185892087Y-80343353D01*
X185892090Y-80343352D01*
X186007189Y-80257189D01*
X186093352Y-80142090D01*
X186093353Y-80142087D01*
X186143596Y-80007381D01*
X186143598Y-80007372D01*
X186150000Y-79947822D01*
X186150000Y-79250000D01*
X185125278Y-79250000D01*
X185169333Y-79173694D01*
X185200000Y-79059244D01*
X185200000Y-78940756D01*
X185169333Y-78826306D01*
X185125278Y-78750000D01*
X186150000Y-78750000D01*
X186150000Y-78052177D01*
X186143598Y-77992627D01*
X186143596Y-77992618D01*
X186093353Y-77857912D01*
X186093352Y-77857909D01*
X186007189Y-77742810D01*
X185892090Y-77656647D01*
X185892087Y-77656646D01*
X185757381Y-77606403D01*
X185757372Y-77606401D01*
X185697823Y-77600000D01*
X185000000Y-77600000D01*
X185000000Y-78624722D01*
X184923694Y-78580667D01*
X184809244Y-78550000D01*
X184690756Y-78550000D01*
X184576306Y-78580667D01*
X184500000Y-78624722D01*
X184500000Y-77600000D01*
X183802177Y-77600000D01*
X183742627Y-77606401D01*
X183742618Y-77606403D01*
X183607912Y-77656646D01*
X183607909Y-77656647D01*
X183492810Y-77742810D01*
X183406647Y-77857909D01*
X183406646Y-77857912D01*
X183356403Y-77992618D01*
X183353539Y-78004742D01*
X183352252Y-78004437D01*
X183327608Y-78076020D01*
X183265299Y-78138957D01*
X183181854Y-78168627D01*
X183093799Y-78159154D01*
X183024517Y-78118057D01*
X182936562Y-78037876D01*
X182747401Y-77920753D01*
X182539940Y-77840382D01*
X182321243Y-77799500D01*
X182098757Y-77799500D01*
X181989408Y-77819941D01*
X181880058Y-77840382D01*
X181771824Y-77882312D01*
X181684192Y-77895125D01*
X181623790Y-77880603D01*
X181614596Y-77876795D01*
X181579058Y-77867273D01*
X181512727Y-77849500D01*
X181512726Y-77849500D01*
X177063176Y-77849500D01*
X176976833Y-77829793D01*
X176907592Y-77774574D01*
X176885038Y-77739201D01*
X176849673Y-77668179D01*
X176849672Y-77668177D01*
X176726766Y-77505424D01*
X176726758Y-77505414D01*
X176576042Y-77368020D01*
X176576037Y-77368016D01*
X176402639Y-77260652D01*
X176402636Y-77260651D01*
X176212460Y-77186977D01*
X176212457Y-77186976D01*
X176212456Y-77186976D01*
X176011976Y-77149500D01*
X175808024Y-77149500D01*
X175607544Y-77186976D01*
X175607542Y-77186976D01*
X175607540Y-77186977D01*
X175607538Y-77186977D01*
X175417363Y-77260651D01*
X175417360Y-77260652D01*
X175243962Y-77368016D01*
X175243957Y-77368020D01*
X175093241Y-77505414D01*
X175093233Y-77505424D01*
X174970329Y-77668174D01*
X174884581Y-77840382D01*
X174879418Y-77850750D01*
X174870924Y-77880603D01*
X174839053Y-77992618D01*
X174823603Y-78046917D01*
X174804785Y-78250000D01*
X171816393Y-78250000D01*
X167918786Y-74352393D01*
X167871667Y-74277405D01*
X167860500Y-74211679D01*
X167860500Y-70714537D01*
X167880207Y-70628194D01*
X167935426Y-70558953D01*
X167970808Y-70536395D01*
X167975021Y-70534297D01*
X168156299Y-70422054D01*
X168156299Y-70422053D01*
X168156302Y-70422052D01*
X168313872Y-70278407D01*
X168442366Y-70108255D01*
X168472363Y-70048010D01*
X168528487Y-69979506D01*
X168608780Y-69942135D01*
X168697335Y-69943303D01*
X168776615Y-69982778D01*
X168830915Y-70052741D01*
X168849500Y-70136712D01*
X168849500Y-70394866D01*
X168852414Y-70419989D01*
X168897343Y-70521745D01*
X168897794Y-70522765D01*
X168977235Y-70602206D01*
X169080009Y-70647585D01*
X169105135Y-70650500D01*
X170894864Y-70650499D01*
X170894866Y-70650499D01*
X170907427Y-70649042D01*
X170919991Y-70647585D01*
X171022765Y-70602206D01*
X171102206Y-70522765D01*
X171147585Y-70419991D01*
X171150500Y-70394865D01*
X171150499Y-69115191D01*
X219099500Y-69115191D01*
X219099500Y-69384808D01*
X219126913Y-69628109D01*
X219129688Y-69652732D01*
X219151889Y-69750000D01*
X219189685Y-69915596D01*
X219278726Y-70170060D01*
X219278733Y-70170079D01*
X219395716Y-70412997D01*
X219520331Y-70611320D01*
X219539165Y-70641293D01*
X219539174Y-70641306D01*
X219707258Y-70852076D01*
X219707266Y-70852085D01*
X219897914Y-71042733D01*
X219897923Y-71042741D01*
X220108693Y-71210825D01*
X220108705Y-71210833D01*
X220108711Y-71210838D01*
X220337003Y-71354284D01*
X220579921Y-71471267D01*
X220834409Y-71560316D01*
X221097268Y-71620312D01*
X221365191Y-71650500D01*
X221365192Y-71650500D01*
X221634808Y-71650500D01*
X221634809Y-71650500D01*
X221902732Y-71620312D01*
X222165591Y-71560316D01*
X222420079Y-71471267D01*
X222662997Y-71354284D01*
X222891289Y-71210838D01*
X222891300Y-71210828D01*
X222891306Y-71210825D01*
X223102076Y-71042741D01*
X223102085Y-71042734D01*
X223292734Y-70852085D01*
X223435071Y-70673600D01*
X223460825Y-70641306D01*
X223460828Y-70641300D01*
X223460838Y-70641289D01*
X223604284Y-70412997D01*
X223721267Y-70170079D01*
X223730604Y-70143397D01*
X223810314Y-69915596D01*
X223810316Y-69915591D01*
X223870312Y-69652732D01*
X223900500Y-69384809D01*
X223900500Y-69115191D01*
X223870312Y-68847268D01*
X223810316Y-68584409D01*
X223721267Y-68329921D01*
X223604284Y-68087003D01*
X223460838Y-67858711D01*
X223460833Y-67858705D01*
X223460825Y-67858693D01*
X223292741Y-67647923D01*
X223292733Y-67647914D01*
X223102085Y-67457266D01*
X223102076Y-67457258D01*
X222891306Y-67289174D01*
X222891293Y-67289165D01*
X222891291Y-67289164D01*
X222891289Y-67289162D01*
X222662997Y-67145716D01*
X222420079Y-67028733D01*
X222420073Y-67028731D01*
X222420063Y-67028727D01*
X222165595Y-66939685D01*
X222165596Y-66939685D01*
X222092904Y-66923093D01*
X221902732Y-66879688D01*
X221902728Y-66879687D01*
X221902726Y-66879687D01*
X221703945Y-66857289D01*
X221634809Y-66849500D01*
X221365191Y-66849500D01*
X221310235Y-66855692D01*
X221097273Y-66879687D01*
X221097269Y-66879687D01*
X221097268Y-66879688D01*
X221024581Y-66896278D01*
X220834403Y-66939685D01*
X220579936Y-67028727D01*
X220579918Y-67028734D01*
X220336997Y-67145719D01*
X220108706Y-67289165D01*
X220108693Y-67289174D01*
X219897923Y-67457258D01*
X219897914Y-67457266D01*
X219707266Y-67647914D01*
X219707258Y-67647923D01*
X219539174Y-67858693D01*
X219539165Y-67858706D01*
X219395719Y-68086997D01*
X219278734Y-68329918D01*
X219278727Y-68329936D01*
X219189685Y-68584403D01*
X219129687Y-68847273D01*
X219099500Y-69115191D01*
X171150499Y-69115191D01*
X171150499Y-68605136D01*
X171150498Y-68605130D01*
X171147585Y-68580010D01*
X171146673Y-68577945D01*
X171102206Y-68477235D01*
X171022765Y-68397794D01*
X171022762Y-68397792D01*
X171022761Y-68397792D01*
X170919991Y-68352415D01*
X170894866Y-68349500D01*
X169105133Y-68349500D01*
X169080010Y-68352414D01*
X168977238Y-68397792D01*
X168977233Y-68397795D01*
X168897795Y-68477233D01*
X168897792Y-68477238D01*
X168852415Y-68580007D01*
X168852415Y-68580009D01*
X168849500Y-68605130D01*
X168849500Y-68863284D01*
X168829793Y-68949627D01*
X168774574Y-69018868D01*
X168694782Y-69057295D01*
X168606218Y-69057295D01*
X168526426Y-69018868D01*
X168472363Y-68951986D01*
X168442366Y-68891745D01*
X168313875Y-68721596D01*
X168313870Y-68721591D01*
X168156304Y-68577949D01*
X168156299Y-68577945D01*
X167975021Y-68465702D01*
X167975019Y-68465701D01*
X167776203Y-68388680D01*
X167776201Y-68388679D01*
X167650445Y-68365171D01*
X167566610Y-68349500D01*
X167353390Y-68349500D01*
X167283527Y-68362559D01*
X167143798Y-68388679D01*
X167143796Y-68388680D01*
X166944980Y-68465701D01*
X166944978Y-68465702D01*
X166763700Y-68577945D01*
X166763695Y-68577949D01*
X166606129Y-68721591D01*
X166606124Y-68721596D01*
X166477636Y-68891741D01*
X166382595Y-69082609D01*
X166381402Y-69086805D01*
X166379933Y-69089483D01*
X166379276Y-69091180D01*
X166379050Y-69091092D01*
X166338816Y-69164457D01*
X166266755Y-69215943D01*
X166179493Y-69231063D01*
X166094311Y-69206825D01*
X166028081Y-69148027D01*
X165998598Y-69086805D01*
X165997404Y-69082609D01*
X165982907Y-69053495D01*
X165902366Y-68891745D01*
X165863290Y-68840000D01*
X165773875Y-68721596D01*
X165773870Y-68721591D01*
X165616304Y-68577949D01*
X165616299Y-68577945D01*
X165435021Y-68465702D01*
X165435019Y-68465701D01*
X165236203Y-68388680D01*
X165236201Y-68388679D01*
X165110445Y-68365171D01*
X165026610Y-68349500D01*
X164813390Y-68349500D01*
X164743527Y-68362559D01*
X164603798Y-68388679D01*
X164603796Y-68388680D01*
X164404980Y-68465701D01*
X164404978Y-68465702D01*
X164223700Y-68577945D01*
X164223695Y-68577949D01*
X164066129Y-68721591D01*
X164066124Y-68721596D01*
X163937636Y-68891741D01*
X163842595Y-69082609D01*
X163841402Y-69086805D01*
X163839933Y-69089483D01*
X163839276Y-69091180D01*
X163839050Y-69091092D01*
X163798816Y-69164457D01*
X163726755Y-69215943D01*
X163639493Y-69231063D01*
X163554311Y-69206825D01*
X163488081Y-69148027D01*
X163458598Y-69086805D01*
X163457404Y-69082609D01*
X163442907Y-69053495D01*
X163362366Y-68891745D01*
X163323290Y-68840000D01*
X163233875Y-68721596D01*
X163233870Y-68721591D01*
X163076304Y-68577949D01*
X163076299Y-68577945D01*
X162895021Y-68465702D01*
X162895019Y-68465701D01*
X162696203Y-68388680D01*
X162696201Y-68388679D01*
X162570445Y-68365171D01*
X162486610Y-68349500D01*
X162273390Y-68349500D01*
X162203527Y-68362559D01*
X162063798Y-68388679D01*
X162063796Y-68388680D01*
X161864980Y-68465701D01*
X161864978Y-68465702D01*
X161683700Y-68577945D01*
X161683695Y-68577949D01*
X161526129Y-68721591D01*
X161526124Y-68721596D01*
X161397633Y-68891745D01*
X161392793Y-68899563D01*
X161390732Y-68898287D01*
X161343882Y-68955455D01*
X161263584Y-68992815D01*
X161175028Y-68991634D01*
X161095755Y-68952148D01*
X161041537Y-68882333D01*
X161013597Y-68822418D01*
X161013598Y-68822418D01*
X160878108Y-68628919D01*
X160711079Y-68461890D01*
X160517582Y-68326401D01*
X160517578Y-68326399D01*
X160303495Y-68226571D01*
X160303492Y-68226569D01*
X160090000Y-68169363D01*
X160090000Y-69066988D01*
X160032993Y-69034075D01*
X159905826Y-69000000D01*
X159774174Y-69000000D01*
X159647007Y-69034075D01*
X159590000Y-69066988D01*
X159590000Y-68169363D01*
X159376507Y-68226569D01*
X159376504Y-68226570D01*
X159162422Y-68326399D01*
X159162418Y-68326401D01*
X158968919Y-68461891D01*
X158801891Y-68628919D01*
X158666401Y-68822418D01*
X158666399Y-68822422D01*
X158566570Y-69036504D01*
X158566569Y-69036507D01*
X158509363Y-69250000D01*
X159406988Y-69250000D01*
X159374075Y-69307007D01*
X159340000Y-69434174D01*
X159340000Y-69565826D01*
X159374075Y-69692993D01*
X159406988Y-69750000D01*
X158509364Y-69750000D01*
X158566569Y-69963492D01*
X158566571Y-69963495D01*
X158666399Y-70177578D01*
X158666401Y-70177582D01*
X158801890Y-70371079D01*
X158968920Y-70538109D01*
X159162417Y-70673598D01*
X159162420Y-70673600D01*
X159376509Y-70773430D01*
X159590000Y-70830634D01*
X159590000Y-69933012D01*
X159647007Y-69965925D01*
X159774174Y-70000000D01*
X159905826Y-70000000D01*
X160032993Y-69965925D01*
X160090000Y-69933012D01*
X160090000Y-70830635D01*
X160132328Y-70863115D01*
X160188832Y-70931311D01*
X160210150Y-71017271D01*
X160192061Y-71103967D01*
X160151899Y-71161706D01*
X145972392Y-85341214D01*
X145897404Y-85388333D01*
X145831678Y-85399500D01*
X145648024Y-85399500D01*
X145447544Y-85436976D01*
X145447542Y-85436976D01*
X145447540Y-85436977D01*
X145447538Y-85436977D01*
X145257363Y-85510651D01*
X145257360Y-85510652D01*
X145083962Y-85618016D01*
X145083957Y-85618020D01*
X144933241Y-85755414D01*
X144933233Y-85755424D01*
X144810329Y-85918174D01*
X144722525Y-86094511D01*
X144719418Y-86100750D01*
X144706416Y-86146446D01*
X144663603Y-86296916D01*
X144663603Y-86296917D01*
X144644785Y-86499998D01*
X144644785Y-86500001D01*
X144650074Y-86557084D01*
X144663603Y-86703083D01*
X144716605Y-86889364D01*
X144719419Y-86899252D01*
X144810329Y-87081825D01*
X144933233Y-87244575D01*
X144933241Y-87244585D01*
X145067498Y-87366975D01*
X145083959Y-87381981D01*
X145083961Y-87381982D01*
X145083962Y-87381983D01*
X145257360Y-87489347D01*
X145257363Y-87489348D01*
X145447544Y-87563024D01*
X145648024Y-87600500D01*
X145648027Y-87600500D01*
X145851972Y-87600500D01*
X145851976Y-87600500D01*
X146052456Y-87563024D01*
X146242637Y-87489348D01*
X146416041Y-87381981D01*
X146528388Y-87279563D01*
X146566758Y-87244585D01*
X146566759Y-87244583D01*
X146566764Y-87244579D01*
X146689673Y-87081821D01*
X146725038Y-87010799D01*
X146781166Y-86942292D01*
X146861458Y-86904922D01*
X146903176Y-86900500D01*
X151501679Y-86900500D01*
X151588022Y-86920207D01*
X151642393Y-86958786D01*
X152943393Y-88259786D01*
X152990512Y-88334774D01*
X153000428Y-88422781D01*
X152971177Y-88506374D01*
X152908553Y-88568998D01*
X152824960Y-88598249D01*
X152802679Y-88599500D01*
X136302727Y-88599500D01*
X136197273Y-88599500D01*
X136163319Y-88608597D01*
X136095410Y-88626793D01*
X136004087Y-88679519D01*
X136004085Y-88679521D01*
X132238484Y-92445121D01*
X132163495Y-92492240D01*
X132075489Y-92502156D01*
X131991896Y-92472905D01*
X131963708Y-92451473D01*
X131916041Y-92408019D01*
X131885912Y-92389364D01*
X131742639Y-92300652D01*
X131742636Y-92300651D01*
X131552460Y-92226977D01*
X131552457Y-92226976D01*
X131552456Y-92226976D01*
X131491659Y-92215611D01*
X131410410Y-92180375D01*
X131352493Y-92113374D01*
X131329383Y-92027879D01*
X131345656Y-91940823D01*
X131398090Y-91869450D01*
X131476299Y-91827895D01*
X131491649Y-91824390D01*
X131552456Y-91813024D01*
X131742637Y-91739348D01*
X131765061Y-91725464D01*
X131820316Y-91691251D01*
X131916041Y-91631981D01*
X132033904Y-91524535D01*
X132066758Y-91494585D01*
X132066759Y-91494583D01*
X132066764Y-91494579D01*
X132189673Y-91331821D01*
X132280582Y-91149250D01*
X132336397Y-90953083D01*
X132355215Y-90750000D01*
X132336397Y-90546917D01*
X132280582Y-90350750D01*
X132189673Y-90168179D01*
X132189671Y-90168177D01*
X132189670Y-90168174D01*
X132066766Y-90005424D01*
X132066758Y-90005414D01*
X131916042Y-89868020D01*
X131916037Y-89868016D01*
X131742639Y-89760652D01*
X131742636Y-89760651D01*
X131552460Y-89686977D01*
X131552457Y-89686976D01*
X131552456Y-89686976D01*
X131491659Y-89675611D01*
X131410410Y-89640375D01*
X131352493Y-89573374D01*
X131329383Y-89487879D01*
X131345656Y-89400823D01*
X131398090Y-89329450D01*
X131476299Y-89287895D01*
X131491649Y-89284390D01*
X131552456Y-89273024D01*
X131742637Y-89199348D01*
X131745989Y-89197273D01*
X131871003Y-89119867D01*
X131916041Y-89091981D01*
X132051202Y-88968766D01*
X132066758Y-88954585D01*
X132066759Y-88954583D01*
X132066764Y-88954579D01*
X132189673Y-88791821D01*
X132280582Y-88609250D01*
X132336397Y-88413083D01*
X132355215Y-88210000D01*
X132336397Y-88006917D01*
X132280582Y-87810750D01*
X132189673Y-87628179D01*
X132189671Y-87628177D01*
X132189670Y-87628174D01*
X132066766Y-87465424D01*
X132066758Y-87465414D01*
X131916042Y-87328020D01*
X131916037Y-87328016D01*
X131737049Y-87217191D01*
X131674013Y-87154982D01*
X131644212Y-87071583D01*
X131653547Y-86983513D01*
X131700169Y-86908215D01*
X131757709Y-86867642D01*
X131902487Y-86800131D01*
X132088818Y-86669660D01*
X132249660Y-86508818D01*
X132255834Y-86500000D01*
X139445034Y-86500000D01*
X139464858Y-86726603D01*
X139523733Y-86946326D01*
X139523735Y-86946330D01*
X139619862Y-87152476D01*
X139619863Y-87152477D01*
X139670974Y-87225471D01*
X140350000Y-86546445D01*
X140350000Y-86552661D01*
X140377259Y-86654394D01*
X140429920Y-86745606D01*
X140504394Y-86820080D01*
X140595606Y-86872741D01*
X140697339Y-86900000D01*
X140703553Y-86900000D01*
X140024526Y-87579024D01*
X140024527Y-87579025D01*
X140097516Y-87630132D01*
X140097523Y-87630137D01*
X140303669Y-87726264D01*
X140303673Y-87726266D01*
X140523397Y-87785141D01*
X140523394Y-87785141D01*
X140750000Y-87804965D01*
X140976603Y-87785141D01*
X141196326Y-87726266D01*
X141196330Y-87726264D01*
X141402478Y-87630136D01*
X141402483Y-87630133D01*
X141475471Y-87579024D01*
X141475472Y-87579024D01*
X140796448Y-86900000D01*
X140802661Y-86900000D01*
X140904394Y-86872741D01*
X140995606Y-86820080D01*
X141070080Y-86745606D01*
X141122741Y-86654394D01*
X141150000Y-86552661D01*
X141150000Y-86546448D01*
X141829024Y-87225472D01*
X141829024Y-87225471D01*
X141880133Y-87152483D01*
X141880136Y-87152478D01*
X141976264Y-86946330D01*
X141976266Y-86946326D01*
X142035141Y-86726603D01*
X142054965Y-86500000D01*
X142035141Y-86273396D01*
X141976266Y-86053673D01*
X141976264Y-86053669D01*
X141880137Y-85847523D01*
X141880132Y-85847516D01*
X141829025Y-85774527D01*
X141829024Y-85774526D01*
X141150000Y-86453551D01*
X141150000Y-86447339D01*
X141122741Y-86345606D01*
X141070080Y-86254394D01*
X140995606Y-86179920D01*
X140904394Y-86127259D01*
X140802661Y-86100000D01*
X140796447Y-86100000D01*
X141475471Y-85420974D01*
X141402477Y-85369863D01*
X141402476Y-85369862D01*
X141196330Y-85273735D01*
X141196326Y-85273733D01*
X140976602Y-85214858D01*
X140976605Y-85214858D01*
X140750000Y-85195034D01*
X140523396Y-85214858D01*
X140303673Y-85273733D01*
X140303670Y-85273735D01*
X140097518Y-85369865D01*
X140097514Y-85369867D01*
X140024527Y-85420973D01*
X140024527Y-85420974D01*
X140703554Y-86100000D01*
X140697339Y-86100000D01*
X140595606Y-86127259D01*
X140504394Y-86179920D01*
X140429920Y-86254394D01*
X140377259Y-86345606D01*
X140350000Y-86447339D01*
X140350000Y-86453553D01*
X139670974Y-85774527D01*
X139670973Y-85774527D01*
X139619867Y-85847514D01*
X139619865Y-85847518D01*
X139523735Y-86053670D01*
X139523733Y-86053673D01*
X139464858Y-86273396D01*
X139445034Y-86500000D01*
X132255834Y-86500000D01*
X132380132Y-86322486D01*
X132380134Y-86322483D01*
X132476268Y-86116321D01*
X132528872Y-85920000D01*
X131565686Y-85920000D01*
X131570080Y-85915606D01*
X131622741Y-85824394D01*
X131650000Y-85722661D01*
X131650000Y-85617339D01*
X131622741Y-85515606D01*
X131570080Y-85424394D01*
X131565686Y-85420000D01*
X132528872Y-85420000D01*
X132528872Y-85419999D01*
X132476268Y-85223678D01*
X132380134Y-85017516D01*
X132380132Y-85017513D01*
X132249660Y-84831181D01*
X132088818Y-84670339D01*
X131902486Y-84539867D01*
X131902483Y-84539865D01*
X131696330Y-84443735D01*
X131696325Y-84443733D01*
X131500000Y-84391127D01*
X131500000Y-85354314D01*
X131495606Y-85349920D01*
X131404394Y-85297259D01*
X131302661Y-85270000D01*
X131197339Y-85270000D01*
X131095606Y-85297259D01*
X131004394Y-85349920D01*
X131000000Y-85354314D01*
X131000000Y-84391127D01*
X130999999Y-84391127D01*
X130803674Y-84443733D01*
X130803669Y-84443735D01*
X130597516Y-84539865D01*
X130597513Y-84539867D01*
X130411181Y-84670339D01*
X130250339Y-84831181D01*
X130119867Y-85017513D01*
X130119865Y-85017516D01*
X130023731Y-85223678D01*
X129971127Y-85419999D01*
X129971128Y-85420000D01*
X130934314Y-85420000D01*
X130929920Y-85424394D01*
X130877259Y-85515606D01*
X130850000Y-85617339D01*
X130850000Y-85722661D01*
X130877259Y-85824394D01*
X130929920Y-85915606D01*
X130934314Y-85920000D01*
X129971127Y-85920000D01*
X130023731Y-86116321D01*
X130119865Y-86322483D01*
X130119867Y-86322486D01*
X130250339Y-86508818D01*
X130411181Y-86669660D01*
X130597513Y-86800132D01*
X130597516Y-86800134D01*
X130742291Y-86867643D01*
X130812215Y-86921993D01*
X130851633Y-87001301D01*
X130852738Y-87089857D01*
X130815309Y-87170123D01*
X130762951Y-87217191D01*
X130583958Y-87328019D01*
X130583957Y-87328020D01*
X130433241Y-87465414D01*
X130433233Y-87465424D01*
X130310329Y-87628174D01*
X130219420Y-87810746D01*
X130219418Y-87810750D01*
X130217818Y-87816375D01*
X130163603Y-88006916D01*
X130163603Y-88006917D01*
X130156335Y-88085358D01*
X130144785Y-88210000D01*
X130163603Y-88413083D01*
X130207965Y-88568998D01*
X130219419Y-88609252D01*
X130310329Y-88791825D01*
X130433233Y-88954575D01*
X130433241Y-88954585D01*
X130521844Y-89035356D01*
X130583959Y-89091981D01*
X130583961Y-89091982D01*
X130583962Y-89091983D01*
X130757360Y-89199347D01*
X130757363Y-89199348D01*
X130947538Y-89273022D01*
X130947540Y-89273023D01*
X130947542Y-89273023D01*
X130947544Y-89273024D01*
X131008339Y-89284388D01*
X131089590Y-89319625D01*
X131147506Y-89386627D01*
X131170616Y-89472122D01*
X131154343Y-89559177D01*
X131101909Y-89630550D01*
X131023700Y-89672105D01*
X131008345Y-89675610D01*
X130990707Y-89678907D01*
X130947540Y-89686976D01*
X130947538Y-89686977D01*
X130757363Y-89760651D01*
X130757360Y-89760652D01*
X130583962Y-89868016D01*
X130583957Y-89868020D01*
X130433241Y-90005414D01*
X130433233Y-90005424D01*
X130310329Y-90168174D01*
X130220141Y-90349299D01*
X130219418Y-90350750D01*
X130210600Y-90381741D01*
X130163603Y-90546916D01*
X130163603Y-90546917D01*
X130149682Y-90697156D01*
X130144785Y-90750000D01*
X130163603Y-90953083D01*
X130213029Y-91126796D01*
X130219419Y-91149252D01*
X130310329Y-91331825D01*
X130433233Y-91494575D01*
X130433241Y-91494585D01*
X130560545Y-91610636D01*
X130583959Y-91631981D01*
X130583961Y-91631982D01*
X130583962Y-91631983D01*
X130757360Y-91739347D01*
X130757363Y-91739348D01*
X130947538Y-91813022D01*
X130947540Y-91813023D01*
X130947542Y-91813023D01*
X130947544Y-91813024D01*
X131008339Y-91824388D01*
X131089590Y-91859625D01*
X131147506Y-91926627D01*
X131170616Y-92012122D01*
X131154343Y-92099177D01*
X131101909Y-92170550D01*
X131023700Y-92212105D01*
X131008345Y-92215610D01*
X130990707Y-92218907D01*
X130947540Y-92226976D01*
X130947538Y-92226977D01*
X130757363Y-92300651D01*
X130757360Y-92300652D01*
X130583962Y-92408016D01*
X130583957Y-92408020D01*
X130433241Y-92545414D01*
X130433233Y-92545424D01*
X130310327Y-92708177D01*
X130310326Y-92708179D01*
X130274962Y-92779201D01*
X130218834Y-92847708D01*
X130138542Y-92885078D01*
X130096824Y-92889500D01*
X124783176Y-92889500D01*
X124696833Y-92869793D01*
X124627592Y-92814574D01*
X124605038Y-92779201D01*
X124569673Y-92708179D01*
X124569672Y-92708177D01*
X124452367Y-92552841D01*
X124446764Y-92545421D01*
X124446762Y-92545419D01*
X124446758Y-92545414D01*
X124296042Y-92408020D01*
X124296037Y-92408016D01*
X124117049Y-92297191D01*
X124054013Y-92234982D01*
X124024212Y-92151583D01*
X124033547Y-92063513D01*
X124080169Y-91988215D01*
X124137709Y-91947642D01*
X124282487Y-91880131D01*
X124468818Y-91749660D01*
X124629660Y-91588818D01*
X124760132Y-91402486D01*
X124760134Y-91402483D01*
X124856268Y-91196321D01*
X124908872Y-91000000D01*
X123945686Y-91000000D01*
X123950080Y-90995606D01*
X124002741Y-90904394D01*
X124030000Y-90802661D01*
X124030000Y-90697339D01*
X124002741Y-90595606D01*
X123950080Y-90504394D01*
X123945686Y-90500000D01*
X124908872Y-90500000D01*
X124908872Y-90499999D01*
X124856268Y-90303678D01*
X124760134Y-90097516D01*
X124760132Y-90097513D01*
X124629660Y-89911181D01*
X124468818Y-89750339D01*
X124282486Y-89619867D01*
X124282482Y-89619865D01*
X124137708Y-89552356D01*
X124067783Y-89498005D01*
X124028365Y-89418698D01*
X124027261Y-89330141D01*
X124064690Y-89249876D01*
X124117049Y-89202808D01*
X124251003Y-89119867D01*
X124296041Y-89091981D01*
X124431202Y-88968766D01*
X124446758Y-88954585D01*
X124446759Y-88954583D01*
X124446764Y-88954579D01*
X124569673Y-88791821D01*
X124660582Y-88609250D01*
X124716397Y-88413083D01*
X124735215Y-88210000D01*
X124716397Y-88006917D01*
X124660582Y-87810750D01*
X124569673Y-87628179D01*
X124569671Y-87628177D01*
X124569670Y-87628174D01*
X124446766Y-87465424D01*
X124446758Y-87465414D01*
X124296042Y-87328020D01*
X124296037Y-87328016D01*
X124122639Y-87220652D01*
X124122637Y-87220651D01*
X123953327Y-87155061D01*
X123879934Y-87105494D01*
X123835315Y-87028992D01*
X123828308Y-86940706D01*
X123860301Y-86858123D01*
X123924956Y-86797600D01*
X124009469Y-86771123D01*
X124025214Y-86770499D01*
X124474867Y-86770499D01*
X124489940Y-86768750D01*
X124499991Y-86767585D01*
X124602765Y-86722206D01*
X124682206Y-86642765D01*
X124727585Y-86539991D01*
X124730500Y-86514865D01*
X124730499Y-84825136D01*
X124730498Y-84825130D01*
X124728313Y-84806290D01*
X124727585Y-84800009D01*
X124682206Y-84697235D01*
X124602765Y-84617794D01*
X124602762Y-84617792D01*
X124602761Y-84617792D01*
X124499991Y-84572415D01*
X124474866Y-84569500D01*
X122785133Y-84569500D01*
X122760010Y-84572414D01*
X122657238Y-84617792D01*
X122657233Y-84617795D01*
X122577795Y-84697233D01*
X122577792Y-84697238D01*
X122532415Y-84800007D01*
X122532415Y-84800009D01*
X122529500Y-84825130D01*
X122529500Y-86121678D01*
X122509793Y-86208021D01*
X122471214Y-86262392D01*
X121942393Y-86791214D01*
X121867405Y-86838333D01*
X121801679Y-86849500D01*
X118947893Y-86849500D01*
X118861550Y-86829793D01*
X118798821Y-86779768D01*
X118798770Y-86779820D01*
X118798308Y-86779358D01*
X118792309Y-86774574D01*
X118788298Y-86769348D01*
X118788228Y-86769278D01*
X118788226Y-86769276D01*
X118788225Y-86769275D01*
X118677745Y-86687737D01*
X118548139Y-86642386D01*
X118517364Y-86639500D01*
X117982636Y-86639500D01*
X117967248Y-86640943D01*
X117951857Y-86642386D01*
X117940031Y-86644970D01*
X117939440Y-86642267D01*
X117870235Y-86650054D01*
X117786646Y-86620791D01*
X117751833Y-86593023D01*
X117732143Y-86573333D01*
X117589700Y-86489093D01*
X117430779Y-86442922D01*
X117393645Y-86440000D01*
X117365000Y-86440000D01*
X117365000Y-88060000D01*
X117393645Y-88060000D01*
X117430779Y-88057077D01*
X117589700Y-88010906D01*
X117732146Y-87926663D01*
X117751828Y-87906981D01*
X117826815Y-87859860D01*
X117914821Y-87849940D01*
X117939889Y-87855662D01*
X117940028Y-87855029D01*
X117951853Y-87857611D01*
X117951861Y-87857614D01*
X117982636Y-87860500D01*
X117982640Y-87860500D01*
X118517360Y-87860500D01*
X118517364Y-87860500D01*
X118548139Y-87857614D01*
X118677745Y-87812263D01*
X118788225Y-87730725D01*
X118788228Y-87730721D01*
X118798770Y-87720180D01*
X118799678Y-87721088D01*
X118854905Y-87673562D01*
X118940450Y-87650639D01*
X118947893Y-87650500D01*
X122102726Y-87650500D01*
X122102727Y-87650500D01*
X122204588Y-87623207D01*
X122295913Y-87570480D01*
X122295916Y-87570476D01*
X122297664Y-87569136D01*
X122300469Y-87567849D01*
X122307207Y-87563959D01*
X122307571Y-87564590D01*
X122378162Y-87532209D01*
X122466710Y-87533866D01*
X122545770Y-87573778D01*
X122599683Y-87644040D01*
X122617772Y-87730736D01*
X122600483Y-87801285D01*
X122602745Y-87802161D01*
X122599419Y-87810746D01*
X122543603Y-88006916D01*
X122543603Y-88006917D01*
X122536335Y-88085358D01*
X122524785Y-88210000D01*
X122543603Y-88413083D01*
X122587965Y-88568998D01*
X122599419Y-88609252D01*
X122690329Y-88791825D01*
X122813233Y-88954575D01*
X122813241Y-88954585D01*
X122901844Y-89035356D01*
X122963959Y-89091981D01*
X122963961Y-89091982D01*
X122963962Y-89091983D01*
X123142950Y-89202808D01*
X123205986Y-89265017D01*
X123235787Y-89348416D01*
X123226452Y-89436486D01*
X123179830Y-89511784D01*
X123122292Y-89552356D01*
X122977513Y-89619867D01*
X122791181Y-89750339D01*
X122630339Y-89911181D01*
X122499867Y-90097513D01*
X122499865Y-90097516D01*
X122403731Y-90303678D01*
X122351127Y-90499999D01*
X122351128Y-90500000D01*
X123314314Y-90500000D01*
X123309920Y-90504394D01*
X123257259Y-90595606D01*
X123230000Y-90697339D01*
X123230000Y-90802661D01*
X123257259Y-90904394D01*
X123309920Y-90995606D01*
X123314314Y-91000000D01*
X122351127Y-91000000D01*
X122403731Y-91196321D01*
X122499865Y-91402483D01*
X122499867Y-91402486D01*
X122630339Y-91588818D01*
X122791181Y-91749660D01*
X122977513Y-91880132D01*
X122977516Y-91880134D01*
X123122291Y-91947643D01*
X123192215Y-92001993D01*
X123231633Y-92081301D01*
X123232738Y-92169857D01*
X123195309Y-92250123D01*
X123142951Y-92297191D01*
X122963958Y-92408019D01*
X122963957Y-92408020D01*
X122813241Y-92545414D01*
X122813233Y-92545424D01*
X122690329Y-92708174D01*
X122599419Y-92890747D01*
X122543603Y-93086916D01*
X122543603Y-93086917D01*
X122524785Y-93289998D01*
X122524785Y-93290001D01*
X122529141Y-93337007D01*
X122543603Y-93493083D01*
X122588250Y-93650000D01*
X122599419Y-93689252D01*
X122690329Y-93871825D01*
X122813233Y-94034575D01*
X122813241Y-94034585D01*
X122902962Y-94116375D01*
X122963959Y-94171981D01*
X122963961Y-94171982D01*
X122963962Y-94171983D01*
X123137360Y-94279347D01*
X123137363Y-94279348D01*
X123327544Y-94353024D01*
X123528024Y-94390500D01*
X123528027Y-94390500D01*
X123731972Y-94390500D01*
X123731976Y-94390500D01*
X123932456Y-94353024D01*
X124122637Y-94279348D01*
X124296041Y-94171981D01*
X124445370Y-94035850D01*
X124446758Y-94034585D01*
X124446759Y-94034583D01*
X124446764Y-94034579D01*
X124569673Y-93871821D01*
X124591825Y-93827332D01*
X124605038Y-93800799D01*
X124661166Y-93732292D01*
X124741458Y-93694922D01*
X124783176Y-93690500D01*
X130096824Y-93690500D01*
X130183167Y-93710207D01*
X130252408Y-93765426D01*
X130274962Y-93800799D01*
X130310326Y-93871820D01*
X130310327Y-93871822D01*
X130433233Y-94034575D01*
X130433241Y-94034585D01*
X130522962Y-94116375D01*
X130583959Y-94171981D01*
X130583961Y-94171982D01*
X130583962Y-94171983D01*
X130757360Y-94279347D01*
X130757363Y-94279348D01*
X130947544Y-94353024D01*
X131148024Y-94390500D01*
X131148027Y-94390500D01*
X131312679Y-94390500D01*
X131399022Y-94410207D01*
X131468263Y-94465426D01*
X131506690Y-94545218D01*
X131506690Y-94633782D01*
X131468263Y-94713574D01*
X131453393Y-94730214D01*
X128392393Y-97791214D01*
X128317405Y-97838333D01*
X128251679Y-97849500D01*
X120748320Y-97849500D01*
X120661977Y-97829793D01*
X120607606Y-97791214D01*
X118598890Y-95782497D01*
X118551771Y-95707508D01*
X118541855Y-95619502D01*
X118548198Y-95587336D01*
X118586397Y-95453083D01*
X118605215Y-95250000D01*
X118586397Y-95046917D01*
X118530582Y-94850750D01*
X118439673Y-94668179D01*
X118439671Y-94668177D01*
X118439670Y-94668174D01*
X118316766Y-94505424D01*
X118316758Y-94505414D01*
X118166042Y-94368020D01*
X118166037Y-94368016D01*
X117992639Y-94260652D01*
X117992636Y-94260651D01*
X117802460Y-94186977D01*
X117802457Y-94186976D01*
X117802456Y-94186976D01*
X117601976Y-94149500D01*
X117398024Y-94149500D01*
X117197544Y-94186976D01*
X117197542Y-94186976D01*
X117197540Y-94186977D01*
X117197538Y-94186977D01*
X117007363Y-94260651D01*
X117007360Y-94260652D01*
X116833962Y-94368016D01*
X116833957Y-94368020D01*
X116683241Y-94505414D01*
X116683233Y-94505424D01*
X116560329Y-94668174D01*
X116469419Y-94850747D01*
X116413603Y-95046916D01*
X116413603Y-95046917D01*
X116404242Y-95147945D01*
X116394785Y-95250000D01*
X96000500Y-95250000D01*
X96000500Y-90250000D01*
X116195034Y-90250000D01*
X116214858Y-90476603D01*
X116273733Y-90696326D01*
X116273735Y-90696330D01*
X116369862Y-90902476D01*
X116369863Y-90902477D01*
X116420974Y-90975471D01*
X117100000Y-90296445D01*
X117100000Y-90302661D01*
X117127259Y-90404394D01*
X117179920Y-90495606D01*
X117254394Y-90570080D01*
X117345606Y-90622741D01*
X117447339Y-90650000D01*
X117453553Y-90650000D01*
X116774526Y-91329024D01*
X116774527Y-91329025D01*
X116847516Y-91380132D01*
X116847523Y-91380137D01*
X117053669Y-91476264D01*
X117053673Y-91476266D01*
X117273397Y-91535141D01*
X117273394Y-91535141D01*
X117500000Y-91554965D01*
X117726603Y-91535141D01*
X117946326Y-91476266D01*
X117946330Y-91476264D01*
X118152478Y-91380136D01*
X118152483Y-91380133D01*
X118225471Y-91329024D01*
X118225472Y-91329024D01*
X117546448Y-90650000D01*
X117552661Y-90650000D01*
X117654394Y-90622741D01*
X117745606Y-90570080D01*
X117820080Y-90495606D01*
X117872741Y-90404394D01*
X117900000Y-90302661D01*
X117900000Y-90296448D01*
X118579024Y-90975472D01*
X118579024Y-90975471D01*
X118630133Y-90902483D01*
X118630136Y-90902478D01*
X118726264Y-90696330D01*
X118726266Y-90696326D01*
X118785141Y-90476603D01*
X118804965Y-90250000D01*
X118785141Y-90023396D01*
X118726266Y-89803673D01*
X118726264Y-89803669D01*
X118630137Y-89597523D01*
X118630132Y-89597516D01*
X118579025Y-89524527D01*
X118579024Y-89524526D01*
X117900000Y-90203551D01*
X117900000Y-90197339D01*
X117872741Y-90095606D01*
X117820080Y-90004394D01*
X117745606Y-89929920D01*
X117654394Y-89877259D01*
X117552661Y-89850000D01*
X117546447Y-89850000D01*
X118225471Y-89170974D01*
X118152477Y-89119863D01*
X118152476Y-89119862D01*
X117946330Y-89023735D01*
X117946326Y-89023733D01*
X117726602Y-88964858D01*
X117726605Y-88964858D01*
X117500000Y-88945034D01*
X117273396Y-88964858D01*
X117053673Y-89023733D01*
X117053670Y-89023735D01*
X116847518Y-89119865D01*
X116847514Y-89119867D01*
X116774527Y-89170973D01*
X116774527Y-89170974D01*
X117453554Y-89850000D01*
X117447339Y-89850000D01*
X117345606Y-89877259D01*
X117254394Y-89929920D01*
X117179920Y-90004394D01*
X117127259Y-90095606D01*
X117100000Y-90197339D01*
X117100000Y-90203553D01*
X116420974Y-89524527D01*
X116420973Y-89524527D01*
X116369867Y-89597514D01*
X116369865Y-89597518D01*
X116273735Y-89803670D01*
X116273733Y-89803673D01*
X116214858Y-90023396D01*
X116195034Y-90250000D01*
X96000500Y-90250000D01*
X96000500Y-87500000D01*
X116249770Y-87500000D01*
X116250421Y-87508274D01*
X116250422Y-87508280D01*
X116296593Y-87667200D01*
X116380833Y-87809643D01*
X116497856Y-87926666D01*
X116640299Y-88010906D01*
X116799220Y-88057077D01*
X116836355Y-88060000D01*
X116865000Y-88060000D01*
X116865000Y-87500000D01*
X116249770Y-87500000D01*
X96000500Y-87500000D01*
X96000500Y-86999999D01*
X116249769Y-86999999D01*
X116249770Y-87000000D01*
X116865000Y-87000000D01*
X116865000Y-86440000D01*
X116836355Y-86440000D01*
X116799220Y-86442922D01*
X116640299Y-86489093D01*
X116497856Y-86573333D01*
X116380833Y-86690356D01*
X116296593Y-86832799D01*
X116250422Y-86991719D01*
X116250421Y-86991725D01*
X116249769Y-86999999D01*
X96000500Y-86999999D01*
X96000500Y-69115191D01*
X99599500Y-69115191D01*
X99599500Y-69384808D01*
X99626913Y-69628109D01*
X99629688Y-69652732D01*
X99651889Y-69750000D01*
X99689685Y-69915596D01*
X99778726Y-70170060D01*
X99778733Y-70170079D01*
X99895716Y-70412997D01*
X100020331Y-70611320D01*
X100039165Y-70641293D01*
X100039174Y-70641306D01*
X100207258Y-70852076D01*
X100207266Y-70852085D01*
X100397914Y-71042733D01*
X100397923Y-71042741D01*
X100608693Y-71210825D01*
X100608705Y-71210833D01*
X100608711Y-71210838D01*
X100837003Y-71354284D01*
X101079921Y-71471267D01*
X101334409Y-71560316D01*
X101597268Y-71620312D01*
X101865191Y-71650500D01*
X101865192Y-71650500D01*
X102134808Y-71650500D01*
X102134809Y-71650500D01*
X102402732Y-71620312D01*
X102665591Y-71560316D01*
X102920079Y-71471267D01*
X103162997Y-71354284D01*
X103391289Y-71210838D01*
X103391300Y-71210828D01*
X103391306Y-71210825D01*
X103602076Y-71042741D01*
X103602085Y-71042734D01*
X103792734Y-70852085D01*
X103935071Y-70673600D01*
X103960825Y-70641306D01*
X103960828Y-70641300D01*
X103960838Y-70641289D01*
X104104284Y-70412997D01*
X104221267Y-70170079D01*
X104230604Y-70143397D01*
X104310314Y-69915596D01*
X104310316Y-69915591D01*
X104370312Y-69652732D01*
X104400500Y-69384809D01*
X104400500Y-69115191D01*
X104370312Y-68847268D01*
X104310316Y-68584409D01*
X104224794Y-68340000D01*
X133669363Y-68340000D01*
X134566988Y-68340000D01*
X134534075Y-68397007D01*
X134500000Y-68524174D01*
X134500000Y-68655826D01*
X134534075Y-68782993D01*
X134566988Y-68840000D01*
X133669364Y-68840000D01*
X133726569Y-69053492D01*
X133726571Y-69053495D01*
X133826399Y-69267578D01*
X133826401Y-69267582D01*
X133961890Y-69461079D01*
X134128920Y-69628109D01*
X134322417Y-69763598D01*
X134322420Y-69763600D01*
X134387290Y-69793849D01*
X134457215Y-69848199D01*
X134496633Y-69927507D01*
X134497737Y-70016063D01*
X134460308Y-70096329D01*
X134407950Y-70143397D01*
X134303695Y-70207949D01*
X134146129Y-70351591D01*
X134146124Y-70351596D01*
X134017636Y-70521741D01*
X133922596Y-70712608D01*
X133864244Y-70917689D01*
X133864244Y-70917690D01*
X133852657Y-71042741D01*
X133844571Y-71130000D01*
X133864244Y-71342310D01*
X133922595Y-71547389D01*
X134017634Y-71738255D01*
X134017635Y-71738256D01*
X134017636Y-71738258D01*
X134146124Y-71908403D01*
X134146129Y-71908408D01*
X134303695Y-72052050D01*
X134303700Y-72052054D01*
X134484978Y-72164297D01*
X134484980Y-72164298D01*
X134614407Y-72214438D01*
X134687800Y-72264005D01*
X134732419Y-72340507D01*
X134739426Y-72428793D01*
X134707433Y-72511376D01*
X134642778Y-72571899D01*
X134614407Y-72585562D01*
X134484980Y-72635701D01*
X134484978Y-72635702D01*
X134303700Y-72747945D01*
X134303695Y-72747949D01*
X134146129Y-72891591D01*
X134146124Y-72891596D01*
X134017636Y-73061741D01*
X133932894Y-73231928D01*
X133922595Y-73252611D01*
X133864244Y-73457690D01*
X133844571Y-73670000D01*
X133864244Y-73882310D01*
X133922595Y-74087389D01*
X134017634Y-74278255D01*
X134017635Y-74278256D01*
X134017636Y-74278258D01*
X134146124Y-74448403D01*
X134146129Y-74448408D01*
X134303695Y-74592050D01*
X134303700Y-74592054D01*
X134484978Y-74704297D01*
X134484980Y-74704298D01*
X134614407Y-74754438D01*
X134687800Y-74804005D01*
X134732419Y-74880507D01*
X134739426Y-74968793D01*
X134707433Y-75051376D01*
X134642778Y-75111899D01*
X134614407Y-75125562D01*
X134484980Y-75175701D01*
X134484978Y-75175702D01*
X134303700Y-75287945D01*
X134303695Y-75287949D01*
X134146129Y-75431591D01*
X134146124Y-75431596D01*
X134017636Y-75601741D01*
X133922596Y-75792608D01*
X133883993Y-75928282D01*
X133864244Y-75997690D01*
X133844571Y-76210000D01*
X133864244Y-76422310D01*
X133922595Y-76627389D01*
X134017634Y-76818255D01*
X134017635Y-76818256D01*
X134017636Y-76818258D01*
X134146124Y-76988403D01*
X134146129Y-76988408D01*
X134303695Y-77132050D01*
X134303700Y-77132054D01*
X134463999Y-77231307D01*
X134527035Y-77293516D01*
X134556836Y-77376914D01*
X134547501Y-77464984D01*
X134500879Y-77540282D01*
X134426203Y-77587895D01*
X134359240Y-77599500D01*
X134105133Y-77599500D01*
X134080010Y-77602414D01*
X133977238Y-77647792D01*
X133977233Y-77647795D01*
X133897795Y-77727233D01*
X133897792Y-77727238D01*
X133852415Y-77830007D01*
X133852415Y-77830009D01*
X133849500Y-77855130D01*
X133849500Y-79644866D01*
X133852414Y-79669989D01*
X133852415Y-79669991D01*
X133897794Y-79772765D01*
X133977235Y-79852206D01*
X134080009Y-79897585D01*
X134105135Y-79900500D01*
X135894864Y-79900499D01*
X135894866Y-79900499D01*
X135907427Y-79899042D01*
X135919991Y-79897585D01*
X136022765Y-79852206D01*
X136102206Y-79772765D01*
X136147585Y-79669991D01*
X136150500Y-79644865D01*
X136150499Y-78407317D01*
X136170206Y-78320976D01*
X136225424Y-78251735D01*
X136305217Y-78213308D01*
X136393781Y-78213308D01*
X136473573Y-78251734D01*
X136490213Y-78266605D01*
X138586032Y-80362424D01*
X138633151Y-80437412D01*
X138641610Y-80487200D01*
X138642616Y-80487068D01*
X138664956Y-80656762D01*
X138664957Y-80656764D01*
X138725463Y-80802840D01*
X138725464Y-80802843D01*
X138787445Y-80883616D01*
X138821718Y-80928282D01*
X138876209Y-80970094D01*
X138947156Y-81024535D01*
X138947159Y-81024536D01*
X139093238Y-81085044D01*
X139250000Y-81105682D01*
X139406762Y-81085044D01*
X139552841Y-81024536D01*
X139552841Y-81024535D01*
X139552843Y-81024535D01*
X139581976Y-81002179D01*
X139678282Y-80928282D01*
X139752179Y-80831976D01*
X139774535Y-80802843D01*
X139774536Y-80802840D01*
X139835044Y-80656762D01*
X139855682Y-80500000D01*
X139835044Y-80343238D01*
X139774536Y-80197159D01*
X139774535Y-80197156D01*
X139720094Y-80126209D01*
X139678282Y-80071718D01*
X139636468Y-80039633D01*
X139552843Y-79975464D01*
X139552840Y-79975463D01*
X139406762Y-79914956D01*
X139317787Y-79903242D01*
X139234758Y-79872434D01*
X139203051Y-79846659D01*
X136139360Y-76782967D01*
X136092241Y-76707979D01*
X136082325Y-76619972D01*
X136088671Y-76587793D01*
X136135756Y-76422310D01*
X136155429Y-76210000D01*
X136135756Y-75997690D01*
X136077405Y-75792611D01*
X135982366Y-75601745D01*
X135905531Y-75500000D01*
X135853875Y-75431596D01*
X135853870Y-75431591D01*
X135696304Y-75287949D01*
X135696299Y-75287945D01*
X135515021Y-75175702D01*
X135515015Y-75175699D01*
X135385593Y-75125562D01*
X135312199Y-75075996D01*
X135267580Y-74999493D01*
X135260573Y-74911208D01*
X135292565Y-74828625D01*
X135357221Y-74768101D01*
X135385593Y-74754438D01*
X135515015Y-74704300D01*
X135515021Y-74704297D01*
X135696299Y-74592054D01*
X135696299Y-74592053D01*
X135696302Y-74592052D01*
X135853872Y-74448407D01*
X135982366Y-74278255D01*
X136077405Y-74087389D01*
X136135756Y-73882310D01*
X136155429Y-73670000D01*
X136135756Y-73457690D01*
X136096682Y-73320364D01*
X136092008Y-73231928D01*
X136126169Y-73150218D01*
X136192400Y-73091422D01*
X136277582Y-73067184D01*
X136364845Y-73082307D01*
X136428800Y-73125193D01*
X139393430Y-76089823D01*
X139440549Y-76164811D01*
X139450847Y-76249117D01*
X139449886Y-76259359D01*
X139449886Y-76259361D01*
X139447000Y-76290136D01*
X139447000Y-76709864D01*
X139449886Y-76740639D01*
X139495237Y-76870245D01*
X139576775Y-76980725D01*
X139687255Y-77062263D01*
X139816861Y-77107614D01*
X139847636Y-77110500D01*
X139847640Y-77110500D01*
X140382360Y-77110500D01*
X140382364Y-77110500D01*
X140413139Y-77107614D01*
X140413141Y-77107613D01*
X140413143Y-77107613D01*
X140424970Y-77105030D01*
X140425561Y-77107738D01*
X140494704Y-77099938D01*
X140578302Y-77129176D01*
X140613166Y-77156976D01*
X140632856Y-77176666D01*
X140775299Y-77260906D01*
X140934220Y-77307077D01*
X140971355Y-77310000D01*
X141000000Y-77310000D01*
X141500000Y-77310000D01*
X141528645Y-77310000D01*
X141565779Y-77307077D01*
X141724700Y-77260906D01*
X141867143Y-77176666D01*
X141984166Y-77059643D01*
X142068406Y-76917200D01*
X142114577Y-76758280D01*
X142114578Y-76758274D01*
X142115230Y-76750000D01*
X141500000Y-76750000D01*
X141500000Y-77310000D01*
X141000000Y-77310000D01*
X141000000Y-76250000D01*
X141500000Y-76250000D01*
X142115230Y-76250000D01*
X142115230Y-76249999D01*
X142114578Y-76241725D01*
X142114577Y-76241719D01*
X142068406Y-76082799D01*
X141984166Y-75940356D01*
X141867143Y-75823333D01*
X141724700Y-75739093D01*
X141565779Y-75692922D01*
X141528645Y-75690000D01*
X141500000Y-75690000D01*
X141500000Y-76250000D01*
X141000000Y-76250000D01*
X141000000Y-75690000D01*
X140971355Y-75690000D01*
X140934220Y-75692922D01*
X140775299Y-75739093D01*
X140632854Y-75823335D01*
X140632853Y-75823335D01*
X140613163Y-75843026D01*
X140538173Y-75890143D01*
X140450167Y-75900057D01*
X140425107Y-75894337D01*
X140424969Y-75894970D01*
X140413135Y-75892385D01*
X140391459Y-75890352D01*
X140307334Y-75862668D01*
X140269329Y-75832936D01*
X136139360Y-71702967D01*
X136092241Y-71627979D01*
X136082325Y-71539972D01*
X136088671Y-71507793D01*
X136135756Y-71342310D01*
X136155429Y-71130000D01*
X136135756Y-70917690D01*
X136077405Y-70712611D01*
X135982366Y-70521745D01*
X135982363Y-70521741D01*
X135853875Y-70351596D01*
X135853870Y-70351591D01*
X135696304Y-70207949D01*
X135696299Y-70207945D01*
X135592050Y-70143397D01*
X135529014Y-70081188D01*
X135499213Y-69997789D01*
X135508548Y-69909719D01*
X135555170Y-69834421D01*
X135612710Y-69793848D01*
X135677583Y-69763597D01*
X135871079Y-69628109D01*
X136038109Y-69461079D01*
X136173598Y-69267582D01*
X136173600Y-69267578D01*
X136181797Y-69250000D01*
X145589363Y-69250000D01*
X146486988Y-69250000D01*
X146454075Y-69307007D01*
X146420000Y-69434174D01*
X146420000Y-69565826D01*
X146454075Y-69692993D01*
X146486988Y-69750000D01*
X145589364Y-69750000D01*
X145646569Y-69963492D01*
X145646571Y-69963495D01*
X145746399Y-70177578D01*
X145746401Y-70177582D01*
X145881890Y-70371079D01*
X146048920Y-70538109D01*
X146242417Y-70673598D01*
X146242420Y-70673600D01*
X146456509Y-70773430D01*
X146670000Y-70830634D01*
X146670000Y-69933012D01*
X146727007Y-69965925D01*
X146854174Y-70000000D01*
X146985826Y-70000000D01*
X147112993Y-69965925D01*
X147170000Y-69933012D01*
X147170000Y-70830634D01*
X147383490Y-70773430D01*
X147597579Y-70673600D01*
X147597582Y-70673598D01*
X147791079Y-70538109D01*
X147958109Y-70371079D01*
X148093597Y-70177583D01*
X148121536Y-70117668D01*
X148175886Y-70047743D01*
X148255194Y-70008325D01*
X148343750Y-70007220D01*
X148424016Y-70044648D01*
X148470733Y-70101711D01*
X148472793Y-70100437D01*
X148477633Y-70108254D01*
X148606124Y-70278403D01*
X148606129Y-70278408D01*
X148763695Y-70422050D01*
X148763700Y-70422054D01*
X148944978Y-70534297D01*
X148949192Y-70536395D01*
X148951747Y-70538488D01*
X148952803Y-70539142D01*
X148952716Y-70539282D01*
X149017702Y-70592518D01*
X149055076Y-70672809D01*
X149059500Y-70714537D01*
X149059500Y-77342726D01*
X149086793Y-77444589D01*
X149109693Y-77484252D01*
X149135798Y-77568881D01*
X149128758Y-77638213D01*
X149083603Y-77796913D01*
X149083603Y-77796917D01*
X149075849Y-77880603D01*
X149064785Y-78000000D01*
X149083603Y-78203083D01*
X149129761Y-78365311D01*
X149139419Y-78399252D01*
X149230329Y-78581825D01*
X149353233Y-78744575D01*
X149353241Y-78744585D01*
X149448936Y-78831821D01*
X149503959Y-78881981D01*
X149503961Y-78881982D01*
X149503962Y-78881983D01*
X149677360Y-78989347D01*
X149677363Y-78989348D01*
X149867544Y-79063024D01*
X150068024Y-79100500D01*
X150068027Y-79100500D01*
X150271972Y-79100500D01*
X150271976Y-79100500D01*
X150472456Y-79063024D01*
X150662637Y-78989348D01*
X150836041Y-78881981D01*
X150949594Y-78778464D01*
X150986758Y-78744585D01*
X150986759Y-78744583D01*
X150986764Y-78744579D01*
X151109673Y-78581821D01*
X151200582Y-78399250D01*
X151256397Y-78203083D01*
X151275215Y-78000000D01*
X151256397Y-77796917D01*
X151200582Y-77600750D01*
X151109673Y-77418179D01*
X151109671Y-77418177D01*
X151109670Y-77418174D01*
X150990714Y-77260652D01*
X150986764Y-77255421D01*
X150986762Y-77255419D01*
X150986758Y-77255414D01*
X150836042Y-77118020D01*
X150836037Y-77118016D01*
X150662639Y-77010652D01*
X150662636Y-77010651D01*
X150472460Y-76936977D01*
X150472457Y-76936976D01*
X150472456Y-76936976D01*
X150271976Y-76899500D01*
X150068024Y-76899500D01*
X150059500Y-76899500D01*
X149973157Y-76879793D01*
X149903916Y-76824574D01*
X149865489Y-76744782D01*
X149860500Y-76700500D01*
X149860500Y-70714537D01*
X149880207Y-70628194D01*
X149935426Y-70558953D01*
X149970808Y-70536395D01*
X149975021Y-70534297D01*
X150156299Y-70422054D01*
X150156299Y-70422053D01*
X150156302Y-70422052D01*
X150313872Y-70278407D01*
X150442366Y-70108255D01*
X150472363Y-70048010D01*
X150528487Y-69979506D01*
X150608780Y-69942135D01*
X150697335Y-69943303D01*
X150776615Y-69982778D01*
X150830915Y-70052741D01*
X150849500Y-70136712D01*
X150849500Y-70394866D01*
X150852414Y-70419989D01*
X150897343Y-70521745D01*
X150897794Y-70522765D01*
X150977235Y-70602206D01*
X151080009Y-70647585D01*
X151105135Y-70650500D01*
X152894864Y-70650499D01*
X152894866Y-70650499D01*
X152907427Y-70649042D01*
X152919991Y-70647585D01*
X153022765Y-70602206D01*
X153102206Y-70522765D01*
X153147585Y-70419991D01*
X153150500Y-70394865D01*
X153150499Y-68605136D01*
X153150498Y-68605130D01*
X153147585Y-68580010D01*
X153146673Y-68577945D01*
X153102206Y-68477235D01*
X153022765Y-68397794D01*
X153022762Y-68397792D01*
X153022761Y-68397792D01*
X152919991Y-68352415D01*
X152894866Y-68349500D01*
X151105133Y-68349500D01*
X151080010Y-68352414D01*
X150977238Y-68397792D01*
X150977233Y-68397795D01*
X150897795Y-68477233D01*
X150897792Y-68477238D01*
X150852415Y-68580007D01*
X150852415Y-68580009D01*
X150849500Y-68605130D01*
X150849500Y-68863284D01*
X150829793Y-68949627D01*
X150774574Y-69018868D01*
X150694782Y-69057295D01*
X150606218Y-69057295D01*
X150526426Y-69018868D01*
X150472363Y-68951986D01*
X150442366Y-68891745D01*
X150313875Y-68721596D01*
X150313870Y-68721591D01*
X150156304Y-68577949D01*
X150156299Y-68577945D01*
X149975021Y-68465702D01*
X149975019Y-68465701D01*
X149776203Y-68388680D01*
X149776201Y-68388679D01*
X149650445Y-68365171D01*
X149566610Y-68349500D01*
X149353390Y-68349500D01*
X149283527Y-68362559D01*
X149143798Y-68388679D01*
X149143796Y-68388680D01*
X148944980Y-68465701D01*
X148944978Y-68465702D01*
X148763700Y-68577945D01*
X148763695Y-68577949D01*
X148606129Y-68721591D01*
X148606124Y-68721596D01*
X148477633Y-68891745D01*
X148472793Y-68899563D01*
X148470732Y-68898287D01*
X148423882Y-68955455D01*
X148343584Y-68992815D01*
X148255028Y-68991634D01*
X148175755Y-68952148D01*
X148121537Y-68882333D01*
X148093597Y-68822418D01*
X148093598Y-68822418D01*
X147958108Y-68628919D01*
X147791079Y-68461890D01*
X147597582Y-68326401D01*
X147597578Y-68326399D01*
X147383495Y-68226571D01*
X147383492Y-68226569D01*
X147170000Y-68169363D01*
X147170000Y-69066988D01*
X147112993Y-69034075D01*
X146985826Y-69000000D01*
X146854174Y-69000000D01*
X146727007Y-69034075D01*
X146670000Y-69066988D01*
X146670000Y-68169363D01*
X146456507Y-68226569D01*
X146456504Y-68226570D01*
X146242422Y-68326399D01*
X146242418Y-68326401D01*
X146048919Y-68461891D01*
X145881891Y-68628919D01*
X145746401Y-68822418D01*
X145746399Y-68822422D01*
X145646570Y-69036504D01*
X145646569Y-69036507D01*
X145589363Y-69250000D01*
X136181797Y-69250000D01*
X136273428Y-69053495D01*
X136273430Y-69053492D01*
X136330636Y-68840000D01*
X135433012Y-68840000D01*
X135465925Y-68782993D01*
X135500000Y-68655826D01*
X135500000Y-68524174D01*
X135465925Y-68397007D01*
X135433012Y-68340000D01*
X136330636Y-68340000D01*
X136273430Y-68126507D01*
X136273429Y-68126504D01*
X136173600Y-67912422D01*
X136173598Y-67912418D01*
X136038108Y-67718919D01*
X135871079Y-67551890D01*
X135677582Y-67416401D01*
X135677578Y-67416399D01*
X135463495Y-67316571D01*
X135463492Y-67316569D01*
X135250000Y-67259363D01*
X135250000Y-68156988D01*
X135192993Y-68124075D01*
X135065826Y-68090000D01*
X134934174Y-68090000D01*
X134807007Y-68124075D01*
X134750000Y-68156988D01*
X134750000Y-67259363D01*
X134536507Y-67316569D01*
X134536504Y-67316570D01*
X134322422Y-67416399D01*
X134322418Y-67416401D01*
X134128919Y-67551891D01*
X133961891Y-67718919D01*
X133826401Y-67912418D01*
X133826399Y-67912422D01*
X133726570Y-68126504D01*
X133726569Y-68126507D01*
X133669363Y-68340000D01*
X104224794Y-68340000D01*
X104221267Y-68329921D01*
X104104284Y-68087003D01*
X103960838Y-67858711D01*
X103960833Y-67858705D01*
X103960825Y-67858693D01*
X103792741Y-67647923D01*
X103792733Y-67647914D01*
X103602085Y-67457266D01*
X103602076Y-67457258D01*
X103391306Y-67289174D01*
X103391293Y-67289165D01*
X103391291Y-67289164D01*
X103391289Y-67289162D01*
X103162997Y-67145716D01*
X102920079Y-67028733D01*
X102920073Y-67028731D01*
X102920063Y-67028727D01*
X102665595Y-66939685D01*
X102665596Y-66939685D01*
X102592904Y-66923093D01*
X102402732Y-66879688D01*
X102402728Y-66879687D01*
X102402726Y-66879687D01*
X102203945Y-66857289D01*
X102134809Y-66849500D01*
X101865191Y-66849500D01*
X101810235Y-66855692D01*
X101597273Y-66879687D01*
X101597269Y-66879687D01*
X101597268Y-66879688D01*
X101524581Y-66896278D01*
X101334403Y-66939685D01*
X101079936Y-67028727D01*
X101079918Y-67028734D01*
X100836997Y-67145719D01*
X100608706Y-67289165D01*
X100608693Y-67289174D01*
X100397923Y-67457258D01*
X100397914Y-67457266D01*
X100207266Y-67647914D01*
X100207258Y-67647923D01*
X100039174Y-67858693D01*
X100039165Y-67858706D01*
X99895719Y-68086997D01*
X99778734Y-68329918D01*
X99778727Y-68329936D01*
X99689685Y-68584403D01*
X99629687Y-68847273D01*
X99599500Y-69115191D01*
X96000500Y-69115191D01*
X96000500Y-66567410D01*
X96020207Y-66481067D01*
X96068456Y-66417649D01*
X99631784Y-63299736D01*
X99709740Y-63257711D01*
X99762826Y-63250500D01*
X224694969Y-63250500D01*
X224781312Y-63270207D01*
G37*
G04 #@! TD.AperFunction*
M02*
