G04 #@! TF.GenerationSoftware,KiCad,Pcbnew,8.0.8*
G04 #@! TF.CreationDate,2025-02-09T14:04:56-05:00*
G04 #@! TF.ProjectId,AetherX_KiCad,41657468-6572-4585-9f4b-694361642e6b,rev?*
G04 #@! TF.SameCoordinates,Original*
G04 #@! TF.FileFunction,Paste,Top*
G04 #@! TF.FilePolarity,Positive*
%FSLAX46Y46*%
G04 Gerber Fmt 4.6, Leading zero omitted, Abs format (unit mm)*
G04 Created by KiCad (PCBNEW 8.0.8) date 2025-02-09 14:04:56*
%MOMM*%
%LPD*%
G01*
G04 APERTURE LIST*
G04 Aperture macros list*
%AMRoundRect*
0 Rectangle with rounded corners*
0 $1 Rounding radius*
0 $2 $3 $4 $5 $6 $7 $8 $9 X,Y pos of 4 corners*
0 Add a 4 corners polygon primitive as box body*
4,1,4,$2,$3,$4,$5,$6,$7,$8,$9,$2,$3,0*
0 Add four circle primitives for the rounded corners*
1,1,$1+$1,$2,$3*
1,1,$1+$1,$4,$5*
1,1,$1+$1,$6,$7*
1,1,$1+$1,$8,$9*
0 Add four rect primitives between the rounded corners*
20,1,$1+$1,$2,$3,$4,$5,0*
20,1,$1+$1,$4,$5,$6,$7,0*
20,1,$1+$1,$6,$7,$8,$9,0*
20,1,$1+$1,$8,$9,$2,$3,0*%
G04 Aperture macros list end*
%ADD10RoundRect,0.155000X-0.212500X-0.155000X0.212500X-0.155000X0.212500X0.155000X-0.212500X0.155000X0*%
%ADD11RoundRect,0.155000X0.212500X0.155000X-0.212500X0.155000X-0.212500X-0.155000X0.212500X-0.155000X0*%
%ADD12RoundRect,0.075000X-0.700000X-0.075000X0.700000X-0.075000X0.700000X0.075000X-0.700000X0.075000X0*%
%ADD13RoundRect,0.075000X-0.075000X-0.700000X0.075000X-0.700000X0.075000X0.700000X-0.075000X0.700000X0*%
%ADD14RoundRect,0.250000X0.337500X0.475000X-0.337500X0.475000X-0.337500X-0.475000X0.337500X-0.475000X0*%
G04 APERTURE END LIST*
D10*
X136365000Y-101000000D03*
X137500000Y-101000000D03*
D11*
X165635000Y-98000000D03*
X164500000Y-98000000D03*
D12*
X155900000Y-85500000D03*
X155900000Y-86000000D03*
X155900000Y-86500000D03*
X155900000Y-87000000D03*
X155900000Y-87500000D03*
X155900000Y-88000000D03*
X155900000Y-88500000D03*
X155900000Y-89000000D03*
X155900000Y-89500000D03*
X155900000Y-90000000D03*
X155900000Y-90500000D03*
X155900000Y-91000000D03*
X155900000Y-91500000D03*
X155900000Y-92000000D03*
X155900000Y-92500000D03*
X155900000Y-93000000D03*
D13*
X157825000Y-94925000D03*
X158325000Y-94925000D03*
X158825000Y-94925000D03*
X159325000Y-94925000D03*
X159825000Y-94925000D03*
X160325000Y-94925000D03*
X160825000Y-94925000D03*
X161325000Y-94925000D03*
X161825000Y-94925000D03*
X162325000Y-94925000D03*
X162825000Y-94925000D03*
X163325000Y-94925000D03*
X163825000Y-94925000D03*
X164325000Y-94925000D03*
X164825000Y-94925000D03*
X165325000Y-94925000D03*
D12*
X167250000Y-93000000D03*
X167250000Y-92500000D03*
X167250000Y-92000000D03*
X167250000Y-91500000D03*
X167250000Y-91000000D03*
X167250000Y-90500000D03*
X167250000Y-90000000D03*
X167250000Y-89500000D03*
X167250000Y-89000000D03*
X167250000Y-88500000D03*
X167250000Y-88000000D03*
X167250000Y-87500000D03*
X167250000Y-87000000D03*
X167250000Y-86500000D03*
X167250000Y-86000000D03*
X167250000Y-85500000D03*
D13*
X165325000Y-83575000D03*
X164825000Y-83575000D03*
X164325000Y-83575000D03*
X163825000Y-83575000D03*
X163325000Y-83575000D03*
X162825000Y-83575000D03*
X162325000Y-83575000D03*
X161825000Y-83575000D03*
X161325000Y-83575000D03*
X160825000Y-83575000D03*
X160325000Y-83575000D03*
X159825000Y-83575000D03*
X159325000Y-83575000D03*
X158825000Y-83575000D03*
X158325000Y-83575000D03*
X157825000Y-83575000D03*
D11*
X158750000Y-98000000D03*
X157615000Y-98000000D03*
X118250000Y-87250000D03*
X117115000Y-87250000D03*
D14*
X154325000Y-82750000D03*
X152250000Y-82750000D03*
D10*
X171365000Y-85500000D03*
X172500000Y-85500000D03*
X188682500Y-95750000D03*
X189817500Y-95750000D03*
X140115000Y-76500000D03*
X141250000Y-76500000D03*
M02*
