%TF.GenerationSoftware,KiCad,Pcbnew,8.0.8*%
%TF.CreationDate,2025-02-09T14:05:18-05:00*%
%TF.ProjectId,AetherX_KiCad,41657468-6572-4585-9f4b-694361642e6b,rev?*%
%TF.SameCoordinates,Original*%
%TF.FileFunction,Drillmap*%
%TF.FilePolarity,Positive*%
%FSLAX45Y45*%
G04 Gerber Fmt 4.5, Leading zero omitted, Abs format (unit mm)*
G04 Created by KiCad (PCBNEW 8.0.8) date 2025-02-09 14:05:18*
%MOMM*%
%LPD*%
G01*
G04 APERTURE LIST*
%ADD10C,0.200000*%
%ADD11C,0.100000*%
%ADD12C,0.130000*%
%ADD13C,0.150000*%
G04 APERTURE END LIST*
D10*
X9550000Y-13125000D02*
X9925000Y-13525000D01*
X22825000Y-6625000D02*
X22825000Y-13125000D01*
X22500000Y-6275000D02*
X22825000Y-6625000D01*
X9550000Y-6625000D02*
X9550000Y-13125000D01*
X9925000Y-13525000D02*
X22500000Y-13525000D01*
X9950000Y-6275000D02*
X9550000Y-6625000D01*
X22825000Y-13125000D02*
X22500000Y-13525000D01*
X9950000Y-6275000D02*
X22500000Y-6275000D01*
D11*
X13910000Y-8035000D02*
X13940000Y-8065000D01*
X13940000Y-8035000D02*
X13910000Y-8065000D01*
X14805000Y-9055000D02*
X14835000Y-9085000D01*
X14835000Y-9055000D02*
X14805000Y-9085000D01*
X15135000Y-8510000D02*
X15165000Y-8540000D01*
X15165000Y-8510000D02*
X15135000Y-8540000D01*
X15285000Y-8060000D02*
X15315000Y-8090000D01*
X15315000Y-8060000D02*
X15285000Y-8090000D01*
X15285000Y-9110000D02*
X15315000Y-9140000D01*
X15315000Y-9110000D02*
X15285000Y-9140000D01*
X15310000Y-8510000D02*
X15340000Y-8540000D01*
X15340000Y-8510000D02*
X15310000Y-8540000D01*
X15360000Y-8960000D02*
X15390000Y-8990000D01*
X15390000Y-8960000D02*
X15360000Y-8990000D01*
X15760000Y-8035000D02*
X15790000Y-8065000D01*
X15790000Y-8035000D02*
X15760000Y-8065000D01*
X15810000Y-8610000D02*
X15840000Y-8640000D01*
X15840000Y-8610000D02*
X15810000Y-8640000D01*
X15885000Y-8135000D02*
X15915000Y-8165000D01*
X15915000Y-8135000D02*
X15885000Y-8165000D01*
X15885000Y-9210000D02*
X15915000Y-9240000D01*
X15915000Y-9210000D02*
X15885000Y-9240000D01*
X15985000Y-9910000D02*
X16015000Y-9940000D01*
X16015000Y-9910000D02*
X15985000Y-9940000D01*
X16010000Y-9685000D02*
X16040000Y-9715000D01*
X16040000Y-9685000D02*
X16010000Y-9715000D01*
X16060000Y-9810000D02*
X16090000Y-9840000D01*
X16090000Y-9810000D02*
X16060000Y-9840000D01*
X16085000Y-8760000D02*
X16115000Y-8790000D01*
X16115000Y-8760000D02*
X16085000Y-8790000D01*
X16285000Y-7535000D02*
X16315000Y-7565000D01*
X16315000Y-7535000D02*
X16285000Y-7565000D01*
X16385000Y-7260000D02*
X16415000Y-7290000D01*
X16415000Y-7260000D02*
X16385000Y-7290000D01*
X16417500Y-9660000D02*
X16447500Y-9690000D01*
X16447500Y-9660000D02*
X16417500Y-9690000D01*
X16435000Y-8985000D02*
X16465000Y-9015000D01*
X16465000Y-8985000D02*
X16435000Y-9015000D01*
X16560000Y-8110000D02*
X16590000Y-8140000D01*
X16590000Y-8110000D02*
X16560000Y-8140000D01*
X16935000Y-9085000D02*
X16965000Y-9115000D01*
X16965000Y-9085000D02*
X16935000Y-9115000D01*
X17135000Y-8260000D02*
X17165000Y-8290000D01*
X17165000Y-8260000D02*
X17135000Y-8290000D01*
X17460000Y-9635000D02*
X17490000Y-9665000D01*
X17490000Y-9635000D02*
X17460000Y-9665000D01*
X17660000Y-9085000D02*
X17690000Y-9115000D01*
X17690000Y-9085000D02*
X17660000Y-9115000D01*
X17710000Y-9585000D02*
X17740000Y-9615000D01*
X17740000Y-9585000D02*
X17710000Y-9615000D01*
X18635000Y-9760000D02*
X18665000Y-9790000D01*
X18665000Y-9760000D02*
X18635000Y-9790000D01*
X11790000Y-9025000D02*
G75*
G02*
X11710000Y-9025000I-40000J0D01*
G01*
X11710000Y-9025000D02*
G75*
G02*
X11790000Y-9025000I40000J0D01*
G01*
X11790000Y-9525000D02*
G75*
G02*
X11710000Y-9525000I-40000J0D01*
G01*
X11710000Y-9525000D02*
G75*
G02*
X11790000Y-9525000I40000J0D01*
G01*
X11940000Y-11425000D02*
G75*
G02*
X11860000Y-11425000I-40000J0D01*
G01*
X11860000Y-11425000D02*
G75*
G02*
X11940000Y-11425000I40000J0D01*
G01*
X12090000Y-10180000D02*
G75*
G02*
X12010000Y-10180000I-40000J0D01*
G01*
X12010000Y-10180000D02*
G75*
G02*
X12090000Y-10180000I40000J0D01*
G01*
X12090000Y-10668000D02*
G75*
G02*
X12010000Y-10668000I-40000J0D01*
G01*
X12010000Y-10668000D02*
G75*
G02*
X12090000Y-10668000I40000J0D01*
G01*
X12403000Y-8567000D02*
G75*
G02*
X12323000Y-8567000I-40000J0D01*
G01*
X12323000Y-8567000D02*
G75*
G02*
X12403000Y-8567000I40000J0D01*
G01*
X12403000Y-8821000D02*
G75*
G02*
X12323000Y-8821000I-40000J0D01*
G01*
X12323000Y-8821000D02*
G75*
G02*
X12403000Y-8821000I40000J0D01*
G01*
X12403000Y-9075000D02*
G75*
G02*
X12323000Y-9075000I-40000J0D01*
G01*
X12323000Y-9075000D02*
G75*
G02*
X12403000Y-9075000I40000J0D01*
G01*
X12403000Y-9329000D02*
G75*
G02*
X12323000Y-9329000I-40000J0D01*
G01*
X12323000Y-9329000D02*
G75*
G02*
X12403000Y-9329000I40000J0D01*
G01*
X12440000Y-11425000D02*
G75*
G02*
X12360000Y-11425000I-40000J0D01*
G01*
X12360000Y-11425000D02*
G75*
G02*
X12440000Y-11425000I40000J0D01*
G01*
X12982000Y-11525000D02*
G75*
G02*
X12902000Y-11525000I-40000J0D01*
G01*
X12902000Y-11525000D02*
G75*
G02*
X12982000Y-11525000I40000J0D01*
G01*
X13040000Y-9942000D02*
G75*
G02*
X12960000Y-9942000I-40000J0D01*
G01*
X12960000Y-9942000D02*
G75*
G02*
X13040000Y-9942000I40000J0D01*
G01*
X13040000Y-10958000D02*
G75*
G02*
X12960000Y-10958000I-40000J0D01*
G01*
X12960000Y-10958000D02*
G75*
G02*
X13040000Y-10958000I40000J0D01*
G01*
X13165000Y-8567000D02*
G75*
G02*
X13085000Y-8567000I-40000J0D01*
G01*
X13085000Y-8567000D02*
G75*
G02*
X13165000Y-8567000I40000J0D01*
G01*
X13165000Y-8821000D02*
G75*
G02*
X13085000Y-8821000I-40000J0D01*
G01*
X13085000Y-8821000D02*
G75*
G02*
X13165000Y-8821000I40000J0D01*
G01*
X13165000Y-9075000D02*
G75*
G02*
X13085000Y-9075000I-40000J0D01*
G01*
X13085000Y-9075000D02*
G75*
G02*
X13165000Y-9075000I40000J0D01*
G01*
X13165000Y-9329000D02*
G75*
G02*
X13085000Y-9329000I-40000J0D01*
G01*
X13085000Y-9329000D02*
G75*
G02*
X13165000Y-9329000I40000J0D01*
G01*
X13855000Y-9450000D02*
G75*
G02*
X13775000Y-9450000I-40000J0D01*
G01*
X13775000Y-9450000D02*
G75*
G02*
X13855000Y-9450000I40000J0D01*
G01*
X13998000Y-11525000D02*
G75*
G02*
X13918000Y-11525000I-40000J0D01*
G01*
X13918000Y-11525000D02*
G75*
G02*
X13998000Y-11525000I40000J0D01*
G01*
X14115000Y-8650000D02*
G75*
G02*
X14035000Y-8650000I-40000J0D01*
G01*
X14035000Y-8650000D02*
G75*
G02*
X14115000Y-8650000I40000J0D01*
G01*
X14615000Y-8650000D02*
G75*
G02*
X14535000Y-8650000I-40000J0D01*
G01*
X14535000Y-8650000D02*
G75*
G02*
X14615000Y-8650000I40000J0D01*
G01*
X15057000Y-7800000D02*
G75*
G02*
X14977000Y-7800000I-40000J0D01*
G01*
X14977000Y-7800000D02*
G75*
G02*
X15057000Y-7800000I40000J0D01*
G01*
X15125000Y-9450000D02*
G75*
G02*
X15045000Y-9450000I-40000J0D01*
G01*
X15045000Y-9450000D02*
G75*
G02*
X15125000Y-9450000I40000J0D01*
G01*
X15819000Y-10425000D02*
G75*
G02*
X15739000Y-10425000I-40000J0D01*
G01*
X15739000Y-10425000D02*
G75*
G02*
X15819000Y-10425000I40000J0D01*
G01*
X16073000Y-7800000D02*
G75*
G02*
X15993000Y-7800000I-40000J0D01*
G01*
X15993000Y-7800000D02*
G75*
G02*
X16073000Y-7800000I40000J0D01*
G01*
X16319000Y-10425000D02*
G75*
G02*
X16239000Y-10425000I-40000J0D01*
G01*
X16239000Y-10425000D02*
G75*
G02*
X16319000Y-10425000I40000J0D01*
G01*
X16615000Y-7825000D02*
G75*
G02*
X16535000Y-7825000I-40000J0D01*
G01*
X16535000Y-7825000D02*
G75*
G02*
X16615000Y-7825000I40000J0D01*
G01*
X17140000Y-9750000D02*
G75*
G02*
X17060000Y-9750000I-40000J0D01*
G01*
X17060000Y-9750000D02*
G75*
G02*
X17140000Y-9750000I40000J0D01*
G01*
X17140000Y-10250000D02*
G75*
G02*
X17060000Y-10250000I-40000J0D01*
G01*
X17060000Y-10250000D02*
G75*
G02*
X17140000Y-10250000I40000J0D01*
G01*
X17631000Y-7825000D02*
G75*
G02*
X17551000Y-7825000I-40000J0D01*
G01*
X17551000Y-7825000D02*
G75*
G02*
X17631000Y-7825000I40000J0D01*
G01*
X18315000Y-11492000D02*
G75*
G02*
X18235000Y-11492000I-40000J0D01*
G01*
X18235000Y-11492000D02*
G75*
G02*
X18315000Y-11492000I40000J0D01*
G01*
X19331000Y-11492000D02*
G75*
G02*
X19251000Y-11492000I-40000J0D01*
G01*
X19251000Y-11492000D02*
G75*
G02*
X19331000Y-11492000I40000J0D01*
G01*
X19365000Y-9909000D02*
G75*
G02*
X19285000Y-9909000I-40000J0D01*
G01*
X19285000Y-9909000D02*
G75*
G02*
X19365000Y-9909000I40000J0D01*
G01*
X19365000Y-10925000D02*
G75*
G02*
X19285000Y-10925000I-40000J0D01*
G01*
X19285000Y-10925000D02*
G75*
G02*
X19365000Y-10925000I40000J0D01*
G01*
X18221000Y-7855000D02*
X18221000Y-7945000D01*
X18176000Y-7900000D02*
X18266000Y-7900000D01*
X18475000Y-7855000D02*
X18475000Y-7945000D01*
X18430000Y-7900000D02*
X18520000Y-7900000D01*
X13535356Y-6894356D02*
X13535356Y-6823644D01*
X13464644Y-6823644D01*
X13464644Y-6894356D01*
X13535356Y-6894356D01*
X13535356Y-7148356D02*
X13535356Y-7077644D01*
X13464644Y-7077644D01*
X13464644Y-7148356D01*
X13535356Y-7148356D01*
X13535356Y-7402356D02*
X13535356Y-7331644D01*
X13464644Y-7331644D01*
X13464644Y-7402356D01*
X13535356Y-7402356D01*
X13535356Y-7656356D02*
X13535356Y-7585644D01*
X13464644Y-7585644D01*
X13464644Y-7656356D01*
X13535356Y-7656356D01*
X13535356Y-7910356D02*
X13535356Y-7839644D01*
X13464644Y-7839644D01*
X13464644Y-7910356D01*
X13535356Y-7910356D01*
X14181356Y-10610356D02*
X14181356Y-10539644D01*
X14110644Y-10539644D01*
X14110644Y-10610356D01*
X14181356Y-10610356D01*
X14435356Y-10610356D02*
X14435356Y-10539644D01*
X14364644Y-10539644D01*
X14364644Y-10610356D01*
X14435356Y-10610356D01*
X14689356Y-10610356D02*
X14689356Y-10539644D01*
X14618644Y-10539644D01*
X14618644Y-10610356D01*
X14689356Y-10610356D01*
X14727356Y-6985356D02*
X14727356Y-6914644D01*
X14656644Y-6914644D01*
X14656644Y-6985356D01*
X14727356Y-6985356D01*
X14981356Y-6985356D02*
X14981356Y-6914644D01*
X14910644Y-6914644D01*
X14910644Y-6985356D01*
X14981356Y-6985356D01*
X15235356Y-6985356D02*
X15235356Y-6914644D01*
X15164644Y-6914644D01*
X15164644Y-6985356D01*
X15235356Y-6985356D01*
X15730356Y-11085356D02*
X15730356Y-11014644D01*
X15659644Y-11014644D01*
X15659644Y-11085356D01*
X15730356Y-11085356D01*
X15984356Y-11085356D02*
X15984356Y-11014644D01*
X15913644Y-11014644D01*
X15913644Y-11085356D01*
X15984356Y-11085356D01*
X16019356Y-6985356D02*
X16019356Y-6914644D01*
X15948644Y-6914644D01*
X15948644Y-6985356D01*
X16019356Y-6985356D01*
X16238356Y-11085356D02*
X16238356Y-11014644D01*
X16167644Y-11014644D01*
X16167644Y-11085356D01*
X16238356Y-11085356D01*
X16273356Y-6985356D02*
X16273356Y-6914644D01*
X16202644Y-6914644D01*
X16202644Y-6985356D01*
X16273356Y-6985356D01*
X16492356Y-11085356D02*
X16492356Y-11014644D01*
X16421644Y-11014644D01*
X16421644Y-11085356D01*
X16492356Y-11085356D01*
X16527356Y-6985356D02*
X16527356Y-6914644D01*
X16456644Y-6914644D01*
X16456644Y-6985356D01*
X16527356Y-6985356D01*
X16781356Y-6985356D02*
X16781356Y-6914644D01*
X16710644Y-6914644D01*
X16710644Y-6985356D01*
X16781356Y-6985356D01*
X17035356Y-6985356D02*
X17035356Y-6914644D01*
X16964644Y-6914644D01*
X16964644Y-6985356D01*
X17035356Y-6985356D01*
X18162856Y-8880356D02*
X18162856Y-8809644D01*
X18092144Y-8809644D01*
X18092144Y-8880356D01*
X18162856Y-8880356D01*
X18162856Y-9134356D02*
X18162856Y-9063644D01*
X18092144Y-9063644D01*
X18092144Y-9134356D01*
X18162856Y-9134356D01*
X18162856Y-9388356D02*
X18162856Y-9317644D01*
X18092144Y-9317644D01*
X18092144Y-9388356D01*
X18162856Y-9388356D01*
X18162856Y-9642356D02*
X18162856Y-9571644D01*
X18092144Y-9571644D01*
X18092144Y-9642356D01*
X18162856Y-9642356D01*
D12*
X12975000Y-12215000D02*
X13040000Y-12150000D01*
X12975000Y-12085000D01*
X12910000Y-12150000D01*
X12975000Y-12215000D01*
X12975000Y-12865000D02*
X13040000Y-12800000D01*
X12975000Y-12735000D01*
X12910000Y-12800000D01*
X12975000Y-12865000D01*
X19375000Y-12215000D02*
X19440000Y-12150000D01*
X19375000Y-12085000D01*
X19310000Y-12150000D01*
X19375000Y-12215000D01*
X19375000Y-12865000D02*
X19440000Y-12800000D01*
X19375000Y-12735000D01*
X19310000Y-12800000D01*
X19375000Y-12865000D01*
D13*
X19425000Y-8800000D02*
X19575000Y-8950000D01*
X19575000Y-8800000D02*
X19425000Y-8950000D01*
X19575000Y-8875000D02*
G75*
G02*
X19425000Y-8875000I-75000J0D01*
G01*
X19425000Y-8875000D02*
G75*
G02*
X19575000Y-8875000I75000J0D01*
G01*
X21474000Y-8800000D02*
X21624000Y-8950000D01*
X21624000Y-8800000D02*
X21474000Y-8950000D01*
X21624000Y-8875000D02*
G75*
G02*
X21474000Y-8875000I-75000J0D01*
G01*
X21474000Y-8875000D02*
G75*
G02*
X21624000Y-8875000I75000J0D01*
G01*
D10*
X9800777Y-13846484D02*
X9800777Y-13646484D01*
X9800777Y-13646484D02*
X9848396Y-13646484D01*
X9848396Y-13646484D02*
X9876967Y-13656008D01*
X9876967Y-13656008D02*
X9896015Y-13675055D01*
X9896015Y-13675055D02*
X9905539Y-13694103D01*
X9905539Y-13694103D02*
X9915063Y-13732198D01*
X9915063Y-13732198D02*
X9915063Y-13760769D01*
X9915063Y-13760769D02*
X9905539Y-13798865D01*
X9905539Y-13798865D02*
X9896015Y-13817912D01*
X9896015Y-13817912D02*
X9876967Y-13836960D01*
X9876967Y-13836960D02*
X9848396Y-13846484D01*
X9848396Y-13846484D02*
X9800777Y-13846484D01*
X10000777Y-13846484D02*
X10000777Y-13713150D01*
X10000777Y-13751246D02*
X10010301Y-13732198D01*
X10010301Y-13732198D02*
X10019824Y-13722674D01*
X10019824Y-13722674D02*
X10038872Y-13713150D01*
X10038872Y-13713150D02*
X10057920Y-13713150D01*
X10124586Y-13846484D02*
X10124586Y-13713150D01*
X10124586Y-13646484D02*
X10115063Y-13656008D01*
X10115063Y-13656008D02*
X10124586Y-13665531D01*
X10124586Y-13665531D02*
X10134110Y-13656008D01*
X10134110Y-13656008D02*
X10124586Y-13646484D01*
X10124586Y-13646484D02*
X10124586Y-13665531D01*
X10248396Y-13846484D02*
X10229348Y-13836960D01*
X10229348Y-13836960D02*
X10219824Y-13817912D01*
X10219824Y-13817912D02*
X10219824Y-13646484D01*
X10353158Y-13846484D02*
X10334110Y-13836960D01*
X10334110Y-13836960D02*
X10324586Y-13817912D01*
X10324586Y-13817912D02*
X10324586Y-13646484D01*
X10581729Y-13846484D02*
X10581729Y-13646484D01*
X10581729Y-13646484D02*
X10648396Y-13789341D01*
X10648396Y-13789341D02*
X10715063Y-13646484D01*
X10715063Y-13646484D02*
X10715063Y-13846484D01*
X10896015Y-13846484D02*
X10896015Y-13741722D01*
X10896015Y-13741722D02*
X10886491Y-13722674D01*
X10886491Y-13722674D02*
X10867444Y-13713150D01*
X10867444Y-13713150D02*
X10829348Y-13713150D01*
X10829348Y-13713150D02*
X10810301Y-13722674D01*
X10896015Y-13836960D02*
X10876967Y-13846484D01*
X10876967Y-13846484D02*
X10829348Y-13846484D01*
X10829348Y-13846484D02*
X10810301Y-13836960D01*
X10810301Y-13836960D02*
X10800777Y-13817912D01*
X10800777Y-13817912D02*
X10800777Y-13798865D01*
X10800777Y-13798865D02*
X10810301Y-13779817D01*
X10810301Y-13779817D02*
X10829348Y-13770293D01*
X10829348Y-13770293D02*
X10876967Y-13770293D01*
X10876967Y-13770293D02*
X10896015Y-13760769D01*
X10991253Y-13713150D02*
X10991253Y-13913150D01*
X10991253Y-13722674D02*
X11010301Y-13713150D01*
X11010301Y-13713150D02*
X11048396Y-13713150D01*
X11048396Y-13713150D02*
X11067444Y-13722674D01*
X11067444Y-13722674D02*
X11076967Y-13732198D01*
X11076967Y-13732198D02*
X11086491Y-13751246D01*
X11086491Y-13751246D02*
X11086491Y-13808388D01*
X11086491Y-13808388D02*
X11076967Y-13827436D01*
X11076967Y-13827436D02*
X11067444Y-13836960D01*
X11067444Y-13836960D02*
X11048396Y-13846484D01*
X11048396Y-13846484D02*
X11010301Y-13846484D01*
X11010301Y-13846484D02*
X10991253Y-13836960D01*
X11172205Y-13827436D02*
X11181729Y-13836960D01*
X11181729Y-13836960D02*
X11172205Y-13846484D01*
X11172205Y-13846484D02*
X11162682Y-13836960D01*
X11162682Y-13836960D02*
X11172205Y-13827436D01*
X11172205Y-13827436D02*
X11172205Y-13846484D01*
X11172205Y-13722674D02*
X11181729Y-13732198D01*
X11181729Y-13732198D02*
X11172205Y-13741722D01*
X11172205Y-13741722D02*
X11162682Y-13732198D01*
X11162682Y-13732198D02*
X11172205Y-13722674D01*
X11172205Y-13722674D02*
X11172205Y-13741722D01*
D11*
X9510000Y-14160000D02*
X9540000Y-14190000D01*
X9540000Y-14160000D02*
X9510000Y-14190000D01*
D10*
X9838872Y-14066484D02*
X9857920Y-14066484D01*
X9857920Y-14066484D02*
X9876967Y-14076008D01*
X9876967Y-14076008D02*
X9886491Y-14085531D01*
X9886491Y-14085531D02*
X9896015Y-14104579D01*
X9896015Y-14104579D02*
X9905539Y-14142674D01*
X9905539Y-14142674D02*
X9905539Y-14190293D01*
X9905539Y-14190293D02*
X9896015Y-14228388D01*
X9896015Y-14228388D02*
X9886491Y-14247436D01*
X9886491Y-14247436D02*
X9876967Y-14256960D01*
X9876967Y-14256960D02*
X9857920Y-14266484D01*
X9857920Y-14266484D02*
X9838872Y-14266484D01*
X9838872Y-14266484D02*
X9819824Y-14256960D01*
X9819824Y-14256960D02*
X9810301Y-14247436D01*
X9810301Y-14247436D02*
X9800777Y-14228388D01*
X9800777Y-14228388D02*
X9791253Y-14190293D01*
X9791253Y-14190293D02*
X9791253Y-14142674D01*
X9791253Y-14142674D02*
X9800777Y-14104579D01*
X9800777Y-14104579D02*
X9810301Y-14085531D01*
X9810301Y-14085531D02*
X9819824Y-14076008D01*
X9819824Y-14076008D02*
X9838872Y-14066484D01*
X9991253Y-14247436D02*
X10000777Y-14256960D01*
X10000777Y-14256960D02*
X9991253Y-14266484D01*
X9991253Y-14266484D02*
X9981729Y-14256960D01*
X9981729Y-14256960D02*
X9991253Y-14247436D01*
X9991253Y-14247436D02*
X9991253Y-14266484D01*
X10067444Y-14066484D02*
X10191253Y-14066484D01*
X10191253Y-14066484D02*
X10124586Y-14142674D01*
X10124586Y-14142674D02*
X10153158Y-14142674D01*
X10153158Y-14142674D02*
X10172205Y-14152198D01*
X10172205Y-14152198D02*
X10181729Y-14161722D01*
X10181729Y-14161722D02*
X10191253Y-14180769D01*
X10191253Y-14180769D02*
X10191253Y-14228388D01*
X10191253Y-14228388D02*
X10181729Y-14247436D01*
X10181729Y-14247436D02*
X10172205Y-14256960D01*
X10172205Y-14256960D02*
X10153158Y-14266484D01*
X10153158Y-14266484D02*
X10096015Y-14266484D01*
X10096015Y-14266484D02*
X10076967Y-14256960D01*
X10076967Y-14256960D02*
X10067444Y-14247436D01*
X10315063Y-14066484D02*
X10334110Y-14066484D01*
X10334110Y-14066484D02*
X10353158Y-14076008D01*
X10353158Y-14076008D02*
X10362682Y-14085531D01*
X10362682Y-14085531D02*
X10372205Y-14104579D01*
X10372205Y-14104579D02*
X10381729Y-14142674D01*
X10381729Y-14142674D02*
X10381729Y-14190293D01*
X10381729Y-14190293D02*
X10372205Y-14228388D01*
X10372205Y-14228388D02*
X10362682Y-14247436D01*
X10362682Y-14247436D02*
X10353158Y-14256960D01*
X10353158Y-14256960D02*
X10334110Y-14266484D01*
X10334110Y-14266484D02*
X10315063Y-14266484D01*
X10315063Y-14266484D02*
X10296015Y-14256960D01*
X10296015Y-14256960D02*
X10286491Y-14247436D01*
X10286491Y-14247436D02*
X10276967Y-14228388D01*
X10276967Y-14228388D02*
X10267444Y-14190293D01*
X10267444Y-14190293D02*
X10267444Y-14142674D01*
X10267444Y-14142674D02*
X10276967Y-14104579D01*
X10276967Y-14104579D02*
X10286491Y-14085531D01*
X10286491Y-14085531D02*
X10296015Y-14076008D01*
X10296015Y-14076008D02*
X10315063Y-14066484D01*
X10505539Y-14066484D02*
X10524586Y-14066484D01*
X10524586Y-14066484D02*
X10543634Y-14076008D01*
X10543634Y-14076008D02*
X10553158Y-14085531D01*
X10553158Y-14085531D02*
X10562682Y-14104579D01*
X10562682Y-14104579D02*
X10572205Y-14142674D01*
X10572205Y-14142674D02*
X10572205Y-14190293D01*
X10572205Y-14190293D02*
X10562682Y-14228388D01*
X10562682Y-14228388D02*
X10553158Y-14247436D01*
X10553158Y-14247436D02*
X10543634Y-14256960D01*
X10543634Y-14256960D02*
X10524586Y-14266484D01*
X10524586Y-14266484D02*
X10505539Y-14266484D01*
X10505539Y-14266484D02*
X10486491Y-14256960D01*
X10486491Y-14256960D02*
X10476967Y-14247436D01*
X10476967Y-14247436D02*
X10467444Y-14228388D01*
X10467444Y-14228388D02*
X10457920Y-14190293D01*
X10457920Y-14190293D02*
X10457920Y-14142674D01*
X10457920Y-14142674D02*
X10467444Y-14104579D01*
X10467444Y-14104579D02*
X10476967Y-14085531D01*
X10476967Y-14085531D02*
X10486491Y-14076008D01*
X10486491Y-14076008D02*
X10505539Y-14066484D01*
X10657920Y-14266484D02*
X10657920Y-14133150D01*
X10657920Y-14152198D02*
X10667444Y-14142674D01*
X10667444Y-14142674D02*
X10686491Y-14133150D01*
X10686491Y-14133150D02*
X10715063Y-14133150D01*
X10715063Y-14133150D02*
X10734110Y-14142674D01*
X10734110Y-14142674D02*
X10743634Y-14161722D01*
X10743634Y-14161722D02*
X10743634Y-14266484D01*
X10743634Y-14161722D02*
X10753158Y-14142674D01*
X10753158Y-14142674D02*
X10772205Y-14133150D01*
X10772205Y-14133150D02*
X10800777Y-14133150D01*
X10800777Y-14133150D02*
X10819825Y-14142674D01*
X10819825Y-14142674D02*
X10829348Y-14161722D01*
X10829348Y-14161722D02*
X10829348Y-14266484D01*
X10924586Y-14266484D02*
X10924586Y-14133150D01*
X10924586Y-14152198D02*
X10934110Y-14142674D01*
X10934110Y-14142674D02*
X10953158Y-14133150D01*
X10953158Y-14133150D02*
X10981729Y-14133150D01*
X10981729Y-14133150D02*
X11000777Y-14142674D01*
X11000777Y-14142674D02*
X11010301Y-14161722D01*
X11010301Y-14161722D02*
X11010301Y-14266484D01*
X11010301Y-14161722D02*
X11019825Y-14142674D01*
X11019825Y-14142674D02*
X11038872Y-14133150D01*
X11038872Y-14133150D02*
X11067444Y-14133150D01*
X11067444Y-14133150D02*
X11086491Y-14142674D01*
X11086491Y-14142674D02*
X11096015Y-14161722D01*
X11096015Y-14161722D02*
X11096015Y-14266484D01*
X11486491Y-14056960D02*
X11315063Y-14314103D01*
X11743634Y-14066484D02*
X11762682Y-14066484D01*
X11762682Y-14066484D02*
X11781729Y-14076008D01*
X11781729Y-14076008D02*
X11791253Y-14085531D01*
X11791253Y-14085531D02*
X11800777Y-14104579D01*
X11800777Y-14104579D02*
X11810301Y-14142674D01*
X11810301Y-14142674D02*
X11810301Y-14190293D01*
X11810301Y-14190293D02*
X11800777Y-14228388D01*
X11800777Y-14228388D02*
X11791253Y-14247436D01*
X11791253Y-14247436D02*
X11781729Y-14256960D01*
X11781729Y-14256960D02*
X11762682Y-14266484D01*
X11762682Y-14266484D02*
X11743634Y-14266484D01*
X11743634Y-14266484D02*
X11724586Y-14256960D01*
X11724586Y-14256960D02*
X11715063Y-14247436D01*
X11715063Y-14247436D02*
X11705539Y-14228388D01*
X11705539Y-14228388D02*
X11696015Y-14190293D01*
X11696015Y-14190293D02*
X11696015Y-14142674D01*
X11696015Y-14142674D02*
X11705539Y-14104579D01*
X11705539Y-14104579D02*
X11715063Y-14085531D01*
X11715063Y-14085531D02*
X11724586Y-14076008D01*
X11724586Y-14076008D02*
X11743634Y-14066484D01*
X11896015Y-14247436D02*
X11905539Y-14256960D01*
X11905539Y-14256960D02*
X11896015Y-14266484D01*
X11896015Y-14266484D02*
X11886491Y-14256960D01*
X11886491Y-14256960D02*
X11896015Y-14247436D01*
X11896015Y-14247436D02*
X11896015Y-14266484D01*
X12029348Y-14066484D02*
X12048396Y-14066484D01*
X12048396Y-14066484D02*
X12067444Y-14076008D01*
X12067444Y-14076008D02*
X12076967Y-14085531D01*
X12076967Y-14085531D02*
X12086491Y-14104579D01*
X12086491Y-14104579D02*
X12096015Y-14142674D01*
X12096015Y-14142674D02*
X12096015Y-14190293D01*
X12096015Y-14190293D02*
X12086491Y-14228388D01*
X12086491Y-14228388D02*
X12076967Y-14247436D01*
X12076967Y-14247436D02*
X12067444Y-14256960D01*
X12067444Y-14256960D02*
X12048396Y-14266484D01*
X12048396Y-14266484D02*
X12029348Y-14266484D01*
X12029348Y-14266484D02*
X12010301Y-14256960D01*
X12010301Y-14256960D02*
X12000777Y-14247436D01*
X12000777Y-14247436D02*
X11991253Y-14228388D01*
X11991253Y-14228388D02*
X11981729Y-14190293D01*
X11981729Y-14190293D02*
X11981729Y-14142674D01*
X11981729Y-14142674D02*
X11991253Y-14104579D01*
X11991253Y-14104579D02*
X12000777Y-14085531D01*
X12000777Y-14085531D02*
X12010301Y-14076008D01*
X12010301Y-14076008D02*
X12029348Y-14066484D01*
X12286491Y-14266484D02*
X12172206Y-14266484D01*
X12229348Y-14266484D02*
X12229348Y-14066484D01*
X12229348Y-14066484D02*
X12210301Y-14095055D01*
X12210301Y-14095055D02*
X12191253Y-14114103D01*
X12191253Y-14114103D02*
X12172206Y-14123627D01*
X12476967Y-14266484D02*
X12362682Y-14266484D01*
X12419825Y-14266484D02*
X12419825Y-14066484D01*
X12419825Y-14066484D02*
X12400777Y-14095055D01*
X12400777Y-14095055D02*
X12381729Y-14114103D01*
X12381729Y-14114103D02*
X12362682Y-14123627D01*
X12591253Y-14152198D02*
X12572206Y-14142674D01*
X12572206Y-14142674D02*
X12562682Y-14133150D01*
X12562682Y-14133150D02*
X12553158Y-14114103D01*
X12553158Y-14114103D02*
X12553158Y-14104579D01*
X12553158Y-14104579D02*
X12562682Y-14085531D01*
X12562682Y-14085531D02*
X12572206Y-14076008D01*
X12572206Y-14076008D02*
X12591253Y-14066484D01*
X12591253Y-14066484D02*
X12629348Y-14066484D01*
X12629348Y-14066484D02*
X12648396Y-14076008D01*
X12648396Y-14076008D02*
X12657920Y-14085531D01*
X12657920Y-14085531D02*
X12667444Y-14104579D01*
X12667444Y-14104579D02*
X12667444Y-14114103D01*
X12667444Y-14114103D02*
X12657920Y-14133150D01*
X12657920Y-14133150D02*
X12648396Y-14142674D01*
X12648396Y-14142674D02*
X12629348Y-14152198D01*
X12629348Y-14152198D02*
X12591253Y-14152198D01*
X12591253Y-14152198D02*
X12572206Y-14161722D01*
X12572206Y-14161722D02*
X12562682Y-14171246D01*
X12562682Y-14171246D02*
X12553158Y-14190293D01*
X12553158Y-14190293D02*
X12553158Y-14228388D01*
X12553158Y-14228388D02*
X12562682Y-14247436D01*
X12562682Y-14247436D02*
X12572206Y-14256960D01*
X12572206Y-14256960D02*
X12591253Y-14266484D01*
X12591253Y-14266484D02*
X12629348Y-14266484D01*
X12629348Y-14266484D02*
X12648396Y-14256960D01*
X12648396Y-14256960D02*
X12657920Y-14247436D01*
X12657920Y-14247436D02*
X12667444Y-14228388D01*
X12667444Y-14228388D02*
X12667444Y-14190293D01*
X12667444Y-14190293D02*
X12657920Y-14171246D01*
X12657920Y-14171246D02*
X12648396Y-14161722D01*
X12648396Y-14161722D02*
X12629348Y-14152198D01*
X12743634Y-14066484D02*
X12743634Y-14104579D01*
X12819825Y-14066484D02*
X12819825Y-14104579D01*
X13115063Y-14342674D02*
X13105539Y-14333150D01*
X13105539Y-14333150D02*
X13086491Y-14304579D01*
X13086491Y-14304579D02*
X13076968Y-14285531D01*
X13076968Y-14285531D02*
X13067444Y-14256960D01*
X13067444Y-14256960D02*
X13057920Y-14209341D01*
X13057920Y-14209341D02*
X13057920Y-14171246D01*
X13057920Y-14171246D02*
X13067444Y-14123627D01*
X13067444Y-14123627D02*
X13076968Y-14095055D01*
X13076968Y-14095055D02*
X13086491Y-14076008D01*
X13086491Y-14076008D02*
X13105539Y-14047436D01*
X13105539Y-14047436D02*
X13115063Y-14037912D01*
X13181729Y-14085531D02*
X13191253Y-14076008D01*
X13191253Y-14076008D02*
X13210301Y-14066484D01*
X13210301Y-14066484D02*
X13257920Y-14066484D01*
X13257920Y-14066484D02*
X13276968Y-14076008D01*
X13276968Y-14076008D02*
X13286491Y-14085531D01*
X13286491Y-14085531D02*
X13296015Y-14104579D01*
X13296015Y-14104579D02*
X13296015Y-14123627D01*
X13296015Y-14123627D02*
X13286491Y-14152198D01*
X13286491Y-14152198D02*
X13172206Y-14266484D01*
X13172206Y-14266484D02*
X13296015Y-14266484D01*
X13467444Y-14066484D02*
X13429348Y-14066484D01*
X13429348Y-14066484D02*
X13410301Y-14076008D01*
X13410301Y-14076008D02*
X13400777Y-14085531D01*
X13400777Y-14085531D02*
X13381729Y-14114103D01*
X13381729Y-14114103D02*
X13372206Y-14152198D01*
X13372206Y-14152198D02*
X13372206Y-14228388D01*
X13372206Y-14228388D02*
X13381729Y-14247436D01*
X13381729Y-14247436D02*
X13391253Y-14256960D01*
X13391253Y-14256960D02*
X13410301Y-14266484D01*
X13410301Y-14266484D02*
X13448396Y-14266484D01*
X13448396Y-14266484D02*
X13467444Y-14256960D01*
X13467444Y-14256960D02*
X13476968Y-14247436D01*
X13476968Y-14247436D02*
X13486491Y-14228388D01*
X13486491Y-14228388D02*
X13486491Y-14180769D01*
X13486491Y-14180769D02*
X13476968Y-14161722D01*
X13476968Y-14161722D02*
X13467444Y-14152198D01*
X13467444Y-14152198D02*
X13448396Y-14142674D01*
X13448396Y-14142674D02*
X13410301Y-14142674D01*
X13410301Y-14142674D02*
X13391253Y-14152198D01*
X13391253Y-14152198D02*
X13381729Y-14161722D01*
X13381729Y-14161722D02*
X13372206Y-14180769D01*
X13724587Y-14266484D02*
X13724587Y-14066484D01*
X13810301Y-14266484D02*
X13810301Y-14161722D01*
X13810301Y-14161722D02*
X13800777Y-14142674D01*
X13800777Y-14142674D02*
X13781730Y-14133150D01*
X13781730Y-14133150D02*
X13753158Y-14133150D01*
X13753158Y-14133150D02*
X13734110Y-14142674D01*
X13734110Y-14142674D02*
X13724587Y-14152198D01*
X13934110Y-14266484D02*
X13915063Y-14256960D01*
X13915063Y-14256960D02*
X13905539Y-14247436D01*
X13905539Y-14247436D02*
X13896015Y-14228388D01*
X13896015Y-14228388D02*
X13896015Y-14171246D01*
X13896015Y-14171246D02*
X13905539Y-14152198D01*
X13905539Y-14152198D02*
X13915063Y-14142674D01*
X13915063Y-14142674D02*
X13934110Y-14133150D01*
X13934110Y-14133150D02*
X13962682Y-14133150D01*
X13962682Y-14133150D02*
X13981730Y-14142674D01*
X13981730Y-14142674D02*
X13991253Y-14152198D01*
X13991253Y-14152198D02*
X14000777Y-14171246D01*
X14000777Y-14171246D02*
X14000777Y-14228388D01*
X14000777Y-14228388D02*
X13991253Y-14247436D01*
X13991253Y-14247436D02*
X13981730Y-14256960D01*
X13981730Y-14256960D02*
X13962682Y-14266484D01*
X13962682Y-14266484D02*
X13934110Y-14266484D01*
X14115063Y-14266484D02*
X14096015Y-14256960D01*
X14096015Y-14256960D02*
X14086491Y-14237912D01*
X14086491Y-14237912D02*
X14086491Y-14066484D01*
X14267444Y-14256960D02*
X14248396Y-14266484D01*
X14248396Y-14266484D02*
X14210301Y-14266484D01*
X14210301Y-14266484D02*
X14191253Y-14256960D01*
X14191253Y-14256960D02*
X14181730Y-14237912D01*
X14181730Y-14237912D02*
X14181730Y-14161722D01*
X14181730Y-14161722D02*
X14191253Y-14142674D01*
X14191253Y-14142674D02*
X14210301Y-14133150D01*
X14210301Y-14133150D02*
X14248396Y-14133150D01*
X14248396Y-14133150D02*
X14267444Y-14142674D01*
X14267444Y-14142674D02*
X14276968Y-14161722D01*
X14276968Y-14161722D02*
X14276968Y-14180769D01*
X14276968Y-14180769D02*
X14181730Y-14199817D01*
X14353158Y-14256960D02*
X14372206Y-14266484D01*
X14372206Y-14266484D02*
X14410301Y-14266484D01*
X14410301Y-14266484D02*
X14429349Y-14256960D01*
X14429349Y-14256960D02*
X14438872Y-14237912D01*
X14438872Y-14237912D02*
X14438872Y-14228388D01*
X14438872Y-14228388D02*
X14429349Y-14209341D01*
X14429349Y-14209341D02*
X14410301Y-14199817D01*
X14410301Y-14199817D02*
X14381730Y-14199817D01*
X14381730Y-14199817D02*
X14362682Y-14190293D01*
X14362682Y-14190293D02*
X14353158Y-14171246D01*
X14353158Y-14171246D02*
X14353158Y-14161722D01*
X14353158Y-14161722D02*
X14362682Y-14142674D01*
X14362682Y-14142674D02*
X14381730Y-14133150D01*
X14381730Y-14133150D02*
X14410301Y-14133150D01*
X14410301Y-14133150D02*
X14429349Y-14142674D01*
X14505539Y-14342674D02*
X14515063Y-14333150D01*
X14515063Y-14333150D02*
X14534111Y-14304579D01*
X14534111Y-14304579D02*
X14543634Y-14285531D01*
X14543634Y-14285531D02*
X14553158Y-14256960D01*
X14553158Y-14256960D02*
X14562682Y-14209341D01*
X14562682Y-14209341D02*
X14562682Y-14171246D01*
X14562682Y-14171246D02*
X14553158Y-14123627D01*
X14553158Y-14123627D02*
X14543634Y-14095055D01*
X14543634Y-14095055D02*
X14534111Y-14076008D01*
X14534111Y-14076008D02*
X14515063Y-14047436D01*
X14515063Y-14047436D02*
X14505539Y-14037912D01*
D11*
X9540000Y-14439000D02*
G75*
G02*
X9460000Y-14439000I-40000J0D01*
G01*
X9460000Y-14439000D02*
G75*
G02*
X9540000Y-14439000I40000J0D01*
G01*
D10*
X9838872Y-14330484D02*
X9857920Y-14330484D01*
X9857920Y-14330484D02*
X9876967Y-14340008D01*
X9876967Y-14340008D02*
X9886491Y-14349531D01*
X9886491Y-14349531D02*
X9896015Y-14368579D01*
X9896015Y-14368579D02*
X9905539Y-14406674D01*
X9905539Y-14406674D02*
X9905539Y-14454293D01*
X9905539Y-14454293D02*
X9896015Y-14492388D01*
X9896015Y-14492388D02*
X9886491Y-14511436D01*
X9886491Y-14511436D02*
X9876967Y-14520960D01*
X9876967Y-14520960D02*
X9857920Y-14530484D01*
X9857920Y-14530484D02*
X9838872Y-14530484D01*
X9838872Y-14530484D02*
X9819824Y-14520960D01*
X9819824Y-14520960D02*
X9810301Y-14511436D01*
X9810301Y-14511436D02*
X9800777Y-14492388D01*
X9800777Y-14492388D02*
X9791253Y-14454293D01*
X9791253Y-14454293D02*
X9791253Y-14406674D01*
X9791253Y-14406674D02*
X9800777Y-14368579D01*
X9800777Y-14368579D02*
X9810301Y-14349531D01*
X9810301Y-14349531D02*
X9819824Y-14340008D01*
X9819824Y-14340008D02*
X9838872Y-14330484D01*
X9991253Y-14511436D02*
X10000777Y-14520960D01*
X10000777Y-14520960D02*
X9991253Y-14530484D01*
X9991253Y-14530484D02*
X9981729Y-14520960D01*
X9981729Y-14520960D02*
X9991253Y-14511436D01*
X9991253Y-14511436D02*
X9991253Y-14530484D01*
X10115063Y-14416198D02*
X10096015Y-14406674D01*
X10096015Y-14406674D02*
X10086491Y-14397150D01*
X10086491Y-14397150D02*
X10076967Y-14378103D01*
X10076967Y-14378103D02*
X10076967Y-14368579D01*
X10076967Y-14368579D02*
X10086491Y-14349531D01*
X10086491Y-14349531D02*
X10096015Y-14340008D01*
X10096015Y-14340008D02*
X10115063Y-14330484D01*
X10115063Y-14330484D02*
X10153158Y-14330484D01*
X10153158Y-14330484D02*
X10172205Y-14340008D01*
X10172205Y-14340008D02*
X10181729Y-14349531D01*
X10181729Y-14349531D02*
X10191253Y-14368579D01*
X10191253Y-14368579D02*
X10191253Y-14378103D01*
X10191253Y-14378103D02*
X10181729Y-14397150D01*
X10181729Y-14397150D02*
X10172205Y-14406674D01*
X10172205Y-14406674D02*
X10153158Y-14416198D01*
X10153158Y-14416198D02*
X10115063Y-14416198D01*
X10115063Y-14416198D02*
X10096015Y-14425722D01*
X10096015Y-14425722D02*
X10086491Y-14435246D01*
X10086491Y-14435246D02*
X10076967Y-14454293D01*
X10076967Y-14454293D02*
X10076967Y-14492388D01*
X10076967Y-14492388D02*
X10086491Y-14511436D01*
X10086491Y-14511436D02*
X10096015Y-14520960D01*
X10096015Y-14520960D02*
X10115063Y-14530484D01*
X10115063Y-14530484D02*
X10153158Y-14530484D01*
X10153158Y-14530484D02*
X10172205Y-14520960D01*
X10172205Y-14520960D02*
X10181729Y-14511436D01*
X10181729Y-14511436D02*
X10191253Y-14492388D01*
X10191253Y-14492388D02*
X10191253Y-14454293D01*
X10191253Y-14454293D02*
X10181729Y-14435246D01*
X10181729Y-14435246D02*
X10172205Y-14425722D01*
X10172205Y-14425722D02*
X10153158Y-14416198D01*
X10315063Y-14330484D02*
X10334110Y-14330484D01*
X10334110Y-14330484D02*
X10353158Y-14340008D01*
X10353158Y-14340008D02*
X10362682Y-14349531D01*
X10362682Y-14349531D02*
X10372205Y-14368579D01*
X10372205Y-14368579D02*
X10381729Y-14406674D01*
X10381729Y-14406674D02*
X10381729Y-14454293D01*
X10381729Y-14454293D02*
X10372205Y-14492388D01*
X10372205Y-14492388D02*
X10362682Y-14511436D01*
X10362682Y-14511436D02*
X10353158Y-14520960D01*
X10353158Y-14520960D02*
X10334110Y-14530484D01*
X10334110Y-14530484D02*
X10315063Y-14530484D01*
X10315063Y-14530484D02*
X10296015Y-14520960D01*
X10296015Y-14520960D02*
X10286491Y-14511436D01*
X10286491Y-14511436D02*
X10276967Y-14492388D01*
X10276967Y-14492388D02*
X10267444Y-14454293D01*
X10267444Y-14454293D02*
X10267444Y-14406674D01*
X10267444Y-14406674D02*
X10276967Y-14368579D01*
X10276967Y-14368579D02*
X10286491Y-14349531D01*
X10286491Y-14349531D02*
X10296015Y-14340008D01*
X10296015Y-14340008D02*
X10315063Y-14330484D01*
X10505539Y-14330484D02*
X10524586Y-14330484D01*
X10524586Y-14330484D02*
X10543634Y-14340008D01*
X10543634Y-14340008D02*
X10553158Y-14349531D01*
X10553158Y-14349531D02*
X10562682Y-14368579D01*
X10562682Y-14368579D02*
X10572205Y-14406674D01*
X10572205Y-14406674D02*
X10572205Y-14454293D01*
X10572205Y-14454293D02*
X10562682Y-14492388D01*
X10562682Y-14492388D02*
X10553158Y-14511436D01*
X10553158Y-14511436D02*
X10543634Y-14520960D01*
X10543634Y-14520960D02*
X10524586Y-14530484D01*
X10524586Y-14530484D02*
X10505539Y-14530484D01*
X10505539Y-14530484D02*
X10486491Y-14520960D01*
X10486491Y-14520960D02*
X10476967Y-14511436D01*
X10476967Y-14511436D02*
X10467444Y-14492388D01*
X10467444Y-14492388D02*
X10457920Y-14454293D01*
X10457920Y-14454293D02*
X10457920Y-14406674D01*
X10457920Y-14406674D02*
X10467444Y-14368579D01*
X10467444Y-14368579D02*
X10476967Y-14349531D01*
X10476967Y-14349531D02*
X10486491Y-14340008D01*
X10486491Y-14340008D02*
X10505539Y-14330484D01*
X10657920Y-14530484D02*
X10657920Y-14397150D01*
X10657920Y-14416198D02*
X10667444Y-14406674D01*
X10667444Y-14406674D02*
X10686491Y-14397150D01*
X10686491Y-14397150D02*
X10715063Y-14397150D01*
X10715063Y-14397150D02*
X10734110Y-14406674D01*
X10734110Y-14406674D02*
X10743634Y-14425722D01*
X10743634Y-14425722D02*
X10743634Y-14530484D01*
X10743634Y-14425722D02*
X10753158Y-14406674D01*
X10753158Y-14406674D02*
X10772205Y-14397150D01*
X10772205Y-14397150D02*
X10800777Y-14397150D01*
X10800777Y-14397150D02*
X10819825Y-14406674D01*
X10819825Y-14406674D02*
X10829348Y-14425722D01*
X10829348Y-14425722D02*
X10829348Y-14530484D01*
X10924586Y-14530484D02*
X10924586Y-14397150D01*
X10924586Y-14416198D02*
X10934110Y-14406674D01*
X10934110Y-14406674D02*
X10953158Y-14397150D01*
X10953158Y-14397150D02*
X10981729Y-14397150D01*
X10981729Y-14397150D02*
X11000777Y-14406674D01*
X11000777Y-14406674D02*
X11010301Y-14425722D01*
X11010301Y-14425722D02*
X11010301Y-14530484D01*
X11010301Y-14425722D02*
X11019825Y-14406674D01*
X11019825Y-14406674D02*
X11038872Y-14397150D01*
X11038872Y-14397150D02*
X11067444Y-14397150D01*
X11067444Y-14397150D02*
X11086491Y-14406674D01*
X11086491Y-14406674D02*
X11096015Y-14425722D01*
X11096015Y-14425722D02*
X11096015Y-14530484D01*
X11486491Y-14320960D02*
X11315063Y-14578103D01*
X11743634Y-14330484D02*
X11762682Y-14330484D01*
X11762682Y-14330484D02*
X11781729Y-14340008D01*
X11781729Y-14340008D02*
X11791253Y-14349531D01*
X11791253Y-14349531D02*
X11800777Y-14368579D01*
X11800777Y-14368579D02*
X11810301Y-14406674D01*
X11810301Y-14406674D02*
X11810301Y-14454293D01*
X11810301Y-14454293D02*
X11800777Y-14492388D01*
X11800777Y-14492388D02*
X11791253Y-14511436D01*
X11791253Y-14511436D02*
X11781729Y-14520960D01*
X11781729Y-14520960D02*
X11762682Y-14530484D01*
X11762682Y-14530484D02*
X11743634Y-14530484D01*
X11743634Y-14530484D02*
X11724586Y-14520960D01*
X11724586Y-14520960D02*
X11715063Y-14511436D01*
X11715063Y-14511436D02*
X11705539Y-14492388D01*
X11705539Y-14492388D02*
X11696015Y-14454293D01*
X11696015Y-14454293D02*
X11696015Y-14406674D01*
X11696015Y-14406674D02*
X11705539Y-14368579D01*
X11705539Y-14368579D02*
X11715063Y-14349531D01*
X11715063Y-14349531D02*
X11724586Y-14340008D01*
X11724586Y-14340008D02*
X11743634Y-14330484D01*
X11896015Y-14511436D02*
X11905539Y-14520960D01*
X11905539Y-14520960D02*
X11896015Y-14530484D01*
X11896015Y-14530484D02*
X11886491Y-14520960D01*
X11886491Y-14520960D02*
X11896015Y-14511436D01*
X11896015Y-14511436D02*
X11896015Y-14530484D01*
X12029348Y-14330484D02*
X12048396Y-14330484D01*
X12048396Y-14330484D02*
X12067444Y-14340008D01*
X12067444Y-14340008D02*
X12076967Y-14349531D01*
X12076967Y-14349531D02*
X12086491Y-14368579D01*
X12086491Y-14368579D02*
X12096015Y-14406674D01*
X12096015Y-14406674D02*
X12096015Y-14454293D01*
X12096015Y-14454293D02*
X12086491Y-14492388D01*
X12086491Y-14492388D02*
X12076967Y-14511436D01*
X12076967Y-14511436D02*
X12067444Y-14520960D01*
X12067444Y-14520960D02*
X12048396Y-14530484D01*
X12048396Y-14530484D02*
X12029348Y-14530484D01*
X12029348Y-14530484D02*
X12010301Y-14520960D01*
X12010301Y-14520960D02*
X12000777Y-14511436D01*
X12000777Y-14511436D02*
X11991253Y-14492388D01*
X11991253Y-14492388D02*
X11981729Y-14454293D01*
X11981729Y-14454293D02*
X11981729Y-14406674D01*
X11981729Y-14406674D02*
X11991253Y-14368579D01*
X11991253Y-14368579D02*
X12000777Y-14349531D01*
X12000777Y-14349531D02*
X12010301Y-14340008D01*
X12010301Y-14340008D02*
X12029348Y-14330484D01*
X12162682Y-14330484D02*
X12286491Y-14330484D01*
X12286491Y-14330484D02*
X12219825Y-14406674D01*
X12219825Y-14406674D02*
X12248396Y-14406674D01*
X12248396Y-14406674D02*
X12267444Y-14416198D01*
X12267444Y-14416198D02*
X12276967Y-14425722D01*
X12276967Y-14425722D02*
X12286491Y-14444769D01*
X12286491Y-14444769D02*
X12286491Y-14492388D01*
X12286491Y-14492388D02*
X12276967Y-14511436D01*
X12276967Y-14511436D02*
X12267444Y-14520960D01*
X12267444Y-14520960D02*
X12248396Y-14530484D01*
X12248396Y-14530484D02*
X12191253Y-14530484D01*
X12191253Y-14530484D02*
X12172206Y-14520960D01*
X12172206Y-14520960D02*
X12162682Y-14511436D01*
X12476967Y-14530484D02*
X12362682Y-14530484D01*
X12419825Y-14530484D02*
X12419825Y-14330484D01*
X12419825Y-14330484D02*
X12400777Y-14359055D01*
X12400777Y-14359055D02*
X12381729Y-14378103D01*
X12381729Y-14378103D02*
X12362682Y-14387627D01*
X12657920Y-14330484D02*
X12562682Y-14330484D01*
X12562682Y-14330484D02*
X12553158Y-14425722D01*
X12553158Y-14425722D02*
X12562682Y-14416198D01*
X12562682Y-14416198D02*
X12581729Y-14406674D01*
X12581729Y-14406674D02*
X12629348Y-14406674D01*
X12629348Y-14406674D02*
X12648396Y-14416198D01*
X12648396Y-14416198D02*
X12657920Y-14425722D01*
X12657920Y-14425722D02*
X12667444Y-14444769D01*
X12667444Y-14444769D02*
X12667444Y-14492388D01*
X12667444Y-14492388D02*
X12657920Y-14511436D01*
X12657920Y-14511436D02*
X12648396Y-14520960D01*
X12648396Y-14520960D02*
X12629348Y-14530484D01*
X12629348Y-14530484D02*
X12581729Y-14530484D01*
X12581729Y-14530484D02*
X12562682Y-14520960D01*
X12562682Y-14520960D02*
X12553158Y-14511436D01*
X12743634Y-14330484D02*
X12743634Y-14368579D01*
X12819825Y-14330484D02*
X12819825Y-14368579D01*
X13115063Y-14606674D02*
X13105539Y-14597150D01*
X13105539Y-14597150D02*
X13086491Y-14568579D01*
X13086491Y-14568579D02*
X13076968Y-14549531D01*
X13076968Y-14549531D02*
X13067444Y-14520960D01*
X13067444Y-14520960D02*
X13057920Y-14473341D01*
X13057920Y-14473341D02*
X13057920Y-14435246D01*
X13057920Y-14435246D02*
X13067444Y-14387627D01*
X13067444Y-14387627D02*
X13076968Y-14359055D01*
X13076968Y-14359055D02*
X13086491Y-14340008D01*
X13086491Y-14340008D02*
X13105539Y-14311436D01*
X13105539Y-14311436D02*
X13115063Y-14301912D01*
X13172206Y-14330484D02*
X13296015Y-14330484D01*
X13296015Y-14330484D02*
X13229348Y-14406674D01*
X13229348Y-14406674D02*
X13257920Y-14406674D01*
X13257920Y-14406674D02*
X13276968Y-14416198D01*
X13276968Y-14416198D02*
X13286491Y-14425722D01*
X13286491Y-14425722D02*
X13296015Y-14444769D01*
X13296015Y-14444769D02*
X13296015Y-14492388D01*
X13296015Y-14492388D02*
X13286491Y-14511436D01*
X13286491Y-14511436D02*
X13276968Y-14520960D01*
X13276968Y-14520960D02*
X13257920Y-14530484D01*
X13257920Y-14530484D02*
X13200777Y-14530484D01*
X13200777Y-14530484D02*
X13181729Y-14520960D01*
X13181729Y-14520960D02*
X13172206Y-14511436D01*
X13467444Y-14397150D02*
X13467444Y-14530484D01*
X13419825Y-14320960D02*
X13372206Y-14463817D01*
X13372206Y-14463817D02*
X13496015Y-14463817D01*
X13724587Y-14530484D02*
X13724587Y-14330484D01*
X13810301Y-14530484D02*
X13810301Y-14425722D01*
X13810301Y-14425722D02*
X13800777Y-14406674D01*
X13800777Y-14406674D02*
X13781730Y-14397150D01*
X13781730Y-14397150D02*
X13753158Y-14397150D01*
X13753158Y-14397150D02*
X13734110Y-14406674D01*
X13734110Y-14406674D02*
X13724587Y-14416198D01*
X13934110Y-14530484D02*
X13915063Y-14520960D01*
X13915063Y-14520960D02*
X13905539Y-14511436D01*
X13905539Y-14511436D02*
X13896015Y-14492388D01*
X13896015Y-14492388D02*
X13896015Y-14435246D01*
X13896015Y-14435246D02*
X13905539Y-14416198D01*
X13905539Y-14416198D02*
X13915063Y-14406674D01*
X13915063Y-14406674D02*
X13934110Y-14397150D01*
X13934110Y-14397150D02*
X13962682Y-14397150D01*
X13962682Y-14397150D02*
X13981730Y-14406674D01*
X13981730Y-14406674D02*
X13991253Y-14416198D01*
X13991253Y-14416198D02*
X14000777Y-14435246D01*
X14000777Y-14435246D02*
X14000777Y-14492388D01*
X14000777Y-14492388D02*
X13991253Y-14511436D01*
X13991253Y-14511436D02*
X13981730Y-14520960D01*
X13981730Y-14520960D02*
X13962682Y-14530484D01*
X13962682Y-14530484D02*
X13934110Y-14530484D01*
X14115063Y-14530484D02*
X14096015Y-14520960D01*
X14096015Y-14520960D02*
X14086491Y-14501912D01*
X14086491Y-14501912D02*
X14086491Y-14330484D01*
X14267444Y-14520960D02*
X14248396Y-14530484D01*
X14248396Y-14530484D02*
X14210301Y-14530484D01*
X14210301Y-14530484D02*
X14191253Y-14520960D01*
X14191253Y-14520960D02*
X14181730Y-14501912D01*
X14181730Y-14501912D02*
X14181730Y-14425722D01*
X14181730Y-14425722D02*
X14191253Y-14406674D01*
X14191253Y-14406674D02*
X14210301Y-14397150D01*
X14210301Y-14397150D02*
X14248396Y-14397150D01*
X14248396Y-14397150D02*
X14267444Y-14406674D01*
X14267444Y-14406674D02*
X14276968Y-14425722D01*
X14276968Y-14425722D02*
X14276968Y-14444769D01*
X14276968Y-14444769D02*
X14181730Y-14463817D01*
X14353158Y-14520960D02*
X14372206Y-14530484D01*
X14372206Y-14530484D02*
X14410301Y-14530484D01*
X14410301Y-14530484D02*
X14429349Y-14520960D01*
X14429349Y-14520960D02*
X14438872Y-14501912D01*
X14438872Y-14501912D02*
X14438872Y-14492388D01*
X14438872Y-14492388D02*
X14429349Y-14473341D01*
X14429349Y-14473341D02*
X14410301Y-14463817D01*
X14410301Y-14463817D02*
X14381730Y-14463817D01*
X14381730Y-14463817D02*
X14362682Y-14454293D01*
X14362682Y-14454293D02*
X14353158Y-14435246D01*
X14353158Y-14435246D02*
X14353158Y-14425722D01*
X14353158Y-14425722D02*
X14362682Y-14406674D01*
X14362682Y-14406674D02*
X14381730Y-14397150D01*
X14381730Y-14397150D02*
X14410301Y-14397150D01*
X14410301Y-14397150D02*
X14429349Y-14406674D01*
X14505539Y-14606674D02*
X14515063Y-14597150D01*
X14515063Y-14597150D02*
X14534111Y-14568579D01*
X14534111Y-14568579D02*
X14543634Y-14549531D01*
X14543634Y-14549531D02*
X14553158Y-14520960D01*
X14553158Y-14520960D02*
X14562682Y-14473341D01*
X14562682Y-14473341D02*
X14562682Y-14435246D01*
X14562682Y-14435246D02*
X14553158Y-14387627D01*
X14553158Y-14387627D02*
X14543634Y-14359055D01*
X14543634Y-14359055D02*
X14534111Y-14340008D01*
X14534111Y-14340008D02*
X14515063Y-14311436D01*
X14515063Y-14311436D02*
X14505539Y-14301912D01*
D11*
X9495000Y-14658000D02*
X9495000Y-14748000D01*
X9450000Y-14703000D02*
X9540000Y-14703000D01*
D10*
X9838872Y-14594484D02*
X9857920Y-14594484D01*
X9857920Y-14594484D02*
X9876967Y-14604008D01*
X9876967Y-14604008D02*
X9886491Y-14613531D01*
X9886491Y-14613531D02*
X9896015Y-14632579D01*
X9896015Y-14632579D02*
X9905539Y-14670674D01*
X9905539Y-14670674D02*
X9905539Y-14718293D01*
X9905539Y-14718293D02*
X9896015Y-14756388D01*
X9896015Y-14756388D02*
X9886491Y-14775436D01*
X9886491Y-14775436D02*
X9876967Y-14784960D01*
X9876967Y-14784960D02*
X9857920Y-14794484D01*
X9857920Y-14794484D02*
X9838872Y-14794484D01*
X9838872Y-14794484D02*
X9819824Y-14784960D01*
X9819824Y-14784960D02*
X9810301Y-14775436D01*
X9810301Y-14775436D02*
X9800777Y-14756388D01*
X9800777Y-14756388D02*
X9791253Y-14718293D01*
X9791253Y-14718293D02*
X9791253Y-14670674D01*
X9791253Y-14670674D02*
X9800777Y-14632579D01*
X9800777Y-14632579D02*
X9810301Y-14613531D01*
X9810301Y-14613531D02*
X9819824Y-14604008D01*
X9819824Y-14604008D02*
X9838872Y-14594484D01*
X9991253Y-14775436D02*
X10000777Y-14784960D01*
X10000777Y-14784960D02*
X9991253Y-14794484D01*
X9991253Y-14794484D02*
X9981729Y-14784960D01*
X9981729Y-14784960D02*
X9991253Y-14775436D01*
X9991253Y-14775436D02*
X9991253Y-14794484D01*
X10096015Y-14794484D02*
X10134110Y-14794484D01*
X10134110Y-14794484D02*
X10153158Y-14784960D01*
X10153158Y-14784960D02*
X10162682Y-14775436D01*
X10162682Y-14775436D02*
X10181729Y-14746865D01*
X10181729Y-14746865D02*
X10191253Y-14708769D01*
X10191253Y-14708769D02*
X10191253Y-14632579D01*
X10191253Y-14632579D02*
X10181729Y-14613531D01*
X10181729Y-14613531D02*
X10172205Y-14604008D01*
X10172205Y-14604008D02*
X10153158Y-14594484D01*
X10153158Y-14594484D02*
X10115063Y-14594484D01*
X10115063Y-14594484D02*
X10096015Y-14604008D01*
X10096015Y-14604008D02*
X10086491Y-14613531D01*
X10086491Y-14613531D02*
X10076967Y-14632579D01*
X10076967Y-14632579D02*
X10076967Y-14680198D01*
X10076967Y-14680198D02*
X10086491Y-14699246D01*
X10086491Y-14699246D02*
X10096015Y-14708769D01*
X10096015Y-14708769D02*
X10115063Y-14718293D01*
X10115063Y-14718293D02*
X10153158Y-14718293D01*
X10153158Y-14718293D02*
X10172205Y-14708769D01*
X10172205Y-14708769D02*
X10181729Y-14699246D01*
X10181729Y-14699246D02*
X10191253Y-14680198D01*
X10315063Y-14594484D02*
X10334110Y-14594484D01*
X10334110Y-14594484D02*
X10353158Y-14604008D01*
X10353158Y-14604008D02*
X10362682Y-14613531D01*
X10362682Y-14613531D02*
X10372205Y-14632579D01*
X10372205Y-14632579D02*
X10381729Y-14670674D01*
X10381729Y-14670674D02*
X10381729Y-14718293D01*
X10381729Y-14718293D02*
X10372205Y-14756388D01*
X10372205Y-14756388D02*
X10362682Y-14775436D01*
X10362682Y-14775436D02*
X10353158Y-14784960D01*
X10353158Y-14784960D02*
X10334110Y-14794484D01*
X10334110Y-14794484D02*
X10315063Y-14794484D01*
X10315063Y-14794484D02*
X10296015Y-14784960D01*
X10296015Y-14784960D02*
X10286491Y-14775436D01*
X10286491Y-14775436D02*
X10276967Y-14756388D01*
X10276967Y-14756388D02*
X10267444Y-14718293D01*
X10267444Y-14718293D02*
X10267444Y-14670674D01*
X10267444Y-14670674D02*
X10276967Y-14632579D01*
X10276967Y-14632579D02*
X10286491Y-14613531D01*
X10286491Y-14613531D02*
X10296015Y-14604008D01*
X10296015Y-14604008D02*
X10315063Y-14594484D01*
X10505539Y-14594484D02*
X10524586Y-14594484D01*
X10524586Y-14594484D02*
X10543634Y-14604008D01*
X10543634Y-14604008D02*
X10553158Y-14613531D01*
X10553158Y-14613531D02*
X10562682Y-14632579D01*
X10562682Y-14632579D02*
X10572205Y-14670674D01*
X10572205Y-14670674D02*
X10572205Y-14718293D01*
X10572205Y-14718293D02*
X10562682Y-14756388D01*
X10562682Y-14756388D02*
X10553158Y-14775436D01*
X10553158Y-14775436D02*
X10543634Y-14784960D01*
X10543634Y-14784960D02*
X10524586Y-14794484D01*
X10524586Y-14794484D02*
X10505539Y-14794484D01*
X10505539Y-14794484D02*
X10486491Y-14784960D01*
X10486491Y-14784960D02*
X10476967Y-14775436D01*
X10476967Y-14775436D02*
X10467444Y-14756388D01*
X10467444Y-14756388D02*
X10457920Y-14718293D01*
X10457920Y-14718293D02*
X10457920Y-14670674D01*
X10457920Y-14670674D02*
X10467444Y-14632579D01*
X10467444Y-14632579D02*
X10476967Y-14613531D01*
X10476967Y-14613531D02*
X10486491Y-14604008D01*
X10486491Y-14604008D02*
X10505539Y-14594484D01*
X10657920Y-14794484D02*
X10657920Y-14661150D01*
X10657920Y-14680198D02*
X10667444Y-14670674D01*
X10667444Y-14670674D02*
X10686491Y-14661150D01*
X10686491Y-14661150D02*
X10715063Y-14661150D01*
X10715063Y-14661150D02*
X10734110Y-14670674D01*
X10734110Y-14670674D02*
X10743634Y-14689722D01*
X10743634Y-14689722D02*
X10743634Y-14794484D01*
X10743634Y-14689722D02*
X10753158Y-14670674D01*
X10753158Y-14670674D02*
X10772205Y-14661150D01*
X10772205Y-14661150D02*
X10800777Y-14661150D01*
X10800777Y-14661150D02*
X10819825Y-14670674D01*
X10819825Y-14670674D02*
X10829348Y-14689722D01*
X10829348Y-14689722D02*
X10829348Y-14794484D01*
X10924586Y-14794484D02*
X10924586Y-14661150D01*
X10924586Y-14680198D02*
X10934110Y-14670674D01*
X10934110Y-14670674D02*
X10953158Y-14661150D01*
X10953158Y-14661150D02*
X10981729Y-14661150D01*
X10981729Y-14661150D02*
X11000777Y-14670674D01*
X11000777Y-14670674D02*
X11010301Y-14689722D01*
X11010301Y-14689722D02*
X11010301Y-14794484D01*
X11010301Y-14689722D02*
X11019825Y-14670674D01*
X11019825Y-14670674D02*
X11038872Y-14661150D01*
X11038872Y-14661150D02*
X11067444Y-14661150D01*
X11067444Y-14661150D02*
X11086491Y-14670674D01*
X11086491Y-14670674D02*
X11096015Y-14689722D01*
X11096015Y-14689722D02*
X11096015Y-14794484D01*
X11486491Y-14584960D02*
X11315063Y-14842103D01*
X11743634Y-14594484D02*
X11762682Y-14594484D01*
X11762682Y-14594484D02*
X11781729Y-14604008D01*
X11781729Y-14604008D02*
X11791253Y-14613531D01*
X11791253Y-14613531D02*
X11800777Y-14632579D01*
X11800777Y-14632579D02*
X11810301Y-14670674D01*
X11810301Y-14670674D02*
X11810301Y-14718293D01*
X11810301Y-14718293D02*
X11800777Y-14756388D01*
X11800777Y-14756388D02*
X11791253Y-14775436D01*
X11791253Y-14775436D02*
X11781729Y-14784960D01*
X11781729Y-14784960D02*
X11762682Y-14794484D01*
X11762682Y-14794484D02*
X11743634Y-14794484D01*
X11743634Y-14794484D02*
X11724586Y-14784960D01*
X11724586Y-14784960D02*
X11715063Y-14775436D01*
X11715063Y-14775436D02*
X11705539Y-14756388D01*
X11705539Y-14756388D02*
X11696015Y-14718293D01*
X11696015Y-14718293D02*
X11696015Y-14670674D01*
X11696015Y-14670674D02*
X11705539Y-14632579D01*
X11705539Y-14632579D02*
X11715063Y-14613531D01*
X11715063Y-14613531D02*
X11724586Y-14604008D01*
X11724586Y-14604008D02*
X11743634Y-14594484D01*
X11896015Y-14775436D02*
X11905539Y-14784960D01*
X11905539Y-14784960D02*
X11896015Y-14794484D01*
X11896015Y-14794484D02*
X11886491Y-14784960D01*
X11886491Y-14784960D02*
X11896015Y-14775436D01*
X11896015Y-14775436D02*
X11896015Y-14794484D01*
X12029348Y-14594484D02*
X12048396Y-14594484D01*
X12048396Y-14594484D02*
X12067444Y-14604008D01*
X12067444Y-14604008D02*
X12076967Y-14613531D01*
X12076967Y-14613531D02*
X12086491Y-14632579D01*
X12086491Y-14632579D02*
X12096015Y-14670674D01*
X12096015Y-14670674D02*
X12096015Y-14718293D01*
X12096015Y-14718293D02*
X12086491Y-14756388D01*
X12086491Y-14756388D02*
X12076967Y-14775436D01*
X12076967Y-14775436D02*
X12067444Y-14784960D01*
X12067444Y-14784960D02*
X12048396Y-14794484D01*
X12048396Y-14794484D02*
X12029348Y-14794484D01*
X12029348Y-14794484D02*
X12010301Y-14784960D01*
X12010301Y-14784960D02*
X12000777Y-14775436D01*
X12000777Y-14775436D02*
X11991253Y-14756388D01*
X11991253Y-14756388D02*
X11981729Y-14718293D01*
X11981729Y-14718293D02*
X11981729Y-14670674D01*
X11981729Y-14670674D02*
X11991253Y-14632579D01*
X11991253Y-14632579D02*
X12000777Y-14613531D01*
X12000777Y-14613531D02*
X12010301Y-14604008D01*
X12010301Y-14604008D02*
X12029348Y-14594484D01*
X12162682Y-14594484D02*
X12286491Y-14594484D01*
X12286491Y-14594484D02*
X12219825Y-14670674D01*
X12219825Y-14670674D02*
X12248396Y-14670674D01*
X12248396Y-14670674D02*
X12267444Y-14680198D01*
X12267444Y-14680198D02*
X12276967Y-14689722D01*
X12276967Y-14689722D02*
X12286491Y-14708769D01*
X12286491Y-14708769D02*
X12286491Y-14756388D01*
X12286491Y-14756388D02*
X12276967Y-14775436D01*
X12276967Y-14775436D02*
X12267444Y-14784960D01*
X12267444Y-14784960D02*
X12248396Y-14794484D01*
X12248396Y-14794484D02*
X12191253Y-14794484D01*
X12191253Y-14794484D02*
X12172206Y-14784960D01*
X12172206Y-14784960D02*
X12162682Y-14775436D01*
X12467444Y-14594484D02*
X12372206Y-14594484D01*
X12372206Y-14594484D02*
X12362682Y-14689722D01*
X12362682Y-14689722D02*
X12372206Y-14680198D01*
X12372206Y-14680198D02*
X12391253Y-14670674D01*
X12391253Y-14670674D02*
X12438872Y-14670674D01*
X12438872Y-14670674D02*
X12457920Y-14680198D01*
X12457920Y-14680198D02*
X12467444Y-14689722D01*
X12467444Y-14689722D02*
X12476967Y-14708769D01*
X12476967Y-14708769D02*
X12476967Y-14756388D01*
X12476967Y-14756388D02*
X12467444Y-14775436D01*
X12467444Y-14775436D02*
X12457920Y-14784960D01*
X12457920Y-14784960D02*
X12438872Y-14794484D01*
X12438872Y-14794484D02*
X12391253Y-14794484D01*
X12391253Y-14794484D02*
X12372206Y-14784960D01*
X12372206Y-14784960D02*
X12362682Y-14775436D01*
X12648396Y-14661150D02*
X12648396Y-14794484D01*
X12600777Y-14584960D02*
X12553158Y-14727817D01*
X12553158Y-14727817D02*
X12676967Y-14727817D01*
X12743634Y-14594484D02*
X12743634Y-14632579D01*
X12819825Y-14594484D02*
X12819825Y-14632579D01*
X13115063Y-14870674D02*
X13105539Y-14861150D01*
X13105539Y-14861150D02*
X13086491Y-14832579D01*
X13086491Y-14832579D02*
X13076968Y-14813531D01*
X13076968Y-14813531D02*
X13067444Y-14784960D01*
X13067444Y-14784960D02*
X13057920Y-14737341D01*
X13057920Y-14737341D02*
X13057920Y-14699246D01*
X13057920Y-14699246D02*
X13067444Y-14651627D01*
X13067444Y-14651627D02*
X13076968Y-14623055D01*
X13076968Y-14623055D02*
X13086491Y-14604008D01*
X13086491Y-14604008D02*
X13105539Y-14575436D01*
X13105539Y-14575436D02*
X13115063Y-14565912D01*
X13181729Y-14613531D02*
X13191253Y-14604008D01*
X13191253Y-14604008D02*
X13210301Y-14594484D01*
X13210301Y-14594484D02*
X13257920Y-14594484D01*
X13257920Y-14594484D02*
X13276968Y-14604008D01*
X13276968Y-14604008D02*
X13286491Y-14613531D01*
X13286491Y-14613531D02*
X13296015Y-14632579D01*
X13296015Y-14632579D02*
X13296015Y-14651627D01*
X13296015Y-14651627D02*
X13286491Y-14680198D01*
X13286491Y-14680198D02*
X13172206Y-14794484D01*
X13172206Y-14794484D02*
X13296015Y-14794484D01*
X13534110Y-14794484D02*
X13534110Y-14594484D01*
X13619825Y-14794484D02*
X13619825Y-14689722D01*
X13619825Y-14689722D02*
X13610301Y-14670674D01*
X13610301Y-14670674D02*
X13591253Y-14661150D01*
X13591253Y-14661150D02*
X13562682Y-14661150D01*
X13562682Y-14661150D02*
X13543634Y-14670674D01*
X13543634Y-14670674D02*
X13534110Y-14680198D01*
X13743634Y-14794484D02*
X13724587Y-14784960D01*
X13724587Y-14784960D02*
X13715063Y-14775436D01*
X13715063Y-14775436D02*
X13705539Y-14756388D01*
X13705539Y-14756388D02*
X13705539Y-14699246D01*
X13705539Y-14699246D02*
X13715063Y-14680198D01*
X13715063Y-14680198D02*
X13724587Y-14670674D01*
X13724587Y-14670674D02*
X13743634Y-14661150D01*
X13743634Y-14661150D02*
X13772206Y-14661150D01*
X13772206Y-14661150D02*
X13791253Y-14670674D01*
X13791253Y-14670674D02*
X13800777Y-14680198D01*
X13800777Y-14680198D02*
X13810301Y-14699246D01*
X13810301Y-14699246D02*
X13810301Y-14756388D01*
X13810301Y-14756388D02*
X13800777Y-14775436D01*
X13800777Y-14775436D02*
X13791253Y-14784960D01*
X13791253Y-14784960D02*
X13772206Y-14794484D01*
X13772206Y-14794484D02*
X13743634Y-14794484D01*
X13924587Y-14794484D02*
X13905539Y-14784960D01*
X13905539Y-14784960D02*
X13896015Y-14765912D01*
X13896015Y-14765912D02*
X13896015Y-14594484D01*
X14076968Y-14784960D02*
X14057920Y-14794484D01*
X14057920Y-14794484D02*
X14019825Y-14794484D01*
X14019825Y-14794484D02*
X14000777Y-14784960D01*
X14000777Y-14784960D02*
X13991253Y-14765912D01*
X13991253Y-14765912D02*
X13991253Y-14689722D01*
X13991253Y-14689722D02*
X14000777Y-14670674D01*
X14000777Y-14670674D02*
X14019825Y-14661150D01*
X14019825Y-14661150D02*
X14057920Y-14661150D01*
X14057920Y-14661150D02*
X14076968Y-14670674D01*
X14076968Y-14670674D02*
X14086491Y-14689722D01*
X14086491Y-14689722D02*
X14086491Y-14708769D01*
X14086491Y-14708769D02*
X13991253Y-14727817D01*
X14162682Y-14784960D02*
X14181730Y-14794484D01*
X14181730Y-14794484D02*
X14219825Y-14794484D01*
X14219825Y-14794484D02*
X14238872Y-14784960D01*
X14238872Y-14784960D02*
X14248396Y-14765912D01*
X14248396Y-14765912D02*
X14248396Y-14756388D01*
X14248396Y-14756388D02*
X14238872Y-14737341D01*
X14238872Y-14737341D02*
X14219825Y-14727817D01*
X14219825Y-14727817D02*
X14191253Y-14727817D01*
X14191253Y-14727817D02*
X14172206Y-14718293D01*
X14172206Y-14718293D02*
X14162682Y-14699246D01*
X14162682Y-14699246D02*
X14162682Y-14689722D01*
X14162682Y-14689722D02*
X14172206Y-14670674D01*
X14172206Y-14670674D02*
X14191253Y-14661150D01*
X14191253Y-14661150D02*
X14219825Y-14661150D01*
X14219825Y-14661150D02*
X14238872Y-14670674D01*
X14315063Y-14870674D02*
X14324587Y-14861150D01*
X14324587Y-14861150D02*
X14343634Y-14832579D01*
X14343634Y-14832579D02*
X14353158Y-14813531D01*
X14353158Y-14813531D02*
X14362682Y-14784960D01*
X14362682Y-14784960D02*
X14372206Y-14737341D01*
X14372206Y-14737341D02*
X14372206Y-14699246D01*
X14372206Y-14699246D02*
X14362682Y-14651627D01*
X14362682Y-14651627D02*
X14353158Y-14623055D01*
X14353158Y-14623055D02*
X14343634Y-14604008D01*
X14343634Y-14604008D02*
X14324587Y-14575436D01*
X14324587Y-14575436D02*
X14315063Y-14565912D01*
D11*
X9525356Y-15002356D02*
X9525356Y-14931644D01*
X9454644Y-14931644D01*
X9454644Y-15002356D01*
X9525356Y-15002356D01*
D10*
X9905539Y-15058484D02*
X9791253Y-15058484D01*
X9848396Y-15058484D02*
X9848396Y-14858484D01*
X9848396Y-14858484D02*
X9829348Y-14887055D01*
X9829348Y-14887055D02*
X9810301Y-14906103D01*
X9810301Y-14906103D02*
X9791253Y-14915627D01*
X9991253Y-15039436D02*
X10000777Y-15048960D01*
X10000777Y-15048960D02*
X9991253Y-15058484D01*
X9991253Y-15058484D02*
X9981729Y-15048960D01*
X9981729Y-15048960D02*
X9991253Y-15039436D01*
X9991253Y-15039436D02*
X9991253Y-15058484D01*
X10124586Y-14858484D02*
X10143634Y-14858484D01*
X10143634Y-14858484D02*
X10162682Y-14868008D01*
X10162682Y-14868008D02*
X10172205Y-14877531D01*
X10172205Y-14877531D02*
X10181729Y-14896579D01*
X10181729Y-14896579D02*
X10191253Y-14934674D01*
X10191253Y-14934674D02*
X10191253Y-14982293D01*
X10191253Y-14982293D02*
X10181729Y-15020388D01*
X10181729Y-15020388D02*
X10172205Y-15039436D01*
X10172205Y-15039436D02*
X10162682Y-15048960D01*
X10162682Y-15048960D02*
X10143634Y-15058484D01*
X10143634Y-15058484D02*
X10124586Y-15058484D01*
X10124586Y-15058484D02*
X10105539Y-15048960D01*
X10105539Y-15048960D02*
X10096015Y-15039436D01*
X10096015Y-15039436D02*
X10086491Y-15020388D01*
X10086491Y-15020388D02*
X10076967Y-14982293D01*
X10076967Y-14982293D02*
X10076967Y-14934674D01*
X10076967Y-14934674D02*
X10086491Y-14896579D01*
X10086491Y-14896579D02*
X10096015Y-14877531D01*
X10096015Y-14877531D02*
X10105539Y-14868008D01*
X10105539Y-14868008D02*
X10124586Y-14858484D01*
X10315063Y-14858484D02*
X10334110Y-14858484D01*
X10334110Y-14858484D02*
X10353158Y-14868008D01*
X10353158Y-14868008D02*
X10362682Y-14877531D01*
X10362682Y-14877531D02*
X10372205Y-14896579D01*
X10372205Y-14896579D02*
X10381729Y-14934674D01*
X10381729Y-14934674D02*
X10381729Y-14982293D01*
X10381729Y-14982293D02*
X10372205Y-15020388D01*
X10372205Y-15020388D02*
X10362682Y-15039436D01*
X10362682Y-15039436D02*
X10353158Y-15048960D01*
X10353158Y-15048960D02*
X10334110Y-15058484D01*
X10334110Y-15058484D02*
X10315063Y-15058484D01*
X10315063Y-15058484D02*
X10296015Y-15048960D01*
X10296015Y-15048960D02*
X10286491Y-15039436D01*
X10286491Y-15039436D02*
X10276967Y-15020388D01*
X10276967Y-15020388D02*
X10267444Y-14982293D01*
X10267444Y-14982293D02*
X10267444Y-14934674D01*
X10267444Y-14934674D02*
X10276967Y-14896579D01*
X10276967Y-14896579D02*
X10286491Y-14877531D01*
X10286491Y-14877531D02*
X10296015Y-14868008D01*
X10296015Y-14868008D02*
X10315063Y-14858484D01*
X10505539Y-14858484D02*
X10524586Y-14858484D01*
X10524586Y-14858484D02*
X10543634Y-14868008D01*
X10543634Y-14868008D02*
X10553158Y-14877531D01*
X10553158Y-14877531D02*
X10562682Y-14896579D01*
X10562682Y-14896579D02*
X10572205Y-14934674D01*
X10572205Y-14934674D02*
X10572205Y-14982293D01*
X10572205Y-14982293D02*
X10562682Y-15020388D01*
X10562682Y-15020388D02*
X10553158Y-15039436D01*
X10553158Y-15039436D02*
X10543634Y-15048960D01*
X10543634Y-15048960D02*
X10524586Y-15058484D01*
X10524586Y-15058484D02*
X10505539Y-15058484D01*
X10505539Y-15058484D02*
X10486491Y-15048960D01*
X10486491Y-15048960D02*
X10476967Y-15039436D01*
X10476967Y-15039436D02*
X10467444Y-15020388D01*
X10467444Y-15020388D02*
X10457920Y-14982293D01*
X10457920Y-14982293D02*
X10457920Y-14934674D01*
X10457920Y-14934674D02*
X10467444Y-14896579D01*
X10467444Y-14896579D02*
X10476967Y-14877531D01*
X10476967Y-14877531D02*
X10486491Y-14868008D01*
X10486491Y-14868008D02*
X10505539Y-14858484D01*
X10657920Y-15058484D02*
X10657920Y-14925150D01*
X10657920Y-14944198D02*
X10667444Y-14934674D01*
X10667444Y-14934674D02*
X10686491Y-14925150D01*
X10686491Y-14925150D02*
X10715063Y-14925150D01*
X10715063Y-14925150D02*
X10734110Y-14934674D01*
X10734110Y-14934674D02*
X10743634Y-14953722D01*
X10743634Y-14953722D02*
X10743634Y-15058484D01*
X10743634Y-14953722D02*
X10753158Y-14934674D01*
X10753158Y-14934674D02*
X10772205Y-14925150D01*
X10772205Y-14925150D02*
X10800777Y-14925150D01*
X10800777Y-14925150D02*
X10819825Y-14934674D01*
X10819825Y-14934674D02*
X10829348Y-14953722D01*
X10829348Y-14953722D02*
X10829348Y-15058484D01*
X10924586Y-15058484D02*
X10924586Y-14925150D01*
X10924586Y-14944198D02*
X10934110Y-14934674D01*
X10934110Y-14934674D02*
X10953158Y-14925150D01*
X10953158Y-14925150D02*
X10981729Y-14925150D01*
X10981729Y-14925150D02*
X11000777Y-14934674D01*
X11000777Y-14934674D02*
X11010301Y-14953722D01*
X11010301Y-14953722D02*
X11010301Y-15058484D01*
X11010301Y-14953722D02*
X11019825Y-14934674D01*
X11019825Y-14934674D02*
X11038872Y-14925150D01*
X11038872Y-14925150D02*
X11067444Y-14925150D01*
X11067444Y-14925150D02*
X11086491Y-14934674D01*
X11086491Y-14934674D02*
X11096015Y-14953722D01*
X11096015Y-14953722D02*
X11096015Y-15058484D01*
X11486491Y-14848960D02*
X11315063Y-15106103D01*
X11743634Y-14858484D02*
X11762682Y-14858484D01*
X11762682Y-14858484D02*
X11781729Y-14868008D01*
X11781729Y-14868008D02*
X11791253Y-14877531D01*
X11791253Y-14877531D02*
X11800777Y-14896579D01*
X11800777Y-14896579D02*
X11810301Y-14934674D01*
X11810301Y-14934674D02*
X11810301Y-14982293D01*
X11810301Y-14982293D02*
X11800777Y-15020388D01*
X11800777Y-15020388D02*
X11791253Y-15039436D01*
X11791253Y-15039436D02*
X11781729Y-15048960D01*
X11781729Y-15048960D02*
X11762682Y-15058484D01*
X11762682Y-15058484D02*
X11743634Y-15058484D01*
X11743634Y-15058484D02*
X11724586Y-15048960D01*
X11724586Y-15048960D02*
X11715063Y-15039436D01*
X11715063Y-15039436D02*
X11705539Y-15020388D01*
X11705539Y-15020388D02*
X11696015Y-14982293D01*
X11696015Y-14982293D02*
X11696015Y-14934674D01*
X11696015Y-14934674D02*
X11705539Y-14896579D01*
X11705539Y-14896579D02*
X11715063Y-14877531D01*
X11715063Y-14877531D02*
X11724586Y-14868008D01*
X11724586Y-14868008D02*
X11743634Y-14858484D01*
X11896015Y-15039436D02*
X11905539Y-15048960D01*
X11905539Y-15048960D02*
X11896015Y-15058484D01*
X11896015Y-15058484D02*
X11886491Y-15048960D01*
X11886491Y-15048960D02*
X11896015Y-15039436D01*
X11896015Y-15039436D02*
X11896015Y-15058484D01*
X12029348Y-14858484D02*
X12048396Y-14858484D01*
X12048396Y-14858484D02*
X12067444Y-14868008D01*
X12067444Y-14868008D02*
X12076967Y-14877531D01*
X12076967Y-14877531D02*
X12086491Y-14896579D01*
X12086491Y-14896579D02*
X12096015Y-14934674D01*
X12096015Y-14934674D02*
X12096015Y-14982293D01*
X12096015Y-14982293D02*
X12086491Y-15020388D01*
X12086491Y-15020388D02*
X12076967Y-15039436D01*
X12076967Y-15039436D02*
X12067444Y-15048960D01*
X12067444Y-15048960D02*
X12048396Y-15058484D01*
X12048396Y-15058484D02*
X12029348Y-15058484D01*
X12029348Y-15058484D02*
X12010301Y-15048960D01*
X12010301Y-15048960D02*
X12000777Y-15039436D01*
X12000777Y-15039436D02*
X11991253Y-15020388D01*
X11991253Y-15020388D02*
X11981729Y-14982293D01*
X11981729Y-14982293D02*
X11981729Y-14934674D01*
X11981729Y-14934674D02*
X11991253Y-14896579D01*
X11991253Y-14896579D02*
X12000777Y-14877531D01*
X12000777Y-14877531D02*
X12010301Y-14868008D01*
X12010301Y-14868008D02*
X12029348Y-14858484D01*
X12162682Y-14858484D02*
X12286491Y-14858484D01*
X12286491Y-14858484D02*
X12219825Y-14934674D01*
X12219825Y-14934674D02*
X12248396Y-14934674D01*
X12248396Y-14934674D02*
X12267444Y-14944198D01*
X12267444Y-14944198D02*
X12276967Y-14953722D01*
X12276967Y-14953722D02*
X12286491Y-14972769D01*
X12286491Y-14972769D02*
X12286491Y-15020388D01*
X12286491Y-15020388D02*
X12276967Y-15039436D01*
X12276967Y-15039436D02*
X12267444Y-15048960D01*
X12267444Y-15048960D02*
X12248396Y-15058484D01*
X12248396Y-15058484D02*
X12191253Y-15058484D01*
X12191253Y-15058484D02*
X12172206Y-15048960D01*
X12172206Y-15048960D02*
X12162682Y-15039436D01*
X12381729Y-15058484D02*
X12419825Y-15058484D01*
X12419825Y-15058484D02*
X12438872Y-15048960D01*
X12438872Y-15048960D02*
X12448396Y-15039436D01*
X12448396Y-15039436D02*
X12467444Y-15010865D01*
X12467444Y-15010865D02*
X12476967Y-14972769D01*
X12476967Y-14972769D02*
X12476967Y-14896579D01*
X12476967Y-14896579D02*
X12467444Y-14877531D01*
X12467444Y-14877531D02*
X12457920Y-14868008D01*
X12457920Y-14868008D02*
X12438872Y-14858484D01*
X12438872Y-14858484D02*
X12400777Y-14858484D01*
X12400777Y-14858484D02*
X12381729Y-14868008D01*
X12381729Y-14868008D02*
X12372206Y-14877531D01*
X12372206Y-14877531D02*
X12362682Y-14896579D01*
X12362682Y-14896579D02*
X12362682Y-14944198D01*
X12362682Y-14944198D02*
X12372206Y-14963246D01*
X12372206Y-14963246D02*
X12381729Y-14972769D01*
X12381729Y-14972769D02*
X12400777Y-14982293D01*
X12400777Y-14982293D02*
X12438872Y-14982293D01*
X12438872Y-14982293D02*
X12457920Y-14972769D01*
X12457920Y-14972769D02*
X12467444Y-14963246D01*
X12467444Y-14963246D02*
X12476967Y-14944198D01*
X12648396Y-14925150D02*
X12648396Y-15058484D01*
X12600777Y-14848960D02*
X12553158Y-14991817D01*
X12553158Y-14991817D02*
X12676967Y-14991817D01*
X12743634Y-14858484D02*
X12743634Y-14896579D01*
X12819825Y-14858484D02*
X12819825Y-14896579D01*
X13115063Y-15134674D02*
X13105539Y-15125150D01*
X13105539Y-15125150D02*
X13086491Y-15096579D01*
X13086491Y-15096579D02*
X13076968Y-15077531D01*
X13076968Y-15077531D02*
X13067444Y-15048960D01*
X13067444Y-15048960D02*
X13057920Y-15001341D01*
X13057920Y-15001341D02*
X13057920Y-14963246D01*
X13057920Y-14963246D02*
X13067444Y-14915627D01*
X13067444Y-14915627D02*
X13076968Y-14887055D01*
X13076968Y-14887055D02*
X13086491Y-14868008D01*
X13086491Y-14868008D02*
X13105539Y-14839436D01*
X13105539Y-14839436D02*
X13115063Y-14829912D01*
X13181729Y-14877531D02*
X13191253Y-14868008D01*
X13191253Y-14868008D02*
X13210301Y-14858484D01*
X13210301Y-14858484D02*
X13257920Y-14858484D01*
X13257920Y-14858484D02*
X13276968Y-14868008D01*
X13276968Y-14868008D02*
X13286491Y-14877531D01*
X13286491Y-14877531D02*
X13296015Y-14896579D01*
X13296015Y-14896579D02*
X13296015Y-14915627D01*
X13296015Y-14915627D02*
X13286491Y-14944198D01*
X13286491Y-14944198D02*
X13172206Y-15058484D01*
X13172206Y-15058484D02*
X13296015Y-15058484D01*
X13467444Y-14925150D02*
X13467444Y-15058484D01*
X13419825Y-14848960D02*
X13372206Y-14991817D01*
X13372206Y-14991817D02*
X13496015Y-14991817D01*
X13724587Y-15058484D02*
X13724587Y-14858484D01*
X13810301Y-15058484D02*
X13810301Y-14953722D01*
X13810301Y-14953722D02*
X13800777Y-14934674D01*
X13800777Y-14934674D02*
X13781730Y-14925150D01*
X13781730Y-14925150D02*
X13753158Y-14925150D01*
X13753158Y-14925150D02*
X13734110Y-14934674D01*
X13734110Y-14934674D02*
X13724587Y-14944198D01*
X13934110Y-15058484D02*
X13915063Y-15048960D01*
X13915063Y-15048960D02*
X13905539Y-15039436D01*
X13905539Y-15039436D02*
X13896015Y-15020388D01*
X13896015Y-15020388D02*
X13896015Y-14963246D01*
X13896015Y-14963246D02*
X13905539Y-14944198D01*
X13905539Y-14944198D02*
X13915063Y-14934674D01*
X13915063Y-14934674D02*
X13934110Y-14925150D01*
X13934110Y-14925150D02*
X13962682Y-14925150D01*
X13962682Y-14925150D02*
X13981730Y-14934674D01*
X13981730Y-14934674D02*
X13991253Y-14944198D01*
X13991253Y-14944198D02*
X14000777Y-14963246D01*
X14000777Y-14963246D02*
X14000777Y-15020388D01*
X14000777Y-15020388D02*
X13991253Y-15039436D01*
X13991253Y-15039436D02*
X13981730Y-15048960D01*
X13981730Y-15048960D02*
X13962682Y-15058484D01*
X13962682Y-15058484D02*
X13934110Y-15058484D01*
X14115063Y-15058484D02*
X14096015Y-15048960D01*
X14096015Y-15048960D02*
X14086491Y-15029912D01*
X14086491Y-15029912D02*
X14086491Y-14858484D01*
X14267444Y-15048960D02*
X14248396Y-15058484D01*
X14248396Y-15058484D02*
X14210301Y-15058484D01*
X14210301Y-15058484D02*
X14191253Y-15048960D01*
X14191253Y-15048960D02*
X14181730Y-15029912D01*
X14181730Y-15029912D02*
X14181730Y-14953722D01*
X14181730Y-14953722D02*
X14191253Y-14934674D01*
X14191253Y-14934674D02*
X14210301Y-14925150D01*
X14210301Y-14925150D02*
X14248396Y-14925150D01*
X14248396Y-14925150D02*
X14267444Y-14934674D01*
X14267444Y-14934674D02*
X14276968Y-14953722D01*
X14276968Y-14953722D02*
X14276968Y-14972769D01*
X14276968Y-14972769D02*
X14181730Y-14991817D01*
X14353158Y-15048960D02*
X14372206Y-15058484D01*
X14372206Y-15058484D02*
X14410301Y-15058484D01*
X14410301Y-15058484D02*
X14429349Y-15048960D01*
X14429349Y-15048960D02*
X14438872Y-15029912D01*
X14438872Y-15029912D02*
X14438872Y-15020388D01*
X14438872Y-15020388D02*
X14429349Y-15001341D01*
X14429349Y-15001341D02*
X14410301Y-14991817D01*
X14410301Y-14991817D02*
X14381730Y-14991817D01*
X14381730Y-14991817D02*
X14362682Y-14982293D01*
X14362682Y-14982293D02*
X14353158Y-14963246D01*
X14353158Y-14963246D02*
X14353158Y-14953722D01*
X14353158Y-14953722D02*
X14362682Y-14934674D01*
X14362682Y-14934674D02*
X14381730Y-14925150D01*
X14381730Y-14925150D02*
X14410301Y-14925150D01*
X14410301Y-14925150D02*
X14429349Y-14934674D01*
X14505539Y-15134674D02*
X14515063Y-15125150D01*
X14515063Y-15125150D02*
X14534111Y-15096579D01*
X14534111Y-15096579D02*
X14543634Y-15077531D01*
X14543634Y-15077531D02*
X14553158Y-15048960D01*
X14553158Y-15048960D02*
X14562682Y-15001341D01*
X14562682Y-15001341D02*
X14562682Y-14963246D01*
X14562682Y-14963246D02*
X14553158Y-14915627D01*
X14553158Y-14915627D02*
X14543634Y-14887055D01*
X14543634Y-14887055D02*
X14534111Y-14868008D01*
X14534111Y-14868008D02*
X14515063Y-14839436D01*
X14515063Y-14839436D02*
X14505539Y-14829912D01*
D12*
X9475000Y-15296000D02*
X9540000Y-15231000D01*
X9475000Y-15166000D01*
X9410000Y-15231000D01*
X9475000Y-15296000D01*
D10*
X9905539Y-15322484D02*
X9791253Y-15322484D01*
X9848396Y-15322484D02*
X9848396Y-15122484D01*
X9848396Y-15122484D02*
X9829348Y-15151055D01*
X9829348Y-15151055D02*
X9810301Y-15170103D01*
X9810301Y-15170103D02*
X9791253Y-15179627D01*
X9991253Y-15303436D02*
X10000777Y-15312960D01*
X10000777Y-15312960D02*
X9991253Y-15322484D01*
X9991253Y-15322484D02*
X9981729Y-15312960D01*
X9981729Y-15312960D02*
X9991253Y-15303436D01*
X9991253Y-15303436D02*
X9991253Y-15322484D01*
X10067444Y-15122484D02*
X10191253Y-15122484D01*
X10191253Y-15122484D02*
X10124586Y-15198674D01*
X10124586Y-15198674D02*
X10153158Y-15198674D01*
X10153158Y-15198674D02*
X10172205Y-15208198D01*
X10172205Y-15208198D02*
X10181729Y-15217722D01*
X10181729Y-15217722D02*
X10191253Y-15236769D01*
X10191253Y-15236769D02*
X10191253Y-15284388D01*
X10191253Y-15284388D02*
X10181729Y-15303436D01*
X10181729Y-15303436D02*
X10172205Y-15312960D01*
X10172205Y-15312960D02*
X10153158Y-15322484D01*
X10153158Y-15322484D02*
X10096015Y-15322484D01*
X10096015Y-15322484D02*
X10076967Y-15312960D01*
X10076967Y-15312960D02*
X10067444Y-15303436D01*
X10315063Y-15122484D02*
X10334110Y-15122484D01*
X10334110Y-15122484D02*
X10353158Y-15132008D01*
X10353158Y-15132008D02*
X10362682Y-15141531D01*
X10362682Y-15141531D02*
X10372205Y-15160579D01*
X10372205Y-15160579D02*
X10381729Y-15198674D01*
X10381729Y-15198674D02*
X10381729Y-15246293D01*
X10381729Y-15246293D02*
X10372205Y-15284388D01*
X10372205Y-15284388D02*
X10362682Y-15303436D01*
X10362682Y-15303436D02*
X10353158Y-15312960D01*
X10353158Y-15312960D02*
X10334110Y-15322484D01*
X10334110Y-15322484D02*
X10315063Y-15322484D01*
X10315063Y-15322484D02*
X10296015Y-15312960D01*
X10296015Y-15312960D02*
X10286491Y-15303436D01*
X10286491Y-15303436D02*
X10276967Y-15284388D01*
X10276967Y-15284388D02*
X10267444Y-15246293D01*
X10267444Y-15246293D02*
X10267444Y-15198674D01*
X10267444Y-15198674D02*
X10276967Y-15160579D01*
X10276967Y-15160579D02*
X10286491Y-15141531D01*
X10286491Y-15141531D02*
X10296015Y-15132008D01*
X10296015Y-15132008D02*
X10315063Y-15122484D01*
X10505539Y-15122484D02*
X10524586Y-15122484D01*
X10524586Y-15122484D02*
X10543634Y-15132008D01*
X10543634Y-15132008D02*
X10553158Y-15141531D01*
X10553158Y-15141531D02*
X10562682Y-15160579D01*
X10562682Y-15160579D02*
X10572205Y-15198674D01*
X10572205Y-15198674D02*
X10572205Y-15246293D01*
X10572205Y-15246293D02*
X10562682Y-15284388D01*
X10562682Y-15284388D02*
X10553158Y-15303436D01*
X10553158Y-15303436D02*
X10543634Y-15312960D01*
X10543634Y-15312960D02*
X10524586Y-15322484D01*
X10524586Y-15322484D02*
X10505539Y-15322484D01*
X10505539Y-15322484D02*
X10486491Y-15312960D01*
X10486491Y-15312960D02*
X10476967Y-15303436D01*
X10476967Y-15303436D02*
X10467444Y-15284388D01*
X10467444Y-15284388D02*
X10457920Y-15246293D01*
X10457920Y-15246293D02*
X10457920Y-15198674D01*
X10457920Y-15198674D02*
X10467444Y-15160579D01*
X10467444Y-15160579D02*
X10476967Y-15141531D01*
X10476967Y-15141531D02*
X10486491Y-15132008D01*
X10486491Y-15132008D02*
X10505539Y-15122484D01*
X10657920Y-15322484D02*
X10657920Y-15189150D01*
X10657920Y-15208198D02*
X10667444Y-15198674D01*
X10667444Y-15198674D02*
X10686491Y-15189150D01*
X10686491Y-15189150D02*
X10715063Y-15189150D01*
X10715063Y-15189150D02*
X10734110Y-15198674D01*
X10734110Y-15198674D02*
X10743634Y-15217722D01*
X10743634Y-15217722D02*
X10743634Y-15322484D01*
X10743634Y-15217722D02*
X10753158Y-15198674D01*
X10753158Y-15198674D02*
X10772205Y-15189150D01*
X10772205Y-15189150D02*
X10800777Y-15189150D01*
X10800777Y-15189150D02*
X10819825Y-15198674D01*
X10819825Y-15198674D02*
X10829348Y-15217722D01*
X10829348Y-15217722D02*
X10829348Y-15322484D01*
X10924586Y-15322484D02*
X10924586Y-15189150D01*
X10924586Y-15208198D02*
X10934110Y-15198674D01*
X10934110Y-15198674D02*
X10953158Y-15189150D01*
X10953158Y-15189150D02*
X10981729Y-15189150D01*
X10981729Y-15189150D02*
X11000777Y-15198674D01*
X11000777Y-15198674D02*
X11010301Y-15217722D01*
X11010301Y-15217722D02*
X11010301Y-15322484D01*
X11010301Y-15217722D02*
X11019825Y-15198674D01*
X11019825Y-15198674D02*
X11038872Y-15189150D01*
X11038872Y-15189150D02*
X11067444Y-15189150D01*
X11067444Y-15189150D02*
X11086491Y-15198674D01*
X11086491Y-15198674D02*
X11096015Y-15217722D01*
X11096015Y-15217722D02*
X11096015Y-15322484D01*
X11486491Y-15112960D02*
X11315063Y-15370103D01*
X11743634Y-15122484D02*
X11762682Y-15122484D01*
X11762682Y-15122484D02*
X11781729Y-15132008D01*
X11781729Y-15132008D02*
X11791253Y-15141531D01*
X11791253Y-15141531D02*
X11800777Y-15160579D01*
X11800777Y-15160579D02*
X11810301Y-15198674D01*
X11810301Y-15198674D02*
X11810301Y-15246293D01*
X11810301Y-15246293D02*
X11800777Y-15284388D01*
X11800777Y-15284388D02*
X11791253Y-15303436D01*
X11791253Y-15303436D02*
X11781729Y-15312960D01*
X11781729Y-15312960D02*
X11762682Y-15322484D01*
X11762682Y-15322484D02*
X11743634Y-15322484D01*
X11743634Y-15322484D02*
X11724586Y-15312960D01*
X11724586Y-15312960D02*
X11715063Y-15303436D01*
X11715063Y-15303436D02*
X11705539Y-15284388D01*
X11705539Y-15284388D02*
X11696015Y-15246293D01*
X11696015Y-15246293D02*
X11696015Y-15198674D01*
X11696015Y-15198674D02*
X11705539Y-15160579D01*
X11705539Y-15160579D02*
X11715063Y-15141531D01*
X11715063Y-15141531D02*
X11724586Y-15132008D01*
X11724586Y-15132008D02*
X11743634Y-15122484D01*
X11896015Y-15303436D02*
X11905539Y-15312960D01*
X11905539Y-15312960D02*
X11896015Y-15322484D01*
X11896015Y-15322484D02*
X11886491Y-15312960D01*
X11886491Y-15312960D02*
X11896015Y-15303436D01*
X11896015Y-15303436D02*
X11896015Y-15322484D01*
X12029348Y-15122484D02*
X12048396Y-15122484D01*
X12048396Y-15122484D02*
X12067444Y-15132008D01*
X12067444Y-15132008D02*
X12076967Y-15141531D01*
X12076967Y-15141531D02*
X12086491Y-15160579D01*
X12086491Y-15160579D02*
X12096015Y-15198674D01*
X12096015Y-15198674D02*
X12096015Y-15246293D01*
X12096015Y-15246293D02*
X12086491Y-15284388D01*
X12086491Y-15284388D02*
X12076967Y-15303436D01*
X12076967Y-15303436D02*
X12067444Y-15312960D01*
X12067444Y-15312960D02*
X12048396Y-15322484D01*
X12048396Y-15322484D02*
X12029348Y-15322484D01*
X12029348Y-15322484D02*
X12010301Y-15312960D01*
X12010301Y-15312960D02*
X12000777Y-15303436D01*
X12000777Y-15303436D02*
X11991253Y-15284388D01*
X11991253Y-15284388D02*
X11981729Y-15246293D01*
X11981729Y-15246293D02*
X11981729Y-15198674D01*
X11981729Y-15198674D02*
X11991253Y-15160579D01*
X11991253Y-15160579D02*
X12000777Y-15141531D01*
X12000777Y-15141531D02*
X12010301Y-15132008D01*
X12010301Y-15132008D02*
X12029348Y-15122484D01*
X12276967Y-15122484D02*
X12181729Y-15122484D01*
X12181729Y-15122484D02*
X12172206Y-15217722D01*
X12172206Y-15217722D02*
X12181729Y-15208198D01*
X12181729Y-15208198D02*
X12200777Y-15198674D01*
X12200777Y-15198674D02*
X12248396Y-15198674D01*
X12248396Y-15198674D02*
X12267444Y-15208198D01*
X12267444Y-15208198D02*
X12276967Y-15217722D01*
X12276967Y-15217722D02*
X12286491Y-15236769D01*
X12286491Y-15236769D02*
X12286491Y-15284388D01*
X12286491Y-15284388D02*
X12276967Y-15303436D01*
X12276967Y-15303436D02*
X12267444Y-15312960D01*
X12267444Y-15312960D02*
X12248396Y-15322484D01*
X12248396Y-15322484D02*
X12200777Y-15322484D01*
X12200777Y-15322484D02*
X12181729Y-15312960D01*
X12181729Y-15312960D02*
X12172206Y-15303436D01*
X12476967Y-15322484D02*
X12362682Y-15322484D01*
X12419825Y-15322484D02*
X12419825Y-15122484D01*
X12419825Y-15122484D02*
X12400777Y-15151055D01*
X12400777Y-15151055D02*
X12381729Y-15170103D01*
X12381729Y-15170103D02*
X12362682Y-15179627D01*
X12553158Y-15141531D02*
X12562682Y-15132008D01*
X12562682Y-15132008D02*
X12581729Y-15122484D01*
X12581729Y-15122484D02*
X12629348Y-15122484D01*
X12629348Y-15122484D02*
X12648396Y-15132008D01*
X12648396Y-15132008D02*
X12657920Y-15141531D01*
X12657920Y-15141531D02*
X12667444Y-15160579D01*
X12667444Y-15160579D02*
X12667444Y-15179627D01*
X12667444Y-15179627D02*
X12657920Y-15208198D01*
X12657920Y-15208198D02*
X12543634Y-15322484D01*
X12543634Y-15322484D02*
X12667444Y-15322484D01*
X12743634Y-15122484D02*
X12743634Y-15160579D01*
X12819825Y-15122484D02*
X12819825Y-15160579D01*
X13115063Y-15398674D02*
X13105539Y-15389150D01*
X13105539Y-15389150D02*
X13086491Y-15360579D01*
X13086491Y-15360579D02*
X13076968Y-15341531D01*
X13076968Y-15341531D02*
X13067444Y-15312960D01*
X13067444Y-15312960D02*
X13057920Y-15265341D01*
X13057920Y-15265341D02*
X13057920Y-15227246D01*
X13057920Y-15227246D02*
X13067444Y-15179627D01*
X13067444Y-15179627D02*
X13076968Y-15151055D01*
X13076968Y-15151055D02*
X13086491Y-15132008D01*
X13086491Y-15132008D02*
X13105539Y-15103436D01*
X13105539Y-15103436D02*
X13115063Y-15093912D01*
X13276968Y-15189150D02*
X13276968Y-15322484D01*
X13229348Y-15112960D02*
X13181729Y-15255817D01*
X13181729Y-15255817D02*
X13305539Y-15255817D01*
X13534110Y-15322484D02*
X13534110Y-15122484D01*
X13619825Y-15322484D02*
X13619825Y-15217722D01*
X13619825Y-15217722D02*
X13610301Y-15198674D01*
X13610301Y-15198674D02*
X13591253Y-15189150D01*
X13591253Y-15189150D02*
X13562682Y-15189150D01*
X13562682Y-15189150D02*
X13543634Y-15198674D01*
X13543634Y-15198674D02*
X13534110Y-15208198D01*
X13743634Y-15322484D02*
X13724587Y-15312960D01*
X13724587Y-15312960D02*
X13715063Y-15303436D01*
X13715063Y-15303436D02*
X13705539Y-15284388D01*
X13705539Y-15284388D02*
X13705539Y-15227246D01*
X13705539Y-15227246D02*
X13715063Y-15208198D01*
X13715063Y-15208198D02*
X13724587Y-15198674D01*
X13724587Y-15198674D02*
X13743634Y-15189150D01*
X13743634Y-15189150D02*
X13772206Y-15189150D01*
X13772206Y-15189150D02*
X13791253Y-15198674D01*
X13791253Y-15198674D02*
X13800777Y-15208198D01*
X13800777Y-15208198D02*
X13810301Y-15227246D01*
X13810301Y-15227246D02*
X13810301Y-15284388D01*
X13810301Y-15284388D02*
X13800777Y-15303436D01*
X13800777Y-15303436D02*
X13791253Y-15312960D01*
X13791253Y-15312960D02*
X13772206Y-15322484D01*
X13772206Y-15322484D02*
X13743634Y-15322484D01*
X13924587Y-15322484D02*
X13905539Y-15312960D01*
X13905539Y-15312960D02*
X13896015Y-15293912D01*
X13896015Y-15293912D02*
X13896015Y-15122484D01*
X14076968Y-15312960D02*
X14057920Y-15322484D01*
X14057920Y-15322484D02*
X14019825Y-15322484D01*
X14019825Y-15322484D02*
X14000777Y-15312960D01*
X14000777Y-15312960D02*
X13991253Y-15293912D01*
X13991253Y-15293912D02*
X13991253Y-15217722D01*
X13991253Y-15217722D02*
X14000777Y-15198674D01*
X14000777Y-15198674D02*
X14019825Y-15189150D01*
X14019825Y-15189150D02*
X14057920Y-15189150D01*
X14057920Y-15189150D02*
X14076968Y-15198674D01*
X14076968Y-15198674D02*
X14086491Y-15217722D01*
X14086491Y-15217722D02*
X14086491Y-15236769D01*
X14086491Y-15236769D02*
X13991253Y-15255817D01*
X14162682Y-15312960D02*
X14181730Y-15322484D01*
X14181730Y-15322484D02*
X14219825Y-15322484D01*
X14219825Y-15322484D02*
X14238872Y-15312960D01*
X14238872Y-15312960D02*
X14248396Y-15293912D01*
X14248396Y-15293912D02*
X14248396Y-15284388D01*
X14248396Y-15284388D02*
X14238872Y-15265341D01*
X14238872Y-15265341D02*
X14219825Y-15255817D01*
X14219825Y-15255817D02*
X14191253Y-15255817D01*
X14191253Y-15255817D02*
X14172206Y-15246293D01*
X14172206Y-15246293D02*
X14162682Y-15227246D01*
X14162682Y-15227246D02*
X14162682Y-15217722D01*
X14162682Y-15217722D02*
X14172206Y-15198674D01*
X14172206Y-15198674D02*
X14191253Y-15189150D01*
X14191253Y-15189150D02*
X14219825Y-15189150D01*
X14219825Y-15189150D02*
X14238872Y-15198674D01*
X14315063Y-15398674D02*
X14324587Y-15389150D01*
X14324587Y-15389150D02*
X14343634Y-15360579D01*
X14343634Y-15360579D02*
X14353158Y-15341531D01*
X14353158Y-15341531D02*
X14362682Y-15312960D01*
X14362682Y-15312960D02*
X14372206Y-15265341D01*
X14372206Y-15265341D02*
X14372206Y-15227246D01*
X14372206Y-15227246D02*
X14362682Y-15179627D01*
X14362682Y-15179627D02*
X14353158Y-15151055D01*
X14353158Y-15151055D02*
X14343634Y-15132008D01*
X14343634Y-15132008D02*
X14324587Y-15103436D01*
X14324587Y-15103436D02*
X14315063Y-15093912D01*
D13*
X9390000Y-15420000D02*
X9540000Y-15570000D01*
X9540000Y-15420000D02*
X9390000Y-15570000D01*
X9540000Y-15495000D02*
G75*
G02*
X9390000Y-15495000I-75000J0D01*
G01*
X9390000Y-15495000D02*
G75*
G02*
X9540000Y-15495000I75000J0D01*
G01*
D10*
X9905539Y-15586484D02*
X9791253Y-15586484D01*
X9848396Y-15586484D02*
X9848396Y-15386484D01*
X9848396Y-15386484D02*
X9829348Y-15415055D01*
X9829348Y-15415055D02*
X9810301Y-15434103D01*
X9810301Y-15434103D02*
X9791253Y-15443627D01*
X9991253Y-15567436D02*
X10000777Y-15576960D01*
X10000777Y-15576960D02*
X9991253Y-15586484D01*
X9991253Y-15586484D02*
X9981729Y-15576960D01*
X9981729Y-15576960D02*
X9991253Y-15567436D01*
X9991253Y-15567436D02*
X9991253Y-15586484D01*
X10181729Y-15386484D02*
X10086491Y-15386484D01*
X10086491Y-15386484D02*
X10076967Y-15481722D01*
X10076967Y-15481722D02*
X10086491Y-15472198D01*
X10086491Y-15472198D02*
X10105539Y-15462674D01*
X10105539Y-15462674D02*
X10153158Y-15462674D01*
X10153158Y-15462674D02*
X10172205Y-15472198D01*
X10172205Y-15472198D02*
X10181729Y-15481722D01*
X10181729Y-15481722D02*
X10191253Y-15500769D01*
X10191253Y-15500769D02*
X10191253Y-15548388D01*
X10191253Y-15548388D02*
X10181729Y-15567436D01*
X10181729Y-15567436D02*
X10172205Y-15576960D01*
X10172205Y-15576960D02*
X10153158Y-15586484D01*
X10153158Y-15586484D02*
X10105539Y-15586484D01*
X10105539Y-15586484D02*
X10086491Y-15576960D01*
X10086491Y-15576960D02*
X10076967Y-15567436D01*
X10315063Y-15386484D02*
X10334110Y-15386484D01*
X10334110Y-15386484D02*
X10353158Y-15396008D01*
X10353158Y-15396008D02*
X10362682Y-15405531D01*
X10362682Y-15405531D02*
X10372205Y-15424579D01*
X10372205Y-15424579D02*
X10381729Y-15462674D01*
X10381729Y-15462674D02*
X10381729Y-15510293D01*
X10381729Y-15510293D02*
X10372205Y-15548388D01*
X10372205Y-15548388D02*
X10362682Y-15567436D01*
X10362682Y-15567436D02*
X10353158Y-15576960D01*
X10353158Y-15576960D02*
X10334110Y-15586484D01*
X10334110Y-15586484D02*
X10315063Y-15586484D01*
X10315063Y-15586484D02*
X10296015Y-15576960D01*
X10296015Y-15576960D02*
X10286491Y-15567436D01*
X10286491Y-15567436D02*
X10276967Y-15548388D01*
X10276967Y-15548388D02*
X10267444Y-15510293D01*
X10267444Y-15510293D02*
X10267444Y-15462674D01*
X10267444Y-15462674D02*
X10276967Y-15424579D01*
X10276967Y-15424579D02*
X10286491Y-15405531D01*
X10286491Y-15405531D02*
X10296015Y-15396008D01*
X10296015Y-15396008D02*
X10315063Y-15386484D01*
X10505539Y-15386484D02*
X10524586Y-15386484D01*
X10524586Y-15386484D02*
X10543634Y-15396008D01*
X10543634Y-15396008D02*
X10553158Y-15405531D01*
X10553158Y-15405531D02*
X10562682Y-15424579D01*
X10562682Y-15424579D02*
X10572205Y-15462674D01*
X10572205Y-15462674D02*
X10572205Y-15510293D01*
X10572205Y-15510293D02*
X10562682Y-15548388D01*
X10562682Y-15548388D02*
X10553158Y-15567436D01*
X10553158Y-15567436D02*
X10543634Y-15576960D01*
X10543634Y-15576960D02*
X10524586Y-15586484D01*
X10524586Y-15586484D02*
X10505539Y-15586484D01*
X10505539Y-15586484D02*
X10486491Y-15576960D01*
X10486491Y-15576960D02*
X10476967Y-15567436D01*
X10476967Y-15567436D02*
X10467444Y-15548388D01*
X10467444Y-15548388D02*
X10457920Y-15510293D01*
X10457920Y-15510293D02*
X10457920Y-15462674D01*
X10457920Y-15462674D02*
X10467444Y-15424579D01*
X10467444Y-15424579D02*
X10476967Y-15405531D01*
X10476967Y-15405531D02*
X10486491Y-15396008D01*
X10486491Y-15396008D02*
X10505539Y-15386484D01*
X10657920Y-15586484D02*
X10657920Y-15453150D01*
X10657920Y-15472198D02*
X10667444Y-15462674D01*
X10667444Y-15462674D02*
X10686491Y-15453150D01*
X10686491Y-15453150D02*
X10715063Y-15453150D01*
X10715063Y-15453150D02*
X10734110Y-15462674D01*
X10734110Y-15462674D02*
X10743634Y-15481722D01*
X10743634Y-15481722D02*
X10743634Y-15586484D01*
X10743634Y-15481722D02*
X10753158Y-15462674D01*
X10753158Y-15462674D02*
X10772205Y-15453150D01*
X10772205Y-15453150D02*
X10800777Y-15453150D01*
X10800777Y-15453150D02*
X10819825Y-15462674D01*
X10819825Y-15462674D02*
X10829348Y-15481722D01*
X10829348Y-15481722D02*
X10829348Y-15586484D01*
X10924586Y-15586484D02*
X10924586Y-15453150D01*
X10924586Y-15472198D02*
X10934110Y-15462674D01*
X10934110Y-15462674D02*
X10953158Y-15453150D01*
X10953158Y-15453150D02*
X10981729Y-15453150D01*
X10981729Y-15453150D02*
X11000777Y-15462674D01*
X11000777Y-15462674D02*
X11010301Y-15481722D01*
X11010301Y-15481722D02*
X11010301Y-15586484D01*
X11010301Y-15481722D02*
X11019825Y-15462674D01*
X11019825Y-15462674D02*
X11038872Y-15453150D01*
X11038872Y-15453150D02*
X11067444Y-15453150D01*
X11067444Y-15453150D02*
X11086491Y-15462674D01*
X11086491Y-15462674D02*
X11096015Y-15481722D01*
X11096015Y-15481722D02*
X11096015Y-15586484D01*
X11486491Y-15376960D02*
X11315063Y-15634103D01*
X11743634Y-15386484D02*
X11762682Y-15386484D01*
X11762682Y-15386484D02*
X11781729Y-15396008D01*
X11781729Y-15396008D02*
X11791253Y-15405531D01*
X11791253Y-15405531D02*
X11800777Y-15424579D01*
X11800777Y-15424579D02*
X11810301Y-15462674D01*
X11810301Y-15462674D02*
X11810301Y-15510293D01*
X11810301Y-15510293D02*
X11800777Y-15548388D01*
X11800777Y-15548388D02*
X11791253Y-15567436D01*
X11791253Y-15567436D02*
X11781729Y-15576960D01*
X11781729Y-15576960D02*
X11762682Y-15586484D01*
X11762682Y-15586484D02*
X11743634Y-15586484D01*
X11743634Y-15586484D02*
X11724586Y-15576960D01*
X11724586Y-15576960D02*
X11715063Y-15567436D01*
X11715063Y-15567436D02*
X11705539Y-15548388D01*
X11705539Y-15548388D02*
X11696015Y-15510293D01*
X11696015Y-15510293D02*
X11696015Y-15462674D01*
X11696015Y-15462674D02*
X11705539Y-15424579D01*
X11705539Y-15424579D02*
X11715063Y-15405531D01*
X11715063Y-15405531D02*
X11724586Y-15396008D01*
X11724586Y-15396008D02*
X11743634Y-15386484D01*
X11896015Y-15567436D02*
X11905539Y-15576960D01*
X11905539Y-15576960D02*
X11896015Y-15586484D01*
X11896015Y-15586484D02*
X11886491Y-15576960D01*
X11886491Y-15576960D02*
X11896015Y-15567436D01*
X11896015Y-15567436D02*
X11896015Y-15586484D01*
X12029348Y-15386484D02*
X12048396Y-15386484D01*
X12048396Y-15386484D02*
X12067444Y-15396008D01*
X12067444Y-15396008D02*
X12076967Y-15405531D01*
X12076967Y-15405531D02*
X12086491Y-15424579D01*
X12086491Y-15424579D02*
X12096015Y-15462674D01*
X12096015Y-15462674D02*
X12096015Y-15510293D01*
X12096015Y-15510293D02*
X12086491Y-15548388D01*
X12086491Y-15548388D02*
X12076967Y-15567436D01*
X12076967Y-15567436D02*
X12067444Y-15576960D01*
X12067444Y-15576960D02*
X12048396Y-15586484D01*
X12048396Y-15586484D02*
X12029348Y-15586484D01*
X12029348Y-15586484D02*
X12010301Y-15576960D01*
X12010301Y-15576960D02*
X12000777Y-15567436D01*
X12000777Y-15567436D02*
X11991253Y-15548388D01*
X11991253Y-15548388D02*
X11981729Y-15510293D01*
X11981729Y-15510293D02*
X11981729Y-15462674D01*
X11981729Y-15462674D02*
X11991253Y-15424579D01*
X11991253Y-15424579D02*
X12000777Y-15405531D01*
X12000777Y-15405531D02*
X12010301Y-15396008D01*
X12010301Y-15396008D02*
X12029348Y-15386484D01*
X12276967Y-15386484D02*
X12181729Y-15386484D01*
X12181729Y-15386484D02*
X12172206Y-15481722D01*
X12172206Y-15481722D02*
X12181729Y-15472198D01*
X12181729Y-15472198D02*
X12200777Y-15462674D01*
X12200777Y-15462674D02*
X12248396Y-15462674D01*
X12248396Y-15462674D02*
X12267444Y-15472198D01*
X12267444Y-15472198D02*
X12276967Y-15481722D01*
X12276967Y-15481722D02*
X12286491Y-15500769D01*
X12286491Y-15500769D02*
X12286491Y-15548388D01*
X12286491Y-15548388D02*
X12276967Y-15567436D01*
X12276967Y-15567436D02*
X12267444Y-15576960D01*
X12267444Y-15576960D02*
X12248396Y-15586484D01*
X12248396Y-15586484D02*
X12200777Y-15586484D01*
X12200777Y-15586484D02*
X12181729Y-15576960D01*
X12181729Y-15576960D02*
X12172206Y-15567436D01*
X12381729Y-15586484D02*
X12419825Y-15586484D01*
X12419825Y-15586484D02*
X12438872Y-15576960D01*
X12438872Y-15576960D02*
X12448396Y-15567436D01*
X12448396Y-15567436D02*
X12467444Y-15538865D01*
X12467444Y-15538865D02*
X12476967Y-15500769D01*
X12476967Y-15500769D02*
X12476967Y-15424579D01*
X12476967Y-15424579D02*
X12467444Y-15405531D01*
X12467444Y-15405531D02*
X12457920Y-15396008D01*
X12457920Y-15396008D02*
X12438872Y-15386484D01*
X12438872Y-15386484D02*
X12400777Y-15386484D01*
X12400777Y-15386484D02*
X12381729Y-15396008D01*
X12381729Y-15396008D02*
X12372206Y-15405531D01*
X12372206Y-15405531D02*
X12362682Y-15424579D01*
X12362682Y-15424579D02*
X12362682Y-15472198D01*
X12362682Y-15472198D02*
X12372206Y-15491246D01*
X12372206Y-15491246D02*
X12381729Y-15500769D01*
X12381729Y-15500769D02*
X12400777Y-15510293D01*
X12400777Y-15510293D02*
X12438872Y-15510293D01*
X12438872Y-15510293D02*
X12457920Y-15500769D01*
X12457920Y-15500769D02*
X12467444Y-15491246D01*
X12467444Y-15491246D02*
X12476967Y-15472198D01*
X12667444Y-15586484D02*
X12553158Y-15586484D01*
X12610301Y-15586484D02*
X12610301Y-15386484D01*
X12610301Y-15386484D02*
X12591253Y-15415055D01*
X12591253Y-15415055D02*
X12572206Y-15434103D01*
X12572206Y-15434103D02*
X12553158Y-15443627D01*
X12743634Y-15386484D02*
X12743634Y-15424579D01*
X12819825Y-15386484D02*
X12819825Y-15424579D01*
X13115063Y-15662674D02*
X13105539Y-15653150D01*
X13105539Y-15653150D02*
X13086491Y-15624579D01*
X13086491Y-15624579D02*
X13076968Y-15605531D01*
X13076968Y-15605531D02*
X13067444Y-15576960D01*
X13067444Y-15576960D02*
X13057920Y-15529341D01*
X13057920Y-15529341D02*
X13057920Y-15491246D01*
X13057920Y-15491246D02*
X13067444Y-15443627D01*
X13067444Y-15443627D02*
X13076968Y-15415055D01*
X13076968Y-15415055D02*
X13086491Y-15396008D01*
X13086491Y-15396008D02*
X13105539Y-15367436D01*
X13105539Y-15367436D02*
X13115063Y-15357912D01*
X13181729Y-15405531D02*
X13191253Y-15396008D01*
X13191253Y-15396008D02*
X13210301Y-15386484D01*
X13210301Y-15386484D02*
X13257920Y-15386484D01*
X13257920Y-15386484D02*
X13276968Y-15396008D01*
X13276968Y-15396008D02*
X13286491Y-15405531D01*
X13286491Y-15405531D02*
X13296015Y-15424579D01*
X13296015Y-15424579D02*
X13296015Y-15443627D01*
X13296015Y-15443627D02*
X13286491Y-15472198D01*
X13286491Y-15472198D02*
X13172206Y-15586484D01*
X13172206Y-15586484D02*
X13296015Y-15586484D01*
X13534110Y-15586484D02*
X13534110Y-15386484D01*
X13619825Y-15586484D02*
X13619825Y-15481722D01*
X13619825Y-15481722D02*
X13610301Y-15462674D01*
X13610301Y-15462674D02*
X13591253Y-15453150D01*
X13591253Y-15453150D02*
X13562682Y-15453150D01*
X13562682Y-15453150D02*
X13543634Y-15462674D01*
X13543634Y-15462674D02*
X13534110Y-15472198D01*
X13743634Y-15586484D02*
X13724587Y-15576960D01*
X13724587Y-15576960D02*
X13715063Y-15567436D01*
X13715063Y-15567436D02*
X13705539Y-15548388D01*
X13705539Y-15548388D02*
X13705539Y-15491246D01*
X13705539Y-15491246D02*
X13715063Y-15472198D01*
X13715063Y-15472198D02*
X13724587Y-15462674D01*
X13724587Y-15462674D02*
X13743634Y-15453150D01*
X13743634Y-15453150D02*
X13772206Y-15453150D01*
X13772206Y-15453150D02*
X13791253Y-15462674D01*
X13791253Y-15462674D02*
X13800777Y-15472198D01*
X13800777Y-15472198D02*
X13810301Y-15491246D01*
X13810301Y-15491246D02*
X13810301Y-15548388D01*
X13810301Y-15548388D02*
X13800777Y-15567436D01*
X13800777Y-15567436D02*
X13791253Y-15576960D01*
X13791253Y-15576960D02*
X13772206Y-15586484D01*
X13772206Y-15586484D02*
X13743634Y-15586484D01*
X13924587Y-15586484D02*
X13905539Y-15576960D01*
X13905539Y-15576960D02*
X13896015Y-15557912D01*
X13896015Y-15557912D02*
X13896015Y-15386484D01*
X14076968Y-15576960D02*
X14057920Y-15586484D01*
X14057920Y-15586484D02*
X14019825Y-15586484D01*
X14019825Y-15586484D02*
X14000777Y-15576960D01*
X14000777Y-15576960D02*
X13991253Y-15557912D01*
X13991253Y-15557912D02*
X13991253Y-15481722D01*
X13991253Y-15481722D02*
X14000777Y-15462674D01*
X14000777Y-15462674D02*
X14019825Y-15453150D01*
X14019825Y-15453150D02*
X14057920Y-15453150D01*
X14057920Y-15453150D02*
X14076968Y-15462674D01*
X14076968Y-15462674D02*
X14086491Y-15481722D01*
X14086491Y-15481722D02*
X14086491Y-15500769D01*
X14086491Y-15500769D02*
X13991253Y-15519817D01*
X14162682Y-15576960D02*
X14181730Y-15586484D01*
X14181730Y-15586484D02*
X14219825Y-15586484D01*
X14219825Y-15586484D02*
X14238872Y-15576960D01*
X14238872Y-15576960D02*
X14248396Y-15557912D01*
X14248396Y-15557912D02*
X14248396Y-15548388D01*
X14248396Y-15548388D02*
X14238872Y-15529341D01*
X14238872Y-15529341D02*
X14219825Y-15519817D01*
X14219825Y-15519817D02*
X14191253Y-15519817D01*
X14191253Y-15519817D02*
X14172206Y-15510293D01*
X14172206Y-15510293D02*
X14162682Y-15491246D01*
X14162682Y-15491246D02*
X14162682Y-15481722D01*
X14162682Y-15481722D02*
X14172206Y-15462674D01*
X14172206Y-15462674D02*
X14191253Y-15453150D01*
X14191253Y-15453150D02*
X14219825Y-15453150D01*
X14219825Y-15453150D02*
X14238872Y-15462674D01*
X14315063Y-15662674D02*
X14324587Y-15653150D01*
X14324587Y-15653150D02*
X14343634Y-15624579D01*
X14343634Y-15624579D02*
X14353158Y-15605531D01*
X14353158Y-15605531D02*
X14362682Y-15576960D01*
X14362682Y-15576960D02*
X14372206Y-15529341D01*
X14372206Y-15529341D02*
X14372206Y-15491246D01*
X14372206Y-15491246D02*
X14362682Y-15443627D01*
X14362682Y-15443627D02*
X14353158Y-15415055D01*
X14353158Y-15415055D02*
X14343634Y-15396008D01*
X14343634Y-15396008D02*
X14324587Y-15367436D01*
X14324587Y-15367436D02*
X14315063Y-15357912D01*
M02*
