G04 #@! TF.GenerationSoftware,KiCad,Pcbnew,8.0.8*
G04 #@! TF.CreationDate,2025-02-09T14:04:56-05:00*
G04 #@! TF.ProjectId,AetherX_KiCad,41657468-6572-4585-9f4b-694361642e6b,rev?*
G04 #@! TF.SameCoordinates,Original*
G04 #@! TF.FileFunction,Copper,L2,Bot*
G04 #@! TF.FilePolarity,Positive*
%FSLAX46Y46*%
G04 Gerber Fmt 4.6, Leading zero omitted, Abs format (unit mm)*
G04 Created by KiCad (PCBNEW 8.0.8) date 2025-02-09 14:04:56*
%MOMM*%
%LPD*%
G01*
G04 APERTURE LIST*
G04 #@! TA.AperFunction,ComponentPad*
%ADD10R,1.600000X1.600000*%
G04 #@! TD*
G04 #@! TA.AperFunction,ComponentPad*
%ADD11O,1.600000X1.600000*%
G04 #@! TD*
G04 #@! TA.AperFunction,ComponentPad*
%ADD12C,1.600000*%
G04 #@! TD*
G04 #@! TA.AperFunction,ComponentPad*
%ADD13C,1.500000*%
G04 #@! TD*
G04 #@! TA.AperFunction,ComponentPad*
%ADD14R,1.700000X1.700000*%
G04 #@! TD*
G04 #@! TA.AperFunction,ComponentPad*
%ADD15O,1.700000X1.700000*%
G04 #@! TD*
G04 #@! TA.AperFunction,ComponentPad*
%ADD16R,2.250000X2.250000*%
G04 #@! TD*
G04 #@! TA.AperFunction,ComponentPad*
%ADD17C,2.250000*%
G04 #@! TD*
G04 #@! TA.AperFunction,ComponentPad*
%ADD18R,1.800000X1.800000*%
G04 #@! TD*
G04 #@! TA.AperFunction,ComponentPad*
%ADD19C,1.800000*%
G04 #@! TD*
G04 #@! TA.AperFunction,ComponentPad*
%ADD20R,3.000000X3.000000*%
G04 #@! TD*
G04 #@! TA.AperFunction,ComponentPad*
%ADD21C,3.000000*%
G04 #@! TD*
G04 #@! TA.AperFunction,ViaPad*
%ADD22C,0.600000*%
G04 #@! TD*
G04 #@! TA.AperFunction,Conductor*
%ADD23C,0.200000*%
G04 #@! TD*
G04 APERTURE END LIST*
D10*
X123630000Y-85670000D03*
D11*
X123630000Y-88210000D03*
X123630000Y-90750000D03*
X123630000Y-93290000D03*
X131250000Y-93290000D03*
X131250000Y-90750000D03*
X131250000Y-88210000D03*
X131250000Y-85670000D03*
D12*
X165750000Y-78250000D03*
D11*
X175910000Y-78250000D03*
D12*
X182750000Y-114920000D03*
D11*
X192910000Y-114920000D03*
D12*
X139580000Y-115250000D03*
D11*
X129420000Y-115250000D03*
D13*
X120500000Y-101800000D03*
X120500000Y-106680000D03*
D14*
X181275000Y-88450000D03*
D15*
X181275000Y-90990000D03*
X181275000Y-93530000D03*
X181275000Y-96070000D03*
D12*
X117500000Y-95250000D03*
X117500000Y-90250000D03*
D14*
X152000000Y-69500000D03*
D15*
X149460000Y-69500000D03*
X146920000Y-69500000D03*
D12*
X138150000Y-94500000D03*
D11*
X150850000Y-94500000D03*
D12*
X140750000Y-86500000D03*
X145750000Y-86500000D03*
D14*
X170000000Y-69500000D03*
D15*
X167460000Y-69500000D03*
X164920000Y-69500000D03*
X162380000Y-69500000D03*
X159840000Y-69500000D03*
D12*
X162790000Y-104250000D03*
X157790000Y-104250000D03*
D16*
X129750000Y-128000000D03*
D17*
X129750000Y-121500000D03*
D12*
X193250000Y-99090000D03*
D11*
X193250000Y-109250000D03*
D16*
X193750000Y-128000000D03*
D17*
X193750000Y-121500000D03*
D12*
X150170000Y-78000000D03*
D11*
X160330000Y-78000000D03*
D14*
X135000000Y-78750000D03*
D15*
X135000000Y-76210000D03*
X135000000Y-73670000D03*
X135000000Y-71130000D03*
X135000000Y-68590000D03*
D18*
X184750000Y-79000000D03*
D19*
X182210000Y-79000000D03*
D14*
X141460000Y-105750000D03*
D15*
X144000000Y-105750000D03*
X146540000Y-105750000D03*
D20*
X195000000Y-88749999D03*
D21*
X215490000Y-88749999D03*
D12*
X171000000Y-97500000D03*
X171000000Y-102500000D03*
X130000000Y-99420000D03*
D11*
X130000000Y-109580000D03*
D12*
X119000000Y-114250000D03*
X124000000Y-114250000D03*
D14*
X156950000Y-110500000D03*
D15*
X159490000Y-110500000D03*
X162030000Y-110500000D03*
X164570000Y-110500000D03*
D22*
X165750000Y-81250000D03*
X160000000Y-99250000D03*
X164000000Y-72750000D03*
X158250000Y-86250000D03*
X171500000Y-82750000D03*
X163000000Y-75500000D03*
X164500000Y-90000000D03*
X159000000Y-92250000D03*
X153000000Y-80750000D03*
X161000000Y-87750000D03*
X153750000Y-89750000D03*
X153250000Y-85250000D03*
X151500000Y-85250000D03*
X153000000Y-91250000D03*
X164325000Y-96750000D03*
X186500000Y-97750000D03*
X160750000Y-98250000D03*
X176750000Y-91000000D03*
X157750000Y-80500000D03*
X169500000Y-91000000D03*
X174750000Y-96500000D03*
X159000000Y-81500000D03*
X177250000Y-96000000D03*
X148200000Y-90700000D03*
X139250000Y-80500000D03*
X160250000Y-97000000D03*
D23*
X160250000Y-97000000D02*
X157805635Y-97000000D01*
X157805635Y-97000000D02*
X141305635Y-80500000D01*
X141305635Y-80500000D02*
X139250000Y-80500000D01*
X153250000Y-89250000D02*
X153250000Y-85250000D01*
X153750000Y-89750000D02*
X153250000Y-89250000D01*
X148200000Y-90700000D02*
X148200000Y-90800000D01*
X148200000Y-90800000D02*
X144000000Y-95000000D01*
X144000000Y-95000000D02*
X144000000Y-105750000D01*
X185650000Y-98600000D02*
X186500000Y-97750000D01*
X160750000Y-98250000D02*
X161100000Y-98600000D01*
X161100000Y-98600000D02*
X185650000Y-98600000D01*
X160500000Y-73000000D02*
X152250000Y-73000000D01*
X195000000Y-88749999D02*
X195000000Y-97340000D01*
X152125000Y-72875000D02*
X152250000Y-73000000D01*
X171500000Y-82750000D02*
X170750000Y-82750000D01*
X161250000Y-90000000D02*
X159000000Y-92250000D01*
X171500000Y-79750000D02*
X171500000Y-82750000D01*
X152250000Y-73000000D02*
X152000000Y-72750000D01*
X160140000Y-106900000D02*
X162790000Y-104250000D01*
X141460000Y-105750000D02*
X136330000Y-105750000D01*
X174200000Y-88450000D02*
X169625000Y-83875000D01*
X159000000Y-87000000D02*
X158250000Y-86250000D01*
X170000000Y-69500000D02*
X170000000Y-74000000D01*
X163000000Y-75500000D02*
X163125000Y-75375000D01*
X142610000Y-106900000D02*
X159500000Y-106900000D01*
X123630000Y-85670000D02*
X123630000Y-82500000D01*
X181275000Y-88450000D02*
X194700001Y-88450000D01*
X152000000Y-72750000D02*
X152000000Y-69500000D01*
X181275000Y-88450000D02*
X174200000Y-88450000D01*
X134920000Y-94500000D02*
X130000000Y-99420000D01*
X136330000Y-105750000D02*
X130000000Y-99420000D01*
X164500000Y-90000000D02*
X161250000Y-90000000D01*
X123630000Y-82500000D02*
X135000000Y-71130000D01*
X159500000Y-106900000D02*
X160140000Y-106900000D01*
X141460000Y-105750000D02*
X142610000Y-106900000D01*
X159000000Y-92250000D02*
X159000000Y-87000000D01*
X160500000Y-73000000D02*
X163000000Y-75500000D01*
X194700001Y-88450000D02*
X195000000Y-88749999D01*
X136745000Y-72875000D02*
X135000000Y-71130000D01*
X164500000Y-74000000D02*
X163000000Y-75500000D01*
X136745000Y-72875000D02*
X152125000Y-72875000D01*
X195000000Y-97340000D02*
X193250000Y-99090000D01*
X170000000Y-74000000D02*
X164500000Y-74000000D01*
X170750000Y-82750000D02*
X169625000Y-83875000D01*
X159490000Y-106910000D02*
X159500000Y-106900000D01*
X167125000Y-75375000D02*
X171500000Y-79750000D01*
X138150000Y-94500000D02*
X134920000Y-94500000D01*
X163125000Y-75375000D02*
X167125000Y-75375000D01*
X159490000Y-110500000D02*
X159490000Y-106910000D01*
X161000000Y-87750000D02*
X153625000Y-80375000D01*
X137750000Y-79000000D02*
X137000000Y-79750000D01*
X140750000Y-79000000D02*
X137750000Y-79000000D01*
X152350000Y-79100000D02*
X140850000Y-79100000D01*
X153000000Y-80750000D02*
X153375000Y-80375000D01*
X153375000Y-80375000D02*
X153625000Y-80375000D01*
X137000000Y-79920000D02*
X131250000Y-85670000D01*
X153625000Y-80375000D02*
X152350000Y-79100000D01*
X137000000Y-79750000D02*
X137000000Y-79920000D01*
X140850000Y-79100000D02*
X140750000Y-79000000D01*
X153000000Y-91250000D02*
X151500000Y-89750000D01*
X151500000Y-89750000D02*
X151500000Y-85250000D01*
X165075000Y-97500000D02*
X171000000Y-97500000D01*
X164325000Y-96750000D02*
X165075000Y-97500000D01*
X173750000Y-91000000D02*
X163250000Y-80500000D01*
X176750000Y-91000000D02*
X173750000Y-91000000D01*
X163250000Y-80500000D02*
X157750000Y-80500000D01*
X169500000Y-91000000D02*
X174750000Y-96250000D01*
X174750000Y-96250000D02*
X174750000Y-96500000D01*
X162750000Y-81500000D02*
X159000000Y-81500000D01*
X177250000Y-96000000D02*
X162750000Y-81500000D01*
G04 #@! TA.AperFunction,Conductor*
G36*
X224794714Y-63270185D02*
G01*
X224818539Y-63290122D01*
X227612512Y-66299015D01*
X227716366Y-66410858D01*
X227747559Y-66473379D01*
X227749500Y-66495234D01*
X227749500Y-131028277D01*
X227729815Y-131095316D01*
X227721738Y-131106470D01*
X224798995Y-134703693D01*
X224741443Y-134743311D01*
X224702757Y-134749500D01*
X99520554Y-134749500D01*
X99453515Y-134729815D01*
X99430091Y-134710309D01*
X96034037Y-131087850D01*
X96002547Y-131025479D01*
X96000500Y-131003041D01*
X96000500Y-129115186D01*
X100099500Y-129115186D01*
X100099500Y-129384813D01*
X100129686Y-129652719D01*
X100129688Y-129652731D01*
X100189684Y-129915594D01*
X100189687Y-129915602D01*
X100278734Y-130170082D01*
X100395714Y-130412994D01*
X100395716Y-130412997D01*
X100539162Y-130641289D01*
X100707266Y-130852085D01*
X100897915Y-131042734D01*
X101108711Y-131210838D01*
X101337003Y-131354284D01*
X101579921Y-131471267D01*
X101761257Y-131534719D01*
X101834397Y-131560312D01*
X101834405Y-131560315D01*
X101834408Y-131560315D01*
X101834409Y-131560316D01*
X102097268Y-131620312D01*
X102365187Y-131650499D01*
X102365188Y-131650500D01*
X102365191Y-131650500D01*
X102634812Y-131650500D01*
X102634812Y-131650499D01*
X102902732Y-131620312D01*
X103165591Y-131560316D01*
X103420079Y-131471267D01*
X103662997Y-131354284D01*
X103891289Y-131210838D01*
X104102085Y-131042734D01*
X104292734Y-130852085D01*
X104460838Y-130641289D01*
X104604284Y-130412997D01*
X104721267Y-130170079D01*
X104810316Y-129915591D01*
X104870312Y-129652732D01*
X104900500Y-129384809D01*
X104900500Y-129115191D01*
X104870312Y-128847268D01*
X104810316Y-128584409D01*
X104721267Y-128329921D01*
X104604284Y-128087003D01*
X104460838Y-127858711D01*
X104292734Y-127647915D01*
X104102085Y-127457266D01*
X103891289Y-127289162D01*
X103662997Y-127145716D01*
X103662994Y-127145714D01*
X103420082Y-127028734D01*
X103165602Y-126939687D01*
X103165594Y-126939684D01*
X102968446Y-126894687D01*
X102902732Y-126879688D01*
X102902728Y-126879687D01*
X102902719Y-126879686D01*
X102634813Y-126849500D01*
X102634809Y-126849500D01*
X102365191Y-126849500D01*
X102365186Y-126849500D01*
X102097280Y-126879686D01*
X102097268Y-126879688D01*
X101834405Y-126939684D01*
X101834397Y-126939687D01*
X101579917Y-127028734D01*
X101337005Y-127145714D01*
X101108712Y-127289161D01*
X100897915Y-127457265D01*
X100707265Y-127647915D01*
X100539161Y-127858712D01*
X100395714Y-128087005D01*
X100278734Y-128329917D01*
X100189687Y-128584397D01*
X100189684Y-128584405D01*
X100129688Y-128847268D01*
X100129686Y-128847280D01*
X100099500Y-129115186D01*
X96000500Y-129115186D01*
X96000500Y-126827155D01*
X128125000Y-126827155D01*
X128125000Y-127750000D01*
X129149999Y-127750000D01*
X129124979Y-127810402D01*
X129100000Y-127935981D01*
X129100000Y-128064019D01*
X129124979Y-128189598D01*
X129149999Y-128250000D01*
X128125000Y-128250000D01*
X128125000Y-129172844D01*
X128131401Y-129232372D01*
X128131403Y-129232379D01*
X128181645Y-129367086D01*
X128181649Y-129367093D01*
X128267809Y-129482187D01*
X128267812Y-129482190D01*
X128382906Y-129568350D01*
X128382913Y-129568354D01*
X128517620Y-129618596D01*
X128517627Y-129618598D01*
X128577155Y-129624999D01*
X128577172Y-129625000D01*
X129500000Y-129625000D01*
X129500000Y-128600001D01*
X129560402Y-128625021D01*
X129685981Y-128650000D01*
X129814019Y-128650000D01*
X129939598Y-128625021D01*
X130000000Y-128600001D01*
X130000000Y-129625000D01*
X130922828Y-129625000D01*
X130922844Y-129624999D01*
X130982372Y-129618598D01*
X130982379Y-129618596D01*
X131117086Y-129568354D01*
X131117093Y-129568350D01*
X131232187Y-129482190D01*
X131232190Y-129482187D01*
X131318350Y-129367093D01*
X131318354Y-129367086D01*
X131368596Y-129232379D01*
X131368598Y-129232372D01*
X131374999Y-129172844D01*
X131375000Y-129172827D01*
X131375000Y-128250000D01*
X130350001Y-128250000D01*
X130375021Y-128189598D01*
X130400000Y-128064019D01*
X130400000Y-127935981D01*
X130375021Y-127810402D01*
X130350001Y-127750000D01*
X131375000Y-127750000D01*
X131375000Y-126827172D01*
X131374999Y-126827155D01*
X192125000Y-126827155D01*
X192125000Y-127750000D01*
X193149999Y-127750000D01*
X193124979Y-127810402D01*
X193100000Y-127935981D01*
X193100000Y-128064019D01*
X193124979Y-128189598D01*
X193149999Y-128250000D01*
X192125000Y-128250000D01*
X192125000Y-129172844D01*
X192131401Y-129232372D01*
X192131403Y-129232379D01*
X192181645Y-129367086D01*
X192181649Y-129367093D01*
X192267809Y-129482187D01*
X192267812Y-129482190D01*
X192382906Y-129568350D01*
X192382913Y-129568354D01*
X192517620Y-129618596D01*
X192517627Y-129618598D01*
X192577155Y-129624999D01*
X192577172Y-129625000D01*
X193500000Y-129625000D01*
X193500000Y-128600001D01*
X193560402Y-128625021D01*
X193685981Y-128650000D01*
X193814019Y-128650000D01*
X193939598Y-128625021D01*
X194000000Y-128600001D01*
X194000000Y-129625000D01*
X194922828Y-129625000D01*
X194922844Y-129624999D01*
X194982372Y-129618598D01*
X194982379Y-129618596D01*
X195117086Y-129568354D01*
X195117093Y-129568350D01*
X195232187Y-129482190D01*
X195232190Y-129482187D01*
X195318350Y-129367093D01*
X195318354Y-129367086D01*
X195368596Y-129232379D01*
X195368598Y-129232372D01*
X195374999Y-129172844D01*
X195375000Y-129172827D01*
X195375000Y-128365186D01*
X218849500Y-128365186D01*
X218849500Y-128634813D01*
X218879686Y-128902719D01*
X218879688Y-128902731D01*
X218939684Y-129165594D01*
X218939687Y-129165602D01*
X219028734Y-129420082D01*
X219145714Y-129662994D01*
X219145716Y-129662997D01*
X219289162Y-129891289D01*
X219457266Y-130102085D01*
X219647915Y-130292734D01*
X219858711Y-130460838D01*
X220087003Y-130604284D01*
X220329921Y-130721267D01*
X220521049Y-130788145D01*
X220584397Y-130810312D01*
X220584405Y-130810315D01*
X220584408Y-130810315D01*
X220584409Y-130810316D01*
X220847268Y-130870312D01*
X221115187Y-130900499D01*
X221115188Y-130900500D01*
X221115191Y-130900500D01*
X221384812Y-130900500D01*
X221384812Y-130900499D01*
X221652732Y-130870312D01*
X221915591Y-130810316D01*
X222170079Y-130721267D01*
X222412997Y-130604284D01*
X222641289Y-130460838D01*
X222852085Y-130292734D01*
X223042734Y-130102085D01*
X223210838Y-129891289D01*
X223354284Y-129662997D01*
X223471267Y-129420079D01*
X223560316Y-129165591D01*
X223620312Y-128902732D01*
X223650500Y-128634809D01*
X223650500Y-128365191D01*
X223620312Y-128097268D01*
X223560316Y-127834409D01*
X223471267Y-127579921D01*
X223354284Y-127337003D01*
X223210838Y-127108711D01*
X223042734Y-126897915D01*
X222852085Y-126707266D01*
X222641289Y-126539162D01*
X222412997Y-126395716D01*
X222412994Y-126395714D01*
X222170082Y-126278734D01*
X221915602Y-126189687D01*
X221915594Y-126189684D01*
X221718446Y-126144687D01*
X221652732Y-126129688D01*
X221652728Y-126129687D01*
X221652719Y-126129686D01*
X221384813Y-126099500D01*
X221384809Y-126099500D01*
X221115191Y-126099500D01*
X221115186Y-126099500D01*
X220847280Y-126129686D01*
X220847268Y-126129688D01*
X220584405Y-126189684D01*
X220584397Y-126189687D01*
X220329917Y-126278734D01*
X220087005Y-126395714D01*
X219858712Y-126539161D01*
X219647915Y-126707265D01*
X219457265Y-126897915D01*
X219289161Y-127108712D01*
X219145714Y-127337005D01*
X219028734Y-127579917D01*
X218939687Y-127834397D01*
X218939684Y-127834405D01*
X218879688Y-128097268D01*
X218879686Y-128097280D01*
X218849500Y-128365186D01*
X195375000Y-128365186D01*
X195375000Y-128250000D01*
X194350001Y-128250000D01*
X194375021Y-128189598D01*
X194400000Y-128064019D01*
X194400000Y-127935981D01*
X194375021Y-127810402D01*
X194350001Y-127750000D01*
X195375000Y-127750000D01*
X195375000Y-126827172D01*
X195374999Y-126827155D01*
X195368598Y-126767627D01*
X195368596Y-126767620D01*
X195318354Y-126632913D01*
X195318350Y-126632906D01*
X195232190Y-126517812D01*
X195232187Y-126517809D01*
X195117093Y-126431649D01*
X195117086Y-126431645D01*
X194982379Y-126381403D01*
X194982372Y-126381401D01*
X194922844Y-126375000D01*
X194000000Y-126375000D01*
X194000000Y-127399998D01*
X193939598Y-127374979D01*
X193814019Y-127350000D01*
X193685981Y-127350000D01*
X193560402Y-127374979D01*
X193500000Y-127399998D01*
X193500000Y-126375000D01*
X192577155Y-126375000D01*
X192517627Y-126381401D01*
X192517620Y-126381403D01*
X192382913Y-126431645D01*
X192382906Y-126431649D01*
X192267812Y-126517809D01*
X192267809Y-126517812D01*
X192181649Y-126632906D01*
X192181645Y-126632913D01*
X192131403Y-126767620D01*
X192131401Y-126767627D01*
X192125000Y-126827155D01*
X131374999Y-126827155D01*
X131368598Y-126767627D01*
X131368596Y-126767620D01*
X131318354Y-126632913D01*
X131318350Y-126632906D01*
X131232190Y-126517812D01*
X131232187Y-126517809D01*
X131117093Y-126431649D01*
X131117086Y-126431645D01*
X130982379Y-126381403D01*
X130982372Y-126381401D01*
X130922844Y-126375000D01*
X130000000Y-126375000D01*
X130000000Y-127399998D01*
X129939598Y-127374979D01*
X129814019Y-127350000D01*
X129685981Y-127350000D01*
X129560402Y-127374979D01*
X129500000Y-127399998D01*
X129500000Y-126375000D01*
X128577155Y-126375000D01*
X128517627Y-126381401D01*
X128517620Y-126381403D01*
X128382913Y-126431645D01*
X128382906Y-126431649D01*
X128267812Y-126517809D01*
X128267809Y-126517812D01*
X128181649Y-126632906D01*
X128181645Y-126632913D01*
X128131403Y-126767620D01*
X128131401Y-126767627D01*
X128125000Y-126827155D01*
X96000500Y-126827155D01*
X96000500Y-121500000D01*
X128219783Y-121500000D01*
X128238623Y-121739382D01*
X128294674Y-121972853D01*
X128294678Y-121972865D01*
X128386565Y-122194702D01*
X128512026Y-122399436D01*
X128512028Y-122399439D01*
X128667973Y-122582027D01*
X128850561Y-122737972D01*
X128850563Y-122737973D01*
X129055297Y-122863434D01*
X129152047Y-122903508D01*
X129277137Y-122955323D01*
X129510621Y-123011377D01*
X129750000Y-123030217D01*
X129989379Y-123011377D01*
X130222863Y-122955323D01*
X130444704Y-122863433D01*
X130649439Y-122737972D01*
X130832027Y-122582027D01*
X130987972Y-122399439D01*
X131113433Y-122194704D01*
X131205323Y-121972863D01*
X131261377Y-121739379D01*
X131280217Y-121500000D01*
X192219783Y-121500000D01*
X192238623Y-121739382D01*
X192294674Y-121972853D01*
X192294678Y-121972865D01*
X192386565Y-122194702D01*
X192512026Y-122399436D01*
X192512028Y-122399439D01*
X192667973Y-122582027D01*
X192850561Y-122737972D01*
X192850563Y-122737973D01*
X193055297Y-122863434D01*
X193152047Y-122903508D01*
X193277137Y-122955323D01*
X193510621Y-123011377D01*
X193750000Y-123030217D01*
X193989379Y-123011377D01*
X194222863Y-122955323D01*
X194444704Y-122863433D01*
X194649439Y-122737972D01*
X194832027Y-122582027D01*
X194987972Y-122399439D01*
X195113433Y-122194704D01*
X195205323Y-121972863D01*
X195261377Y-121739379D01*
X195280217Y-121500000D01*
X195261377Y-121260621D01*
X195205323Y-121027137D01*
X195153508Y-120902047D01*
X195113434Y-120805297D01*
X194987973Y-120600563D01*
X194987972Y-120600561D01*
X194832027Y-120417973D01*
X194649439Y-120262028D01*
X194649436Y-120262026D01*
X194444702Y-120136565D01*
X194222865Y-120044678D01*
X194222867Y-120044678D01*
X194222863Y-120044677D01*
X194222859Y-120044676D01*
X194222853Y-120044674D01*
X193989382Y-119988623D01*
X193750000Y-119969783D01*
X193510617Y-119988623D01*
X193277146Y-120044674D01*
X193277134Y-120044678D01*
X193055297Y-120136565D01*
X192850563Y-120262026D01*
X192667973Y-120417973D01*
X192512026Y-120600563D01*
X192386565Y-120805297D01*
X192294678Y-121027134D01*
X192294674Y-121027146D01*
X192238623Y-121260617D01*
X192219783Y-121500000D01*
X131280217Y-121500000D01*
X131261377Y-121260621D01*
X131205323Y-121027137D01*
X131153508Y-120902047D01*
X131113434Y-120805297D01*
X130987973Y-120600563D01*
X130987972Y-120600561D01*
X130832027Y-120417973D01*
X130649439Y-120262028D01*
X130649436Y-120262026D01*
X130444702Y-120136565D01*
X130222865Y-120044678D01*
X130222867Y-120044678D01*
X130222863Y-120044677D01*
X130222859Y-120044676D01*
X130222853Y-120044674D01*
X129989382Y-119988623D01*
X129750000Y-119969783D01*
X129510617Y-119988623D01*
X129277146Y-120044674D01*
X129277134Y-120044678D01*
X129055297Y-120136565D01*
X128850563Y-120262026D01*
X128667973Y-120417973D01*
X128512026Y-120600563D01*
X128386565Y-120805297D01*
X128294678Y-121027134D01*
X128294674Y-121027146D01*
X128238623Y-121260617D01*
X128219783Y-121500000D01*
X96000500Y-121500000D01*
X96000500Y-114249999D01*
X117794357Y-114249999D01*
X117794357Y-114250000D01*
X117814884Y-114471535D01*
X117814885Y-114471537D01*
X117875769Y-114685523D01*
X117875775Y-114685538D01*
X117974938Y-114884683D01*
X117974943Y-114884691D01*
X118109020Y-115062238D01*
X118273437Y-115212123D01*
X118273439Y-115212125D01*
X118462595Y-115329245D01*
X118462596Y-115329245D01*
X118462599Y-115329247D01*
X118670060Y-115409618D01*
X118888757Y-115450500D01*
X118888759Y-115450500D01*
X119111241Y-115450500D01*
X119111243Y-115450500D01*
X119329940Y-115409618D01*
X119537401Y-115329247D01*
X119726562Y-115212124D01*
X119890981Y-115062236D01*
X120025058Y-114884689D01*
X120124229Y-114685528D01*
X120185115Y-114471536D01*
X120205643Y-114250000D01*
X120205643Y-114249997D01*
X122695034Y-114249997D01*
X122695034Y-114250002D01*
X122714858Y-114476599D01*
X122714860Y-114476610D01*
X122773730Y-114696317D01*
X122773735Y-114696331D01*
X122869863Y-114902478D01*
X122920974Y-114975472D01*
X123600000Y-114296446D01*
X123600000Y-114302661D01*
X123627259Y-114404394D01*
X123679920Y-114495606D01*
X123754394Y-114570080D01*
X123845606Y-114622741D01*
X123947339Y-114650000D01*
X123953553Y-114650000D01*
X123274526Y-115329025D01*
X123347513Y-115380132D01*
X123347521Y-115380136D01*
X123553668Y-115476264D01*
X123553682Y-115476269D01*
X123773389Y-115535139D01*
X123773400Y-115535141D01*
X123999998Y-115554966D01*
X124000002Y-115554966D01*
X124226599Y-115535141D01*
X124226610Y-115535139D01*
X124446317Y-115476269D01*
X124446331Y-115476264D01*
X124652478Y-115380136D01*
X124725471Y-115329024D01*
X124646446Y-115249999D01*
X128214357Y-115249999D01*
X128214357Y-115250000D01*
X128234884Y-115471535D01*
X128234885Y-115471537D01*
X128295769Y-115685523D01*
X128295775Y-115685538D01*
X128394938Y-115884683D01*
X128394943Y-115884691D01*
X128529020Y-116062238D01*
X128693437Y-116212123D01*
X128693439Y-116212125D01*
X128882595Y-116329245D01*
X128882596Y-116329245D01*
X128882599Y-116329247D01*
X129090060Y-116409618D01*
X129308757Y-116450500D01*
X129308759Y-116450500D01*
X129531241Y-116450500D01*
X129531243Y-116450500D01*
X129749940Y-116409618D01*
X129957401Y-116329247D01*
X130146562Y-116212124D01*
X130310981Y-116062236D01*
X130445058Y-115884689D01*
X130544229Y-115685528D01*
X130605115Y-115471536D01*
X130625643Y-115250000D01*
X130625643Y-115249999D01*
X138374357Y-115249999D01*
X138374357Y-115250000D01*
X138394884Y-115471535D01*
X138394885Y-115471537D01*
X138455769Y-115685523D01*
X138455775Y-115685538D01*
X138554938Y-115884683D01*
X138554943Y-115884691D01*
X138689020Y-116062238D01*
X138853437Y-116212123D01*
X138853439Y-116212125D01*
X139042595Y-116329245D01*
X139042596Y-116329245D01*
X139042599Y-116329247D01*
X139250060Y-116409618D01*
X139468757Y-116450500D01*
X139468759Y-116450500D01*
X139691241Y-116450500D01*
X139691243Y-116450500D01*
X139909940Y-116409618D01*
X140117401Y-116329247D01*
X140306562Y-116212124D01*
X140470981Y-116062236D01*
X140605058Y-115884689D01*
X140704229Y-115685528D01*
X140765115Y-115471536D01*
X140785643Y-115250000D01*
X140775592Y-115141536D01*
X140765115Y-115028464D01*
X140765114Y-115028462D01*
X140734254Y-114919999D01*
X181544357Y-114919999D01*
X181544357Y-114920000D01*
X181564884Y-115141535D01*
X181564885Y-115141537D01*
X181625769Y-115355523D01*
X181625775Y-115355538D01*
X181724938Y-115554683D01*
X181724943Y-115554691D01*
X181859020Y-115732238D01*
X182023437Y-115882123D01*
X182023439Y-115882125D01*
X182212595Y-115999245D01*
X182212596Y-115999245D01*
X182212599Y-115999247D01*
X182420060Y-116079618D01*
X182638757Y-116120500D01*
X182638759Y-116120500D01*
X182861241Y-116120500D01*
X182861243Y-116120500D01*
X183079940Y-116079618D01*
X183287401Y-115999247D01*
X183476562Y-115882124D01*
X183640981Y-115732236D01*
X183775058Y-115554689D01*
X183874229Y-115355528D01*
X183935115Y-115141536D01*
X183955643Y-114920000D01*
X183955643Y-114919999D01*
X191704357Y-114919999D01*
X191704357Y-114920000D01*
X191724884Y-115141535D01*
X191724885Y-115141537D01*
X191785769Y-115355523D01*
X191785775Y-115355538D01*
X191884938Y-115554683D01*
X191884943Y-115554691D01*
X192019020Y-115732238D01*
X192183437Y-115882123D01*
X192183439Y-115882125D01*
X192372595Y-115999245D01*
X192372596Y-115999245D01*
X192372599Y-115999247D01*
X192580060Y-116079618D01*
X192798757Y-116120500D01*
X192798759Y-116120500D01*
X193021241Y-116120500D01*
X193021243Y-116120500D01*
X193239940Y-116079618D01*
X193447401Y-115999247D01*
X193636562Y-115882124D01*
X193800981Y-115732236D01*
X193935058Y-115554689D01*
X194034229Y-115355528D01*
X194095115Y-115141536D01*
X194115643Y-114920000D01*
X194112370Y-114884683D01*
X194095115Y-114698464D01*
X194095114Y-114698462D01*
X194081325Y-114650000D01*
X194034229Y-114484472D01*
X194034224Y-114484461D01*
X193935061Y-114285316D01*
X193935056Y-114285308D01*
X193800979Y-114107761D01*
X193636562Y-113957876D01*
X193636560Y-113957874D01*
X193447404Y-113840754D01*
X193447398Y-113840752D01*
X193239940Y-113760382D01*
X193021243Y-113719500D01*
X192798757Y-113719500D01*
X192580060Y-113760382D01*
X192468326Y-113803668D01*
X192372601Y-113840752D01*
X192372595Y-113840754D01*
X192183439Y-113957874D01*
X192183437Y-113957876D01*
X192019020Y-114107761D01*
X191884943Y-114285308D01*
X191884938Y-114285316D01*
X191785775Y-114484461D01*
X191785769Y-114484476D01*
X191724885Y-114698462D01*
X191724884Y-114698464D01*
X191704357Y-114919999D01*
X183955643Y-114919999D01*
X183952370Y-114884683D01*
X183935115Y-114698464D01*
X183935114Y-114698462D01*
X183921325Y-114650000D01*
X183874229Y-114484472D01*
X183874224Y-114484461D01*
X183775061Y-114285316D01*
X183775056Y-114285308D01*
X183640979Y-114107761D01*
X183476562Y-113957876D01*
X183476560Y-113957874D01*
X183287404Y-113840754D01*
X183287398Y-113840752D01*
X183079940Y-113760382D01*
X182861243Y-113719500D01*
X182638757Y-113719500D01*
X182420060Y-113760382D01*
X182308326Y-113803668D01*
X182212601Y-113840752D01*
X182212595Y-113840754D01*
X182023439Y-113957874D01*
X182023437Y-113957876D01*
X181859020Y-114107761D01*
X181724943Y-114285308D01*
X181724938Y-114285316D01*
X181625775Y-114484461D01*
X181625769Y-114484476D01*
X181564885Y-114698462D01*
X181564884Y-114698464D01*
X181544357Y-114919999D01*
X140734254Y-114919999D01*
X140704230Y-114814476D01*
X140704229Y-114814472D01*
X140646463Y-114698462D01*
X140605061Y-114615316D01*
X140605056Y-114615308D01*
X140470979Y-114437761D01*
X140306562Y-114287876D01*
X140306560Y-114287874D01*
X140117404Y-114170754D01*
X140117398Y-114170752D01*
X139909940Y-114090382D01*
X139691243Y-114049500D01*
X139468757Y-114049500D01*
X139250060Y-114090382D01*
X139118864Y-114141207D01*
X139042601Y-114170752D01*
X139042595Y-114170754D01*
X138853439Y-114287874D01*
X138853437Y-114287876D01*
X138689020Y-114437761D01*
X138554943Y-114615308D01*
X138554938Y-114615316D01*
X138455775Y-114814461D01*
X138455769Y-114814476D01*
X138394885Y-115028462D01*
X138394884Y-115028464D01*
X138374357Y-115249999D01*
X130625643Y-115249999D01*
X130615592Y-115141536D01*
X130605115Y-115028464D01*
X130605114Y-115028462D01*
X130544230Y-114814476D01*
X130544229Y-114814472D01*
X130486463Y-114698462D01*
X130445061Y-114615316D01*
X130445056Y-114615308D01*
X130310979Y-114437761D01*
X130146562Y-114287876D01*
X130146560Y-114287874D01*
X129957404Y-114170754D01*
X129957398Y-114170752D01*
X129749940Y-114090382D01*
X129531243Y-114049500D01*
X129308757Y-114049500D01*
X129090060Y-114090382D01*
X128958864Y-114141207D01*
X128882601Y-114170752D01*
X128882595Y-114170754D01*
X128693439Y-114287874D01*
X128693437Y-114287876D01*
X128529020Y-114437761D01*
X128394943Y-114615308D01*
X128394938Y-114615316D01*
X128295775Y-114814461D01*
X128295769Y-114814476D01*
X128234885Y-115028462D01*
X128234884Y-115028464D01*
X128214357Y-115249999D01*
X124646446Y-115249999D01*
X124046447Y-114650000D01*
X124052661Y-114650000D01*
X124154394Y-114622741D01*
X124245606Y-114570080D01*
X124320080Y-114495606D01*
X124372741Y-114404394D01*
X124400000Y-114302661D01*
X124400000Y-114296447D01*
X125079024Y-114975471D01*
X125130136Y-114902478D01*
X125226264Y-114696331D01*
X125226269Y-114696317D01*
X125285139Y-114476610D01*
X125285141Y-114476599D01*
X125304966Y-114250002D01*
X125304966Y-114249997D01*
X125285141Y-114023400D01*
X125285139Y-114023389D01*
X125226269Y-113803682D01*
X125226264Y-113803668D01*
X125130136Y-113597521D01*
X125130132Y-113597513D01*
X125079025Y-113524526D01*
X124400000Y-114203551D01*
X124400000Y-114197339D01*
X124372741Y-114095606D01*
X124320080Y-114004394D01*
X124245606Y-113929920D01*
X124154394Y-113877259D01*
X124052661Y-113850000D01*
X124046445Y-113850000D01*
X124725472Y-113170974D01*
X124652478Y-113119863D01*
X124446331Y-113023735D01*
X124446317Y-113023730D01*
X124226610Y-112964860D01*
X124226599Y-112964858D01*
X124000002Y-112945034D01*
X123999998Y-112945034D01*
X123773400Y-112964858D01*
X123773389Y-112964860D01*
X123553682Y-113023730D01*
X123553673Y-113023734D01*
X123347516Y-113119866D01*
X123347512Y-113119868D01*
X123274526Y-113170973D01*
X123274526Y-113170974D01*
X123953553Y-113850000D01*
X123947339Y-113850000D01*
X123845606Y-113877259D01*
X123754394Y-113929920D01*
X123679920Y-114004394D01*
X123627259Y-114095606D01*
X123600000Y-114197339D01*
X123600000Y-114203552D01*
X122920974Y-113524526D01*
X122920973Y-113524526D01*
X122869868Y-113597512D01*
X122869866Y-113597516D01*
X122773734Y-113803673D01*
X122773730Y-113803682D01*
X122714860Y-114023389D01*
X122714858Y-114023400D01*
X122695034Y-114249997D01*
X120205643Y-114249997D01*
X120191337Y-114095606D01*
X120185115Y-114028462D01*
X120124230Y-113814476D01*
X120124229Y-113814472D01*
X120124224Y-113814461D01*
X120025061Y-113615316D01*
X120025056Y-113615308D01*
X119890979Y-113437761D01*
X119726562Y-113287876D01*
X119726560Y-113287874D01*
X119537404Y-113170754D01*
X119537398Y-113170752D01*
X119329940Y-113090382D01*
X119111243Y-113049500D01*
X118888757Y-113049500D01*
X118670060Y-113090382D01*
X118593948Y-113119868D01*
X118462601Y-113170752D01*
X118462595Y-113170754D01*
X118273439Y-113287874D01*
X118273437Y-113287876D01*
X118109020Y-113437761D01*
X117974943Y-113615308D01*
X117974938Y-113615316D01*
X117875775Y-113814461D01*
X117875769Y-113814476D01*
X117814885Y-114028462D01*
X117794357Y-114249999D01*
X96000500Y-114249999D01*
X96000500Y-109579999D01*
X128794357Y-109579999D01*
X128794357Y-109580000D01*
X128814884Y-109801535D01*
X128814885Y-109801537D01*
X128875769Y-110015523D01*
X128875775Y-110015538D01*
X128974938Y-110214683D01*
X128974943Y-110214691D01*
X129109020Y-110392238D01*
X129273437Y-110542123D01*
X129273439Y-110542125D01*
X129462595Y-110659245D01*
X129462596Y-110659245D01*
X129462599Y-110659247D01*
X129670060Y-110739618D01*
X129888757Y-110780500D01*
X129888759Y-110780500D01*
X130111241Y-110780500D01*
X130111243Y-110780500D01*
X130329940Y-110739618D01*
X130537401Y-110659247D01*
X130726562Y-110542124D01*
X130890981Y-110392236D01*
X131025058Y-110214689D01*
X131124229Y-110015528D01*
X131185115Y-109801536D01*
X131205643Y-109580000D01*
X131201788Y-109538402D01*
X131185115Y-109358464D01*
X131185114Y-109358462D01*
X131166434Y-109292809D01*
X131124229Y-109144472D01*
X131066463Y-109028462D01*
X131025061Y-108945316D01*
X131025056Y-108945308D01*
X130890979Y-108767761D01*
X130726562Y-108617876D01*
X130726560Y-108617874D01*
X130537404Y-108500754D01*
X130537398Y-108500752D01*
X130329940Y-108420382D01*
X130111243Y-108379500D01*
X129888757Y-108379500D01*
X129670060Y-108420382D01*
X129538864Y-108471207D01*
X129462601Y-108500752D01*
X129462595Y-108500754D01*
X129273439Y-108617874D01*
X129273437Y-108617876D01*
X129109020Y-108767761D01*
X128974943Y-108945308D01*
X128974938Y-108945316D01*
X128875775Y-109144461D01*
X128875769Y-109144476D01*
X128814885Y-109358462D01*
X128814884Y-109358464D01*
X128794357Y-109579999D01*
X96000500Y-109579999D01*
X96000500Y-106679999D01*
X119344571Y-106679999D01*
X119344571Y-106680000D01*
X119364244Y-106892310D01*
X119422596Y-107097392D01*
X119422596Y-107097394D01*
X119517632Y-107288253D01*
X119646127Y-107458406D01*
X119646128Y-107458407D01*
X119803698Y-107602052D01*
X119984981Y-107714298D01*
X120183802Y-107791321D01*
X120393390Y-107830500D01*
X120393392Y-107830500D01*
X120606608Y-107830500D01*
X120606610Y-107830500D01*
X120816198Y-107791321D01*
X121015019Y-107714298D01*
X121196302Y-107602052D01*
X121353872Y-107458407D01*
X121482366Y-107288255D01*
X121577405Y-107097389D01*
X121635756Y-106892310D01*
X121655429Y-106680000D01*
X121635756Y-106467690D01*
X121577405Y-106262611D01*
X121577403Y-106262606D01*
X121577403Y-106262605D01*
X121482367Y-106071746D01*
X121353872Y-105901593D01*
X121325798Y-105876000D01*
X121196302Y-105757948D01*
X121015019Y-105645702D01*
X121015017Y-105645701D01*
X120915608Y-105607190D01*
X120816198Y-105568679D01*
X120606610Y-105529500D01*
X120393390Y-105529500D01*
X120183802Y-105568679D01*
X120183799Y-105568679D01*
X120183799Y-105568680D01*
X119984982Y-105645701D01*
X119984980Y-105645702D01*
X119803699Y-105757947D01*
X119646127Y-105901593D01*
X119517632Y-106071746D01*
X119422596Y-106262605D01*
X119422596Y-106262607D01*
X119364244Y-106467689D01*
X119344571Y-106679999D01*
X96000500Y-106679999D01*
X96000500Y-101799999D01*
X119344571Y-101799999D01*
X119344571Y-101800000D01*
X119364244Y-102012310D01*
X119422596Y-102217392D01*
X119422596Y-102217394D01*
X119517632Y-102408253D01*
X119626685Y-102552661D01*
X119646128Y-102578407D01*
X119803698Y-102722052D01*
X119984981Y-102834298D01*
X120183802Y-102911321D01*
X120393390Y-102950500D01*
X120393392Y-102950500D01*
X120606608Y-102950500D01*
X120606610Y-102950500D01*
X120816198Y-102911321D01*
X121015019Y-102834298D01*
X121196302Y-102722052D01*
X121353872Y-102578407D01*
X121482366Y-102408255D01*
X121577405Y-102217389D01*
X121635756Y-102012310D01*
X121655429Y-101800000D01*
X121635756Y-101587690D01*
X121577405Y-101382611D01*
X121577403Y-101382606D01*
X121577403Y-101382605D01*
X121482367Y-101191746D01*
X121353872Y-101021593D01*
X121196302Y-100877948D01*
X121015019Y-100765702D01*
X121015017Y-100765701D01*
X120915608Y-100727190D01*
X120816198Y-100688679D01*
X120606610Y-100649500D01*
X120393390Y-100649500D01*
X120183802Y-100688679D01*
X120183799Y-100688679D01*
X120183799Y-100688680D01*
X119984982Y-100765701D01*
X119984980Y-100765702D01*
X119803699Y-100877947D01*
X119646127Y-101021593D01*
X119517632Y-101191746D01*
X119422596Y-101382605D01*
X119422596Y-101382607D01*
X119364244Y-101587689D01*
X119344571Y-101799999D01*
X96000500Y-101799999D01*
X96000500Y-99419999D01*
X128794357Y-99419999D01*
X128794357Y-99420000D01*
X128814884Y-99641535D01*
X128814885Y-99641537D01*
X128875769Y-99855523D01*
X128875775Y-99855538D01*
X128974938Y-100054683D01*
X128974943Y-100054691D01*
X129109020Y-100232238D01*
X129273437Y-100382123D01*
X129273439Y-100382125D01*
X129462595Y-100499245D01*
X129462596Y-100499245D01*
X129462599Y-100499247D01*
X129670060Y-100579618D01*
X129888757Y-100620500D01*
X129888759Y-100620500D01*
X130111241Y-100620500D01*
X130111243Y-100620500D01*
X130329940Y-100579618D01*
X130342431Y-100574778D01*
X130412050Y-100568913D01*
X130473792Y-100601619D01*
X130474908Y-100602722D01*
X136022686Y-106150500D01*
X136121521Y-106207563D01*
X136131780Y-106213486D01*
X136136814Y-106216392D01*
X136264108Y-106250500D01*
X136395893Y-106250500D01*
X140085501Y-106250500D01*
X140152540Y-106270185D01*
X140198295Y-106322989D01*
X140209501Y-106374500D01*
X140209501Y-106631518D01*
X140224354Y-106725304D01*
X140281950Y-106838342D01*
X140281952Y-106838344D01*
X140281954Y-106838347D01*
X140371652Y-106928045D01*
X140371654Y-106928046D01*
X140371658Y-106928050D01*
X140484696Y-106985646D01*
X140484698Y-106985647D01*
X140578475Y-107000499D01*
X140578481Y-107000500D01*
X141951323Y-107000499D01*
X142018362Y-107020184D01*
X142039004Y-107036818D01*
X142302686Y-107300500D01*
X142416814Y-107366392D01*
X142544108Y-107400500D01*
X142675893Y-107400500D01*
X158865500Y-107400500D01*
X158932539Y-107420185D01*
X158978294Y-107472989D01*
X158989500Y-107524500D01*
X158989500Y-109274615D01*
X158969815Y-109341654D01*
X158917906Y-109386997D01*
X158862359Y-109412899D01*
X158683121Y-109538402D01*
X158528403Y-109693120D01*
X158525572Y-109697164D01*
X158470993Y-109740786D01*
X158401494Y-109747977D01*
X158339141Y-109716451D01*
X158303730Y-109656220D01*
X158300000Y-109626036D01*
X158300000Y-109602172D01*
X158299999Y-109602155D01*
X158293598Y-109542627D01*
X158293596Y-109542620D01*
X158243354Y-109407913D01*
X158243350Y-109407906D01*
X158157190Y-109292812D01*
X158157187Y-109292809D01*
X158042093Y-109206649D01*
X158042086Y-109206645D01*
X157907379Y-109156403D01*
X157907372Y-109156401D01*
X157847844Y-109150000D01*
X157200000Y-109150000D01*
X157200000Y-110066988D01*
X157142993Y-110034075D01*
X157015826Y-110000000D01*
X156884174Y-110000000D01*
X156757007Y-110034075D01*
X156700000Y-110066988D01*
X156700000Y-109150000D01*
X156052155Y-109150000D01*
X155992627Y-109156401D01*
X155992620Y-109156403D01*
X155857913Y-109206645D01*
X155857906Y-109206649D01*
X155742812Y-109292809D01*
X155742809Y-109292812D01*
X155656649Y-109407906D01*
X155656645Y-109407913D01*
X155606403Y-109542620D01*
X155606401Y-109542627D01*
X155600000Y-109602155D01*
X155600000Y-110250000D01*
X156516988Y-110250000D01*
X156484075Y-110307007D01*
X156450000Y-110434174D01*
X156450000Y-110565826D01*
X156484075Y-110692993D01*
X156516988Y-110750000D01*
X155600000Y-110750000D01*
X155600000Y-111397844D01*
X155606401Y-111457372D01*
X155606403Y-111457379D01*
X155656645Y-111592086D01*
X155656649Y-111592093D01*
X155742809Y-111707187D01*
X155742812Y-111707190D01*
X155857906Y-111793350D01*
X155857913Y-111793354D01*
X155992620Y-111843596D01*
X155992627Y-111843598D01*
X156052155Y-111849999D01*
X156052172Y-111850000D01*
X156700000Y-111850000D01*
X156700000Y-110933012D01*
X156757007Y-110965925D01*
X156884174Y-111000000D01*
X157015826Y-111000000D01*
X157142993Y-110965925D01*
X157200000Y-110933012D01*
X157200000Y-111850000D01*
X157847828Y-111850000D01*
X157847844Y-111849999D01*
X157907372Y-111843598D01*
X157907379Y-111843596D01*
X158042086Y-111793354D01*
X158042093Y-111793350D01*
X158157187Y-111707190D01*
X158157190Y-111707187D01*
X158243350Y-111592093D01*
X158243354Y-111592086D01*
X158293596Y-111457379D01*
X158293598Y-111457372D01*
X158299999Y-111397844D01*
X158300000Y-111397827D01*
X158300000Y-111373961D01*
X158319685Y-111306922D01*
X158372489Y-111261167D01*
X158441647Y-111251223D01*
X158505203Y-111280248D01*
X158525571Y-111302835D01*
X158528402Y-111306877D01*
X158683123Y-111461598D01*
X158862361Y-111587102D01*
X159060670Y-111679575D01*
X159272023Y-111736207D01*
X159454926Y-111752208D01*
X159489998Y-111755277D01*
X159490000Y-111755277D01*
X159490002Y-111755277D01*
X159518254Y-111752805D01*
X159707977Y-111736207D01*
X159919330Y-111679575D01*
X160117639Y-111587102D01*
X160296877Y-111461598D01*
X160451598Y-111306877D01*
X160577102Y-111127639D01*
X160647618Y-110976414D01*
X160693790Y-110923977D01*
X160760984Y-110904825D01*
X160827865Y-110925041D01*
X160872381Y-110976414D01*
X160942898Y-111127639D01*
X161068402Y-111306877D01*
X161223123Y-111461598D01*
X161402361Y-111587102D01*
X161600670Y-111679575D01*
X161812023Y-111736207D01*
X161994926Y-111752208D01*
X162029998Y-111755277D01*
X162030000Y-111755277D01*
X162030002Y-111755277D01*
X162058254Y-111752805D01*
X162247977Y-111736207D01*
X162459330Y-111679575D01*
X162657639Y-111587102D01*
X162836877Y-111461598D01*
X162991598Y-111306877D01*
X163117102Y-111127639D01*
X163187618Y-110976414D01*
X163233790Y-110923977D01*
X163300984Y-110904825D01*
X163367865Y-110925041D01*
X163412381Y-110976414D01*
X163482898Y-111127639D01*
X163608402Y-111306877D01*
X163763123Y-111461598D01*
X163942361Y-111587102D01*
X164140670Y-111679575D01*
X164352023Y-111736207D01*
X164534926Y-111752208D01*
X164569998Y-111755277D01*
X164570000Y-111755277D01*
X164570002Y-111755277D01*
X164598254Y-111752805D01*
X164787977Y-111736207D01*
X164999330Y-111679575D01*
X165197639Y-111587102D01*
X165376877Y-111461598D01*
X165531598Y-111306877D01*
X165657102Y-111127639D01*
X165749575Y-110929330D01*
X165806207Y-110717977D01*
X165825277Y-110500000D01*
X165806207Y-110282023D01*
X165771548Y-110152675D01*
X165749577Y-110070677D01*
X165749576Y-110070676D01*
X165749575Y-110070670D01*
X165657102Y-109872362D01*
X165657100Y-109872359D01*
X165657099Y-109872357D01*
X165531599Y-109693124D01*
X165464511Y-109626036D01*
X165376877Y-109538402D01*
X165197642Y-109412900D01*
X165197638Y-109412897D01*
X165080905Y-109358464D01*
X164999330Y-109320425D01*
X164999326Y-109320424D01*
X164999322Y-109320422D01*
X164787977Y-109263793D01*
X164630308Y-109249999D01*
X192044357Y-109249999D01*
X192044357Y-109250000D01*
X192064884Y-109471535D01*
X192064885Y-109471537D01*
X192125769Y-109685523D01*
X192125775Y-109685538D01*
X192224938Y-109884683D01*
X192224943Y-109884691D01*
X192359020Y-110062238D01*
X192523437Y-110212123D01*
X192523439Y-110212125D01*
X192712595Y-110329245D01*
X192712596Y-110329245D01*
X192712599Y-110329247D01*
X192920060Y-110409618D01*
X193138757Y-110450500D01*
X193138759Y-110450500D01*
X193361241Y-110450500D01*
X193361243Y-110450500D01*
X193579940Y-110409618D01*
X193787401Y-110329247D01*
X193976562Y-110212124D01*
X194140981Y-110062236D01*
X194275058Y-109884689D01*
X194374229Y-109685528D01*
X194435115Y-109471536D01*
X194455643Y-109250000D01*
X194435115Y-109028464D01*
X194374229Y-108814472D01*
X194374224Y-108814461D01*
X194275061Y-108615316D01*
X194275056Y-108615308D01*
X194140979Y-108437761D01*
X193976562Y-108287876D01*
X193976560Y-108287874D01*
X193787404Y-108170754D01*
X193787398Y-108170752D01*
X193579940Y-108090382D01*
X193361243Y-108049500D01*
X193138757Y-108049500D01*
X192920060Y-108090382D01*
X192788864Y-108141207D01*
X192712601Y-108170752D01*
X192712595Y-108170754D01*
X192523439Y-108287874D01*
X192523437Y-108287876D01*
X192359020Y-108437761D01*
X192224943Y-108615308D01*
X192224938Y-108615316D01*
X192125775Y-108814461D01*
X192125769Y-108814476D01*
X192064885Y-109028462D01*
X192064884Y-109028464D01*
X192044357Y-109249999D01*
X164630308Y-109249999D01*
X164570002Y-109244723D01*
X164569998Y-109244723D01*
X164424682Y-109257436D01*
X164352023Y-109263793D01*
X164352020Y-109263793D01*
X164140677Y-109320422D01*
X164140668Y-109320426D01*
X163942361Y-109412898D01*
X163942357Y-109412900D01*
X163763121Y-109538402D01*
X163608402Y-109693121D01*
X163482900Y-109872357D01*
X163482898Y-109872361D01*
X163412382Y-110023583D01*
X163366209Y-110076022D01*
X163299016Y-110095174D01*
X163232135Y-110074958D01*
X163187618Y-110023583D01*
X163122847Y-109884683D01*
X163117102Y-109872362D01*
X163117100Y-109872359D01*
X163117099Y-109872357D01*
X162991599Y-109693124D01*
X162924511Y-109626036D01*
X162836877Y-109538402D01*
X162657642Y-109412900D01*
X162657638Y-109412897D01*
X162540905Y-109358464D01*
X162459330Y-109320425D01*
X162459326Y-109320424D01*
X162459322Y-109320422D01*
X162247977Y-109263793D01*
X162030002Y-109244723D01*
X162029998Y-109244723D01*
X161884682Y-109257436D01*
X161812023Y-109263793D01*
X161812020Y-109263793D01*
X161600677Y-109320422D01*
X161600668Y-109320426D01*
X161402361Y-109412898D01*
X161402357Y-109412900D01*
X161223121Y-109538402D01*
X161068402Y-109693121D01*
X160942900Y-109872357D01*
X160942898Y-109872361D01*
X160872382Y-110023583D01*
X160826209Y-110076022D01*
X160759016Y-110095174D01*
X160692135Y-110074958D01*
X160647618Y-110023583D01*
X160582847Y-109884683D01*
X160577102Y-109872362D01*
X160577100Y-109872359D01*
X160577099Y-109872357D01*
X160451599Y-109693124D01*
X160384511Y-109626036D01*
X160296877Y-109538402D01*
X160117639Y-109412898D01*
X160062093Y-109386996D01*
X160009655Y-109340824D01*
X159990500Y-109274615D01*
X159990500Y-107524500D01*
X160010185Y-107457461D01*
X160062989Y-107411706D01*
X160114500Y-107400500D01*
X160205890Y-107400500D01*
X160205892Y-107400500D01*
X160333186Y-107366392D01*
X160447314Y-107300500D01*
X162315091Y-105432721D01*
X162376412Y-105399238D01*
X162446103Y-105404222D01*
X162447556Y-105404774D01*
X162460060Y-105409618D01*
X162678757Y-105450500D01*
X162678759Y-105450500D01*
X162901241Y-105450500D01*
X162901243Y-105450500D01*
X163119940Y-105409618D01*
X163327401Y-105329247D01*
X163516562Y-105212124D01*
X163680981Y-105062236D01*
X163815058Y-104884689D01*
X163914229Y-104685528D01*
X163975115Y-104471536D01*
X163995643Y-104250000D01*
X163975115Y-104028464D01*
X163914229Y-103814472D01*
X163909496Y-103804966D01*
X163815061Y-103615316D01*
X163815056Y-103615308D01*
X163680979Y-103437761D01*
X163516562Y-103287876D01*
X163516560Y-103287874D01*
X163327404Y-103170754D01*
X163327398Y-103170752D01*
X163119940Y-103090382D01*
X162901243Y-103049500D01*
X162678757Y-103049500D01*
X162460060Y-103090382D01*
X162383948Y-103119868D01*
X162252601Y-103170752D01*
X162252595Y-103170754D01*
X162063439Y-103287874D01*
X162063437Y-103287876D01*
X161899020Y-103437761D01*
X161764943Y-103615308D01*
X161764938Y-103615316D01*
X161665775Y-103814461D01*
X161665769Y-103814476D01*
X161604885Y-104028462D01*
X161604884Y-104028464D01*
X161584357Y-104249999D01*
X161584357Y-104250000D01*
X161604884Y-104471535D01*
X161604885Y-104471538D01*
X161641595Y-104600559D01*
X161641008Y-104670426D01*
X161610010Y-104722174D01*
X159969005Y-106363181D01*
X159907682Y-106396666D01*
X159881324Y-106399500D01*
X147921334Y-106399500D01*
X147854295Y-106379815D01*
X147808540Y-106327011D01*
X147798596Y-106257853D01*
X147808953Y-106223093D01*
X147813430Y-106213492D01*
X147813432Y-106213486D01*
X147870636Y-106000000D01*
X146973012Y-106000000D01*
X147005925Y-105942993D01*
X147040000Y-105815826D01*
X147040000Y-105684174D01*
X147005925Y-105557007D01*
X146973012Y-105500000D01*
X147870636Y-105500000D01*
X147870635Y-105499999D01*
X147813432Y-105286513D01*
X147813429Y-105286507D01*
X147713600Y-105072422D01*
X147713599Y-105072420D01*
X147578113Y-104878926D01*
X147578108Y-104878920D01*
X147411082Y-104711894D01*
X147217578Y-104576399D01*
X147003492Y-104476570D01*
X147003486Y-104476567D01*
X146790000Y-104419364D01*
X146790000Y-105316988D01*
X146732993Y-105284075D01*
X146605826Y-105250000D01*
X146474174Y-105250000D01*
X146347007Y-105284075D01*
X146290000Y-105316988D01*
X146290000Y-104419364D01*
X146289999Y-104419364D01*
X146076513Y-104476567D01*
X146076507Y-104476570D01*
X145862422Y-104576399D01*
X145862420Y-104576400D01*
X145668926Y-104711886D01*
X145668920Y-104711891D01*
X145501891Y-104878920D01*
X145501886Y-104878926D01*
X145366400Y-105072420D01*
X145366399Y-105072422D01*
X145327489Y-105155866D01*
X145281317Y-105208305D01*
X145214123Y-105227457D01*
X145147242Y-105207241D01*
X145102725Y-105155866D01*
X145087102Y-105122362D01*
X145087100Y-105122359D01*
X145087099Y-105122357D01*
X144961599Y-104943124D01*
X144886950Y-104868475D01*
X144806877Y-104788402D01*
X144627639Y-104662898D01*
X144572093Y-104636996D01*
X144519655Y-104590824D01*
X144500500Y-104524615D01*
X144500500Y-104249997D01*
X156485034Y-104249997D01*
X156485034Y-104250002D01*
X156504858Y-104476599D01*
X156504860Y-104476610D01*
X156563730Y-104696317D01*
X156563735Y-104696331D01*
X156659863Y-104902478D01*
X156710974Y-104975472D01*
X157390000Y-104296446D01*
X157390000Y-104302661D01*
X157417259Y-104404394D01*
X157469920Y-104495606D01*
X157544394Y-104570080D01*
X157635606Y-104622741D01*
X157737339Y-104650000D01*
X157743553Y-104650000D01*
X157064526Y-105329025D01*
X157137513Y-105380132D01*
X157137521Y-105380136D01*
X157343668Y-105476264D01*
X157343682Y-105476269D01*
X157563389Y-105535139D01*
X157563400Y-105535141D01*
X157789998Y-105554966D01*
X157790002Y-105554966D01*
X158016599Y-105535141D01*
X158016610Y-105535139D01*
X158236317Y-105476269D01*
X158236331Y-105476264D01*
X158442478Y-105380136D01*
X158515471Y-105329024D01*
X157836447Y-104650000D01*
X157842661Y-104650000D01*
X157944394Y-104622741D01*
X158035606Y-104570080D01*
X158110080Y-104495606D01*
X158162741Y-104404394D01*
X158190000Y-104302661D01*
X158190000Y-104296447D01*
X158869024Y-104975471D01*
X158920136Y-104902478D01*
X159016264Y-104696331D01*
X159016269Y-104696317D01*
X159075139Y-104476610D01*
X159075141Y-104476599D01*
X159094966Y-104250002D01*
X159094966Y-104249997D01*
X159075141Y-104023400D01*
X159075139Y-104023389D01*
X159016269Y-103803682D01*
X159016264Y-103803668D01*
X158920136Y-103597521D01*
X158920132Y-103597513D01*
X158869025Y-103524526D01*
X158190000Y-104203551D01*
X158190000Y-104197339D01*
X158162741Y-104095606D01*
X158110080Y-104004394D01*
X158035606Y-103929920D01*
X157944394Y-103877259D01*
X157842661Y-103850000D01*
X157836445Y-103850000D01*
X158515472Y-103170974D01*
X158442478Y-103119863D01*
X158236331Y-103023735D01*
X158236317Y-103023730D01*
X158016610Y-102964860D01*
X158016599Y-102964858D01*
X157790002Y-102945034D01*
X157789998Y-102945034D01*
X157563400Y-102964858D01*
X157563389Y-102964860D01*
X157343682Y-103023730D01*
X157343673Y-103023734D01*
X157137516Y-103119866D01*
X157137512Y-103119868D01*
X157064526Y-103170973D01*
X157064526Y-103170974D01*
X157743553Y-103850000D01*
X157737339Y-103850000D01*
X157635606Y-103877259D01*
X157544394Y-103929920D01*
X157469920Y-104004394D01*
X157417259Y-104095606D01*
X157390000Y-104197339D01*
X157390000Y-104203552D01*
X156710974Y-103524526D01*
X156710973Y-103524526D01*
X156659868Y-103597512D01*
X156659866Y-103597516D01*
X156563734Y-103803673D01*
X156563730Y-103803682D01*
X156504860Y-104023389D01*
X156504858Y-104023400D01*
X156485034Y-104249997D01*
X144500500Y-104249997D01*
X144500500Y-102499997D01*
X169695034Y-102499997D01*
X169695034Y-102500002D01*
X169714858Y-102726599D01*
X169714860Y-102726610D01*
X169773730Y-102946317D01*
X169773735Y-102946331D01*
X169869863Y-103152478D01*
X169920974Y-103225472D01*
X170600000Y-102546446D01*
X170600000Y-102552661D01*
X170627259Y-102654394D01*
X170679920Y-102745606D01*
X170754394Y-102820080D01*
X170845606Y-102872741D01*
X170947339Y-102900000D01*
X170953553Y-102900000D01*
X170274526Y-103579025D01*
X170347513Y-103630132D01*
X170347521Y-103630136D01*
X170553668Y-103726264D01*
X170553682Y-103726269D01*
X170773389Y-103785139D01*
X170773400Y-103785141D01*
X170999998Y-103804966D01*
X171000002Y-103804966D01*
X171226599Y-103785141D01*
X171226610Y-103785139D01*
X171446317Y-103726269D01*
X171446331Y-103726264D01*
X171652478Y-103630136D01*
X171725471Y-103579024D01*
X171046447Y-102900000D01*
X171052661Y-102900000D01*
X171154394Y-102872741D01*
X171245606Y-102820080D01*
X171320080Y-102745606D01*
X171372741Y-102654394D01*
X171400000Y-102552661D01*
X171400000Y-102546447D01*
X172079024Y-103225471D01*
X172130136Y-103152478D01*
X172226264Y-102946331D01*
X172226269Y-102946317D01*
X172285139Y-102726610D01*
X172285141Y-102726599D01*
X172304966Y-102500002D01*
X172304966Y-102499997D01*
X172285141Y-102273400D01*
X172285139Y-102273389D01*
X172226269Y-102053682D01*
X172226264Y-102053668D01*
X172130136Y-101847521D01*
X172130132Y-101847513D01*
X172079025Y-101774526D01*
X171400000Y-102453551D01*
X171400000Y-102447339D01*
X171372741Y-102345606D01*
X171320080Y-102254394D01*
X171245606Y-102179920D01*
X171154394Y-102127259D01*
X171052661Y-102100000D01*
X171046445Y-102100000D01*
X171725472Y-101420974D01*
X171652478Y-101369863D01*
X171446331Y-101273735D01*
X171446317Y-101273730D01*
X171226610Y-101214860D01*
X171226599Y-101214858D01*
X171000002Y-101195034D01*
X170999998Y-101195034D01*
X170773400Y-101214858D01*
X170773389Y-101214860D01*
X170553682Y-101273730D01*
X170553673Y-101273734D01*
X170347516Y-101369866D01*
X170347512Y-101369868D01*
X170274526Y-101420973D01*
X170274526Y-101420974D01*
X170953553Y-102100000D01*
X170947339Y-102100000D01*
X170845606Y-102127259D01*
X170754394Y-102179920D01*
X170679920Y-102254394D01*
X170627259Y-102345606D01*
X170600000Y-102447339D01*
X170600000Y-102453552D01*
X169920974Y-101774526D01*
X169920973Y-101774526D01*
X169869868Y-101847512D01*
X169869866Y-101847516D01*
X169773734Y-102053673D01*
X169773730Y-102053682D01*
X169714860Y-102273389D01*
X169714858Y-102273400D01*
X169695034Y-102499997D01*
X144500500Y-102499997D01*
X144500500Y-95258675D01*
X144520185Y-95191636D01*
X144536814Y-95170999D01*
X145207814Y-94499999D01*
X149644357Y-94499999D01*
X149644357Y-94500000D01*
X149664884Y-94721535D01*
X149664885Y-94721537D01*
X149725769Y-94935523D01*
X149725775Y-94935538D01*
X149824938Y-95134683D01*
X149824943Y-95134691D01*
X149959020Y-95312238D01*
X150123437Y-95462123D01*
X150123439Y-95462125D01*
X150312595Y-95579245D01*
X150312596Y-95579245D01*
X150312599Y-95579247D01*
X150520060Y-95659618D01*
X150738757Y-95700500D01*
X150738759Y-95700500D01*
X150961241Y-95700500D01*
X150961243Y-95700500D01*
X151179940Y-95659618D01*
X151387401Y-95579247D01*
X151576562Y-95462124D01*
X151740981Y-95312236D01*
X151875058Y-95134689D01*
X151974229Y-94935528D01*
X152035115Y-94721536D01*
X152055643Y-94500000D01*
X152050974Y-94449618D01*
X152035115Y-94278464D01*
X152035114Y-94278462D01*
X152027620Y-94252124D01*
X151974229Y-94064472D01*
X151966774Y-94049500D01*
X151875061Y-93865316D01*
X151875056Y-93865308D01*
X151740979Y-93687761D01*
X151576562Y-93537876D01*
X151576560Y-93537874D01*
X151387404Y-93420754D01*
X151387398Y-93420752D01*
X151179940Y-93340382D01*
X150961243Y-93299500D01*
X150738757Y-93299500D01*
X150520060Y-93340382D01*
X150388864Y-93391207D01*
X150312601Y-93420752D01*
X150312595Y-93420754D01*
X150123439Y-93537874D01*
X150123437Y-93537876D01*
X149959020Y-93687761D01*
X149824943Y-93865308D01*
X149824938Y-93865316D01*
X149725775Y-94064461D01*
X149725769Y-94064476D01*
X149664885Y-94278462D01*
X149664884Y-94278464D01*
X149644357Y-94499999D01*
X145207814Y-94499999D01*
X148290152Y-91417660D01*
X148348156Y-91384946D01*
X148450225Y-91359790D01*
X148600852Y-91280734D01*
X148728183Y-91167929D01*
X148824818Y-91027930D01*
X148885140Y-90868872D01*
X148905645Y-90700000D01*
X148885140Y-90531128D01*
X148873524Y-90500500D01*
X148824817Y-90372068D01*
X148777613Y-90303682D01*
X148728183Y-90232071D01*
X148600852Y-90119266D01*
X148600849Y-90119263D01*
X148450226Y-90040210D01*
X148285056Y-89999500D01*
X148114944Y-89999500D01*
X147949773Y-90040210D01*
X147799150Y-90119263D01*
X147671816Y-90232072D01*
X147575182Y-90372068D01*
X147514860Y-90531125D01*
X147514859Y-90531130D01*
X147494355Y-90700000D01*
X147497670Y-90727302D01*
X147486209Y-90796225D01*
X147462255Y-90829929D01*
X143692686Y-94599500D01*
X143599502Y-94692683D01*
X143599500Y-94692686D01*
X143533608Y-94806812D01*
X143499500Y-94934108D01*
X143499500Y-104524615D01*
X143479815Y-104591654D01*
X143427906Y-104636997D01*
X143372359Y-104662899D01*
X143193121Y-104788402D01*
X143038402Y-104943121D01*
X142936074Y-105089262D01*
X142881497Y-105132887D01*
X142811999Y-105140081D01*
X142749644Y-105108558D01*
X142714230Y-105048328D01*
X142710499Y-105018139D01*
X142710499Y-104868482D01*
X142710498Y-104868475D01*
X142695646Y-104774696D01*
X142638050Y-104661658D01*
X142638046Y-104661654D01*
X142638045Y-104661652D01*
X142548347Y-104571954D01*
X142548344Y-104571952D01*
X142548342Y-104571950D01*
X142471517Y-104532805D01*
X142435301Y-104514352D01*
X142341524Y-104499500D01*
X140578482Y-104499500D01*
X140497519Y-104512323D01*
X140484696Y-104514354D01*
X140371658Y-104571950D01*
X140371657Y-104571951D01*
X140371652Y-104571954D01*
X140281954Y-104661652D01*
X140281951Y-104661657D01*
X140281950Y-104661658D01*
X140264290Y-104696317D01*
X140224352Y-104774698D01*
X140209500Y-104868475D01*
X140209500Y-105125500D01*
X140189815Y-105192539D01*
X140137011Y-105238294D01*
X140085500Y-105249500D01*
X136588676Y-105249500D01*
X136521637Y-105229815D01*
X136500995Y-105213181D01*
X131179989Y-99892175D01*
X131146504Y-99830852D01*
X131148404Y-99770559D01*
X131161456Y-99724689D01*
X131185115Y-99641536D01*
X131205643Y-99420000D01*
X131185115Y-99198464D01*
X131148403Y-99069435D01*
X131148989Y-98999573D01*
X131179986Y-98947826D01*
X135090995Y-95036819D01*
X135152318Y-95003334D01*
X135178676Y-95000500D01*
X136981346Y-95000500D01*
X137048385Y-95020185D01*
X137092346Y-95069229D01*
X137124936Y-95134679D01*
X137124943Y-95134691D01*
X137259020Y-95312238D01*
X137423437Y-95462123D01*
X137423439Y-95462125D01*
X137612595Y-95579245D01*
X137612596Y-95579245D01*
X137612599Y-95579247D01*
X137820060Y-95659618D01*
X138038757Y-95700500D01*
X138038759Y-95700500D01*
X138261241Y-95700500D01*
X138261243Y-95700500D01*
X138479940Y-95659618D01*
X138687401Y-95579247D01*
X138876562Y-95462124D01*
X139040981Y-95312236D01*
X139175058Y-95134689D01*
X139274229Y-94935528D01*
X139335115Y-94721536D01*
X139355643Y-94500000D01*
X139350974Y-94449618D01*
X139335115Y-94278464D01*
X139335114Y-94278462D01*
X139327620Y-94252124D01*
X139274229Y-94064472D01*
X139266774Y-94049500D01*
X139175061Y-93865316D01*
X139175056Y-93865308D01*
X139040979Y-93687761D01*
X138876562Y-93537876D01*
X138876560Y-93537874D01*
X138687404Y-93420754D01*
X138687398Y-93420752D01*
X138479940Y-93340382D01*
X138261243Y-93299500D01*
X138038757Y-93299500D01*
X137820060Y-93340382D01*
X137688864Y-93391207D01*
X137612601Y-93420752D01*
X137612595Y-93420754D01*
X137423439Y-93537874D01*
X137423437Y-93537876D01*
X137259020Y-93687761D01*
X137124943Y-93865308D01*
X137124936Y-93865320D01*
X137092346Y-93930771D01*
X137044843Y-93982009D01*
X136981346Y-93999500D01*
X134854108Y-93999500D01*
X134726812Y-94033608D01*
X134612686Y-94099500D01*
X134612683Y-94099502D01*
X130474908Y-98237276D01*
X130413585Y-98270761D01*
X130343893Y-98265777D01*
X130342432Y-98265221D01*
X130329945Y-98260383D01*
X130329940Y-98260382D01*
X130111243Y-98219500D01*
X129888757Y-98219500D01*
X129670060Y-98260382D01*
X129538864Y-98311207D01*
X129462601Y-98340752D01*
X129462595Y-98340754D01*
X129273439Y-98457874D01*
X129273437Y-98457876D01*
X129109020Y-98607761D01*
X128974943Y-98785308D01*
X128974938Y-98785316D01*
X128875775Y-98984461D01*
X128875769Y-98984476D01*
X128814885Y-99198462D01*
X128814884Y-99198464D01*
X128794357Y-99419999D01*
X96000500Y-99419999D01*
X96000500Y-95249999D01*
X116294357Y-95249999D01*
X116294357Y-95250000D01*
X116314884Y-95471535D01*
X116314885Y-95471537D01*
X116375769Y-95685523D01*
X116375775Y-95685538D01*
X116474938Y-95884683D01*
X116474943Y-95884691D01*
X116609020Y-96062238D01*
X116773437Y-96212123D01*
X116773439Y-96212125D01*
X116962595Y-96329245D01*
X116962596Y-96329245D01*
X116962599Y-96329247D01*
X117170060Y-96409618D01*
X117388757Y-96450500D01*
X117388759Y-96450500D01*
X117611241Y-96450500D01*
X117611243Y-96450500D01*
X117829940Y-96409618D01*
X118037401Y-96329247D01*
X118226562Y-96212124D01*
X118390981Y-96062236D01*
X118525058Y-95884689D01*
X118624229Y-95685528D01*
X118685115Y-95471536D01*
X118705643Y-95250000D01*
X118694957Y-95134683D01*
X118685115Y-95028464D01*
X118685114Y-95028462D01*
X118677964Y-95003334D01*
X118624229Y-94814472D01*
X118611387Y-94788681D01*
X118525061Y-94615316D01*
X118525056Y-94615308D01*
X118390979Y-94437761D01*
X118226562Y-94287876D01*
X118226560Y-94287874D01*
X118037404Y-94170754D01*
X118037398Y-94170752D01*
X117829940Y-94090382D01*
X117611243Y-94049500D01*
X117388757Y-94049500D01*
X117170060Y-94090382D01*
X117038864Y-94141207D01*
X116962601Y-94170752D01*
X116962595Y-94170754D01*
X116773439Y-94287874D01*
X116773437Y-94287876D01*
X116609020Y-94437761D01*
X116474943Y-94615308D01*
X116474938Y-94615316D01*
X116375775Y-94814461D01*
X116375769Y-94814476D01*
X116314885Y-95028462D01*
X116314884Y-95028464D01*
X116294357Y-95249999D01*
X96000500Y-95249999D01*
X96000500Y-90249997D01*
X116195034Y-90249997D01*
X116195034Y-90250002D01*
X116214858Y-90476599D01*
X116214860Y-90476610D01*
X116273730Y-90696317D01*
X116273735Y-90696331D01*
X116369863Y-90902478D01*
X116420974Y-90975472D01*
X117100000Y-90296446D01*
X117100000Y-90302661D01*
X117127259Y-90404394D01*
X117179920Y-90495606D01*
X117254394Y-90570080D01*
X117345606Y-90622741D01*
X117447339Y-90650000D01*
X117453553Y-90650000D01*
X116774526Y-91329025D01*
X116847513Y-91380132D01*
X116847521Y-91380136D01*
X117053668Y-91476264D01*
X117053682Y-91476269D01*
X117273389Y-91535139D01*
X117273400Y-91535141D01*
X117499998Y-91554966D01*
X117500002Y-91554966D01*
X117726599Y-91535141D01*
X117726610Y-91535139D01*
X117946317Y-91476269D01*
X117946331Y-91476264D01*
X118152478Y-91380136D01*
X118225471Y-91329024D01*
X117546447Y-90650000D01*
X117552661Y-90650000D01*
X117654394Y-90622741D01*
X117745606Y-90570080D01*
X117820080Y-90495606D01*
X117872741Y-90404394D01*
X117900000Y-90302661D01*
X117900000Y-90296447D01*
X118579024Y-90975471D01*
X118630136Y-90902478D01*
X118726264Y-90696331D01*
X118726269Y-90696317D01*
X118778872Y-90499999D01*
X122351127Y-90499999D01*
X122351128Y-90500000D01*
X123314314Y-90500000D01*
X123309920Y-90504394D01*
X123257259Y-90595606D01*
X123230000Y-90697339D01*
X123230000Y-90802661D01*
X123257259Y-90904394D01*
X123309920Y-90995606D01*
X123314314Y-91000000D01*
X122351128Y-91000000D01*
X122403730Y-91196317D01*
X122403734Y-91196326D01*
X122499865Y-91402482D01*
X122630342Y-91588820D01*
X122791179Y-91749657D01*
X122977517Y-91880133D01*
X123153387Y-91962143D01*
X123205826Y-92008315D01*
X123224978Y-92075509D01*
X123204762Y-92142390D01*
X123151597Y-92187724D01*
X123145776Y-92190152D01*
X123092601Y-92210751D01*
X123092595Y-92210754D01*
X122903439Y-92327874D01*
X122903437Y-92327876D01*
X122739020Y-92477761D01*
X122604943Y-92655308D01*
X122604938Y-92655316D01*
X122505775Y-92854461D01*
X122505769Y-92854476D01*
X122444885Y-93068462D01*
X122444884Y-93068464D01*
X122424357Y-93289999D01*
X122424357Y-93290000D01*
X122444884Y-93511535D01*
X122444885Y-93511537D01*
X122505769Y-93725523D01*
X122505775Y-93725538D01*
X122604938Y-93924683D01*
X122604943Y-93924691D01*
X122739020Y-94102238D01*
X122903437Y-94252123D01*
X122903439Y-94252125D01*
X123092595Y-94369245D01*
X123092596Y-94369245D01*
X123092599Y-94369247D01*
X123300060Y-94449618D01*
X123518757Y-94490500D01*
X123518759Y-94490500D01*
X123741241Y-94490500D01*
X123741243Y-94490500D01*
X123959940Y-94449618D01*
X124167401Y-94369247D01*
X124356562Y-94252124D01*
X124520981Y-94102236D01*
X124655058Y-93924689D01*
X124754229Y-93725528D01*
X124815115Y-93511536D01*
X124835643Y-93290000D01*
X124815115Y-93068464D01*
X124754229Y-92854472D01*
X124754224Y-92854461D01*
X124655061Y-92655316D01*
X124655056Y-92655308D01*
X124520979Y-92477761D01*
X124356562Y-92327876D01*
X124356560Y-92327874D01*
X124167404Y-92210754D01*
X124167395Y-92210750D01*
X124114224Y-92190152D01*
X124058822Y-92147579D01*
X124035231Y-92081813D01*
X124050942Y-92013732D01*
X124100966Y-91964953D01*
X124106613Y-91962143D01*
X124282479Y-91880135D01*
X124282481Y-91880134D01*
X124468820Y-91749657D01*
X124629657Y-91588820D01*
X124760134Y-91402482D01*
X124856265Y-91196326D01*
X124856269Y-91196317D01*
X124908872Y-91000000D01*
X123945686Y-91000000D01*
X123950080Y-90995606D01*
X124002741Y-90904394D01*
X124030000Y-90802661D01*
X124030000Y-90697339D01*
X124002741Y-90595606D01*
X123950080Y-90504394D01*
X123945686Y-90500000D01*
X124908872Y-90500000D01*
X124908872Y-90499999D01*
X124856269Y-90303682D01*
X124856265Y-90303673D01*
X124760134Y-90097517D01*
X124629657Y-89911179D01*
X124468820Y-89750342D01*
X124282482Y-89619865D01*
X124106612Y-89537856D01*
X124054173Y-89491684D01*
X124035021Y-89424490D01*
X124055237Y-89357609D01*
X124108402Y-89312274D01*
X124114206Y-89309854D01*
X124141440Y-89299304D01*
X124167392Y-89289251D01*
X124167396Y-89289248D01*
X124167401Y-89289247D01*
X124356562Y-89172124D01*
X124520981Y-89022236D01*
X124655058Y-88844689D01*
X124754229Y-88645528D01*
X124815115Y-88431536D01*
X124835643Y-88210000D01*
X124815115Y-87988464D01*
X124754229Y-87774472D01*
X124730227Y-87726269D01*
X124655061Y-87575316D01*
X124655056Y-87575308D01*
X124520979Y-87397761D01*
X124356562Y-87247876D01*
X124356560Y-87247874D01*
X124167404Y-87130754D01*
X124167395Y-87130750D01*
X124114157Y-87110126D01*
X124058755Y-87067553D01*
X124035164Y-87001786D01*
X124050875Y-86933706D01*
X124100899Y-86884927D01*
X124158949Y-86870499D01*
X124461518Y-86870499D01*
X124555304Y-86855646D01*
X124668342Y-86798050D01*
X124758050Y-86708342D01*
X124815646Y-86595304D01*
X124815646Y-86595302D01*
X124815647Y-86595301D01*
X124826282Y-86528147D01*
X124830500Y-86501519D01*
X124830499Y-85419999D01*
X129971127Y-85419999D01*
X129971128Y-85420000D01*
X130934314Y-85420000D01*
X130929920Y-85424394D01*
X130877259Y-85515606D01*
X130850000Y-85617339D01*
X130850000Y-85722661D01*
X130877259Y-85824394D01*
X130929920Y-85915606D01*
X130934314Y-85920000D01*
X129971128Y-85920000D01*
X130023730Y-86116317D01*
X130023734Y-86116326D01*
X130119865Y-86322482D01*
X130250342Y-86508820D01*
X130411179Y-86669657D01*
X130597517Y-86800133D01*
X130773387Y-86882143D01*
X130825826Y-86928315D01*
X130844978Y-86995509D01*
X130824762Y-87062390D01*
X130771597Y-87107724D01*
X130765776Y-87110152D01*
X130712601Y-87130751D01*
X130712595Y-87130754D01*
X130523439Y-87247874D01*
X130523437Y-87247876D01*
X130359020Y-87397761D01*
X130224943Y-87575308D01*
X130224938Y-87575316D01*
X130125775Y-87774461D01*
X130125769Y-87774476D01*
X130064885Y-87988462D01*
X130064884Y-87988464D01*
X130044357Y-88209999D01*
X130044357Y-88210000D01*
X130064884Y-88431535D01*
X130064885Y-88431537D01*
X130125769Y-88645523D01*
X130125775Y-88645538D01*
X130224938Y-88844683D01*
X130224943Y-88844691D01*
X130359020Y-89022238D01*
X130466116Y-89119868D01*
X130522175Y-89170973D01*
X130523437Y-89172123D01*
X130523439Y-89172125D01*
X130712595Y-89289245D01*
X130712596Y-89289245D01*
X130712599Y-89289247D01*
X130906524Y-89364374D01*
X130961924Y-89406946D01*
X130985515Y-89472713D01*
X130969804Y-89540793D01*
X130919780Y-89589572D01*
X130906533Y-89595622D01*
X130758488Y-89652975D01*
X130712601Y-89670752D01*
X130712595Y-89670754D01*
X130523439Y-89787874D01*
X130523437Y-89787876D01*
X130359020Y-89937761D01*
X130224943Y-90115308D01*
X130224938Y-90115316D01*
X130125775Y-90314461D01*
X130125769Y-90314476D01*
X130064885Y-90528462D01*
X130064884Y-90528464D01*
X130044357Y-90749999D01*
X130044357Y-90750000D01*
X130064884Y-90971535D01*
X130064885Y-90971537D01*
X130125769Y-91185523D01*
X130125775Y-91185538D01*
X130224938Y-91384683D01*
X130224943Y-91384691D01*
X130359020Y-91562238D01*
X130523437Y-91712123D01*
X130523439Y-91712125D01*
X130712595Y-91829245D01*
X130712596Y-91829245D01*
X130712599Y-91829247D01*
X130906524Y-91904374D01*
X130961924Y-91946946D01*
X130985515Y-92012713D01*
X130969804Y-92080793D01*
X130919780Y-92129572D01*
X130906533Y-92135622D01*
X130772044Y-92187724D01*
X130712601Y-92210752D01*
X130712595Y-92210754D01*
X130523439Y-92327874D01*
X130523437Y-92327876D01*
X130359020Y-92477761D01*
X130224943Y-92655308D01*
X130224938Y-92655316D01*
X130125775Y-92854461D01*
X130125769Y-92854476D01*
X130064885Y-93068462D01*
X130064884Y-93068464D01*
X130044357Y-93289999D01*
X130044357Y-93290000D01*
X130064884Y-93511535D01*
X130064885Y-93511537D01*
X130125769Y-93725523D01*
X130125775Y-93725538D01*
X130224938Y-93924683D01*
X130224943Y-93924691D01*
X130359020Y-94102238D01*
X130523437Y-94252123D01*
X130523439Y-94252125D01*
X130712595Y-94369245D01*
X130712596Y-94369245D01*
X130712599Y-94369247D01*
X130920060Y-94449618D01*
X131138757Y-94490500D01*
X131138759Y-94490500D01*
X131361241Y-94490500D01*
X131361243Y-94490500D01*
X131579940Y-94449618D01*
X131787401Y-94369247D01*
X131976562Y-94252124D01*
X132140981Y-94102236D01*
X132275058Y-93924689D01*
X132374229Y-93725528D01*
X132435115Y-93511536D01*
X132455643Y-93290000D01*
X132435115Y-93068464D01*
X132374229Y-92854472D01*
X132374224Y-92854461D01*
X132275061Y-92655316D01*
X132275056Y-92655308D01*
X132140979Y-92477761D01*
X131976562Y-92327876D01*
X131976560Y-92327874D01*
X131787404Y-92210754D01*
X131787395Y-92210750D01*
X131693956Y-92174552D01*
X131593475Y-92135625D01*
X131538075Y-92093054D01*
X131514484Y-92027288D01*
X131530195Y-91959207D01*
X131580219Y-91910428D01*
X131593466Y-91904377D01*
X131787401Y-91829247D01*
X131976562Y-91712124D01*
X132140981Y-91562236D01*
X132275058Y-91384689D01*
X132374229Y-91185528D01*
X132435115Y-90971536D01*
X132455643Y-90750000D01*
X132435115Y-90528464D01*
X132374229Y-90314472D01*
X132374224Y-90314461D01*
X132275061Y-90115316D01*
X132275056Y-90115308D01*
X132140979Y-89937761D01*
X131976562Y-89787876D01*
X131976560Y-89787874D01*
X131787404Y-89670754D01*
X131787395Y-89670750D01*
X131656044Y-89619865D01*
X131593475Y-89595625D01*
X131538075Y-89553054D01*
X131514484Y-89487288D01*
X131530195Y-89419207D01*
X131580219Y-89370428D01*
X131593466Y-89364377D01*
X131787401Y-89289247D01*
X131976562Y-89172124D01*
X132140981Y-89022236D01*
X132275058Y-88844689D01*
X132374229Y-88645528D01*
X132435115Y-88431536D01*
X132455643Y-88210000D01*
X132435115Y-87988464D01*
X132374229Y-87774472D01*
X132350227Y-87726269D01*
X132275061Y-87575316D01*
X132275056Y-87575308D01*
X132140979Y-87397761D01*
X131976562Y-87247876D01*
X131976560Y-87247874D01*
X131787404Y-87130754D01*
X131787395Y-87130750D01*
X131734224Y-87110152D01*
X131678822Y-87067579D01*
X131655231Y-87001813D01*
X131670942Y-86933732D01*
X131720966Y-86884953D01*
X131726613Y-86882143D01*
X131902479Y-86800135D01*
X131902481Y-86800134D01*
X132088820Y-86669657D01*
X132249657Y-86508820D01*
X132255835Y-86499997D01*
X139445034Y-86499997D01*
X139445034Y-86500002D01*
X139464858Y-86726599D01*
X139464860Y-86726610D01*
X139523730Y-86946317D01*
X139523735Y-86946331D01*
X139619863Y-87152478D01*
X139670974Y-87225472D01*
X140350000Y-86546446D01*
X140350000Y-86552661D01*
X140377259Y-86654394D01*
X140429920Y-86745606D01*
X140504394Y-86820080D01*
X140595606Y-86872741D01*
X140697339Y-86900000D01*
X140703553Y-86900000D01*
X140024526Y-87579025D01*
X140097513Y-87630132D01*
X140097521Y-87630136D01*
X140303668Y-87726264D01*
X140303682Y-87726269D01*
X140523389Y-87785139D01*
X140523400Y-87785141D01*
X140749998Y-87804966D01*
X140750002Y-87804966D01*
X140976599Y-87785141D01*
X140976610Y-87785139D01*
X141196317Y-87726269D01*
X141196331Y-87726264D01*
X141402478Y-87630136D01*
X141475471Y-87579024D01*
X140796447Y-86900000D01*
X140802661Y-86900000D01*
X140904394Y-86872741D01*
X140995606Y-86820080D01*
X141070080Y-86745606D01*
X141122741Y-86654394D01*
X141150000Y-86552661D01*
X141150000Y-86546447D01*
X141829024Y-87225471D01*
X141880136Y-87152478D01*
X141976264Y-86946331D01*
X141976269Y-86946317D01*
X142035139Y-86726610D01*
X142035141Y-86726599D01*
X142054966Y-86500002D01*
X142054966Y-86499997D01*
X142035141Y-86273400D01*
X142035139Y-86273389D01*
X141976269Y-86053682D01*
X141976264Y-86053668D01*
X141880136Y-85847521D01*
X141880132Y-85847513D01*
X141829025Y-85774526D01*
X141150000Y-86453551D01*
X141150000Y-86447339D01*
X141122741Y-86345606D01*
X141070080Y-86254394D01*
X140995606Y-86179920D01*
X140904394Y-86127259D01*
X140802661Y-86100000D01*
X140796445Y-86100000D01*
X141475472Y-85420974D01*
X141402478Y-85369863D01*
X141196331Y-85273735D01*
X141196317Y-85273730D01*
X140976610Y-85214860D01*
X140976599Y-85214858D01*
X140750002Y-85195034D01*
X140749998Y-85195034D01*
X140523400Y-85214858D01*
X140523389Y-85214860D01*
X140303682Y-85273730D01*
X140303673Y-85273734D01*
X140097516Y-85369866D01*
X140097512Y-85369868D01*
X140024526Y-85420973D01*
X140024526Y-85420974D01*
X140703553Y-86100000D01*
X140697339Y-86100000D01*
X140595606Y-86127259D01*
X140504394Y-86179920D01*
X140429920Y-86254394D01*
X140377259Y-86345606D01*
X140350000Y-86447339D01*
X140350000Y-86453552D01*
X139670974Y-85774526D01*
X139670973Y-85774526D01*
X139619868Y-85847512D01*
X139619866Y-85847516D01*
X139523734Y-86053673D01*
X139523730Y-86053682D01*
X139464860Y-86273389D01*
X139464858Y-86273400D01*
X139445034Y-86499997D01*
X132255835Y-86499997D01*
X132380134Y-86322482D01*
X132476265Y-86116326D01*
X132476269Y-86116317D01*
X132528872Y-85920000D01*
X131565686Y-85920000D01*
X131570080Y-85915606D01*
X131622741Y-85824394D01*
X131650000Y-85722661D01*
X131650000Y-85617339D01*
X131622741Y-85515606D01*
X131570080Y-85424394D01*
X131565686Y-85420000D01*
X132528872Y-85420000D01*
X132528872Y-85419999D01*
X132476269Y-85223682D01*
X132476265Y-85223673D01*
X132380134Y-85017517D01*
X132249657Y-84831179D01*
X132088820Y-84670342D01*
X131902482Y-84539865D01*
X131696328Y-84443734D01*
X131500000Y-84391127D01*
X131500000Y-85354314D01*
X131495606Y-85349920D01*
X131404394Y-85297259D01*
X131302661Y-85270000D01*
X131197339Y-85270000D01*
X131095606Y-85297259D01*
X131004394Y-85349920D01*
X131000000Y-85354314D01*
X131000000Y-84391127D01*
X130803671Y-84443734D01*
X130597517Y-84539865D01*
X130411179Y-84670342D01*
X130250342Y-84831179D01*
X130119865Y-85017517D01*
X130023734Y-85223673D01*
X130023730Y-85223682D01*
X129971127Y-85419999D01*
X124830499Y-85419999D01*
X124830499Y-84838482D01*
X124815646Y-84744696D01*
X124758050Y-84631658D01*
X124758046Y-84631654D01*
X124758045Y-84631652D01*
X124668347Y-84541954D01*
X124668344Y-84541952D01*
X124668342Y-84541950D01*
X124591517Y-84502805D01*
X124555301Y-84484352D01*
X124461524Y-84469500D01*
X124461519Y-84469500D01*
X124254500Y-84469500D01*
X124187461Y-84449815D01*
X124141706Y-84397011D01*
X124130500Y-84345500D01*
X124130500Y-82758675D01*
X124150185Y-82691636D01*
X124166819Y-82670994D01*
X126337813Y-80500000D01*
X138544355Y-80500000D01*
X138564859Y-80668869D01*
X138564860Y-80668874D01*
X138625182Y-80827931D01*
X138687475Y-80918177D01*
X138721817Y-80967929D01*
X138793782Y-81031684D01*
X138849150Y-81080736D01*
X138999773Y-81159789D01*
X138999775Y-81159790D01*
X139164944Y-81200500D01*
X139335056Y-81200500D01*
X139500225Y-81159790D01*
X139650852Y-81080734D01*
X139706218Y-81031683D01*
X139769451Y-81001963D01*
X139788445Y-81000500D01*
X141046959Y-81000500D01*
X141113998Y-81020185D01*
X141134640Y-81036819D01*
X145298573Y-85200752D01*
X145332058Y-85262075D01*
X145327074Y-85331767D01*
X145285202Y-85387700D01*
X145255688Y-85404059D01*
X145212604Y-85420750D01*
X145212595Y-85420754D01*
X145023439Y-85537874D01*
X145023437Y-85537876D01*
X144859020Y-85687761D01*
X144724943Y-85865308D01*
X144724938Y-85865316D01*
X144625775Y-86064461D01*
X144625769Y-86064476D01*
X144564885Y-86278462D01*
X144564884Y-86278464D01*
X144544357Y-86499999D01*
X144544357Y-86500000D01*
X144564884Y-86721535D01*
X144564885Y-86721537D01*
X144625769Y-86935523D01*
X144625775Y-86935538D01*
X144724938Y-87134683D01*
X144724943Y-87134691D01*
X144859020Y-87312238D01*
X145023437Y-87462123D01*
X145023439Y-87462125D01*
X145212595Y-87579245D01*
X145212596Y-87579245D01*
X145212599Y-87579247D01*
X145420060Y-87659618D01*
X145638757Y-87700500D01*
X145638759Y-87700500D01*
X145861241Y-87700500D01*
X145861243Y-87700500D01*
X146079940Y-87659618D01*
X146287401Y-87579247D01*
X146476562Y-87462124D01*
X146640981Y-87312236D01*
X146775058Y-87134689D01*
X146787289Y-87110126D01*
X146850305Y-86983574D01*
X146897808Y-86932337D01*
X146965471Y-86914916D01*
X147031811Y-86936842D01*
X147048986Y-86951165D01*
X157498321Y-97400500D01*
X157612449Y-97466392D01*
X157739743Y-97500500D01*
X157871528Y-97500500D01*
X159711555Y-97500500D01*
X159778594Y-97520185D01*
X159793779Y-97531682D01*
X159849148Y-97580734D01*
X159999775Y-97659790D01*
X160075368Y-97678421D01*
X160087240Y-97681348D01*
X160147620Y-97716504D01*
X160179409Y-97778723D01*
X160172513Y-97848252D01*
X160159615Y-97872185D01*
X160125183Y-97922068D01*
X160125182Y-97922068D01*
X160064860Y-98081125D01*
X160064859Y-98081130D01*
X160044355Y-98250000D01*
X160064859Y-98418869D01*
X160064860Y-98418874D01*
X160125182Y-98577931D01*
X160145773Y-98607761D01*
X160221817Y-98717929D01*
X160327505Y-98811560D01*
X160349150Y-98830736D01*
X160499773Y-98909789D01*
X160499775Y-98909790D01*
X160664944Y-98950500D01*
X160691324Y-98950500D01*
X160758363Y-98970185D01*
X160779005Y-98986819D01*
X160792686Y-99000500D01*
X160906814Y-99066392D01*
X161034108Y-99100500D01*
X161034110Y-99100500D01*
X185715890Y-99100500D01*
X185715892Y-99100500D01*
X185843186Y-99066392D01*
X185957314Y-99000500D01*
X186470995Y-98486819D01*
X186532318Y-98453334D01*
X186558676Y-98450500D01*
X186585056Y-98450500D01*
X186750225Y-98409790D01*
X186881765Y-98340752D01*
X186900849Y-98330736D01*
X186900850Y-98330734D01*
X186900852Y-98330734D01*
X187028183Y-98217929D01*
X187124818Y-98077930D01*
X187185140Y-97918872D01*
X187205645Y-97750000D01*
X187185140Y-97581128D01*
X187185138Y-97581124D01*
X187141627Y-97466392D01*
X187124818Y-97422070D01*
X187113650Y-97405891D01*
X187059837Y-97327930D01*
X187028183Y-97282071D01*
X186900852Y-97169266D01*
X186900849Y-97169263D01*
X186750226Y-97090210D01*
X186585056Y-97049500D01*
X186414944Y-97049500D01*
X186249773Y-97090210D01*
X186099150Y-97169263D01*
X186008495Y-97249577D01*
X185975889Y-97278464D01*
X185971816Y-97282072D01*
X185875182Y-97422068D01*
X185875182Y-97422069D01*
X185814860Y-97581124D01*
X185814859Y-97581129D01*
X185799811Y-97705055D01*
X185772188Y-97769233D01*
X185764396Y-97777788D01*
X185479003Y-98063182D01*
X185417683Y-98096666D01*
X185391324Y-98099500D01*
X172241723Y-98099500D01*
X172174684Y-98079815D01*
X172128929Y-98027011D01*
X172118985Y-97957853D01*
X172123338Y-97941235D01*
X172122660Y-97941042D01*
X172137803Y-97887819D01*
X172185115Y-97721536D01*
X172205643Y-97500000D01*
X172185115Y-97278464D01*
X172124229Y-97064472D01*
X172107860Y-97031598D01*
X172025061Y-96865316D01*
X172025056Y-96865308D01*
X171890979Y-96687761D01*
X171726562Y-96537876D01*
X171726560Y-96537874D01*
X171537404Y-96420754D01*
X171537398Y-96420752D01*
X171329940Y-96340382D01*
X171111243Y-96299500D01*
X170888757Y-96299500D01*
X170670060Y-96340382D01*
X170538864Y-96391207D01*
X170462601Y-96420752D01*
X170462595Y-96420754D01*
X170273439Y-96537874D01*
X170273437Y-96537876D01*
X170109020Y-96687761D01*
X169974943Y-96865308D01*
X169974936Y-96865320D01*
X169942346Y-96930771D01*
X169894843Y-96982009D01*
X169831346Y-96999500D01*
X165333676Y-96999500D01*
X165266637Y-96979815D01*
X165245995Y-96963181D01*
X165060602Y-96777788D01*
X165027117Y-96716465D01*
X165025187Y-96705053D01*
X165023088Y-96687764D01*
X165010140Y-96581128D01*
X164949818Y-96422070D01*
X164948908Y-96420752D01*
X164893432Y-96340382D01*
X164853183Y-96282071D01*
X164725852Y-96169266D01*
X164725849Y-96169263D01*
X164575226Y-96090210D01*
X164410056Y-96049500D01*
X164239944Y-96049500D01*
X164074773Y-96090210D01*
X163924150Y-96169263D01*
X163796816Y-96282072D01*
X163700182Y-96422068D01*
X163639860Y-96581125D01*
X163639859Y-96581130D01*
X163619355Y-96750000D01*
X163639859Y-96918869D01*
X163639860Y-96918874D01*
X163700182Y-97077931D01*
X163748798Y-97148362D01*
X163796817Y-97217929D01*
X163869219Y-97282071D01*
X163924150Y-97330736D01*
X164067344Y-97405890D01*
X164074775Y-97409790D01*
X164239944Y-97450500D01*
X164266324Y-97450500D01*
X164333363Y-97470185D01*
X164354005Y-97486819D01*
X164755005Y-97887819D01*
X164788490Y-97949142D01*
X164783506Y-98018834D01*
X164741634Y-98074767D01*
X164676170Y-98099184D01*
X164667324Y-98099500D01*
X161527699Y-98099500D01*
X161460660Y-98079815D01*
X161414905Y-98027011D01*
X161411757Y-98019471D01*
X161390875Y-97964409D01*
X161374818Y-97922070D01*
X161372608Y-97918869D01*
X161323865Y-97848252D01*
X161278183Y-97782071D01*
X161150852Y-97669266D01*
X161150849Y-97669263D01*
X161000227Y-97590210D01*
X160912758Y-97568651D01*
X160852378Y-97533494D01*
X160820590Y-97471275D01*
X160827486Y-97401746D01*
X160840378Y-97377823D01*
X160874818Y-97327930D01*
X160935140Y-97168872D01*
X160955645Y-97000000D01*
X160935140Y-96831128D01*
X160874818Y-96672070D01*
X160872608Y-96668869D01*
X160812045Y-96581128D01*
X160778183Y-96532071D01*
X160652532Y-96420754D01*
X160650849Y-96419263D01*
X160500226Y-96340210D01*
X160335056Y-96299500D01*
X160164944Y-96299500D01*
X159999773Y-96340210D01*
X159849150Y-96419264D01*
X159793782Y-96468316D01*
X159730549Y-96498037D01*
X159711555Y-96499500D01*
X158064311Y-96499500D01*
X157997272Y-96479815D01*
X157976630Y-96463181D01*
X153463948Y-91950499D01*
X153430463Y-91889176D01*
X153435447Y-91819484D01*
X153469398Y-91770006D01*
X153528183Y-91717929D01*
X153624818Y-91577930D01*
X153685140Y-91418872D01*
X153705645Y-91250000D01*
X153685140Y-91081128D01*
X153624818Y-90922070D01*
X153528183Y-90782071D01*
X153431386Y-90696317D01*
X153400849Y-90669263D01*
X153250226Y-90590210D01*
X153085056Y-90549500D01*
X153058676Y-90549500D01*
X152991637Y-90529815D01*
X152970995Y-90513181D01*
X152036819Y-89579005D01*
X152003334Y-89517682D01*
X152000500Y-89491324D01*
X152000500Y-85796204D01*
X152020185Y-85729165D01*
X152023985Y-85724146D01*
X152023922Y-85724103D01*
X152061775Y-85669263D01*
X152124818Y-85577930D01*
X152185140Y-85418872D01*
X152205645Y-85250000D01*
X152544355Y-85250000D01*
X152564859Y-85418869D01*
X152564860Y-85418874D01*
X152625182Y-85577931D01*
X152726078Y-85724103D01*
X152723807Y-85725670D01*
X152748034Y-85777190D01*
X152749500Y-85796204D01*
X152749500Y-89315891D01*
X152783608Y-89443187D01*
X152811608Y-89491684D01*
X152849500Y-89557314D01*
X152849502Y-89557316D01*
X153014396Y-89722210D01*
X153047881Y-89783533D01*
X153049811Y-89794943D01*
X153064859Y-89918870D01*
X153064860Y-89918875D01*
X153125182Y-90077930D01*
X153125182Y-90077931D01*
X153153712Y-90119263D01*
X153221817Y-90217929D01*
X153327505Y-90311560D01*
X153349150Y-90330736D01*
X153489494Y-90404394D01*
X153499775Y-90409790D01*
X153664944Y-90450500D01*
X153835056Y-90450500D01*
X154000225Y-90409790D01*
X154090591Y-90362362D01*
X154150849Y-90330736D01*
X154150850Y-90330734D01*
X154150852Y-90330734D01*
X154278183Y-90217929D01*
X154374818Y-90077930D01*
X154435140Y-89918872D01*
X154455645Y-89750000D01*
X154435140Y-89581128D01*
X154374818Y-89422070D01*
X154372881Y-89419264D01*
X154326741Y-89352419D01*
X154278183Y-89282071D01*
X154167605Y-89184108D01*
X154150849Y-89169263D01*
X154000226Y-89090210D01*
X153844825Y-89051907D01*
X153784444Y-89016751D01*
X153752656Y-88954531D01*
X153750500Y-88931510D01*
X153750500Y-86250000D01*
X157544355Y-86250000D01*
X157564859Y-86418869D01*
X157564860Y-86418874D01*
X157625182Y-86577931D01*
X157637172Y-86595301D01*
X157721817Y-86717929D01*
X157814608Y-86800134D01*
X157849150Y-86830736D01*
X157962417Y-86890183D01*
X157999775Y-86909790D01*
X158164944Y-86950500D01*
X158191324Y-86950500D01*
X158258363Y-86970185D01*
X158279005Y-86986819D01*
X158463181Y-87170995D01*
X158496666Y-87232318D01*
X158499500Y-87258676D01*
X158499500Y-91703796D01*
X158479815Y-91770835D01*
X158476015Y-91775854D01*
X158476078Y-91775898D01*
X158375182Y-91922068D01*
X158314860Y-92081125D01*
X158314859Y-92081130D01*
X158294355Y-92250000D01*
X158314859Y-92418869D01*
X158314860Y-92418874D01*
X158375182Y-92577931D01*
X158428595Y-92655311D01*
X158471817Y-92717929D01*
X158577505Y-92811560D01*
X158599150Y-92830736D01*
X158749773Y-92909789D01*
X158749775Y-92909790D01*
X158914944Y-92950500D01*
X159085056Y-92950500D01*
X159250225Y-92909790D01*
X159355624Y-92854472D01*
X159400849Y-92830736D01*
X159400850Y-92830734D01*
X159400852Y-92830734D01*
X159528183Y-92717929D01*
X159624818Y-92577930D01*
X159685140Y-92418872D01*
X159700187Y-92294943D01*
X159727809Y-92230767D01*
X159735591Y-92222221D01*
X160957813Y-91000000D01*
X168794355Y-91000000D01*
X168814859Y-91168869D01*
X168814860Y-91168874D01*
X168875182Y-91327931D01*
X168920248Y-91393219D01*
X168971817Y-91467929D01*
X169043782Y-91531684D01*
X169099150Y-91580736D01*
X169249773Y-91659789D01*
X169249775Y-91659790D01*
X169414944Y-91700500D01*
X169441324Y-91700500D01*
X169508363Y-91720185D01*
X169529005Y-91736819D01*
X171785678Y-93993492D01*
X174028496Y-96236309D01*
X174061981Y-96297632D01*
X174063911Y-96338936D01*
X174044355Y-96499999D01*
X174064859Y-96668869D01*
X174064860Y-96668874D01*
X174125182Y-96827931D01*
X174187475Y-96918177D01*
X174221817Y-96967929D01*
X174293679Y-97031593D01*
X174349150Y-97080736D01*
X174448133Y-97132686D01*
X174499775Y-97159790D01*
X174664944Y-97200500D01*
X174835056Y-97200500D01*
X175000225Y-97159790D01*
X175079692Y-97118081D01*
X175150849Y-97080736D01*
X175150850Y-97080734D01*
X175150852Y-97080734D01*
X175278183Y-96967929D01*
X175374818Y-96827930D01*
X175435140Y-96668872D01*
X175455645Y-96500000D01*
X175435140Y-96331128D01*
X175374818Y-96172070D01*
X175372880Y-96169263D01*
X175340476Y-96122318D01*
X175278183Y-96032071D01*
X175150852Y-95919266D01*
X175117529Y-95901776D01*
X175087477Y-95879663D01*
X175057314Y-95849500D01*
X175057313Y-95849499D01*
X175052982Y-95845168D01*
X175052972Y-95845159D01*
X170235602Y-91027788D01*
X170202117Y-90966465D01*
X170200187Y-90955053D01*
X170189723Y-90868872D01*
X170185140Y-90831128D01*
X170124818Y-90672070D01*
X170122880Y-90669263D01*
X170072038Y-90595606D01*
X170028183Y-90532071D01*
X169900852Y-90419266D01*
X169900849Y-90419263D01*
X169750226Y-90340210D01*
X169585056Y-90299500D01*
X169414944Y-90299500D01*
X169249773Y-90340210D01*
X169099150Y-90419263D01*
X169008582Y-90499500D01*
X168972882Y-90531128D01*
X168971816Y-90532072D01*
X168875182Y-90672068D01*
X168814860Y-90831125D01*
X168814859Y-90831130D01*
X168794355Y-91000000D01*
X160957813Y-91000000D01*
X161420995Y-90536819D01*
X161482318Y-90503334D01*
X161508676Y-90500500D01*
X163961555Y-90500500D01*
X164028594Y-90520185D01*
X164043779Y-90531682D01*
X164099148Y-90580734D01*
X164249775Y-90659790D01*
X164414944Y-90700500D01*
X164585056Y-90700500D01*
X164750225Y-90659790D01*
X164829692Y-90618081D01*
X164900849Y-90580736D01*
X164900850Y-90580734D01*
X164900852Y-90580734D01*
X165028183Y-90467929D01*
X165124818Y-90327930D01*
X165185140Y-90168872D01*
X165205645Y-90000000D01*
X165185140Y-89831128D01*
X165177288Y-89810425D01*
X165143065Y-89720183D01*
X165124818Y-89672070D01*
X165123908Y-89670752D01*
X165088783Y-89619865D01*
X165028183Y-89532071D01*
X164907668Y-89425304D01*
X164900849Y-89419263D01*
X164750226Y-89340210D01*
X164585056Y-89299500D01*
X164414944Y-89299500D01*
X164249773Y-89340210D01*
X164099150Y-89419264D01*
X164043782Y-89468316D01*
X163980549Y-89498037D01*
X163961555Y-89499500D01*
X161184108Y-89499500D01*
X161056814Y-89533608D01*
X161056811Y-89533609D01*
X160974507Y-89581128D01*
X160942689Y-89599498D01*
X160942683Y-89599502D01*
X159712181Y-90830005D01*
X159650858Y-90863490D01*
X159581166Y-90858506D01*
X159525233Y-90816634D01*
X159500816Y-90751170D01*
X159500500Y-90742324D01*
X159500500Y-86934110D01*
X159500500Y-86934108D01*
X159483456Y-86870500D01*
X159466392Y-86806814D01*
X159400500Y-86692686D01*
X158985602Y-86277788D01*
X158952117Y-86216465D01*
X158950187Y-86205053D01*
X158935140Y-86081128D01*
X158874818Y-85922070D01*
X158873389Y-85920000D01*
X158823357Y-85847516D01*
X158778183Y-85782071D01*
X158650852Y-85669266D01*
X158650849Y-85669263D01*
X158500226Y-85590210D01*
X158335056Y-85549500D01*
X158164944Y-85549500D01*
X157999773Y-85590210D01*
X157849150Y-85669263D01*
X157721816Y-85782072D01*
X157625182Y-85922068D01*
X157564860Y-86081125D01*
X157564859Y-86081130D01*
X157544355Y-86250000D01*
X153750500Y-86250000D01*
X153750500Y-85796204D01*
X153770185Y-85729165D01*
X153773985Y-85724146D01*
X153773922Y-85724103D01*
X153811775Y-85669263D01*
X153874818Y-85577930D01*
X153935140Y-85418872D01*
X153955645Y-85250000D01*
X153935140Y-85081128D01*
X153874818Y-84922070D01*
X153778183Y-84782071D01*
X153650852Y-84669266D01*
X153650849Y-84669263D01*
X153500226Y-84590210D01*
X153335056Y-84549500D01*
X153164944Y-84549500D01*
X152999773Y-84590210D01*
X152849150Y-84669263D01*
X152721816Y-84782072D01*
X152625182Y-84922068D01*
X152564860Y-85081125D01*
X152564859Y-85081130D01*
X152544355Y-85250000D01*
X152205645Y-85250000D01*
X152185140Y-85081128D01*
X152124818Y-84922070D01*
X152028183Y-84782071D01*
X151900852Y-84669266D01*
X151900849Y-84669263D01*
X151750226Y-84590210D01*
X151585056Y-84549500D01*
X151414944Y-84549500D01*
X151249773Y-84590210D01*
X151099150Y-84669263D01*
X150971816Y-84782072D01*
X150875182Y-84922068D01*
X150814860Y-85081125D01*
X150814859Y-85081130D01*
X150794355Y-85250000D01*
X150814859Y-85418869D01*
X150814860Y-85418874D01*
X150875182Y-85577931D01*
X150976078Y-85724103D01*
X150973807Y-85725670D01*
X150998034Y-85777190D01*
X150999500Y-85796204D01*
X150999500Y-89186689D01*
X150979815Y-89253728D01*
X150927011Y-89299483D01*
X150857853Y-89309427D01*
X150794297Y-89280402D01*
X150787819Y-89274370D01*
X142013449Y-80500000D01*
X157044355Y-80500000D01*
X157064859Y-80668869D01*
X157064860Y-80668874D01*
X157125182Y-80827931D01*
X157187475Y-80918177D01*
X157221817Y-80967929D01*
X157293782Y-81031684D01*
X157349150Y-81080736D01*
X157499773Y-81159789D01*
X157499775Y-81159790D01*
X157664944Y-81200500D01*
X157835056Y-81200500D01*
X158000225Y-81159790D01*
X158126613Y-81093456D01*
X158150849Y-81080736D01*
X158150850Y-81080734D01*
X158150852Y-81080734D01*
X158164291Y-81068828D01*
X158227518Y-81039106D01*
X158296782Y-81048286D01*
X158350088Y-81093456D01*
X158370510Y-81160274D01*
X158362460Y-81205612D01*
X158314861Y-81331122D01*
X158314859Y-81331130D01*
X158294355Y-81500000D01*
X158314859Y-81668869D01*
X158314860Y-81668874D01*
X158375182Y-81827931D01*
X158437475Y-81918177D01*
X158471817Y-81967929D01*
X158543782Y-82031684D01*
X158599150Y-82080736D01*
X158749773Y-82159789D01*
X158749775Y-82159790D01*
X158914944Y-82200500D01*
X159085056Y-82200500D01*
X159250225Y-82159790D01*
X159400852Y-82080734D01*
X159456218Y-82031683D01*
X159519451Y-82001963D01*
X159538445Y-82000500D01*
X162491324Y-82000500D01*
X162558363Y-82020185D01*
X162579005Y-82036819D01*
X176514396Y-95972210D01*
X176547881Y-96033533D01*
X176549811Y-96044943D01*
X176564859Y-96168870D01*
X176564860Y-96168875D01*
X176625182Y-96327930D01*
X176625182Y-96327931D01*
X176687475Y-96418177D01*
X176721817Y-96467929D01*
X176794219Y-96532071D01*
X176849150Y-96580736D01*
X176999773Y-96659789D01*
X176999775Y-96659790D01*
X177164944Y-96700500D01*
X177335056Y-96700500D01*
X177500225Y-96659790D01*
X177650096Y-96581131D01*
X177650849Y-96580736D01*
X177650850Y-96580734D01*
X177650852Y-96580734D01*
X177778183Y-96467929D01*
X177874818Y-96327930D01*
X177935140Y-96168872D01*
X177955645Y-96000000D01*
X177935140Y-95831128D01*
X177874818Y-95672070D01*
X177866222Y-95659617D01*
X177810745Y-95579245D01*
X177778183Y-95532071D01*
X177676921Y-95442361D01*
X177650849Y-95419263D01*
X177500226Y-95340210D01*
X177335056Y-95299500D01*
X177308676Y-95299500D01*
X177241637Y-95279815D01*
X177220995Y-95263181D01*
X173669995Y-91712181D01*
X173636510Y-91650858D01*
X173641494Y-91581166D01*
X173683366Y-91525233D01*
X173748830Y-91500816D01*
X173757676Y-91500500D01*
X176211555Y-91500500D01*
X176278594Y-91520185D01*
X176293779Y-91531682D01*
X176349148Y-91580734D01*
X176499775Y-91659790D01*
X176664944Y-91700500D01*
X176835056Y-91700500D01*
X177000225Y-91659790D01*
X177135446Y-91588820D01*
X177150849Y-91580736D01*
X177150850Y-91580734D01*
X177150852Y-91580734D01*
X177278183Y-91467929D01*
X177374818Y-91327930D01*
X177435140Y-91168872D01*
X177455645Y-91000000D01*
X177435140Y-90831128D01*
X177374818Y-90672070D01*
X177372880Y-90669263D01*
X177322038Y-90595606D01*
X177278183Y-90532071D01*
X177150852Y-90419266D01*
X177150849Y-90419263D01*
X177000226Y-90340210D01*
X176835056Y-90299500D01*
X176664944Y-90299500D01*
X176499773Y-90340210D01*
X176349150Y-90419264D01*
X176293782Y-90468316D01*
X176230549Y-90498037D01*
X176211555Y-90499500D01*
X174008676Y-90499500D01*
X173941637Y-90479815D01*
X173920995Y-90463181D01*
X163557316Y-80099502D01*
X163557314Y-80099500D01*
X163500250Y-80066554D01*
X163443187Y-80033608D01*
X163379539Y-80016554D01*
X163315892Y-79999500D01*
X163315891Y-79999500D01*
X158288445Y-79999500D01*
X158221406Y-79979815D01*
X158206218Y-79968316D01*
X158150852Y-79919266D01*
X158150850Y-79919265D01*
X158150849Y-79919264D01*
X158000226Y-79840210D01*
X157835056Y-79799500D01*
X157664944Y-79799500D01*
X157499773Y-79840210D01*
X157349150Y-79919263D01*
X157221816Y-80032072D01*
X157125182Y-80172068D01*
X157064860Y-80331125D01*
X157064859Y-80331130D01*
X157044355Y-80500000D01*
X142013449Y-80500000D01*
X141612951Y-80099502D01*
X141612949Y-80099500D01*
X141555885Y-80066554D01*
X141498822Y-80033608D01*
X141435174Y-80016554D01*
X141371527Y-79999500D01*
X141371526Y-79999500D01*
X139788445Y-79999500D01*
X139721406Y-79979815D01*
X139706218Y-79968316D01*
X139650852Y-79919266D01*
X139650850Y-79919265D01*
X139650849Y-79919264D01*
X139500226Y-79840210D01*
X139335056Y-79799500D01*
X139164944Y-79799500D01*
X138999773Y-79840210D01*
X138849150Y-79919263D01*
X138721816Y-80032072D01*
X138625182Y-80172068D01*
X138564860Y-80331125D01*
X138564859Y-80331130D01*
X138544355Y-80500000D01*
X126337813Y-80500000D01*
X128845193Y-77992620D01*
X133574923Y-73262889D01*
X133636244Y-73229406D01*
X133705936Y-73234390D01*
X133761869Y-73276262D01*
X133786286Y-73341726D01*
X133782377Y-73382665D01*
X133763793Y-73452020D01*
X133763793Y-73452024D01*
X133744723Y-73669997D01*
X133744723Y-73670002D01*
X133763793Y-73887975D01*
X133763793Y-73887979D01*
X133820422Y-74099322D01*
X133820424Y-74099326D01*
X133820425Y-74099330D01*
X133864191Y-74193186D01*
X133912897Y-74297638D01*
X133919674Y-74307316D01*
X134038402Y-74476877D01*
X134193123Y-74631598D01*
X134372360Y-74757101D01*
X134372361Y-74757102D01*
X134523583Y-74827618D01*
X134576022Y-74873790D01*
X134595174Y-74940984D01*
X134574958Y-75007865D01*
X134523583Y-75052382D01*
X134372361Y-75122898D01*
X134372357Y-75122900D01*
X134193121Y-75248402D01*
X134038402Y-75403121D01*
X133912900Y-75582357D01*
X133912898Y-75582361D01*
X133820426Y-75780668D01*
X133820422Y-75780677D01*
X133763793Y-75992020D01*
X133763793Y-75992024D01*
X133744723Y-76209997D01*
X133744723Y-76210002D01*
X133763793Y-76427975D01*
X133763793Y-76427979D01*
X133820422Y-76639322D01*
X133820424Y-76639326D01*
X133820425Y-76639330D01*
X133866661Y-76738484D01*
X133912897Y-76837638D01*
X133937998Y-76873486D01*
X134038402Y-77016877D01*
X134193123Y-77171598D01*
X134339263Y-77273926D01*
X134382887Y-77328502D01*
X134390081Y-77398000D01*
X134358558Y-77460355D01*
X134298328Y-77495769D01*
X134268140Y-77499500D01*
X134118482Y-77499500D01*
X134037519Y-77512323D01*
X134024696Y-77514354D01*
X133911658Y-77571950D01*
X133911657Y-77571951D01*
X133911652Y-77571954D01*
X133821954Y-77661652D01*
X133821951Y-77661657D01*
X133764352Y-77774698D01*
X133749500Y-77868475D01*
X133749500Y-79631517D01*
X133757830Y-79684108D01*
X133764354Y-79725304D01*
X133821950Y-79838342D01*
X133821952Y-79838344D01*
X133821954Y-79838347D01*
X133911652Y-79928045D01*
X133911654Y-79928046D01*
X133911658Y-79928050D01*
X134024694Y-79985645D01*
X134024698Y-79985647D01*
X134118475Y-80000499D01*
X134118481Y-80000500D01*
X135881518Y-80000499D01*
X135975304Y-79985646D01*
X136088342Y-79928050D01*
X136178050Y-79838342D01*
X136235646Y-79725304D01*
X136235646Y-79725302D01*
X136235647Y-79725301D01*
X136250499Y-79631524D01*
X136250500Y-79631519D01*
X136250499Y-77999999D01*
X148964357Y-77999999D01*
X148964357Y-78000000D01*
X148984884Y-78221535D01*
X148984885Y-78221537D01*
X149045769Y-78435523D01*
X149045775Y-78435538D01*
X149144938Y-78634683D01*
X149144943Y-78634691D01*
X149279020Y-78812238D01*
X149443437Y-78962123D01*
X149443439Y-78962125D01*
X149632595Y-79079245D01*
X149632596Y-79079245D01*
X149632599Y-79079247D01*
X149840060Y-79159618D01*
X150058757Y-79200500D01*
X150058759Y-79200500D01*
X150281241Y-79200500D01*
X150281243Y-79200500D01*
X150499940Y-79159618D01*
X150707401Y-79079247D01*
X150896562Y-78962124D01*
X151060981Y-78812236D01*
X151195058Y-78634689D01*
X151294229Y-78435528D01*
X151355115Y-78221536D01*
X151375643Y-78000000D01*
X151375643Y-77999999D01*
X159124357Y-77999999D01*
X159124357Y-78000000D01*
X159144884Y-78221535D01*
X159144885Y-78221537D01*
X159205769Y-78435523D01*
X159205775Y-78435538D01*
X159304938Y-78634683D01*
X159304943Y-78634691D01*
X159439020Y-78812238D01*
X159603437Y-78962123D01*
X159603439Y-78962125D01*
X159792595Y-79079245D01*
X159792596Y-79079245D01*
X159792599Y-79079247D01*
X160000060Y-79159618D01*
X160218757Y-79200500D01*
X160218759Y-79200500D01*
X160441241Y-79200500D01*
X160441243Y-79200500D01*
X160659940Y-79159618D01*
X160867401Y-79079247D01*
X161056562Y-78962124D01*
X161220981Y-78812236D01*
X161355058Y-78634689D01*
X161454229Y-78435528D01*
X161507017Y-78249999D01*
X164544357Y-78249999D01*
X164544357Y-78250000D01*
X164564884Y-78471535D01*
X164564885Y-78471537D01*
X164625769Y-78685523D01*
X164625775Y-78685538D01*
X164724938Y-78884683D01*
X164724943Y-78884691D01*
X164859020Y-79062238D01*
X165023437Y-79212123D01*
X165023439Y-79212125D01*
X165212595Y-79329245D01*
X165212596Y-79329245D01*
X165212599Y-79329247D01*
X165420060Y-79409618D01*
X165638757Y-79450500D01*
X165638759Y-79450500D01*
X165861241Y-79450500D01*
X165861243Y-79450500D01*
X166079940Y-79409618D01*
X166287401Y-79329247D01*
X166476562Y-79212124D01*
X166640981Y-79062236D01*
X166775058Y-78884689D01*
X166874229Y-78685528D01*
X166935115Y-78471536D01*
X166955643Y-78250000D01*
X166953005Y-78221536D01*
X166935115Y-78028464D01*
X166935114Y-78028462D01*
X166932418Y-78018987D01*
X166874229Y-77814472D01*
X166874224Y-77814461D01*
X166775061Y-77615316D01*
X166775056Y-77615308D01*
X166640979Y-77437761D01*
X166476562Y-77287876D01*
X166476560Y-77287874D01*
X166287404Y-77170754D01*
X166287398Y-77170752D01*
X166079940Y-77090382D01*
X165861243Y-77049500D01*
X165638757Y-77049500D01*
X165420060Y-77090382D01*
X165288864Y-77141207D01*
X165212601Y-77170752D01*
X165212595Y-77170754D01*
X165023439Y-77287874D01*
X165023437Y-77287876D01*
X164859020Y-77437761D01*
X164724943Y-77615308D01*
X164724938Y-77615316D01*
X164625775Y-77814461D01*
X164625769Y-77814476D01*
X164564885Y-78028462D01*
X164564884Y-78028464D01*
X164544357Y-78249999D01*
X161507017Y-78249999D01*
X161515115Y-78221536D01*
X161535643Y-78000000D01*
X161515115Y-77778464D01*
X161454229Y-77564472D01*
X161454224Y-77564461D01*
X161355061Y-77365316D01*
X161355056Y-77365308D01*
X161220979Y-77187761D01*
X161056562Y-77037876D01*
X161056560Y-77037874D01*
X160867404Y-76920754D01*
X160867398Y-76920752D01*
X160659940Y-76840382D01*
X160441243Y-76799500D01*
X160218757Y-76799500D01*
X160000060Y-76840382D01*
X159868864Y-76891207D01*
X159792601Y-76920752D01*
X159792595Y-76920754D01*
X159603439Y-77037874D01*
X159603437Y-77037876D01*
X159439020Y-77187761D01*
X159304943Y-77365308D01*
X159304938Y-77365316D01*
X159205775Y-77564461D01*
X159205769Y-77564476D01*
X159144885Y-77778462D01*
X159144884Y-77778464D01*
X159124357Y-77999999D01*
X151375643Y-77999999D01*
X151355115Y-77778464D01*
X151294229Y-77564472D01*
X151294224Y-77564461D01*
X151195061Y-77365316D01*
X151195056Y-77365308D01*
X151060979Y-77187761D01*
X150896562Y-77037876D01*
X150896560Y-77037874D01*
X150707404Y-76920754D01*
X150707398Y-76920752D01*
X150499940Y-76840382D01*
X150281243Y-76799500D01*
X150058757Y-76799500D01*
X149840060Y-76840382D01*
X149708864Y-76891207D01*
X149632601Y-76920752D01*
X149632595Y-76920754D01*
X149443439Y-77037874D01*
X149443437Y-77037876D01*
X149279020Y-77187761D01*
X149144943Y-77365308D01*
X149144938Y-77365316D01*
X149045775Y-77564461D01*
X149045769Y-77564476D01*
X148984885Y-77778462D01*
X148984884Y-77778464D01*
X148964357Y-77999999D01*
X136250499Y-77999999D01*
X136250499Y-77868482D01*
X136235646Y-77774696D01*
X136178050Y-77661658D01*
X136178046Y-77661654D01*
X136178045Y-77661652D01*
X136088347Y-77571954D01*
X136088344Y-77571952D01*
X136088342Y-77571950D01*
X136011517Y-77532805D01*
X135975301Y-77514352D01*
X135881524Y-77499500D01*
X135731862Y-77499500D01*
X135664823Y-77479815D01*
X135619068Y-77427011D01*
X135609124Y-77357853D01*
X135638149Y-77294297D01*
X135660734Y-77273928D01*
X135806877Y-77171598D01*
X135961598Y-77016877D01*
X136087102Y-76837639D01*
X136179575Y-76639330D01*
X136236207Y-76427977D01*
X136255277Y-76210000D01*
X136236207Y-75992023D01*
X136179575Y-75780670D01*
X136087102Y-75582362D01*
X136087100Y-75582359D01*
X136087099Y-75582357D01*
X135961599Y-75403124D01*
X135961596Y-75403121D01*
X135806877Y-75248402D01*
X135627639Y-75122898D01*
X135476414Y-75052381D01*
X135423977Y-75006210D01*
X135404825Y-74939016D01*
X135425041Y-74872135D01*
X135476414Y-74827618D01*
X135627639Y-74757102D01*
X135806877Y-74631598D01*
X135961598Y-74476877D01*
X136087102Y-74297639D01*
X136179575Y-74099330D01*
X136236207Y-73887977D01*
X136255277Y-73670000D01*
X136236207Y-73452023D01*
X136217623Y-73382665D01*
X136219286Y-73312818D01*
X136258448Y-73254955D01*
X136322677Y-73227451D01*
X136391579Y-73239037D01*
X136425079Y-73262893D01*
X136437686Y-73275500D01*
X136551814Y-73341392D01*
X136679108Y-73375500D01*
X151868013Y-73375500D01*
X151935052Y-73395185D01*
X151942275Y-73400263D01*
X151942686Y-73400500D01*
X151954523Y-73407334D01*
X152056814Y-73466392D01*
X152184107Y-73500500D01*
X152184108Y-73500500D01*
X152315893Y-73500500D01*
X160241324Y-73500500D01*
X160308363Y-73520185D01*
X160329005Y-73536819D01*
X162264396Y-75472210D01*
X162297881Y-75533533D01*
X162299811Y-75544943D01*
X162314859Y-75668870D01*
X162314860Y-75668875D01*
X162375182Y-75827930D01*
X162375182Y-75827931D01*
X162408017Y-75875500D01*
X162471817Y-75967929D01*
X162577505Y-76061560D01*
X162599150Y-76080736D01*
X162749773Y-76159789D01*
X162749775Y-76159790D01*
X162914944Y-76200500D01*
X163085056Y-76200500D01*
X163250225Y-76159790D01*
X163329692Y-76118081D01*
X163400849Y-76080736D01*
X163400850Y-76080734D01*
X163400852Y-76080734D01*
X163528183Y-75967929D01*
X163538477Y-75953014D01*
X163555014Y-75929059D01*
X163609297Y-75885069D01*
X163657063Y-75875500D01*
X166866324Y-75875500D01*
X166933363Y-75895185D01*
X166954005Y-75911819D01*
X170963181Y-79920995D01*
X170996666Y-79982318D01*
X170999500Y-80008676D01*
X170999500Y-82125500D01*
X170979815Y-82192539D01*
X170927011Y-82238294D01*
X170875500Y-82249500D01*
X170684107Y-82249500D01*
X170562552Y-82282069D01*
X170562553Y-82282070D01*
X170556814Y-82283607D01*
X170442686Y-82349500D01*
X170442683Y-82349502D01*
X170349498Y-82442688D01*
X169300245Y-83491940D01*
X169300244Y-83491940D01*
X169300245Y-83491941D01*
X169224500Y-83567686D01*
X169158608Y-83681812D01*
X169124500Y-83809108D01*
X169124500Y-83940891D01*
X169158608Y-84068187D01*
X169191554Y-84125250D01*
X169224500Y-84182314D01*
X173799500Y-88757314D01*
X173892686Y-88850500D01*
X174006814Y-88916392D01*
X174134108Y-88950500D01*
X179900501Y-88950500D01*
X179967540Y-88970185D01*
X180013295Y-89022989D01*
X180024501Y-89074500D01*
X180024501Y-89331518D01*
X180039354Y-89425304D01*
X180096950Y-89538342D01*
X180096952Y-89538344D01*
X180096954Y-89538347D01*
X180186652Y-89628045D01*
X180186654Y-89628046D01*
X180186658Y-89628050D01*
X180273052Y-89672070D01*
X180299698Y-89685647D01*
X180393475Y-89700499D01*
X180393481Y-89700500D01*
X180543140Y-89700499D01*
X180610177Y-89720183D01*
X180655932Y-89772987D01*
X180665876Y-89842145D01*
X180636851Y-89905701D01*
X180614262Y-89926074D01*
X180468118Y-90028405D01*
X180313402Y-90183121D01*
X180187900Y-90362357D01*
X180187898Y-90362361D01*
X180095426Y-90560668D01*
X180095422Y-90560677D01*
X180038793Y-90772020D01*
X180038793Y-90772023D01*
X180037914Y-90782071D01*
X180019723Y-90989997D01*
X180019723Y-90990002D01*
X180038793Y-91207975D01*
X180038793Y-91207979D01*
X180095422Y-91419322D01*
X180095424Y-91419326D01*
X180095425Y-91419330D01*
X180118086Y-91467927D01*
X180187897Y-91617638D01*
X180187898Y-91617639D01*
X180313402Y-91796877D01*
X180468123Y-91951598D01*
X180647361Y-92077102D01*
X180680862Y-92092724D01*
X180680865Y-92092725D01*
X180733304Y-92138897D01*
X180752456Y-92206091D01*
X180732240Y-92272972D01*
X180680865Y-92317489D01*
X180597422Y-92356399D01*
X180597420Y-92356400D01*
X180403926Y-92491886D01*
X180403920Y-92491891D01*
X180236891Y-92658920D01*
X180236886Y-92658926D01*
X180101400Y-92852420D01*
X180101399Y-92852422D01*
X180001570Y-93066507D01*
X180001567Y-93066513D01*
X179944364Y-93279999D01*
X179944364Y-93280000D01*
X180841988Y-93280000D01*
X180809075Y-93337007D01*
X180775000Y-93464174D01*
X180775000Y-93595826D01*
X180809075Y-93722993D01*
X180841988Y-93780000D01*
X179944364Y-93780000D01*
X180001567Y-93993486D01*
X180001570Y-93993492D01*
X180101399Y-94207578D01*
X180236894Y-94401082D01*
X180403917Y-94568105D01*
X180597419Y-94703598D01*
X180680865Y-94742509D01*
X180733305Y-94788681D01*
X180752457Y-94855875D01*
X180732242Y-94922756D01*
X180680868Y-94967273D01*
X180647363Y-94982897D01*
X180647357Y-94982900D01*
X180468121Y-95108402D01*
X180313402Y-95263121D01*
X180187900Y-95442357D01*
X180187898Y-95442361D01*
X180095426Y-95640668D01*
X180095422Y-95640677D01*
X180038793Y-95852020D01*
X180038793Y-95852023D01*
X180019723Y-96070000D01*
X180038276Y-96282072D01*
X180038793Y-96287975D01*
X180038793Y-96287979D01*
X180095422Y-96499322D01*
X180095424Y-96499326D01*
X180095425Y-96499330D01*
X180141661Y-96598484D01*
X180187897Y-96697638D01*
X180187898Y-96697639D01*
X180313402Y-96876877D01*
X180468123Y-97031598D01*
X180647361Y-97157102D01*
X180845670Y-97249575D01*
X181057023Y-97306207D01*
X181239926Y-97322208D01*
X181274998Y-97325277D01*
X181275000Y-97325277D01*
X181275002Y-97325277D01*
X181303254Y-97322805D01*
X181492977Y-97306207D01*
X181704330Y-97249575D01*
X181902639Y-97157102D01*
X182081877Y-97031598D01*
X182236598Y-96876877D01*
X182362102Y-96697639D01*
X182454575Y-96499330D01*
X182511207Y-96287977D01*
X182530277Y-96070000D01*
X182511207Y-95852023D01*
X182454575Y-95640670D01*
X182362102Y-95442362D01*
X182362100Y-95442359D01*
X182362099Y-95442357D01*
X182236599Y-95263124D01*
X182165111Y-95191636D01*
X182081877Y-95108402D01*
X181902639Y-94982898D01*
X181902633Y-94982895D01*
X181869133Y-94967273D01*
X181816694Y-94921100D01*
X181797543Y-94853907D01*
X181817760Y-94787026D01*
X181869135Y-94742509D01*
X181952580Y-94703598D01*
X182146082Y-94568105D01*
X182313105Y-94401082D01*
X182448600Y-94207578D01*
X182548429Y-93993492D01*
X182548432Y-93993486D01*
X182605636Y-93780000D01*
X181708012Y-93780000D01*
X181740925Y-93722993D01*
X181775000Y-93595826D01*
X181775000Y-93464174D01*
X181740925Y-93337007D01*
X181708012Y-93280000D01*
X182605636Y-93280000D01*
X182605635Y-93279999D01*
X182548432Y-93066513D01*
X182548429Y-93066507D01*
X182448600Y-92852422D01*
X182448599Y-92852420D01*
X182313113Y-92658926D01*
X182313108Y-92658920D01*
X182146082Y-92491894D01*
X181952578Y-92356399D01*
X181869134Y-92317489D01*
X181816695Y-92271317D01*
X181797543Y-92204123D01*
X181817759Y-92137242D01*
X181869132Y-92092726D01*
X181902639Y-92077102D01*
X182081877Y-91951598D01*
X182236598Y-91796877D01*
X182362102Y-91617639D01*
X182454575Y-91419330D01*
X182511207Y-91207977D01*
X182530277Y-90990000D01*
X182511207Y-90772023D01*
X182471207Y-90622741D01*
X182454577Y-90560677D01*
X182454576Y-90560676D01*
X182454575Y-90560670D01*
X182362102Y-90362362D01*
X182362100Y-90362359D01*
X182362099Y-90362357D01*
X182236599Y-90183124D01*
X182168783Y-90115308D01*
X182081877Y-90028402D01*
X181935733Y-89926071D01*
X181892112Y-89871497D01*
X181884919Y-89801998D01*
X181916441Y-89739644D01*
X181976671Y-89704230D01*
X182006859Y-89700499D01*
X182156518Y-89700499D01*
X182250304Y-89685646D01*
X182363342Y-89628050D01*
X182453050Y-89538342D01*
X182510646Y-89425304D01*
X182510646Y-89425302D01*
X182510647Y-89425301D01*
X182525500Y-89331524D01*
X182525500Y-89074500D01*
X182545185Y-89007461D01*
X182597989Y-88961706D01*
X182649500Y-88950500D01*
X192975501Y-88950500D01*
X193042540Y-88970185D01*
X193088295Y-89022989D01*
X193099501Y-89074500D01*
X193099501Y-90281517D01*
X193114354Y-90375303D01*
X193171950Y-90488341D01*
X193171952Y-90488343D01*
X193171954Y-90488346D01*
X193261652Y-90578044D01*
X193261654Y-90578045D01*
X193261658Y-90578049D01*
X193349371Y-90622741D01*
X193374698Y-90635646D01*
X193462116Y-90649490D01*
X193465330Y-90650000D01*
X193468475Y-90650498D01*
X193468481Y-90650499D01*
X194375500Y-90650498D01*
X194442539Y-90670182D01*
X194488294Y-90722986D01*
X194499500Y-90774498D01*
X194499500Y-97081323D01*
X194479815Y-97148362D01*
X194463181Y-97169004D01*
X193724908Y-97907276D01*
X193663585Y-97940761D01*
X193593893Y-97935777D01*
X193592432Y-97935221D01*
X193579945Y-97930383D01*
X193535475Y-97922070D01*
X193361243Y-97889500D01*
X193138757Y-97889500D01*
X192920060Y-97930382D01*
X192827108Y-97966392D01*
X192712601Y-98010752D01*
X192712595Y-98010754D01*
X192523439Y-98127874D01*
X192523437Y-98127876D01*
X192359020Y-98277761D01*
X192224943Y-98455308D01*
X192224938Y-98455316D01*
X192125775Y-98654461D01*
X192125769Y-98654476D01*
X192064885Y-98868462D01*
X192064884Y-98868464D01*
X192044357Y-99089999D01*
X192044357Y-99090000D01*
X192064884Y-99311535D01*
X192064885Y-99311537D01*
X192125769Y-99525523D01*
X192125775Y-99525538D01*
X192224938Y-99724683D01*
X192224943Y-99724691D01*
X192359020Y-99902238D01*
X192523437Y-100052123D01*
X192523439Y-100052125D01*
X192712595Y-100169245D01*
X192712596Y-100169245D01*
X192712599Y-100169247D01*
X192920060Y-100249618D01*
X193138757Y-100290500D01*
X193138759Y-100290500D01*
X193361241Y-100290500D01*
X193361243Y-100290500D01*
X193579940Y-100249618D01*
X193787401Y-100169247D01*
X193976562Y-100052124D01*
X194140981Y-99902236D01*
X194275058Y-99724689D01*
X194374229Y-99525528D01*
X194435115Y-99311536D01*
X194455643Y-99090000D01*
X194453455Y-99066392D01*
X194435115Y-98868465D01*
X194424380Y-98830736D01*
X194398403Y-98739435D01*
X194398989Y-98669573D01*
X194429986Y-98617826D01*
X195400500Y-97647314D01*
X195466392Y-97533186D01*
X195500500Y-97405892D01*
X195500500Y-97274107D01*
X195500500Y-90774498D01*
X195520185Y-90707459D01*
X195572989Y-90661704D01*
X195624500Y-90650498D01*
X196531517Y-90650498D01*
X196531518Y-90650498D01*
X196625304Y-90635645D01*
X196738342Y-90578049D01*
X196828050Y-90488341D01*
X196885646Y-90375303D01*
X196885646Y-90375301D01*
X196885647Y-90375300D01*
X196900499Y-90281523D01*
X196900500Y-90281518D01*
X196900499Y-88749997D01*
X213484891Y-88749997D01*
X213484891Y-88750000D01*
X213505300Y-89035361D01*
X213566109Y-89314894D01*
X213666091Y-89582957D01*
X213803191Y-89834037D01*
X213803196Y-89834045D01*
X213909882Y-89976561D01*
X213909883Y-89976562D01*
X214812421Y-89074023D01*
X214825359Y-89105257D01*
X214907437Y-89228096D01*
X215011903Y-89332562D01*
X215134742Y-89414640D01*
X215165974Y-89427576D01*
X214263435Y-90330114D01*
X214263436Y-90330115D01*
X214405953Y-90436802D01*
X214405961Y-90436807D01*
X214657042Y-90573907D01*
X214657041Y-90573907D01*
X214925104Y-90673889D01*
X215204637Y-90734698D01*
X215489999Y-90755108D01*
X215490001Y-90755108D01*
X215775362Y-90734698D01*
X216054895Y-90673889D01*
X216322958Y-90573907D01*
X216574038Y-90436807D01*
X216574039Y-90436806D01*
X216716563Y-90330114D01*
X215814025Y-89427577D01*
X215845258Y-89414640D01*
X215968097Y-89332562D01*
X216072563Y-89228096D01*
X216154641Y-89105257D01*
X216167578Y-89074024D01*
X217070115Y-89976562D01*
X217176807Y-89834038D01*
X217176808Y-89834037D01*
X217313908Y-89582957D01*
X217413890Y-89314894D01*
X217474699Y-89035361D01*
X217495109Y-88750000D01*
X217495109Y-88749997D01*
X217474699Y-88464636D01*
X217413890Y-88185103D01*
X217313908Y-87917040D01*
X217176808Y-87665960D01*
X217176803Y-87665952D01*
X217070116Y-87523435D01*
X217070115Y-87523434D01*
X216167577Y-88425972D01*
X216154641Y-88394741D01*
X216072563Y-88271902D01*
X215968097Y-88167436D01*
X215845258Y-88085358D01*
X215814024Y-88072420D01*
X216716563Y-87169882D01*
X216716562Y-87169881D01*
X216574046Y-87063195D01*
X216574038Y-87063190D01*
X216322957Y-86926090D01*
X216322958Y-86926090D01*
X216054895Y-86826108D01*
X215775362Y-86765299D01*
X215490001Y-86744890D01*
X215489999Y-86744890D01*
X215204637Y-86765299D01*
X214925104Y-86826108D01*
X214657041Y-86926090D01*
X214405961Y-87063190D01*
X214405953Y-87063195D01*
X214263435Y-87169881D01*
X215165975Y-88072420D01*
X215134742Y-88085358D01*
X215011903Y-88167436D01*
X214907437Y-88271902D01*
X214825359Y-88394741D01*
X214812421Y-88425973D01*
X213909882Y-87523434D01*
X213803196Y-87665952D01*
X213803191Y-87665960D01*
X213666091Y-87917040D01*
X213566109Y-88185103D01*
X213505300Y-88464636D01*
X213484891Y-88749997D01*
X196900499Y-88749997D01*
X196900499Y-87218481D01*
X196885646Y-87124695D01*
X196828050Y-87011657D01*
X196828046Y-87011653D01*
X196828045Y-87011651D01*
X196738347Y-86921953D01*
X196738344Y-86921951D01*
X196738342Y-86921949D01*
X196660219Y-86882143D01*
X196625301Y-86864351D01*
X196531524Y-86849499D01*
X193468482Y-86849499D01*
X193387519Y-86862322D01*
X193374696Y-86864353D01*
X193261658Y-86921949D01*
X193261657Y-86921950D01*
X193261652Y-86921953D01*
X193171954Y-87011651D01*
X193171951Y-87011656D01*
X193114352Y-87124697D01*
X193099500Y-87218474D01*
X193099500Y-87825500D01*
X193079815Y-87892539D01*
X193027011Y-87938294D01*
X192975500Y-87949500D01*
X182649499Y-87949500D01*
X182582460Y-87929815D01*
X182536705Y-87877011D01*
X182525499Y-87825500D01*
X182525499Y-87568482D01*
X182525498Y-87568475D01*
X182510646Y-87474696D01*
X182453050Y-87361658D01*
X182453046Y-87361654D01*
X182453045Y-87361652D01*
X182363347Y-87271954D01*
X182363344Y-87271952D01*
X182363342Y-87271950D01*
X182285560Y-87232318D01*
X182250301Y-87214352D01*
X182156524Y-87199500D01*
X180393482Y-87199500D01*
X180312519Y-87212323D01*
X180299696Y-87214354D01*
X180186658Y-87271950D01*
X180186657Y-87271951D01*
X180186652Y-87271954D01*
X180096954Y-87361652D01*
X180096951Y-87361657D01*
X180039352Y-87474698D01*
X180024500Y-87568475D01*
X180024500Y-87825500D01*
X180004815Y-87892539D01*
X179952011Y-87938294D01*
X179900500Y-87949500D01*
X174458676Y-87949500D01*
X174391637Y-87929815D01*
X174370995Y-87913181D01*
X170420494Y-83962680D01*
X170387009Y-83901357D01*
X170391993Y-83831665D01*
X170420494Y-83787318D01*
X170640126Y-83567686D01*
X170898860Y-83308951D01*
X170960182Y-83275468D01*
X171029874Y-83280452D01*
X171068765Y-83303817D01*
X171099148Y-83330734D01*
X171249775Y-83409790D01*
X171414944Y-83450500D01*
X171585056Y-83450500D01*
X171750225Y-83409790D01*
X171829692Y-83368081D01*
X171900849Y-83330736D01*
X171900850Y-83330734D01*
X171900852Y-83330734D01*
X172028183Y-83217929D01*
X172124818Y-83077930D01*
X172185140Y-82918872D01*
X172205645Y-82750000D01*
X172185140Y-82581128D01*
X172124818Y-82422070D01*
X172028183Y-82282071D01*
X172028182Y-82282070D01*
X172023922Y-82275898D01*
X172026186Y-82274334D01*
X172001961Y-82222774D01*
X172000500Y-82203796D01*
X172000500Y-79684109D01*
X172000500Y-79684108D01*
X171992093Y-79652734D01*
X171966392Y-79556814D01*
X171904413Y-79449464D01*
X171900500Y-79442686D01*
X171807314Y-79349500D01*
X170707813Y-78249999D01*
X174704357Y-78249999D01*
X174704357Y-78250000D01*
X174724884Y-78471535D01*
X174724885Y-78471537D01*
X174785769Y-78685523D01*
X174785775Y-78685538D01*
X174884938Y-78884683D01*
X174884943Y-78884691D01*
X175019020Y-79062238D01*
X175183437Y-79212123D01*
X175183439Y-79212125D01*
X175372595Y-79329245D01*
X175372596Y-79329245D01*
X175372599Y-79329247D01*
X175580060Y-79409618D01*
X175798757Y-79450500D01*
X175798759Y-79450500D01*
X176021241Y-79450500D01*
X176021243Y-79450500D01*
X176239940Y-79409618D01*
X176447401Y-79329247D01*
X176636562Y-79212124D01*
X176800981Y-79062236D01*
X176847981Y-78999998D01*
X180904532Y-78999998D01*
X180904532Y-79000001D01*
X180924364Y-79226686D01*
X180924366Y-79226697D01*
X180983258Y-79446488D01*
X180983261Y-79446497D01*
X181079431Y-79652732D01*
X181079432Y-79652734D01*
X181130244Y-79725302D01*
X181209954Y-79839141D01*
X181370858Y-80000045D01*
X181416596Y-80032071D01*
X181557266Y-80130568D01*
X181763504Y-80226739D01*
X181983308Y-80285635D01*
X182145230Y-80299801D01*
X182209998Y-80305468D01*
X182210000Y-80305468D01*
X182210002Y-80305468D01*
X182266673Y-80300509D01*
X182436692Y-80285635D01*
X182656496Y-80226739D01*
X182862734Y-80130568D01*
X183049139Y-80000047D01*
X183142598Y-79906587D01*
X183203919Y-79873104D01*
X183273611Y-79878088D01*
X183329545Y-79919959D01*
X183353567Y-79981012D01*
X183356401Y-80007373D01*
X183356403Y-80007379D01*
X183406645Y-80142086D01*
X183406649Y-80142093D01*
X183492809Y-80257187D01*
X183492812Y-80257190D01*
X183607906Y-80343350D01*
X183607913Y-80343354D01*
X183742620Y-80393596D01*
X183742627Y-80393598D01*
X183802155Y-80399999D01*
X183802172Y-80400000D01*
X184500000Y-80400000D01*
X184500000Y-79375277D01*
X184576306Y-79419333D01*
X184690756Y-79450000D01*
X184809244Y-79450000D01*
X184923694Y-79419333D01*
X185000000Y-79375277D01*
X185000000Y-80400000D01*
X185697828Y-80400000D01*
X185697844Y-80399999D01*
X185757372Y-80393598D01*
X185757379Y-80393596D01*
X185892086Y-80343354D01*
X185892093Y-80343350D01*
X186007187Y-80257190D01*
X186007190Y-80257187D01*
X186093350Y-80142093D01*
X186093354Y-80142086D01*
X186143596Y-80007379D01*
X186143598Y-80007372D01*
X186149999Y-79947844D01*
X186150000Y-79947827D01*
X186150000Y-79250000D01*
X185125278Y-79250000D01*
X185169333Y-79173694D01*
X185200000Y-79059244D01*
X185200000Y-78940756D01*
X185169333Y-78826306D01*
X185125278Y-78750000D01*
X186150000Y-78750000D01*
X186150000Y-78052172D01*
X186149999Y-78052155D01*
X186143598Y-77992627D01*
X186143596Y-77992620D01*
X186093354Y-77857913D01*
X186093350Y-77857906D01*
X186007190Y-77742812D01*
X186007187Y-77742809D01*
X185892093Y-77656649D01*
X185892086Y-77656645D01*
X185757379Y-77606403D01*
X185757372Y-77606401D01*
X185697844Y-77600000D01*
X185000000Y-77600000D01*
X185000000Y-78624722D01*
X184923694Y-78580667D01*
X184809244Y-78550000D01*
X184690756Y-78550000D01*
X184576306Y-78580667D01*
X184500000Y-78624722D01*
X184500000Y-77600000D01*
X183802155Y-77600000D01*
X183742627Y-77606401D01*
X183742620Y-77606403D01*
X183607913Y-77656645D01*
X183607906Y-77656649D01*
X183492812Y-77742809D01*
X183492809Y-77742812D01*
X183406649Y-77857906D01*
X183406645Y-77857913D01*
X183356403Y-77992620D01*
X183356401Y-77992626D01*
X183353567Y-78018987D01*
X183326828Y-78083538D01*
X183269434Y-78123384D01*
X183199609Y-78125876D01*
X183142597Y-78093410D01*
X183049141Y-77999954D01*
X182862734Y-77869432D01*
X182862732Y-77869431D01*
X182656497Y-77773261D01*
X182656488Y-77773258D01*
X182436697Y-77714366D01*
X182436693Y-77714365D01*
X182436692Y-77714365D01*
X182436691Y-77714364D01*
X182436686Y-77714364D01*
X182210002Y-77694532D01*
X182209998Y-77694532D01*
X181983313Y-77714364D01*
X181983302Y-77714366D01*
X181763511Y-77773258D01*
X181763502Y-77773261D01*
X181557267Y-77869431D01*
X181557265Y-77869432D01*
X181370858Y-77999954D01*
X181209954Y-78160858D01*
X181079432Y-78347265D01*
X181079431Y-78347267D01*
X180983261Y-78553502D01*
X180983258Y-78553511D01*
X180924366Y-78773302D01*
X180924364Y-78773313D01*
X180904532Y-78999998D01*
X176847981Y-78999998D01*
X176935058Y-78884689D01*
X177034229Y-78685528D01*
X177095115Y-78471536D01*
X177115643Y-78250000D01*
X177113005Y-78221536D01*
X177095115Y-78028464D01*
X177095114Y-78028462D01*
X177092418Y-78018987D01*
X177034229Y-77814472D01*
X177034224Y-77814461D01*
X176935061Y-77615316D01*
X176935056Y-77615308D01*
X176800979Y-77437761D01*
X176636562Y-77287876D01*
X176636560Y-77287874D01*
X176447404Y-77170754D01*
X176447398Y-77170752D01*
X176239940Y-77090382D01*
X176021243Y-77049500D01*
X175798757Y-77049500D01*
X175580060Y-77090382D01*
X175448864Y-77141207D01*
X175372601Y-77170752D01*
X175372595Y-77170754D01*
X175183439Y-77287874D01*
X175183437Y-77287876D01*
X175019020Y-77437761D01*
X174884943Y-77615308D01*
X174884938Y-77615316D01*
X174785775Y-77814461D01*
X174785769Y-77814476D01*
X174724885Y-78028462D01*
X174724884Y-78028464D01*
X174704357Y-78249999D01*
X170707813Y-78249999D01*
X167432314Y-74974500D01*
X167370854Y-74939016D01*
X167318187Y-74908608D01*
X167254539Y-74891554D01*
X167190892Y-74874500D01*
X167190891Y-74874500D01*
X164632676Y-74874500D01*
X164565637Y-74854815D01*
X164519882Y-74802011D01*
X164509938Y-74732853D01*
X164538963Y-74669297D01*
X164544995Y-74662819D01*
X164670995Y-74536819D01*
X164732318Y-74503334D01*
X164758676Y-74500500D01*
X170065890Y-74500500D01*
X170065892Y-74500500D01*
X170193186Y-74466392D01*
X170307314Y-74400500D01*
X170400500Y-74307314D01*
X170466392Y-74193186D01*
X170500500Y-74065892D01*
X170500500Y-70874499D01*
X170520185Y-70807460D01*
X170572989Y-70761705D01*
X170624500Y-70750499D01*
X170881517Y-70750499D01*
X170881518Y-70750499D01*
X170975304Y-70735646D01*
X171088342Y-70678050D01*
X171178050Y-70588342D01*
X171235646Y-70475304D01*
X171235646Y-70475302D01*
X171235647Y-70475301D01*
X171250499Y-70381524D01*
X171250500Y-70381519D01*
X171250499Y-69115186D01*
X219099500Y-69115186D01*
X219099500Y-69384813D01*
X219129686Y-69652719D01*
X219129688Y-69652731D01*
X219189684Y-69915594D01*
X219189687Y-69915602D01*
X219278734Y-70170082D01*
X219395714Y-70412994D01*
X219395716Y-70412997D01*
X219539162Y-70641289D01*
X219644540Y-70773429D01*
X219690158Y-70830633D01*
X219707266Y-70852085D01*
X219897915Y-71042734D01*
X220108711Y-71210838D01*
X220337003Y-71354284D01*
X220579921Y-71471267D01*
X220771049Y-71538145D01*
X220834397Y-71560312D01*
X220834405Y-71560315D01*
X220834408Y-71560315D01*
X220834409Y-71560316D01*
X221097268Y-71620312D01*
X221365187Y-71650499D01*
X221365188Y-71650500D01*
X221365191Y-71650500D01*
X221634812Y-71650500D01*
X221634812Y-71650499D01*
X221902732Y-71620312D01*
X222165591Y-71560316D01*
X222420079Y-71471267D01*
X222662997Y-71354284D01*
X222891289Y-71210838D01*
X223102085Y-71042734D01*
X223292734Y-70852085D01*
X223460838Y-70641289D01*
X223604284Y-70412997D01*
X223721267Y-70170079D01*
X223810316Y-69915591D01*
X223870312Y-69652732D01*
X223900500Y-69384809D01*
X223900500Y-69115191D01*
X223870312Y-68847268D01*
X223810316Y-68584409D01*
X223794217Y-68538402D01*
X223767443Y-68461886D01*
X223721267Y-68329921D01*
X223604284Y-68087003D01*
X223460838Y-67858711D01*
X223292734Y-67647915D01*
X223102085Y-67457266D01*
X222891289Y-67289162D01*
X222662997Y-67145716D01*
X222662994Y-67145714D01*
X222420082Y-67028734D01*
X222165602Y-66939687D01*
X222165594Y-66939684D01*
X221968446Y-66894687D01*
X221902732Y-66879688D01*
X221902728Y-66879687D01*
X221902719Y-66879686D01*
X221634813Y-66849500D01*
X221634809Y-66849500D01*
X221365191Y-66849500D01*
X221365186Y-66849500D01*
X221097280Y-66879686D01*
X221097268Y-66879688D01*
X220834405Y-66939684D01*
X220834397Y-66939687D01*
X220579917Y-67028734D01*
X220337005Y-67145714D01*
X220108712Y-67289161D01*
X219897915Y-67457265D01*
X219707265Y-67647915D01*
X219539161Y-67858712D01*
X219395714Y-68087005D01*
X219278734Y-68329917D01*
X219189687Y-68584397D01*
X219189684Y-68584405D01*
X219129688Y-68847268D01*
X219129686Y-68847280D01*
X219099500Y-69115186D01*
X171250499Y-69115186D01*
X171250499Y-68618482D01*
X171235646Y-68524696D01*
X171178050Y-68411658D01*
X171178046Y-68411654D01*
X171178045Y-68411652D01*
X171088347Y-68321954D01*
X171088344Y-68321952D01*
X171088342Y-68321950D01*
X171011517Y-68282805D01*
X170975301Y-68264352D01*
X170881524Y-68249500D01*
X169118482Y-68249500D01*
X169037519Y-68262323D01*
X169024696Y-68264354D01*
X168911658Y-68321950D01*
X168911657Y-68321951D01*
X168911652Y-68321954D01*
X168821954Y-68411652D01*
X168821951Y-68411657D01*
X168821950Y-68411658D01*
X168802751Y-68449337D01*
X168764352Y-68524698D01*
X168749500Y-68618475D01*
X168749500Y-68768138D01*
X168729815Y-68835177D01*
X168677011Y-68880932D01*
X168607853Y-68890876D01*
X168544297Y-68861851D01*
X168523925Y-68839261D01*
X168421599Y-68693124D01*
X168346950Y-68618475D01*
X168266877Y-68538402D01*
X168087639Y-68412898D01*
X168087640Y-68412898D01*
X168087638Y-68412897D01*
X167988484Y-68366661D01*
X167889330Y-68320425D01*
X167889326Y-68320424D01*
X167889322Y-68320422D01*
X167677977Y-68263793D01*
X167460002Y-68244723D01*
X167459998Y-68244723D01*
X167314682Y-68257436D01*
X167242023Y-68263793D01*
X167242020Y-68263793D01*
X167030677Y-68320422D01*
X167030670Y-68320424D01*
X167030670Y-68320425D01*
X167027391Y-68321954D01*
X166832361Y-68412898D01*
X166832357Y-68412900D01*
X166653121Y-68538402D01*
X166498402Y-68693121D01*
X166372900Y-68872357D01*
X166372898Y-68872361D01*
X166302382Y-69023583D01*
X166256209Y-69076022D01*
X166189016Y-69095174D01*
X166122135Y-69074958D01*
X166077618Y-69023583D01*
X166022726Y-68905868D01*
X166007102Y-68872362D01*
X166007100Y-68872359D01*
X166007099Y-68872357D01*
X165881599Y-68693124D01*
X165806950Y-68618475D01*
X165726877Y-68538402D01*
X165547639Y-68412898D01*
X165547640Y-68412898D01*
X165547638Y-68412897D01*
X165448484Y-68366661D01*
X165349330Y-68320425D01*
X165349326Y-68320424D01*
X165349322Y-68320422D01*
X165137977Y-68263793D01*
X164920002Y-68244723D01*
X164919998Y-68244723D01*
X164774682Y-68257436D01*
X164702023Y-68263793D01*
X164702020Y-68263793D01*
X164490677Y-68320422D01*
X164490670Y-68320424D01*
X164490670Y-68320425D01*
X164487391Y-68321954D01*
X164292361Y-68412898D01*
X164292357Y-68412900D01*
X164113121Y-68538402D01*
X163958402Y-68693121D01*
X163832900Y-68872357D01*
X163832898Y-68872361D01*
X163762382Y-69023583D01*
X163716209Y-69076022D01*
X163649016Y-69095174D01*
X163582135Y-69074958D01*
X163537618Y-69023583D01*
X163482726Y-68905868D01*
X163467102Y-68872362D01*
X163467100Y-68872359D01*
X163467099Y-68872357D01*
X163341599Y-68693124D01*
X163266950Y-68618475D01*
X163186877Y-68538402D01*
X163007639Y-68412898D01*
X163007640Y-68412898D01*
X163007638Y-68412897D01*
X162908484Y-68366661D01*
X162809330Y-68320425D01*
X162809326Y-68320424D01*
X162809322Y-68320422D01*
X162597977Y-68263793D01*
X162380002Y-68244723D01*
X162379998Y-68244723D01*
X162234682Y-68257436D01*
X162162023Y-68263793D01*
X162162020Y-68263793D01*
X161950677Y-68320422D01*
X161950670Y-68320424D01*
X161950670Y-68320425D01*
X161947391Y-68321954D01*
X161752361Y-68412898D01*
X161752357Y-68412900D01*
X161573121Y-68538402D01*
X161418402Y-68693121D01*
X161292900Y-68872357D01*
X161292897Y-68872363D01*
X161277273Y-68905868D01*
X161231099Y-68958307D01*
X161163905Y-68977457D01*
X161097025Y-68957240D01*
X161052509Y-68905865D01*
X161013598Y-68822419D01*
X160878113Y-68628926D01*
X160878108Y-68628920D01*
X160711082Y-68461894D01*
X160517578Y-68326399D01*
X160303492Y-68226570D01*
X160303486Y-68226567D01*
X160090000Y-68169364D01*
X160090000Y-69066988D01*
X160032993Y-69034075D01*
X159905826Y-69000000D01*
X159774174Y-69000000D01*
X159647007Y-69034075D01*
X159590000Y-69066988D01*
X159590000Y-68169364D01*
X159589999Y-68169364D01*
X159376513Y-68226567D01*
X159376507Y-68226570D01*
X159162422Y-68326399D01*
X159162420Y-68326400D01*
X158968926Y-68461886D01*
X158968920Y-68461891D01*
X158801891Y-68628920D01*
X158801886Y-68628926D01*
X158666400Y-68822420D01*
X158666399Y-68822422D01*
X158566570Y-69036507D01*
X158566567Y-69036513D01*
X158509364Y-69249999D01*
X158509364Y-69250000D01*
X159406988Y-69250000D01*
X159374075Y-69307007D01*
X159340000Y-69434174D01*
X159340000Y-69565826D01*
X159374075Y-69692993D01*
X159406988Y-69750000D01*
X158509364Y-69750000D01*
X158566567Y-69963486D01*
X158566570Y-69963492D01*
X158666399Y-70177578D01*
X158801894Y-70371082D01*
X158968917Y-70538105D01*
X159162421Y-70673600D01*
X159376507Y-70773429D01*
X159376516Y-70773433D01*
X159590000Y-70830634D01*
X159590000Y-69933012D01*
X159647007Y-69965925D01*
X159774174Y-70000000D01*
X159905826Y-70000000D01*
X160032993Y-69965925D01*
X160090000Y-69933012D01*
X160090000Y-70830633D01*
X160303483Y-70773433D01*
X160303492Y-70773429D01*
X160517578Y-70673600D01*
X160711082Y-70538105D01*
X160878105Y-70371082D01*
X161013598Y-70177580D01*
X161052509Y-70094135D01*
X161098681Y-70041695D01*
X161165875Y-70022543D01*
X161232756Y-70042758D01*
X161277273Y-70094133D01*
X161287989Y-70117112D01*
X161292898Y-70127639D01*
X161418402Y-70306877D01*
X161573123Y-70461598D01*
X161752361Y-70587102D01*
X161950670Y-70679575D01*
X162162023Y-70736207D01*
X162344926Y-70752208D01*
X162379998Y-70755277D01*
X162380000Y-70755277D01*
X162380002Y-70755277D01*
X162408254Y-70752805D01*
X162597977Y-70736207D01*
X162809330Y-70679575D01*
X163007639Y-70587102D01*
X163186877Y-70461598D01*
X163341598Y-70306877D01*
X163467102Y-70127639D01*
X163537618Y-69976414D01*
X163583790Y-69923977D01*
X163650984Y-69904825D01*
X163717865Y-69925041D01*
X163762381Y-69976414D01*
X163832898Y-70127639D01*
X163958402Y-70306877D01*
X164113123Y-70461598D01*
X164292361Y-70587102D01*
X164490670Y-70679575D01*
X164702023Y-70736207D01*
X164884926Y-70752208D01*
X164919998Y-70755277D01*
X164920000Y-70755277D01*
X164920002Y-70755277D01*
X164948254Y-70752805D01*
X165137977Y-70736207D01*
X165349330Y-70679575D01*
X165547639Y-70587102D01*
X165726877Y-70461598D01*
X165881598Y-70306877D01*
X166007102Y-70127639D01*
X166077618Y-69976414D01*
X166123790Y-69923977D01*
X166190984Y-69904825D01*
X166257865Y-69925041D01*
X166302381Y-69976414D01*
X166372898Y-70127639D01*
X166498402Y-70306877D01*
X166653123Y-70461598D01*
X166832361Y-70587102D01*
X167030670Y-70679575D01*
X167242023Y-70736207D01*
X167424926Y-70752208D01*
X167459998Y-70755277D01*
X167460000Y-70755277D01*
X167460002Y-70755277D01*
X167488254Y-70752805D01*
X167677977Y-70736207D01*
X167889330Y-70679575D01*
X168087639Y-70587102D01*
X168266877Y-70461598D01*
X168421598Y-70306877D01*
X168523928Y-70160734D01*
X168578502Y-70117112D01*
X168648000Y-70109918D01*
X168710355Y-70141441D01*
X168745769Y-70201670D01*
X168749500Y-70231859D01*
X168749500Y-70381517D01*
X168754486Y-70412997D01*
X168764354Y-70475304D01*
X168821950Y-70588342D01*
X168821952Y-70588344D01*
X168821954Y-70588347D01*
X168911652Y-70678045D01*
X168911654Y-70678046D01*
X168911658Y-70678050D01*
X169024694Y-70735645D01*
X169024698Y-70735647D01*
X169118475Y-70750499D01*
X169118481Y-70750500D01*
X169375501Y-70750499D01*
X169442539Y-70770183D01*
X169488294Y-70822987D01*
X169499500Y-70874499D01*
X169499500Y-73375500D01*
X169479815Y-73442539D01*
X169427011Y-73488294D01*
X169375500Y-73499500D01*
X164434107Y-73499500D01*
X164306812Y-73533608D01*
X164192686Y-73599500D01*
X164192683Y-73599502D01*
X163087681Y-74704505D01*
X163026358Y-74737990D01*
X162956666Y-74733006D01*
X162912319Y-74704505D01*
X160807316Y-72599502D01*
X160807314Y-72599500D01*
X160750250Y-72566554D01*
X160693187Y-72533608D01*
X160629539Y-72516554D01*
X160565892Y-72499500D01*
X160565891Y-72499500D01*
X152624500Y-72499500D01*
X152557461Y-72479815D01*
X152511706Y-72427011D01*
X152500500Y-72375500D01*
X152500500Y-70874499D01*
X152520185Y-70807460D01*
X152572989Y-70761705D01*
X152624500Y-70750499D01*
X152881517Y-70750499D01*
X152881518Y-70750499D01*
X152975304Y-70735646D01*
X153088342Y-70678050D01*
X153178050Y-70588342D01*
X153235646Y-70475304D01*
X153235646Y-70475302D01*
X153235647Y-70475301D01*
X153250499Y-70381524D01*
X153250500Y-70381519D01*
X153250499Y-68618482D01*
X153235646Y-68524696D01*
X153178050Y-68411658D01*
X153178046Y-68411654D01*
X153178045Y-68411652D01*
X153088347Y-68321954D01*
X153088344Y-68321952D01*
X153088342Y-68321950D01*
X153011517Y-68282805D01*
X152975301Y-68264352D01*
X152881524Y-68249500D01*
X151118482Y-68249500D01*
X151037519Y-68262323D01*
X151024696Y-68264354D01*
X150911658Y-68321950D01*
X150911657Y-68321951D01*
X150911652Y-68321954D01*
X150821954Y-68411652D01*
X150821951Y-68411657D01*
X150821950Y-68411658D01*
X150802751Y-68449337D01*
X150764352Y-68524698D01*
X150749500Y-68618475D01*
X150749500Y-68768138D01*
X150729815Y-68835177D01*
X150677011Y-68880932D01*
X150607853Y-68890876D01*
X150544297Y-68861851D01*
X150523925Y-68839261D01*
X150421599Y-68693124D01*
X150346950Y-68618475D01*
X150266877Y-68538402D01*
X150087639Y-68412898D01*
X150087640Y-68412898D01*
X150087638Y-68412897D01*
X149988484Y-68366661D01*
X149889330Y-68320425D01*
X149889326Y-68320424D01*
X149889322Y-68320422D01*
X149677977Y-68263793D01*
X149460002Y-68244723D01*
X149459998Y-68244723D01*
X149314682Y-68257436D01*
X149242023Y-68263793D01*
X149242020Y-68263793D01*
X149030677Y-68320422D01*
X149030670Y-68320424D01*
X149030670Y-68320425D01*
X149027391Y-68321954D01*
X148832361Y-68412898D01*
X148832357Y-68412900D01*
X148653121Y-68538402D01*
X148498402Y-68693121D01*
X148372900Y-68872357D01*
X148372897Y-68872363D01*
X148357273Y-68905868D01*
X148311099Y-68958307D01*
X148243905Y-68977457D01*
X148177025Y-68957240D01*
X148132509Y-68905865D01*
X148093598Y-68822419D01*
X147958113Y-68628926D01*
X147958108Y-68628920D01*
X147791082Y-68461894D01*
X147597578Y-68326399D01*
X147383492Y-68226570D01*
X147383486Y-68226567D01*
X147170000Y-68169364D01*
X147170000Y-69066988D01*
X147112993Y-69034075D01*
X146985826Y-69000000D01*
X146854174Y-69000000D01*
X146727007Y-69034075D01*
X146670000Y-69066988D01*
X146670000Y-68169364D01*
X146669999Y-68169364D01*
X146456513Y-68226567D01*
X146456507Y-68226570D01*
X146242422Y-68326399D01*
X146242420Y-68326400D01*
X146048926Y-68461886D01*
X146048920Y-68461891D01*
X145881891Y-68628920D01*
X145881886Y-68628926D01*
X145746400Y-68822420D01*
X145746399Y-68822422D01*
X145646570Y-69036507D01*
X145646567Y-69036513D01*
X145589364Y-69249999D01*
X145589364Y-69250000D01*
X146486988Y-69250000D01*
X146454075Y-69307007D01*
X146420000Y-69434174D01*
X146420000Y-69565826D01*
X146454075Y-69692993D01*
X146486988Y-69750000D01*
X145589364Y-69750000D01*
X145646567Y-69963486D01*
X145646570Y-69963492D01*
X145746399Y-70177578D01*
X145881894Y-70371082D01*
X146048917Y-70538105D01*
X146242421Y-70673600D01*
X146456507Y-70773429D01*
X146456516Y-70773433D01*
X146670000Y-70830634D01*
X146670000Y-69933012D01*
X146727007Y-69965925D01*
X146854174Y-70000000D01*
X146985826Y-70000000D01*
X147112993Y-69965925D01*
X147170000Y-69933012D01*
X147170000Y-70830633D01*
X147383483Y-70773433D01*
X147383492Y-70773429D01*
X147597578Y-70673600D01*
X147791082Y-70538105D01*
X147958105Y-70371082D01*
X148093598Y-70177580D01*
X148132509Y-70094135D01*
X148178681Y-70041695D01*
X148245875Y-70022543D01*
X148312756Y-70042758D01*
X148357273Y-70094133D01*
X148367989Y-70117112D01*
X148372898Y-70127639D01*
X148498402Y-70306877D01*
X148653123Y-70461598D01*
X148832361Y-70587102D01*
X149030670Y-70679575D01*
X149242023Y-70736207D01*
X149424926Y-70752208D01*
X149459998Y-70755277D01*
X149460000Y-70755277D01*
X149460002Y-70755277D01*
X149488254Y-70752805D01*
X149677977Y-70736207D01*
X149889330Y-70679575D01*
X150087639Y-70587102D01*
X150266877Y-70461598D01*
X150421598Y-70306877D01*
X150523928Y-70160734D01*
X150578502Y-70117112D01*
X150648000Y-70109918D01*
X150710355Y-70141441D01*
X150745769Y-70201670D01*
X150749500Y-70231859D01*
X150749500Y-70381517D01*
X150754486Y-70412997D01*
X150764354Y-70475304D01*
X150821950Y-70588342D01*
X150821952Y-70588344D01*
X150821954Y-70588347D01*
X150911652Y-70678045D01*
X150911654Y-70678046D01*
X150911658Y-70678050D01*
X151024694Y-70735645D01*
X151024698Y-70735647D01*
X151118475Y-70750499D01*
X151118481Y-70750500D01*
X151375501Y-70750499D01*
X151442539Y-70770183D01*
X151488294Y-70822987D01*
X151499500Y-70874499D01*
X151499500Y-72250500D01*
X151479815Y-72317539D01*
X151427011Y-72363294D01*
X151375500Y-72374500D01*
X137003676Y-72374500D01*
X136936637Y-72354815D01*
X136915995Y-72338181D01*
X136221230Y-71643416D01*
X136187745Y-71582093D01*
X136189135Y-71523648D01*
X136236207Y-71347977D01*
X136255277Y-71130000D01*
X136236207Y-70912023D01*
X136179575Y-70700670D01*
X136087102Y-70502362D01*
X136087100Y-70502359D01*
X136087099Y-70502357D01*
X135961599Y-70323124D01*
X135945352Y-70306877D01*
X135806877Y-70168402D01*
X135627639Y-70042898D01*
X135627339Y-70042758D01*
X135594133Y-70027273D01*
X135541694Y-69981100D01*
X135522543Y-69913907D01*
X135542760Y-69847026D01*
X135594135Y-69802509D01*
X135677580Y-69763598D01*
X135871082Y-69628105D01*
X136038105Y-69461082D01*
X136173600Y-69267578D01*
X136273429Y-69053492D01*
X136273432Y-69053486D01*
X136330636Y-68840000D01*
X135433012Y-68840000D01*
X135465925Y-68782993D01*
X135500000Y-68655826D01*
X135500000Y-68524174D01*
X135465925Y-68397007D01*
X135433012Y-68340000D01*
X136330636Y-68340000D01*
X136330635Y-68339999D01*
X136273432Y-68126513D01*
X136273429Y-68126507D01*
X136173600Y-67912422D01*
X136173599Y-67912420D01*
X136038113Y-67718926D01*
X136038108Y-67718920D01*
X135871082Y-67551894D01*
X135677578Y-67416399D01*
X135463492Y-67316570D01*
X135463486Y-67316567D01*
X135250000Y-67259364D01*
X135250000Y-68156988D01*
X135192993Y-68124075D01*
X135065826Y-68090000D01*
X134934174Y-68090000D01*
X134807007Y-68124075D01*
X134750000Y-68156988D01*
X134750000Y-67259364D01*
X134749999Y-67259364D01*
X134536513Y-67316567D01*
X134536507Y-67316570D01*
X134322422Y-67416399D01*
X134322420Y-67416400D01*
X134128926Y-67551886D01*
X134128920Y-67551891D01*
X133961891Y-67718920D01*
X133961886Y-67718926D01*
X133826400Y-67912420D01*
X133826399Y-67912422D01*
X133726570Y-68126507D01*
X133726567Y-68126513D01*
X133669364Y-68339999D01*
X133669364Y-68340000D01*
X134566988Y-68340000D01*
X134534075Y-68397007D01*
X134500000Y-68524174D01*
X134500000Y-68655826D01*
X134534075Y-68782993D01*
X134566988Y-68840000D01*
X133669364Y-68840000D01*
X133726567Y-69053486D01*
X133726570Y-69053492D01*
X133826399Y-69267578D01*
X133961894Y-69461082D01*
X134128917Y-69628105D01*
X134322419Y-69763598D01*
X134405865Y-69802509D01*
X134458305Y-69848681D01*
X134477457Y-69915875D01*
X134457242Y-69982756D01*
X134405868Y-70027273D01*
X134372363Y-70042897D01*
X134372357Y-70042900D01*
X134193121Y-70168402D01*
X134038402Y-70323121D01*
X133912900Y-70502357D01*
X133912898Y-70502361D01*
X133820426Y-70700668D01*
X133820422Y-70700677D01*
X133763793Y-70912020D01*
X133763793Y-70912024D01*
X133744723Y-71129997D01*
X133744723Y-71130002D01*
X133763793Y-71347975D01*
X133763793Y-71347979D01*
X133810862Y-71523642D01*
X133809199Y-71593492D01*
X133778768Y-71643416D01*
X123305245Y-82116940D01*
X123305244Y-82116940D01*
X123305245Y-82116941D01*
X123229500Y-82192686D01*
X123163608Y-82306812D01*
X123129500Y-82434108D01*
X123129500Y-84345500D01*
X123109815Y-84412539D01*
X123057011Y-84458294D01*
X123005501Y-84469500D01*
X122798482Y-84469500D01*
X122717519Y-84482323D01*
X122704696Y-84484354D01*
X122591658Y-84541950D01*
X122591657Y-84541951D01*
X122591652Y-84541954D01*
X122501954Y-84631652D01*
X122501951Y-84631657D01*
X122444352Y-84744698D01*
X122429500Y-84838475D01*
X122429500Y-86501517D01*
X122440292Y-86569657D01*
X122444354Y-86595304D01*
X122501950Y-86708342D01*
X122501952Y-86708344D01*
X122501954Y-86708347D01*
X122591652Y-86798045D01*
X122591654Y-86798046D01*
X122591658Y-86798050D01*
X122692632Y-86849499D01*
X122704698Y-86855647D01*
X122798475Y-86870499D01*
X122798481Y-86870500D01*
X123101049Y-86870499D01*
X123168086Y-86890183D01*
X123213841Y-86942987D01*
X123223785Y-87012146D01*
X123194760Y-87075701D01*
X123145842Y-87110125D01*
X123092607Y-87130748D01*
X123092595Y-87130754D01*
X122903439Y-87247874D01*
X122903437Y-87247876D01*
X122739020Y-87397761D01*
X122604943Y-87575308D01*
X122604938Y-87575316D01*
X122505775Y-87774461D01*
X122505769Y-87774476D01*
X122444885Y-87988462D01*
X122444884Y-87988464D01*
X122424357Y-88209999D01*
X122424357Y-88210000D01*
X122444884Y-88431535D01*
X122444885Y-88431537D01*
X122505769Y-88645523D01*
X122505775Y-88645538D01*
X122604938Y-88844683D01*
X122604943Y-88844691D01*
X122739020Y-89022238D01*
X122846116Y-89119868D01*
X122902175Y-89170973D01*
X122903437Y-89172123D01*
X122903439Y-89172125D01*
X123092595Y-89289245D01*
X123092607Y-89289251D01*
X123138141Y-89306890D01*
X123144689Y-89309427D01*
X123145774Y-89309847D01*
X123201177Y-89352419D01*
X123224768Y-89418185D01*
X123209058Y-89486266D01*
X123159034Y-89535046D01*
X123153387Y-89537856D01*
X122977517Y-89619865D01*
X122791179Y-89750342D01*
X122630342Y-89911179D01*
X122499865Y-90097517D01*
X122403734Y-90303673D01*
X122403730Y-90303682D01*
X122351127Y-90499999D01*
X118778872Y-90499999D01*
X118785139Y-90476610D01*
X118785141Y-90476599D01*
X118804966Y-90250002D01*
X118804966Y-90249997D01*
X118785141Y-90023400D01*
X118785139Y-90023389D01*
X118726269Y-89803682D01*
X118726264Y-89803668D01*
X118630136Y-89597521D01*
X118630132Y-89597513D01*
X118579025Y-89524526D01*
X117900000Y-90203551D01*
X117900000Y-90197339D01*
X117872741Y-90095606D01*
X117820080Y-90004394D01*
X117745606Y-89929920D01*
X117654394Y-89877259D01*
X117552661Y-89850000D01*
X117546445Y-89850000D01*
X118225472Y-89170974D01*
X118152478Y-89119863D01*
X117946331Y-89023735D01*
X117946317Y-89023730D01*
X117726610Y-88964860D01*
X117726599Y-88964858D01*
X117500002Y-88945034D01*
X117499998Y-88945034D01*
X117273400Y-88964858D01*
X117273389Y-88964860D01*
X117053682Y-89023730D01*
X117053673Y-89023734D01*
X116847516Y-89119866D01*
X116847512Y-89119868D01*
X116774526Y-89170973D01*
X116774526Y-89170974D01*
X117453553Y-89850000D01*
X117447339Y-89850000D01*
X117345606Y-89877259D01*
X117254394Y-89929920D01*
X117179920Y-90004394D01*
X117127259Y-90095606D01*
X117100000Y-90197339D01*
X117100000Y-90203552D01*
X116420974Y-89524526D01*
X116420973Y-89524526D01*
X116369868Y-89597512D01*
X116369866Y-89597516D01*
X116273734Y-89803673D01*
X116273730Y-89803682D01*
X116214860Y-90023389D01*
X116214858Y-90023400D01*
X116195034Y-90249997D01*
X96000500Y-90249997D01*
X96000500Y-69115186D01*
X99599500Y-69115186D01*
X99599500Y-69384813D01*
X99629686Y-69652719D01*
X99629688Y-69652731D01*
X99689684Y-69915594D01*
X99689687Y-69915602D01*
X99778734Y-70170082D01*
X99895714Y-70412994D01*
X99895716Y-70412997D01*
X100039162Y-70641289D01*
X100144540Y-70773429D01*
X100190158Y-70830633D01*
X100207266Y-70852085D01*
X100397915Y-71042734D01*
X100608711Y-71210838D01*
X100837003Y-71354284D01*
X101079921Y-71471267D01*
X101271049Y-71538145D01*
X101334397Y-71560312D01*
X101334405Y-71560315D01*
X101334408Y-71560315D01*
X101334409Y-71560316D01*
X101597268Y-71620312D01*
X101865187Y-71650499D01*
X101865188Y-71650500D01*
X101865191Y-71650500D01*
X102134812Y-71650500D01*
X102134812Y-71650499D01*
X102402732Y-71620312D01*
X102665591Y-71560316D01*
X102920079Y-71471267D01*
X103162997Y-71354284D01*
X103391289Y-71210838D01*
X103602085Y-71042734D01*
X103792734Y-70852085D01*
X103960838Y-70641289D01*
X104104284Y-70412997D01*
X104221267Y-70170079D01*
X104310316Y-69915591D01*
X104370312Y-69652732D01*
X104400500Y-69384809D01*
X104400500Y-69115191D01*
X104370312Y-68847268D01*
X104310316Y-68584409D01*
X104294217Y-68538402D01*
X104267443Y-68461886D01*
X104221267Y-68329921D01*
X104104284Y-68087003D01*
X103960838Y-67858711D01*
X103792734Y-67647915D01*
X103602085Y-67457266D01*
X103391289Y-67289162D01*
X103162997Y-67145716D01*
X103162994Y-67145714D01*
X102920082Y-67028734D01*
X102665602Y-66939687D01*
X102665594Y-66939684D01*
X102468446Y-66894687D01*
X102402732Y-66879688D01*
X102402728Y-66879687D01*
X102402719Y-66879686D01*
X102134813Y-66849500D01*
X102134809Y-66849500D01*
X101865191Y-66849500D01*
X101865186Y-66849500D01*
X101597280Y-66879686D01*
X101597268Y-66879688D01*
X101334405Y-66939684D01*
X101334397Y-66939687D01*
X101079917Y-67028734D01*
X100837005Y-67145714D01*
X100608712Y-67289161D01*
X100397915Y-67457265D01*
X100207265Y-67647915D01*
X100039161Y-67858712D01*
X99895714Y-68087005D01*
X99778734Y-68329917D01*
X99689687Y-68584397D01*
X99689684Y-68584405D01*
X99629688Y-68847268D01*
X99629686Y-68847280D01*
X99599500Y-69115186D01*
X96000500Y-69115186D01*
X96000500Y-66533379D01*
X96020185Y-66466340D01*
X96042845Y-66440059D01*
X96324615Y-66193510D01*
X99652992Y-63281179D01*
X99716407Y-63251849D01*
X99734647Y-63250500D01*
X224727675Y-63250500D01*
X224794714Y-63270185D01*
G37*
G04 #@! TD.AperFunction*
M02*
