G04 #@! TF.GenerationSoftware,KiCad,Pcbnew,8.0.8*
G04 #@! TF.CreationDate,2025-02-09T14:04:56-05:00*
G04 #@! TF.ProjectId,AetherX_KiCad,41657468-6572-4585-9f4b-694361642e6b,rev?*
G04 #@! TF.SameCoordinates,Original*
G04 #@! TF.FileFunction,Soldermask,Top*
G04 #@! TF.FilePolarity,Negative*
%FSLAX46Y46*%
G04 Gerber Fmt 4.6, Leading zero omitted, Abs format (unit mm)*
G04 Created by KiCad (PCBNEW 8.0.8) date 2025-02-09 14:04:56*
%MOMM*%
%LPD*%
G01*
G04 APERTURE LIST*
G04 Aperture macros list*
%AMRoundRect*
0 Rectangle with rounded corners*
0 $1 Rounding radius*
0 $2 $3 $4 $5 $6 $7 $8 $9 X,Y pos of 4 corners*
0 Add a 4 corners polygon primitive as box body*
4,1,4,$2,$3,$4,$5,$6,$7,$8,$9,$2,$3,0*
0 Add four circle primitives for the rounded corners*
1,1,$1+$1,$2,$3*
1,1,$1+$1,$4,$5*
1,1,$1+$1,$6,$7*
1,1,$1+$1,$8,$9*
0 Add four rect primitives between the rounded corners*
20,1,$1+$1,$2,$3,$4,$5,0*
20,1,$1+$1,$4,$5,$6,$7,0*
20,1,$1+$1,$6,$7,$8,$9,0*
20,1,$1+$1,$8,$9,$2,$3,0*%
G04 Aperture macros list end*
%ADD10C,4.300000*%
%ADD11RoundRect,0.155000X-0.212500X-0.155000X0.212500X-0.155000X0.212500X0.155000X-0.212500X0.155000X0*%
%ADD12R,1.600000X1.600000*%
%ADD13O,1.600000X1.600000*%
%ADD14C,1.600000*%
%ADD15RoundRect,0.155000X0.212500X0.155000X-0.212500X0.155000X-0.212500X-0.155000X0.212500X-0.155000X0*%
%ADD16RoundRect,0.075000X-0.700000X-0.075000X0.700000X-0.075000X0.700000X0.075000X-0.700000X0.075000X0*%
%ADD17RoundRect,0.075000X-0.075000X-0.700000X0.075000X-0.700000X0.075000X0.700000X-0.075000X0.700000X0*%
%ADD18C,1.500000*%
%ADD19R,1.700000X1.700000*%
%ADD20O,1.700000X1.700000*%
%ADD21RoundRect,0.250000X0.337500X0.475000X-0.337500X0.475000X-0.337500X-0.475000X0.337500X-0.475000X0*%
%ADD22R,2.250000X2.250000*%
%ADD23C,2.250000*%
%ADD24R,1.800000X1.800000*%
%ADD25C,1.800000*%
%ADD26R,3.000000X3.000000*%
%ADD27C,3.000000*%
G04 APERTURE END LIST*
D10*
X102000000Y-69250000D03*
D11*
X136365000Y-101000000D03*
X137500000Y-101000000D03*
D12*
X123630000Y-85670000D03*
D13*
X123630000Y-88210000D03*
X123630000Y-90750000D03*
X123630000Y-93290000D03*
X131250000Y-93290000D03*
X131250000Y-90750000D03*
X131250000Y-88210000D03*
X131250000Y-85670000D03*
D14*
X165750000Y-78250000D03*
D13*
X175910000Y-78250000D03*
D15*
X165635000Y-98000000D03*
X164500000Y-98000000D03*
D16*
X155900000Y-85500000D03*
X155900000Y-86000000D03*
X155900000Y-86500000D03*
X155900000Y-87000000D03*
X155900000Y-87500000D03*
X155900000Y-88000000D03*
X155900000Y-88500000D03*
X155900000Y-89000000D03*
X155900000Y-89500000D03*
X155900000Y-90000000D03*
X155900000Y-90500000D03*
X155900000Y-91000000D03*
X155900000Y-91500000D03*
X155900000Y-92000000D03*
X155900000Y-92500000D03*
X155900000Y-93000000D03*
D17*
X157825000Y-94925000D03*
X158325000Y-94925000D03*
X158825000Y-94925000D03*
X159325000Y-94925000D03*
X159825000Y-94925000D03*
X160325000Y-94925000D03*
X160825000Y-94925000D03*
X161325000Y-94925000D03*
X161825000Y-94925000D03*
X162325000Y-94925000D03*
X162825000Y-94925000D03*
X163325000Y-94925000D03*
X163825000Y-94925000D03*
X164325000Y-94925000D03*
X164825000Y-94925000D03*
X165325000Y-94925000D03*
D16*
X167250000Y-93000000D03*
X167250000Y-92500000D03*
X167250000Y-92000000D03*
X167250000Y-91500000D03*
X167250000Y-91000000D03*
X167250000Y-90500000D03*
X167250000Y-90000000D03*
X167250000Y-89500000D03*
X167250000Y-89000000D03*
X167250000Y-88500000D03*
X167250000Y-88000000D03*
X167250000Y-87500000D03*
X167250000Y-87000000D03*
X167250000Y-86500000D03*
X167250000Y-86000000D03*
X167250000Y-85500000D03*
D17*
X165325000Y-83575000D03*
X164825000Y-83575000D03*
X164325000Y-83575000D03*
X163825000Y-83575000D03*
X163325000Y-83575000D03*
X162825000Y-83575000D03*
X162325000Y-83575000D03*
X161825000Y-83575000D03*
X161325000Y-83575000D03*
X160825000Y-83575000D03*
X160325000Y-83575000D03*
X159825000Y-83575000D03*
X159325000Y-83575000D03*
X158825000Y-83575000D03*
X158325000Y-83575000D03*
X157825000Y-83575000D03*
D14*
X182750000Y-114920000D03*
D13*
X192910000Y-114920000D03*
D15*
X158750000Y-98000000D03*
X157615000Y-98000000D03*
X118250000Y-87250000D03*
X117115000Y-87250000D03*
D14*
X139580000Y-115250000D03*
D13*
X129420000Y-115250000D03*
D18*
X120500000Y-101800000D03*
X120500000Y-106680000D03*
D19*
X181275000Y-88450000D03*
D20*
X181275000Y-90990000D03*
X181275000Y-93530000D03*
X181275000Y-96070000D03*
D21*
X154325000Y-82750000D03*
X152250000Y-82750000D03*
D14*
X117500000Y-95250000D03*
X117500000Y-90250000D03*
D19*
X152000000Y-69500000D03*
D20*
X149460000Y-69500000D03*
X146920000Y-69500000D03*
D14*
X138150000Y-94500000D03*
D13*
X150850000Y-94500000D03*
D14*
X140750000Y-86500000D03*
X145750000Y-86500000D03*
D11*
X171365000Y-85500000D03*
X172500000Y-85500000D03*
D19*
X170000000Y-69500000D03*
D20*
X167460000Y-69500000D03*
X164920000Y-69500000D03*
X162380000Y-69500000D03*
X159840000Y-69500000D03*
D14*
X162790000Y-104250000D03*
X157790000Y-104250000D03*
D22*
X129750000Y-128000000D03*
D23*
X129750000Y-121500000D03*
D14*
X193250000Y-99090000D03*
D13*
X193250000Y-109250000D03*
D10*
X102500000Y-129250000D03*
D22*
X193750000Y-128000000D03*
D23*
X193750000Y-121500000D03*
D14*
X150170000Y-78000000D03*
D13*
X160330000Y-78000000D03*
D19*
X135000000Y-78750000D03*
D20*
X135000000Y-76210000D03*
X135000000Y-73670000D03*
X135000000Y-71130000D03*
X135000000Y-68590000D03*
D11*
X188682500Y-95750000D03*
X189817500Y-95750000D03*
D10*
X221500000Y-69250000D03*
D24*
X184750000Y-79000000D03*
D25*
X182210000Y-79000000D03*
D19*
X141460000Y-105750000D03*
D20*
X144000000Y-105750000D03*
X146540000Y-105750000D03*
D26*
X195000000Y-88749999D03*
D27*
X215490000Y-88749999D03*
D11*
X140115000Y-76500000D03*
X141250000Y-76500000D03*
D14*
X171000000Y-97500000D03*
X171000000Y-102500000D03*
D10*
X221250000Y-128500000D03*
D14*
X130000000Y-99420000D03*
D13*
X130000000Y-109580000D03*
D14*
X119000000Y-114250000D03*
X124000000Y-114250000D03*
D19*
X156950000Y-110500000D03*
D20*
X159490000Y-110500000D03*
X162030000Y-110500000D03*
X164570000Y-110500000D03*
M02*
