G04 #@! TF.GenerationSoftware,KiCad,Pcbnew,8.0.8*
G04 #@! TF.CreationDate,2025-02-09T14:04:56-05:00*
G04 #@! TF.ProjectId,AetherX_KiCad,41657468-6572-4585-9f4b-694361642e6b,rev?*
G04 #@! TF.SameCoordinates,Original*
G04 #@! TF.FileFunction,Soldermask,Bot*
G04 #@! TF.FilePolarity,Negative*
%FSLAX46Y46*%
G04 Gerber Fmt 4.6, Leading zero omitted, Abs format (unit mm)*
G04 Created by KiCad (PCBNEW 8.0.8) date 2025-02-09 14:04:56*
%MOMM*%
%LPD*%
G01*
G04 APERTURE LIST*
%ADD10C,4.300000*%
%ADD11R,1.600000X1.600000*%
%ADD12O,1.600000X1.600000*%
%ADD13C,1.600000*%
%ADD14C,1.500000*%
%ADD15R,1.700000X1.700000*%
%ADD16O,1.700000X1.700000*%
%ADD17R,2.250000X2.250000*%
%ADD18C,2.250000*%
%ADD19R,1.800000X1.800000*%
%ADD20C,1.800000*%
%ADD21R,3.000000X3.000000*%
%ADD22C,3.000000*%
G04 APERTURE END LIST*
D10*
X102000000Y-69250000D03*
D11*
X123630000Y-85670000D03*
D12*
X123630000Y-88210000D03*
X123630000Y-90750000D03*
X123630000Y-93290000D03*
X131250000Y-93290000D03*
X131250000Y-90750000D03*
X131250000Y-88210000D03*
X131250000Y-85670000D03*
D13*
X165750000Y-78250000D03*
D12*
X175910000Y-78250000D03*
D13*
X182750000Y-114920000D03*
D12*
X192910000Y-114920000D03*
D13*
X139580000Y-115250000D03*
D12*
X129420000Y-115250000D03*
D14*
X120500000Y-101800000D03*
X120500000Y-106680000D03*
D15*
X181275000Y-88450000D03*
D16*
X181275000Y-90990000D03*
X181275000Y-93530000D03*
X181275000Y-96070000D03*
D13*
X117500000Y-95250000D03*
X117500000Y-90250000D03*
D15*
X152000000Y-69500000D03*
D16*
X149460000Y-69500000D03*
X146920000Y-69500000D03*
D13*
X138150000Y-94500000D03*
D12*
X150850000Y-94500000D03*
D13*
X140750000Y-86500000D03*
X145750000Y-86500000D03*
D15*
X170000000Y-69500000D03*
D16*
X167460000Y-69500000D03*
X164920000Y-69500000D03*
X162380000Y-69500000D03*
X159840000Y-69500000D03*
D13*
X162790000Y-104250000D03*
X157790000Y-104250000D03*
D17*
X129750000Y-128000000D03*
D18*
X129750000Y-121500000D03*
D13*
X193250000Y-99090000D03*
D12*
X193250000Y-109250000D03*
D10*
X102500000Y-129250000D03*
D17*
X193750000Y-128000000D03*
D18*
X193750000Y-121500000D03*
D13*
X150170000Y-78000000D03*
D12*
X160330000Y-78000000D03*
D15*
X135000000Y-78750000D03*
D16*
X135000000Y-76210000D03*
X135000000Y-73670000D03*
X135000000Y-71130000D03*
X135000000Y-68590000D03*
D10*
X221500000Y-69250000D03*
D19*
X184750000Y-79000000D03*
D20*
X182210000Y-79000000D03*
D15*
X141460000Y-105750000D03*
D16*
X144000000Y-105750000D03*
X146540000Y-105750000D03*
D21*
X195000000Y-88749999D03*
D22*
X215490000Y-88749999D03*
D13*
X171000000Y-97500000D03*
X171000000Y-102500000D03*
D10*
X221250000Y-128500000D03*
D13*
X130000000Y-99420000D03*
D12*
X130000000Y-109580000D03*
D13*
X119000000Y-114250000D03*
X124000000Y-114250000D03*
D15*
X156950000Y-110500000D03*
D16*
X159490000Y-110500000D03*
X162030000Y-110500000D03*
X164570000Y-110500000D03*
M02*
