M48
; DRILL file {KiCad 8.0.8} date 2025-02-09T14:05:09-0500
; FORMAT={-:-/ absolute / metric / decimal}
; #@! TF.CreationDate,2025-02-09T14:05:09-05:00
; #@! TF.GenerationSoftware,Kicad,Pcbnew,8.0.8
; #@! TF.FileFunction,Plated,1,2,PTH
FMAT,2
METRIC
; #@! TA.AperFunction,Plated,PTH,ViaDrill
T1C0.300
; #@! TA.AperFunction,Plated,PTH,ComponentDrill
T2C0.800
; #@! TA.AperFunction,Plated,PTH,ComponentDrill
T3C0.900
; #@! TA.AperFunction,Plated,PTH,ComponentDrill
T4C1.000
; #@! TA.AperFunction,Plated,PTH,ComponentDrill
T5C1.300
; #@! TA.AperFunction,Plated,PTH,ComponentDrill
T6C1.500
%
G90
G05
T1
X139.25Y-80.5
X148.2Y-90.7
X151.5Y-85.25
X153.0Y-80.75
X153.0Y-91.25
X153.25Y-85.25
X153.75Y-89.75
X157.75Y-80.5
X158.25Y-86.25
X159.0Y-81.5
X159.0Y-92.25
X160.0Y-99.25
X160.25Y-97.0
X160.75Y-98.25
X161.0Y-87.75
X163.0Y-75.5
X164.0Y-72.75
X164.325Y-96.75
X164.5Y-90.0
X165.75Y-81.25
X169.5Y-91.0
X171.5Y-82.75
X174.75Y-96.5
X176.75Y-91.0
X177.25Y-96.0
X186.5Y-97.75
T2
X117.5Y-90.25
X117.5Y-95.25
X119.0Y-114.25
X120.5Y-101.8
X120.5Y-106.68
X123.63Y-85.67
X123.63Y-88.21
X123.63Y-90.75
X123.63Y-93.29
X124.0Y-114.25
X129.42Y-115.25
X130.0Y-99.42
X130.0Y-109.58
X131.25Y-85.67
X131.25Y-88.21
X131.25Y-90.75
X131.25Y-93.29
X138.15Y-94.5
X139.58Y-115.25
X140.75Y-86.5
X145.75Y-86.5
X150.17Y-78.0
X150.85Y-94.5
X157.79Y-104.25
X160.33Y-78.0
X162.79Y-104.25
X165.75Y-78.25
X171.0Y-97.5
X171.0Y-102.5
X175.91Y-78.25
X182.75Y-114.92
X192.91Y-114.92
X193.25Y-99.09
X193.25Y-109.25
T3
X182.21Y-79.0
X184.75Y-79.0
T4
X135.0Y-68.59
X135.0Y-71.13
X135.0Y-73.67
X135.0Y-76.21
X135.0Y-78.75
X141.46Y-105.75
X144.0Y-105.75
X146.54Y-105.75
X146.92Y-69.5
X149.46Y-69.5
X152.0Y-69.5
X156.95Y-110.5
X159.49Y-110.5
X159.84Y-69.5
X162.03Y-110.5
X162.38Y-69.5
X164.57Y-110.5
X164.92Y-69.5
X167.46Y-69.5
X170.0Y-69.5
X181.275Y-88.45
X181.275Y-90.99
X181.275Y-93.53
X181.275Y-96.07
T5
X129.75Y-121.5
X129.75Y-128.0
X193.75Y-121.5
X193.75Y-128.0
T6
X195.0Y-88.75
X215.49Y-88.75
M30
